<svg width="209" height="87" viewBox="0 0 209 87" fill="none" xmlns="http://www.w3.org/2000/svg">
<g clip-path="url(#clip0_302_333)">
<path d="M198.231 58.2798C197.938 58.2798 197.645 58.3528 197.389 58.4987C197.682 58.3893 198.011 58.3163 198.341 58.3163C198.304 58.2798 198.268 58.2798 198.231 58.2798Z" fill="white"/>
<path d="M77.908 54.0466C77.908 50.6162 80.069 49.3389 82.34 49.3389C84.794 49.3389 87.1749 50.7257 90.4714 58.1338H90.6912L90.2516 48.8645H90.0319L88.0906 50.4702C86.0394 49.3024 84.4644 48.8645 82.2667 48.8645C76.2963 48.8645 72.487 52.6233 72.487 57.258C72.487 68.5709 85.783 66.5273 85.783 75.2127C85.783 78.935 83.5853 80.5772 80.9847 80.5772C78.1277 80.5772 75.1975 78.862 72.3771 71.7823H72.1573L72.5969 81.0516H72.8167L74.7579 79.4459C77.1388 80.6502 78.7138 81.0516 81.0946 81.0516C87.2481 81.0516 91.4237 77.6577 91.4237 72.1107C91.3505 61.2357 77.908 62.367 77.908 54.0466Z" fill="white"/>
<path d="M112.192 78.2052V64.4837C112.192 59.9585 109.372 57.8054 103.768 57.8054C99.5188 57.8054 93.7315 58.4623 93.7315 62.0386C93.7315 63.6443 94.7205 64.6662 96.1856 64.6662C100.178 64.6662 99.1891 58.2433 102.559 58.2433C104.427 58.2433 105.013 59.5571 105.013 62.951V67.6951L98.4566 70.2861C95.4164 71.4904 93.2554 73.1326 93.2554 76.0521C93.2554 79.008 95.2699 81.0516 98.6763 81.0516C102.119 81.0516 103.878 78.4241 104.903 77.0009H104.976C105.123 79.7014 106.771 81.0516 109.372 81.0516C111.643 81.0516 113.291 80.2123 114.207 79.5189V79.3C113.877 79.4459 113.584 79.4824 113.254 79.4824C112.595 79.5189 112.192 79.1175 112.192 78.2052ZM105.013 76.5995C104.464 77.1469 103.987 77.6578 102.889 77.6578C101.314 77.6578 100.434 76.0886 100.434 73.6435C100.434 70.724 101.57 69.5198 103.475 68.7899L105.013 68.1695V76.5995Z" fill="white"/>
<path d="M124.059 78.7161V47.5508H123.986L115.195 49.339V49.5579C116.917 50.7987 116.917 51.565 116.917 54.521V78.7161C116.917 79.5919 116.88 79.8473 116.258 80.0663L115.232 80.4312V80.6502H125.854V80.4312L124.792 80.0663C124.169 79.8109 124.059 79.5919 124.059 78.7161Z" fill="white"/>
<path d="M135.927 52.4773H135.854L128.748 58.2797H127.026V59.5205H128.748V75.0302C128.748 79.1539 130.872 81.0515 134.755 81.0515C137.282 81.0515 139.407 80.0297 140.615 78.8619V78.643C139.81 78.9714 139.187 79.1539 138.051 79.1539C136.44 79.1539 135.89 78.1321 135.89 76.4534V59.5205H140.615V58.2797H135.89V52.4773H135.927Z" fill="white"/>
<path d="M160.101 78.2052V64.4837C160.101 59.9585 157.281 57.8054 151.677 57.8054C147.428 57.8054 141.641 58.4623 141.641 62.0386C141.641 63.6443 142.63 64.6662 144.095 64.6662C148.087 64.6662 147.098 58.2433 150.468 58.2433C152.336 58.2433 152.922 59.5571 152.922 62.951V67.6951L146.366 70.2861C143.325 71.4904 141.164 73.1326 141.164 76.0521C141.164 79.008 143.179 81.0516 146.585 81.0516C150.028 81.0516 151.787 78.4241 152.812 77.0009H152.885C153.032 79.7014 154.68 81.0516 157.281 81.0516C159.552 81.0516 161.2 80.2123 162.116 79.5189V79.3C161.786 79.4459 161.493 79.4824 161.163 79.4824C160.504 79.5189 160.101 79.1175 160.101 78.2052ZM152.922 76.5995C152.373 77.1469 151.896 77.6578 150.798 77.6578C149.223 77.6578 148.344 76.0886 148.344 73.6435C148.344 70.724 149.479 69.5198 151.384 68.7899L152.922 68.1695V76.5995Z" fill="white"/>
<path d="M184.496 75.2492V47.5508H184.422L175.595 49.339V49.5579C177.353 50.7987 177.353 51.565 177.353 54.521V58.3163C176.804 58.0973 176.035 57.8054 174.826 57.8054C169.368 57.8054 163.618 60.3964 163.618 69.9942C163.618 77.1833 166.218 81.0151 170.943 81.0151C174.35 81.0151 176.328 78.6431 177.28 77.2198H177.353L177.756 81.0151H177.829L186.217 78.862V78.6431L185.301 77.9862C184.532 77.4023 184.496 76.9279 184.496 75.2492ZM177.317 76.8184C176.511 77.5848 175.742 78.0957 174.569 78.0957C171.969 78.0957 170.943 75.9426 170.943 69.0088C170.943 60.6519 171.896 58.2433 174.936 58.2433C175.888 58.2433 176.547 58.3893 177.317 58.7542V76.8184Z" fill="white"/>
<path d="M198.488 57.8418C192.041 57.8418 187.975 62.5859 187.975 69.4467C187.975 76.3439 192.004 81.0515 198.488 81.0515C204.934 81.0515 209 76.3074 209 69.4467C209 62.5859 204.971 57.8418 198.488 57.8418ZM201.711 77.4387C201.711 78.8254 200.832 79.9567 199.623 80.4311C199.367 80.5771 199.11 80.6501 198.781 80.6501C198.744 80.6501 198.707 80.6501 198.671 80.6501C198.634 80.6501 198.561 80.6501 198.524 80.6501C196.766 80.6501 195.338 79.2269 195.338 77.4752V61.4911C195.338 60.1044 196.217 58.9731 197.425 58.4987C197.682 58.3527 197.938 58.2797 198.268 58.2797C198.304 58.2797 198.341 58.2797 198.378 58.2797C198.414 58.2797 198.488 58.2797 198.524 58.2797C200.282 58.2797 201.711 59.703 201.711 61.4546V77.4387Z" fill="white"/>
<path d="M110.397 38.5732C110.69 38.5732 110.983 38.5002 111.24 38.3542C110.947 38.4637 110.617 38.5367 110.287 38.5367C110.324 38.5367 110.361 38.5732 110.397 38.5732Z" fill="white"/>
<path d="M193.47 38.5732C193.763 38.5732 194.056 38.5002 194.312 38.3542C194.019 38.4637 193.69 38.5367 193.36 38.5367C193.397 38.5367 193.433 38.5732 193.47 38.5732Z" fill="white"/>
<path d="M97.1378 22.9178C97.1378 12.9552 92.3396 7.26221 83.9884 7.26221H72.0842V7.48117L73.1098 7.8461C73.7325 8.10155 73.7691 8.28402 73.7691 9.15986V36.6393C73.7691 37.5151 73.7325 37.6976 73.1098 37.9896L72.0842 38.3545V38.5735H84.0982C92.6692 38.5735 97.1378 32.8805 97.1378 22.9178ZM80.9849 36.8218V7.73662H83.9884C88.2372 7.73662 89.7756 13.4661 89.7756 23.7207C89.7756 33.7928 88.2372 38.099 84.1349 38.099H81.6808C80.9482 38.099 80.9849 37.6611 80.9849 36.8218Z" fill="white"/>
<path d="M110.104 39.0115C116.551 39.0115 120.616 34.2673 120.616 27.4066C120.616 20.5094 116.587 15.8017 110.104 15.8017C103.658 15.7652 99.6284 20.5094 99.6284 27.3701C99.6284 34.2673 103.658 39.0115 110.104 39.0115ZM106.917 19.3781C106.917 17.9913 107.796 16.86 109.005 16.3856C109.262 16.2396 109.518 16.1667 109.848 16.1667C109.884 16.1667 109.921 16.1667 109.958 16.1667C109.994 16.1667 110.067 16.1667 110.104 16.1667C111.862 16.1667 113.291 17.5899 113.291 19.3416V35.3256C113.291 36.7124 112.412 37.8437 111.203 38.3181C110.947 38.4641 110.69 38.537 110.36 38.537C110.324 38.537 110.287 38.537 110.251 38.537C110.214 38.537 110.141 38.537 110.104 38.537C108.346 38.537 106.917 37.1138 106.917 35.3621V19.3781Z" fill="white"/>
<path d="M145.707 18.1374C147.428 19.4147 147.428 20.1446 147.428 23.1005V36.6395C147.428 37.5154 147.392 37.7708 146.769 37.9898L145.743 38.3547V38.5737H156.365V38.3182L155.303 37.9533C154.717 37.7343 154.644 37.5154 154.644 36.6031V20.2905C155.377 19.6337 156.256 19.0498 157.428 19.0498C159.039 19.0498 159.809 20.0351 159.809 22.0057V36.676C159.809 37.5519 159.735 37.7343 159.149 38.0263L158.087 38.3912V38.6102H168.709V38.3182L167.684 37.9533C167.061 37.7343 167.024 37.5154 167.024 36.6031V21.8963C167.024 21.3489 166.988 20.8744 166.878 20.4365C167.647 19.6337 168.709 19.0498 169.735 19.0498C171.346 19.0498 172.116 20.0351 172.116 22.0057V36.676C172.116 37.5519 172.079 37.7343 171.456 38.0263L170.394 38.3912V38.6102H181.016V38.3182L179.991 37.9533C179.368 37.7343 179.331 37.5154 179.331 36.6031V21.8963C179.331 18.101 177.61 15.7654 173.874 15.7654C170.504 15.7654 168.563 17.736 166.914 20.1081C166.365 17.4441 164.717 15.7654 161.53 15.7654C158.087 15.7654 156.292 17.882 154.79 19.8891H154.571L154.168 15.7654H154.095L145.707 17.9185V18.1374Z" fill="white"/>
<path d="M193.213 39.0115C199.66 39.0115 203.726 34.2674 203.726 27.4066C203.726 20.5094 199.697 15.8018 193.213 15.8018C186.767 15.8018 182.701 20.5459 182.701 27.4066C182.701 34.2674 186.73 39.0115 193.213 39.0115ZM190.027 19.3781C190.027 17.9914 190.906 16.8601 192.115 16.3857C192.371 16.2397 192.627 16.1667 192.957 16.1667C192.994 16.1667 193.03 16.1667 193.067 16.1667C193.103 16.1667 193.177 16.1667 193.213 16.1667C194.972 16.1667 196.4 17.5899 196.4 19.3416V35.3257C196.4 36.7124 195.521 37.8437 194.312 38.3181C194.056 38.4641 193.799 38.5371 193.47 38.5371C193.433 38.5371 193.397 38.5371 193.36 38.5371C193.323 38.5371 193.25 38.5371 193.213 38.5371C191.455 38.5371 190.027 37.1138 190.027 35.3622V19.3781Z" fill="white"/>
<path d="M133.326 15.7654C130.066 15.7654 127.429 16.9697 125.598 19.0498H141.018C139.223 16.9697 136.549 15.7654 133.326 15.7654Z" fill="white"/>
<path d="M143.802 27.3702C143.802 34.2675 139.773 38.9751 133.29 38.9751C126.843 38.9751 122.777 34.231 122.777 27.3702C122.777 25.3266 123.144 23.4289 123.839 21.8232H130.103V35.3987C130.103 37.1504 131.531 38.5737 133.29 38.5737C135.048 38.5737 136.476 37.1504 136.476 35.3987V21.8597H142.74C143.436 23.4654 143.802 25.3266 143.802 27.3702Z" fill="white"/>
<path d="M11.1352 32.5883C11.1352 32.5883 11.3916 35.5808 14.9446 36.3472C16.4463 36.6756 17.9847 35.7268 18.2777 35.3983C18.5708 35.0699 20.1091 33.8291 18.6074 30.1433C17.1056 26.4575 17.1789 22.2972 17.1789 22.2607C17.1789 22.2243 17.2155 17.7356 19.0103 14.5972C19.2301 14.2322 19.5597 14.3052 19.7062 14.3782C19.8527 14.4512 20.1091 14.5607 19.9993 15.1081C19.8161 17.5896 18.8272 21.6039 21.794 28.5741C24.6144 35.1794 21.6109 37.5149 20.219 38.6097C18.4609 40.033 14.2853 40.7993 11.5015 37.9164C8.71779 35.0334 10.2928 32.2599 10.2928 32.2599C10.4393 32.1139 11.0254 32.0045 11.1352 32.5883Z" fill="#FF0613"/>
<path d="M10.1829 44.6678C10.1829 44.6678 17.7283 50.0323 24.5778 45.945C31.4272 41.8578 30.072 34.5591 29.2662 30.8733C28.4237 27.1875 24.5411 15.2542 26.5923 8.64889C28.6435 2.0436 35.8959 0.364912 36.9947 0.0729655C38.0935 -0.218981 38.3133 0.474392 38.3133 0.474392C38.3133 0.474392 38.6063 1.05828 37.5441 1.4962C35.2732 2.66399 27.7278 5.25501 29.5958 15.0717C31.4639 24.8884 39.4122 39.2303 29.8156 47.8062C20.219 56.3821 11.0986 49.1199 8.86431 47.5507C6.63 45.945 3.58986 41.6023 3.58986 41.6023C3.58986 41.6023 3.1137 40.909 3.58986 40.5075C4.10266 40.1061 4.83522 40.836 4.83522 40.836C4.83522 40.836 8.31489 43.6824 10.1829 44.6678Z" fill="#FF0613"/>
<path d="M0.952461 52.2216C0.439667 51.8932 -0.329523 52.3676 0.18327 53.207C0.18327 53.207 3.77283 58.681 15.2008 62.9507C26.6288 67.2569 37.5806 63.0966 43.3678 52.5866C49.1551 42.0765 42.7451 27.2967 40.694 20.6914C39.4852 16.2758 39.2655 14.7795 39.8881 12.9914C40.2178 12.1155 40.3643 11.8601 39.998 11.5681C39.5951 11.3127 39.3021 11.5316 38.8626 12.079C35.7125 16.3122 39.0091 25.0341 39.8515 30.7271C41.2068 38.1352 43.0382 48.7548 34.4672 55.6155C30.5846 58.7174 25.5666 60.1407 20.6218 59.6663C15.4206 59.1919 8.75425 57.0753 0.952461 52.2216Z" fill="#FF0613"/>
<path d="M8.97385 68.571C8.97385 68.571 30.6943 78.6066 44.5031 64.2648C54.6491 53.5357 51.1694 35.727 50.8764 34.0118C50.62 32.2966 49.7409 28.6838 50.6566 28.3554C51.4258 28.0634 51.7921 29.1217 52.3415 30.5085C52.8543 31.8222 63.2933 57.0756 44.8694 70.7241C28.8629 82.6209 10.2558 72.4028 7.25232 70.6146C3.95579 68.8629 1.75811 67.4397 2.30753 66.4179C2.82032 65.396 3.88254 66.3449 8.97385 68.571Z" fill="#FF0613"/>
<path d="M20.329 82.3652C20.329 82.3652 33.1122 85.978 46.3349 77.913C52.7815 73.6798 56.8472 67.8408 56.8472 67.8408C57.4332 67.038 57.8361 66.3081 58.4954 66.6001C59.1548 66.892 58.935 67.7679 58.642 68.5342C57.8361 70.5778 54.1733 81.4163 40.4378 85.6861C31.1709 88.3501 24.5412 86.6349 18.9737 83.4965C18.0214 82.9856 18.4243 82.4382 18.4243 82.4382C18.4243 82.4382 18.7173 81.8908 20.329 82.3652Z" fill="#FF0613"/>
</g>
<defs>
<clipPath id="clip0_302_333">
<rect width="209" height="87" fill="white"/>
</clipPath>
</defs>
</svg>
