<svg width="161" height="239" viewBox="0 0 161 239" fill="none" xmlns="http://www.w3.org/2000/svg">
<path d="M30.3617 89.2967C30.3617 89.2967 31.0617 97.4967 40.7617 99.5967C44.8617 100.497 49.0617 97.8967 49.8617 96.9967C50.6617 96.0967 54.8617 92.6967 50.7617 82.5967C46.6617 72.4967 46.8617 61.0967 46.8617 60.9967C46.8617 60.8967 46.9617 48.5967 51.8617 39.9967C52.4617 38.9967 53.3617 39.1967 53.7617 39.3967C54.1617 39.5967 54.8617 39.8967 54.5617 41.3967C54.0617 48.1967 51.3617 59.1967 59.4617 78.2967C67.1617 96.3967 58.9617 102.797 55.1617 105.797C50.3617 109.697 38.9617 111.797 31.3617 103.897C23.7617 95.9967 28.0617 88.3967 28.0617 88.3967C28.4617 87.8967 30.1617 87.6967 30.3617 89.2967Z" fill="#FF0613"/>
<path d="M27.7617 122.297C27.7617 122.297 48.3617 136.997 67.0617 125.797C85.7617 114.597 82.0617 94.5966 79.8617 84.4966C77.6617 74.3966 67.0617 41.6966 72.5617 23.6966C78.0617 5.6966 97.9617 0.996598 100.962 0.196597C104.062 -0.603402 104.562 1.2966 104.562 1.2966C104.562 1.2966 105.362 2.8966 102.462 4.0966C96.2617 7.2966 75.6617 14.3966 80.7617 41.2966C85.8617 68.1966 107.562 107.497 81.3617 130.997C55.1617 154.497 30.2617 134.597 24.1617 130.297C18.0617 125.897 9.76168 113.997 9.76168 113.997C9.76168 113.997 8.46168 112.097 9.76168 110.997C11.1617 109.897 13.1617 111.897 13.1617 111.897C13.1617 111.897 22.7617 119.697 27.7617 122.297Z" fill="#FF0613"/>
<path d="M2.56169 143.097C1.16169 142.197 -0.938304 143.497 0.461696 145.797C0.461696 145.797 10.2617 160.797 41.4617 172.497C72.6617 184.297 102.562 172.897 118.362 144.097C134.162 115.297 116.662 74.7965 111.062 56.6965C107.762 44.5965 107.162 40.4965 108.862 35.5965C109.762 33.1965 110.162 32.4965 109.162 31.6965C108.162 30.8965 107.262 31.5965 106.062 33.0965C97.4617 44.6965 106.462 68.5965 108.762 84.1965C112.462 104.497 117.462 133.597 94.0617 152.397C83.4617 160.897 69.7617 164.797 56.2617 163.497C42.1617 162.197 23.8617 156.297 2.56169 143.097Z" fill="#FF0613"/>
<path d="M24.5617 187.797C24.5617 187.797 83.8617 215.297 121.562 175.997C149.262 146.597 139.762 97.7966 138.962 93.0966C138.262 88.3966 135.862 78.4966 138.362 77.5966C140.462 76.7966 141.462 79.6966 142.962 83.4966C144.362 87.0966 172.862 156.297 122.562 193.697C78.8617 226.297 28.0617 198.297 19.8617 193.397C10.8617 188.597 4.86167 184.697 6.36167 181.897C7.76167 179.197 10.6617 181.697 24.5617 187.797Z" fill="#FF0613"/>
<path d="M55.5617 225.697C55.5617 225.697 90.4617 235.597 126.562 213.497C144.162 201.897 155.262 185.897 155.262 185.897C156.862 183.697 157.962 181.697 159.762 182.497C161.562 183.297 160.962 185.697 160.162 187.797C157.962 193.397 147.962 223.097 110.462 234.797C85.1617 242.097 67.0617 237.397 51.8617 228.797C49.2617 227.397 50.3617 225.897 50.3617 225.897C50.3617 225.897 51.1617 224.397 55.5617 225.697Z" fill="#FF0613"/>
</svg>
