<svg width="328" height="264" viewBox="0 0 328 264" fill="none" xmlns="http://www.w3.org/2000/svg">
<path d="M200.035 173.222C198.441 173.222 196.847 172.425 195.822 171.059C194.228 168.782 194.798 165.594 197.188 164L320.032 79.6375C322.309 78.0436 325.497 78.6128 327.091 81.0037C328.685 83.2807 328.116 86.4685 325.725 88.0624L202.881 172.425C202.084 172.994 201.059 173.222 200.035 173.222Z" fill="#FF0613"/>
<path d="M200.035 173.222C198.897 173.222 197.758 172.881 196.847 172.084C194.684 170.376 194.229 167.074 196.05 164.911L288.269 49.5812C289.976 47.4181 293.278 46.9627 295.441 48.7843C297.604 50.492 298.06 53.7937 296.238 55.9568L204.02 171.287C202.995 172.653 201.515 173.222 200.035 173.222Z" fill="#FF0613"/>
<path d="M76.5074 78.4988C76.5074 78.4988 77.0766 85.6714 85.6154 87.493C89.2586 88.2899 92.9017 86.0129 93.5848 85.216C94.2679 84.419 97.9111 81.4589 94.3817 72.5786C90.7385 63.6983 90.9662 53.6796 90.9662 53.5657C90.9662 53.4519 90.9663 42.6361 95.4064 35.122C95.9757 34.3251 96.7726 34.4389 97.1142 34.6666C97.4557 34.7805 98.0249 35.122 97.7972 36.3744C97.3418 42.4084 95.0649 51.9718 102.124 68.8216C108.841 84.7606 101.668 90.3392 98.3665 93.0716C94.154 96.4871 84.1352 98.3087 77.4181 91.3639C70.7009 84.419 74.5718 77.7019 74.5718 77.7019C74.9134 77.3603 76.2797 77.1326 76.5074 78.4988Z" fill="#FF0613"/>
<path d="M74.2303 107.644C74.2303 107.644 92.3324 120.509 108.841 110.718C125.349 100.927 122.047 83.2806 120.112 74.4003C118.176 65.52 108.841 36.8298 113.736 20.8909C118.632 4.95187 136.051 0.853283 138.783 0.170184C141.516 -0.512915 141.971 1.08098 141.971 1.08098C141.971 1.08098 142.654 2.44718 140.149 3.58568C134.685 6.43193 116.582 12.6937 121.023 36.2606C125.463 59.8275 144.59 94.4379 121.592 115.159C98.5942 135.879 76.7349 118.346 71.2701 114.475C65.9192 110.605 58.6328 100.13 58.6328 100.13C58.6328 100.13 57.4943 98.4226 58.6328 97.5118C59.8852 96.4872 61.7069 98.3088 61.7069 98.3088C61.7069 98.3088 69.7902 105.254 74.2303 107.644Z" fill="#FF0613"/>
<path d="M52.0297 125.86C50.7774 125.064 48.9557 126.202 50.208 128.251C50.208 128.251 58.8607 141.458 86.2985 151.818C113.736 162.179 140.036 152.16 153.925 126.885C167.815 101.61 152.445 65.9754 147.55 50.0365C144.703 39.4484 144.134 35.8052 145.614 31.4789C146.411 29.4296 146.753 28.7465 145.842 28.0634C144.931 27.3803 144.134 27.9496 143.11 29.3158C135.595 39.5623 143.451 60.5106 145.5 74.2865C148.688 92.1609 153.128 117.663 132.635 134.285C123.3 141.799 111.345 145.215 99.3912 144.076C86.8677 142.596 70.8149 137.473 52.0297 125.86Z" fill="#FF0613"/>
<path d="M71.3841 165.252C71.3841 165.252 123.527 189.389 156.658 154.892C181.021 129.048 172.597 86.1268 172.027 81.9144C171.458 77.7019 169.295 69.1632 171.458 68.2524C173.28 67.5693 174.19 70.074 175.443 73.4895C176.695 76.6773 201.742 137.473 157.568 170.376C119.087 199.066 74.458 174.36 67.1716 170.148C59.2021 165.936 53.965 162.52 55.2174 160.015C56.5836 157.625 59.2022 159.902 71.3841 165.252Z" fill="#FF0613"/>
<path d="M98.708 198.497C98.708 198.497 129.447 207.263 161.211 187.795C176.695 177.662 186.486 163.545 186.486 163.545C187.852 161.609 188.877 159.902 190.471 160.585C192.065 161.268 191.496 163.431 190.812 165.252C188.877 170.148 179.997 196.333 147.094 206.58C124.893 212.956 108.954 208.857 95.634 201.343C93.357 200.091 94.2678 198.838 94.2678 198.838C94.2678 198.838 94.7233 197.358 98.708 198.497Z" fill="#FF0613"/>
<path d="M0 158.307C8.08334 191.893 26.527 218.648 53.3956 235.725V263.049H186.6L187.966 235.725C214.835 218.648 233.278 191.893 241.362 158.307H0Z" fill="white"/>
</svg>
