<svg width="20" height="35" viewBox="0 0 20 35" fill="none" xmlns="http://www.w3.org/2000/svg">
<path d="M10 21.25C9.14062 21.25 8.30078 21.1523 7.5 20.957V33.75C7.5 34.4336 8.06641 35 8.75 35H11.25C11.9336 35 12.5 34.4336 12.5 33.75V20.957C11.6992 21.1523 10.8594 21.25 10 21.25ZM10 0C4.47266 0 0 4.47266 0 10C0 15.5273 4.47266 20 10 20C15.5273 20 20 15.5273 20 10C20 4.47266 15.5273 0 10 0ZM10 4.375C6.89453 4.375 4.375 6.89453 4.375 10C4.375 10.3516 4.10156 10.625 3.75 10.625C3.39844 10.625 3.125 10.3516 3.125 10C3.125 6.21094 6.21094 3.125 10 3.125C10.3516 3.125 10.625 3.39844 10.625 3.75C10.625 4.10156 10.3516 4.375 10 4.375Z" fill="#FF0613"/>
</svg>
