<svg width="28" height="17" viewBox="0 0 28 17" fill="none" xmlns="http://www.w3.org/2000/svg">
<g opacity="0.9" clip-path="url(#clip0_302_530)">
<path d="M26.7274 17H1.27258C0.572578 17 0 16.4111 0 15.6919V1.30752C0 0.588299 0.572578 0 1.27258 0H26.7269C27.4274 0 28 0.588299 28 1.30752V15.6919C28 16.4111 27.4274 17 26.7274 17Z" fill="#0E9347"/>
<path d="M24.1817 15.692H3.81825C3.81825 14.2536 2.67254 13.0764 1.27254 13.0764V3.92322C2.67254 3.92322 3.81825 2.74606 3.81825 1.30762H24.1817C24.1817 2.74606 25.3274 3.92322 26.7274 3.92322V13.077C25.3274 13.077 24.1817 14.2536 24.1817 15.692Z" fill="#3BB54A"/>
<path d="M14 14.3843C16.8116 14.3843 19.0909 11.7497 19.0909 8.49967C19.0909 5.24965 16.8116 2.61499 14 2.61499C11.1884 2.61499 8.90916 5.24965 8.90916 8.49967C8.90916 11.7497 11.1884 14.3843 14 14.3843Z" fill="#0E9347"/>
<path d="M6.36346 9.80718C7.06628 9.80718 7.63604 9.22178 7.63604 8.49966C7.63604 7.77754 7.06628 7.19214 6.36346 7.19214C5.66063 7.19214 5.09088 7.77754 5.09088 8.49966C5.09088 9.22178 5.66063 9.80718 6.36346 9.80718Z" fill="#0E9347"/>
<path d="M21.6366 9.80718C22.3394 9.80718 22.9092 9.22178 22.9092 8.49966C22.9092 7.77754 22.3394 7.19214 21.6366 7.19214C20.9338 7.19214 20.364 7.77754 20.364 8.49966C20.364 9.22178 20.9338 9.80718 21.6366 9.80718Z" fill="#0E9347"/>
<path d="M14.6366 7.84613H13.364C12.9823 7.84613 12.7274 7.58485 12.7274 7.19209C12.7274 6.79989 12.9817 6.53805 13.364 6.53805H15.2731C15.6549 6.53805 15.9097 6.27677 15.9097 5.88401C15.9097 5.49181 15.6554 5.22997 15.2731 5.22997H14.6366C14.6366 4.83777 14.3823 4.57593 14 4.57593C13.6183 4.57593 13.3635 4.83721 13.3635 5.22997C12.2817 5.22997 11.4543 6.08011 11.4543 7.19153C11.4543 8.30295 12.2817 9.15309 13.3635 9.15309H14.636C15.0177 9.15309 15.2726 9.41437 15.2726 9.80713C15.2726 10.1993 15.0183 10.4612 14.636 10.4612H12.7269C12.3452 10.4612 12.0903 10.7225 12.0903 11.1152C12.0903 11.5074 12.3446 11.7693 12.7269 11.7693H13.3635C13.3635 12.1615 13.6177 12.4233 14 12.4233C14.3817 12.4233 14.6366 12.162 14.6366 11.7693C15.7183 11.7693 16.5457 10.9191 16.5457 9.80769C16.5457 8.69627 15.7183 7.84613 14.6366 7.84613Z" fill="#89C763"/>
</g>
<defs>
<clipPath id="clip0_302_530">
<rect width="28" height="17" fill="white"/>
</clipPath>
</defs>
</svg>
