<svg width="121" height="50" viewBox="0 0 121 50" fill="none" xmlns="http://www.w3.org/2000/svg">
<g clip-path="url(#clip0_302_697)">
<path d="M114.765 33.4941C114.596 33.4941 114.426 33.5361 114.277 33.62C114.447 33.5571 114.638 33.5151 114.829 33.5151C114.808 33.4941 114.786 33.4941 114.765 33.4941Z" fill="white"/>
<path d="M45.1046 31.061C45.1046 29.0895 46.3557 28.3554 47.6705 28.3554C49.0913 28.3554 50.4696 29.1524 52.3781 33.4099H52.5054L52.2509 28.0828H52.1237L50.9998 29.0056C49.8122 28.3344 48.9004 28.0828 47.6281 28.0828C44.1715 28.0828 41.9661 30.243 41.9661 32.9066C41.9661 39.4083 49.6638 38.2338 49.6638 43.2254C49.6638 45.3646 48.3915 46.3084 46.8859 46.3084C45.2318 46.3084 43.5353 45.3227 41.9025 41.2539H41.7753L42.0297 46.5811H42.157L43.2809 45.6583C44.6593 46.3504 45.5711 46.5811 46.9495 46.5811C50.512 46.5811 52.9295 44.6306 52.9295 41.4427C52.8871 35.1927 45.1046 35.8428 45.1046 31.061Z" fill="white"/>
<path d="M64.9535 44.9452V37.0593C64.9535 34.4586 63.3206 33.2212 60.0762 33.2212C57.6163 33.2212 54.2658 33.5987 54.2658 35.6541C54.2658 36.5769 54.8383 37.1641 55.6866 37.1641C57.998 37.1641 57.4254 33.4729 59.3764 33.4729C60.4579 33.4729 60.7972 34.2279 60.7972 36.1784V38.9049L57.0013 40.394C55.2412 41.0861 53.9901 42.0299 53.9901 43.7078C53.9901 45.4066 55.1564 46.5811 57.1286 46.5811C59.1219 46.5811 60.1398 45.071 60.7335 44.2531H60.776C60.8608 45.8051 61.815 46.5811 63.3206 46.5811C64.6354 46.5811 65.5897 46.0987 66.1198 45.7002V45.5744C65.9289 45.6583 65.7593 45.6792 65.5685 45.6792C65.1867 45.7002 64.9535 45.4695 64.9535 44.9452ZM60.7972 44.0224C60.4791 44.337 60.2034 44.6306 59.5672 44.6306C58.6554 44.6306 58.1464 43.7287 58.1464 42.3235C58.1464 40.6457 58.8038 39.9536 59.9065 39.5341L60.7972 39.1776V44.0224Z" fill="white"/>
<path d="M71.8238 45.239V27.3279H71.7813L66.692 28.3556V28.4814C67.6886 29.1945 67.6886 29.6349 67.6886 31.3338V45.239C67.6886 45.7423 67.6674 45.8891 67.3069 46.015L66.7132 46.2247V46.3505H72.8628V46.2247L72.2479 46.015C71.8874 45.8682 71.8238 45.7423 71.8238 45.239Z" fill="white"/>
<path d="M78.6945 30.1592H78.6521L74.5382 33.4939H73.5415V34.207H74.5382V43.1206C74.5382 45.4906 75.7681 46.5812 78.0159 46.5812C79.4791 46.5812 80.7091 45.9939 81.4088 45.3228V45.1969C80.9423 45.3857 80.5818 45.4906 79.9244 45.4906C78.9914 45.4906 78.6733 44.9033 78.6733 43.9385V34.207H81.4088V33.4939H78.6733V30.1592H78.6945Z" fill="white"/>
<path d="M92.6901 44.9452V37.0593C92.6901 34.4586 91.0573 33.2212 87.8128 33.2212C85.3529 33.2212 82.0024 33.5987 82.0024 35.6541C82.0024 36.5769 82.575 37.1641 83.4232 37.1641C85.7346 37.1641 85.1621 33.4729 87.113 33.4729C88.1945 33.4729 88.5338 34.2279 88.5338 36.1784V38.9049L84.738 40.394C82.9779 41.0861 81.7267 42.0299 81.7267 43.7078C81.7267 45.4066 82.8931 46.5811 84.8652 46.5811C86.8585 46.5811 87.8764 45.071 88.4702 44.2531H88.5126C88.5974 45.8051 89.5517 46.5811 91.0573 46.5811C92.372 46.5811 93.3263 46.0987 93.8565 45.7002V45.5744C93.6656 45.6583 93.496 45.6792 93.3051 45.6792C92.9234 45.7002 92.6901 45.4695 92.6901 44.9452ZM88.5338 44.0224C88.2157 44.337 87.94 44.6306 87.3039 44.6306C86.392 44.6306 85.8831 43.7287 85.8831 42.3235C85.8831 40.6457 86.5405 39.9536 87.6432 39.5341L88.5338 39.1776V44.0224Z" fill="white"/>
<path d="M106.813 43.2465V27.3279H106.771L101.66 28.3556V28.4814C102.678 29.1945 102.678 29.6349 102.678 31.3338V33.515C102.36 33.3891 101.915 33.2213 101.215 33.2213C98.0554 33.2213 94.7261 34.7104 94.7261 40.2264C94.7261 44.3581 96.2317 46.5603 98.9672 46.5603C100.939 46.5603 102.084 45.197 102.636 44.3791H102.678L102.911 46.5603H102.954L107.81 45.3228V45.197L107.28 44.8195C106.835 44.4839 106.813 44.2113 106.813 43.2465ZM102.657 44.1483C102.191 44.5888 101.745 44.8824 101.067 44.8824C99.561 44.8824 98.9672 43.645 98.9672 39.6601C98.9672 34.8572 99.5186 33.473 101.279 33.473C101.83 33.473 102.212 33.5569 102.657 33.7666V44.1483Z" fill="white"/>
<path d="M114.914 33.2422C111.182 33.2422 108.828 35.9687 108.828 39.9117C108.828 43.8756 111.16 46.5811 114.914 46.5811C118.646 46.5811 121 43.8546 121 39.9117C121 35.9687 118.667 33.2422 114.914 33.2422ZM116.78 44.5048C116.78 45.3018 116.271 45.9519 115.571 46.2246C115.423 46.3085 115.274 46.3504 115.083 46.3504C115.062 46.3504 115.041 46.3504 115.02 46.3504C114.999 46.3504 114.956 46.3504 114.935 46.3504C113.917 46.3504 113.09 45.5325 113.09 44.5257V35.3395C113.09 34.5425 113.599 33.8924 114.299 33.6197C114.447 33.5358 114.596 33.4939 114.787 33.4939C114.808 33.4939 114.829 33.4939 114.85 33.4939C114.871 33.4939 114.914 33.4939 114.935 33.4939C115.953 33.4939 116.78 34.3118 116.78 35.3185V44.5048Z" fill="white"/>
<path d="M63.9143 22.1686C64.0839 22.1686 64.2536 22.1266 64.402 22.0427C64.2324 22.1056 64.0415 22.1476 63.8506 22.1476C63.8719 22.1476 63.8931 22.1686 63.9143 22.1686Z" fill="white"/>
<path d="M112.009 22.1686C112.179 22.1686 112.348 22.1266 112.497 22.0427C112.327 22.1056 112.136 22.1476 111.945 22.1476C111.967 22.1476 111.988 22.1686 112.009 22.1686Z" fill="white"/>
<path d="M56.2378 13.1711C56.2378 7.4454 53.4598 4.17358 48.6249 4.17358H41.733V4.29942L42.3268 4.50915C42.6873 4.65597 42.7085 4.76083 42.7085 5.26419V21.057C42.7085 21.5603 42.6873 21.6652 42.3268 21.833L41.733 22.0427V22.1686H48.6885C53.6507 22.1686 56.2378 18.8967 56.2378 13.1711ZM46.886 21.1618V4.44624H48.6249C51.0848 4.44624 51.9754 7.73902 51.9754 13.6325C51.9754 19.4211 51.0848 21.8959 48.7097 21.8959H47.2889C46.8648 21.8959 46.886 21.6442 46.886 21.1618Z" fill="white"/>
<path d="M63.7447 22.4203C67.4769 22.4203 69.8307 19.6938 69.8307 15.7509C69.8307 11.787 67.4981 9.08142 63.7447 9.08142C60.0124 9.06045 57.6798 11.787 57.6798 15.7299C57.6798 19.6938 60.0124 22.4203 63.7447 22.4203ZM61.8998 11.1368C61.8998 10.3398 62.4087 9.68964 63.1085 9.41699C63.2569 9.3331 63.4054 9.29115 63.5962 9.29115C63.6174 9.29115 63.6386 9.29115 63.6598 9.29115C63.681 9.29115 63.7234 9.29115 63.7447 9.29115C64.7625 9.29115 65.5895 10.1091 65.5895 11.1158V20.3021C65.5895 21.099 65.0806 21.7492 64.3808 22.0219C64.2324 22.1058 64.0839 22.1477 63.8931 22.1477C63.8719 22.1477 63.8507 22.1477 63.8295 22.1477C63.8083 22.1477 63.7659 22.1477 63.7447 22.1477C62.7268 22.1477 61.8998 21.3297 61.8998 20.323V11.1368Z" fill="white"/>
<path d="M84.3568 10.4236C85.3534 11.1576 85.3534 11.5771 85.3534 13.2759V21.0569C85.3534 21.5603 85.3322 21.7071 84.9717 21.833L84.378 22.0427V22.1685H90.5276V22.0217L89.9127 21.812C89.5734 21.6861 89.531 21.5603 89.531 21.036V11.661C89.9551 11.2835 90.464 10.9479 91.1426 10.9479C92.0756 10.9479 92.521 11.5142 92.521 12.6467V21.0779C92.521 21.5813 92.4786 21.6861 92.1393 21.8539L91.5243 22.0637V22.1895H97.674V22.0217L97.0802 21.812C96.7197 21.6861 96.6985 21.5603 96.6985 21.036V12.5838C96.6985 12.2692 96.6773 11.9965 96.6137 11.7449C97.059 11.2835 97.674 10.9479 98.2677 10.9479C99.2008 10.9479 99.6461 11.5142 99.6461 12.6467V21.0779C99.6461 21.5813 99.6249 21.6861 99.2644 21.8539L98.6494 22.0637V22.1895H104.799V22.0217L104.205 21.812C103.845 21.6861 103.824 21.5603 103.824 21.036V12.5838C103.824 10.4026 102.827 9.0603 100.664 9.0603C98.713 9.0603 97.5891 10.1929 96.6349 11.5561C96.3168 10.0251 95.3625 9.0603 93.5176 9.0603C91.5243 9.0603 90.4852 10.2767 89.6158 11.4303H89.4885L89.2553 9.0603H89.2129L84.3568 10.2977V10.4236Z" fill="white"/>
<path d="M111.86 22.4202C115.593 22.4202 117.946 19.6937 117.946 15.7508C117.946 11.7868 115.614 9.0813 111.86 9.0813C108.128 9.0813 105.774 11.8078 105.774 15.7508C105.774 19.6937 108.107 22.4202 111.86 22.4202ZM110.015 11.1367C110.015 10.3397 110.524 9.68952 111.224 9.41687C111.373 9.33298 111.521 9.29103 111.712 9.29103C111.733 9.29103 111.754 9.29103 111.776 9.29103C111.797 9.29103 111.839 9.29103 111.86 9.29103C112.878 9.29103 113.705 10.109 113.705 11.1157V20.3019C113.705 21.0989 113.196 21.7491 112.497 22.0217C112.348 22.1056 112.2 22.1476 112.009 22.1476C111.988 22.1476 111.966 22.1476 111.945 22.1476C111.924 22.1476 111.882 22.1476 111.86 22.1476C110.842 22.1476 110.015 21.3296 110.015 20.3229V11.1367Z" fill="white"/>
<path d="M77.1888 9.0603C75.3015 9.0603 73.7746 9.75242 72.7144 10.9479H81.642C80.6029 9.75242 79.0549 9.0603 77.1888 9.0603Z" fill="white"/>
<path d="M83.2538 15.7297C83.2538 19.6936 80.9211 22.3991 77.1677 22.3991C73.4355 22.3991 71.0817 19.6726 71.0817 15.7297C71.0817 14.5552 71.2937 13.4646 71.6966 12.5417H75.3228V20.3438C75.3228 21.3505 76.1498 22.1684 77.1677 22.1684C78.1856 22.1684 79.0126 21.3505 79.0126 20.3438V12.5627H82.6388C83.0417 13.4855 83.2538 14.5552 83.2538 15.7297Z" fill="white"/>
<path d="M6.44649 18.7291C6.44649 18.7291 6.59493 20.4489 8.65189 20.8893C9.52132 21.0781 10.412 20.5328 10.5816 20.344C10.7513 20.1553 11.6419 19.4422 10.7725 17.3239C9.90303 15.2056 9.94544 12.8147 9.94544 12.7937C9.94544 12.7727 9.96664 10.193 11.0057 8.38934C11.133 8.1796 11.3238 8.22155 11.4086 8.2635C11.4935 8.30544 11.6419 8.36836 11.5783 8.68296C11.4723 10.1091 10.8997 12.4162 12.6174 16.4221C14.2502 20.2182 12.5113 21.5605 11.7055 22.1897C10.6876 23.0076 8.27018 23.4481 6.65855 21.7912C5.04691 20.1343 5.95876 18.5403 5.95876 18.5403C6.04358 18.4564 6.38287 18.3935 6.44649 18.7291Z" fill="#FF0613"/>
<path d="M5.89531 25.6712C5.89531 25.6712 10.2637 28.7542 14.2292 26.4052C18.1946 24.0562 17.41 19.8616 16.9435 17.7433C16.4558 15.625 14.208 8.7668 15.3955 4.97066C16.583 1.17452 20.7817 0.20975 21.4179 0.0419651C22.0541 -0.12582 22.1813 0.27267 22.1813 0.27267C22.1813 0.27267 22.351 0.60824 21.736 0.859918C20.4212 1.53106 16.0529 3.02015 17.1344 8.66193C18.2158 14.3037 22.8175 22.5462 17.2616 27.4749C11.7057 32.4035 6.42545 28.2299 5.1319 27.328C3.83835 26.4052 2.07827 23.9094 2.07827 23.9094C2.07827 23.9094 1.8026 23.5109 2.07827 23.2802C2.37515 23.0495 2.79927 23.469 2.79927 23.469C2.79927 23.469 4.81381 25.1049 5.89531 25.6712Z" fill="#FF0613"/>
<path d="M0.551283 30.0125C0.254403 29.8238 -0.190918 30.0964 0.105963 30.5788C0.105963 30.5788 2.18413 33.7248 8.80032 36.1786C15.4165 38.6535 21.757 36.2625 25.1075 30.2223C28.458 24.182 24.747 15.6879 23.5595 11.8917C22.8597 9.35398 22.7325 8.49408 23.093 7.46639C23.2838 6.96304 23.3687 6.81623 23.1566 6.64844C22.9233 6.50163 22.7537 6.62747 22.4992 6.94206C20.6755 9.37495 22.5841 14.3875 23.0718 17.6593C23.8564 21.9169 24.9167 28.0201 19.9545 31.963C17.7067 33.7458 14.8015 34.5637 11.9388 34.2911C8.92755 34.0184 5.06811 32.802 0.551283 30.0125Z" fill="#FF0613"/>
<path d="M5.19527 39.4087C5.19527 39.4087 17.7703 45.1763 25.7649 36.9339C31.6388 30.7678 29.6243 20.5329 29.4547 19.5471C29.3062 18.5614 28.7973 16.4851 29.3274 16.2963C29.7727 16.1285 29.9848 16.7367 30.3029 17.5337C30.5998 18.2888 36.6434 32.8022 25.9769 40.6461C16.71 47.4834 5.93747 41.6109 4.1986 40.5832C2.29008 39.5765 1.01774 38.7586 1.33582 38.1713C1.6327 37.5841 2.24767 38.1294 5.19527 39.4087Z" fill="#FF0613"/>
<path d="M11.7694 47.3364C11.7694 47.3364 19.1702 49.4128 26.8255 44.7777C30.5577 42.3448 32.9115 38.9891 32.9115 38.9891C33.2508 38.5277 33.4841 38.1082 33.8658 38.276C34.2475 38.4438 34.1202 38.9471 33.9506 39.3876C33.4841 40.5621 31.3635 46.7911 23.4113 49.245C18.0463 50.776 14.208 49.7903 10.9848 47.9866C10.4334 47.693 10.6667 47.3784 10.6667 47.3784C10.6667 47.3784 10.8363 47.0638 11.7694 47.3364Z" fill="#FF0613"/>
</g>
<defs>
<clipPath id="clip0_302_697">
<rect width="121" height="50" fill="white"/>
</clipPath>
</defs>
</svg>
