<svg width="435" height="195" viewBox="0 0 435 195" fill="none" xmlns="http://www.w3.org/2000/svg">
<path d="M-21.1171 90.1631L-20.1532 90.9205C-19.8089 91.1959 -19.4647 91.4024 -19.1204 91.6778C-18.4319 92.1598 -17.7434 92.6417 -17.0549 93.1237C-16.3664 93.6057 -15.6779 94.0876 -14.9205 94.5007C-14.232 94.9827 -13.5434 95.3958 -12.7861 95.8777C-12.0975 96.2908 -11.3402 96.7728 -10.6517 97.1859C-9.96317 97.599 -9.20582 98.0121 -8.51731 98.4252C-7.75995 98.8383 -7.07147 99.1826 -6.3141 99.5269C-5.55674 99.8711 -4.86818 100.215 -4.11082 100.56C-1.15021 101.868 1.87924 102.832 4.83984 103.451C6.35457 103.727 7.80046 103.933 9.24633 103.933C10.6922 103.933 12.1381 103.865 13.5151 103.658C14.8921 103.451 16.2691 103.107 17.5773 102.556C18.2658 102.281 18.8854 102.006 19.5051 101.73C20.1248 101.455 20.7445 101.11 21.3641 100.697C21.9838 100.353 22.6034 99.94 23.1542 99.5269C23.4297 99.3203 23.705 99.1138 23.9804 98.9072C24.1181 98.7695 24.2559 98.7007 24.3936 98.563L24.7379 98.2187C25.7018 97.3236 26.528 96.3597 27.2165 95.2581C28.5935 93.0549 29.4886 90.3008 29.9705 87.3402C30.4525 84.3796 30.5213 81.1436 30.3836 77.9076C30.2459 74.6716 29.9706 71.2979 29.5574 67.9242C29.2132 64.5505 28.7312 61.1079 28.3181 57.6653C27.905 54.2228 27.4919 50.7114 27.2165 47.2C27.0788 45.4098 27.0099 43.6885 26.9411 41.8984C26.9411 41.0034 26.8722 40.1083 26.8722 39.2132C26.8722 38.3181 26.8722 37.4231 26.8722 36.528C27.0099 32.9478 27.2853 29.2298 28.0427 25.6495C28.3869 23.8594 28.8689 22.0004 29.4885 20.2791C30.1082 18.489 30.8656 16.7677 31.7607 15.1153C32.6557 13.4629 33.6885 11.8793 34.7901 10.3646C35.9606 8.9187 37.1999 7.54166 38.6458 6.30233C41.3998 3.82369 44.4982 1.89587 47.803 0.381147C48.4915 0.036891 49.3866 0.381147 49.662 1.06966C49.9374 1.68932 49.7308 2.44667 49.1111 2.85977C47.7341 3.75484 46.3571 4.71875 45.1178 5.82037C43.8785 6.92199 42.6392 8.02362 41.6064 9.19409C40.5048 10.4334 39.5408 11.6727 38.7146 13.0497C37.8884 14.4268 37.1311 15.8038 36.5114 17.3185C35.8917 18.7644 35.4097 20.2791 34.9966 21.8627C34.7901 22.6201 34.6524 23.4463 34.5147 24.2036C34.377 24.961 34.2393 25.7872 34.1016 26.6134C33.6885 29.8494 33.6196 33.0855 33.7574 36.3903C33.8262 37.2165 33.8262 38.0427 33.895 38.8689C33.9639 39.6952 34.0328 40.5214 34.1016 41.3476C34.2393 43 34.4458 44.7213 34.6524 46.3737C35.0655 49.7475 35.6163 53.1212 36.236 56.4949C36.7868 59.8686 37.3376 63.3111 37.8196 66.8226C38.3015 70.334 38.7835 73.8454 38.99 77.4256C39.1277 79.2158 39.1277 81.0747 39.1277 82.9337C39.0588 84.7927 38.99 86.6517 38.7146 88.5795C38.4392 90.5074 38.0261 92.4352 37.4064 94.363C36.7868 96.2909 35.8917 98.1498 34.7901 99.94C33.6885 101.73 32.3114 103.383 30.7967 104.828L30.177 105.379L29.5574 105.861C29.1443 106.205 28.7312 106.481 28.3181 106.756C27.4919 107.307 26.6657 107.858 25.8395 108.34C25.0132 108.822 24.1182 109.304 23.1542 109.717C22.2592 110.13 21.2953 110.474 20.3314 110.818C18.4035 111.438 16.4069 111.92 14.4102 112.127C12.4135 112.333 10.4168 112.333 8.42007 112.127C7.45615 112.058 6.49227 111.851 5.52835 111.714C4.56444 111.507 3.60054 111.3 2.70547 111.025C-1.0125 109.923 -4.38622 108.34 -7.55338 106.412C-10.7205 104.484 -13.5434 102.212 -16.1598 99.8023C-16.8483 99.1826 -17.468 98.5629 -18.0876 97.9433C-18.7073 97.3236 -19.3269 96.6351 -19.9466 96.0154C-20.5663 95.3269 -21.1171 94.7073 -21.6679 93.9499C-21.9433 93.6057 -22.2187 93.2614 -22.4941 92.9171C-22.7695 92.5729 -23.0449 92.2287 -23.3203 91.8155C-23.7334 91.1959 -23.5957 90.4385 -22.9761 90.0254C-22.4941 89.6811 -21.8745 89.75 -21.4614 90.0254L-21.1171 90.1631Z" fill="#E52526"/>
<path d="M-26.0058 111.095L-24.973 111.715C-24.6287 111.922 -24.2156 112.128 -23.8714 112.335C-23.114 112.748 -22.3566 113.161 -21.5993 113.574C-20.0845 114.4 -18.501 115.158 -16.9863 115.846C-13.888 117.292 -10.6519 118.531 -7.48476 119.564C-1.01275 121.63 5.59698 122.8 12.069 122.525C13.6526 122.456 15.305 122.318 16.8886 122.112C18.4722 121.905 20.0557 121.561 21.5704 121.148C21.9835 121.01 22.3278 120.941 22.7409 120.803L23.9114 120.459L25.013 120.046L26.1147 119.633C27.6294 119.082 29.0752 118.394 30.5211 117.774C30.8653 117.567 31.2785 117.43 31.6228 117.223C31.967 117.017 32.3113 116.879 32.7244 116.672C33.0686 116.466 33.4817 116.328 33.826 116.122C34.1702 115.915 34.5833 115.777 34.9276 115.571L35.4784 115.295C35.685 115.226 35.8226 115.089 36.0292 115.02L37.0619 114.4L38.0947 113.712C38.439 113.505 38.7832 113.23 39.0586 113.023C41.675 111.164 44.0848 108.823 45.8749 106.069C46.77 104.692 47.5962 103.246 48.2159 101.732L48.4913 101.181L48.6978 100.63C48.8355 100.217 48.9732 99.8727 49.1109 99.4596C49.2486 99.0465 49.3864 98.7022 49.5241 98.2891C49.6618 97.876 49.7306 97.4629 49.8683 97.1186C50.7634 93.8826 51.1765 90.5089 51.3142 87.1352C51.383 83.7615 51.1076 80.3189 50.6257 76.9452C50.3503 75.2239 50.0748 73.5715 49.7306 71.9191C49.3863 70.2667 48.9733 68.6142 48.4913 66.9618C48.2847 66.1356 48.0093 65.3094 47.8028 64.4832C47.5962 63.6569 47.3208 62.8307 47.0454 62.0734C46.9077 61.6603 46.77 61.2472 46.6323 60.834L46.4258 60.2144L46.288 59.8701L46.1503 59.5259C45.8749 58.6308 45.5995 57.8046 45.393 56.9095C44.3602 53.3981 43.4651 49.8179 42.9143 46.031C42.3635 42.3131 42.1569 38.3886 42.57 34.464C42.9831 30.6084 43.9471 26.7527 45.5995 23.3101C46.1503 22.0708 47.5962 21.5889 48.8356 22.1397C49.7306 22.5528 50.2814 23.5167 50.2126 24.4806V24.5495C50.0749 26.2707 49.9372 27.992 49.9372 29.6445C49.8683 31.2969 49.9371 32.9493 50.006 34.6017C50.2125 37.9066 50.6945 41.1426 51.383 44.4475C51.7273 46.0999 52.1404 47.7523 52.5535 49.4047C52.9666 51.0572 53.4485 52.7785 53.8616 54.4309L54.5502 56.9784L54.619 57.2538L54.6879 57.5292L54.8944 58.2177C55.0321 58.6308 55.1698 59.1128 55.3075 59.5947C55.7895 61.3849 56.2714 63.2439 56.6157 65.1028C57.3731 68.7519 57.7862 72.5387 57.9927 76.2567C58.1993 80.0435 58.1304 83.7615 57.7173 87.5483C57.3042 91.3351 56.6157 95.0531 55.5141 98.7022C55.3764 99.1842 55.2387 99.5973 55.101 100.079C54.9633 100.561 54.8255 100.974 54.619 101.456L54.3437 102.145C54.2748 102.351 54.1371 102.558 54.0682 102.833L53.7928 103.522L53.5174 104.21C52.76 106 51.865 107.722 50.9699 109.374L50.6257 109.994L50.2814 110.613L49.9372 111.233L49.5241 111.853L49.1109 112.472L48.6978 113.092L48.2847 113.712L47.8716 114.331C46.7011 115.915 45.5307 117.499 44.1536 118.944C42.8455 120.39 41.3996 121.767 39.816 123.007C38.3013 124.246 36.7177 125.348 34.9964 126.38C33.2751 127.413 31.485 128.239 29.6261 128.997C27.7671 129.754 25.8392 130.305 23.9114 130.787C23.4294 130.925 22.9475 130.993 22.4655 131.131C21.9836 131.269 21.5016 131.338 21.0197 131.407L20.2623 131.544L19.5049 131.682L18.7475 131.82C18.4721 131.82 18.2656 131.889 17.9902 131.889C15.9935 132.095 14.0657 132.233 12.069 132.233C8.14448 132.233 4.21993 131.682 0.501963 130.856C-3.28485 129.961 -6.86507 128.721 -10.3765 127.275C-11.2715 126.931 -12.0978 126.518 -12.924 126.105C-13.7502 125.692 -14.5764 125.279 -15.4026 124.797C-17.0551 123.902 -18.7075 122.938 -20.2222 121.974C-21.8058 120.941 -23.3205 119.908 -24.8352 118.738C-25.5926 118.187 -26.2812 117.567 -27.0385 117.017C-27.3828 116.741 -27.727 116.397 -28.1401 116.122C-28.3467 115.984 -28.4844 115.777 -28.691 115.64L-29.2417 115.158C-30.2056 114.263 -30.2745 112.748 -29.3106 111.784C-28.5532 110.958 -27.2451 110.82 -26.35 111.371L-26.0058 111.095Z" fill="#E52526"/>
<path d="M-22.9766 133.195C-22.6323 133.332 -22.2192 133.47 -21.8061 133.608L-20.6356 134.021C-19.8094 134.296 -19.052 134.572 -18.2258 134.778C-16.6423 135.26 -14.9898 135.742 -13.3374 136.224C-11.685 136.637 -10.1014 137.119 -8.44899 137.464C-6.79656 137.877 -5.14408 138.221 -3.49166 138.496C-0.186798 139.185 3.11799 139.667 6.42285 140.011C9.72771 140.355 13.0326 140.631 16.3374 140.631C19.6423 140.631 22.8784 140.424 26.1144 140.011C29.3504 139.529 32.4487 138.841 35.4781 137.808C38.5076 136.775 41.3993 135.467 44.0157 133.746C44.7042 133.332 45.3238 132.851 45.9435 132.437C46.5631 131.955 47.1828 131.473 47.8713 130.992C49.1106 129.959 50.3499 128.926 51.5204 127.824C52.6909 126.723 53.7925 125.552 54.8941 124.313C55.9269 123.074 56.9597 121.834 57.9236 120.526C58.8875 119.218 59.7137 117.841 60.54 116.464C61.3662 115.087 62.1235 113.641 62.812 112.195C64.189 109.303 65.3595 106.205 66.1857 103.038C66.3234 102.625 66.3923 102.281 66.53 101.867L66.6676 101.248L66.8054 100.628C66.8742 100.215 67.012 99.8019 67.0808 99.4577C67.1497 99.0446 67.2873 98.6314 67.3562 98.2872C67.7004 96.7036 67.9758 95.0512 68.2513 93.3988C69.1463 86.8579 69.4218 80.1105 69.1464 73.4319C68.8709 66.6845 68.1824 59.9371 67.2873 53.1896C67.2185 52.4323 67.7005 51.7438 68.4578 51.6749C69.0775 51.6061 69.6971 51.9503 69.9037 52.57L69.9725 52.7077L70.3856 53.947L70.7987 55.1863C71.0741 56.0126 71.3496 56.8388 71.5561 57.665C72.0381 59.3174 72.5201 61.0387 72.9332 62.6911L73.2774 63.9305C73.4151 64.3436 73.4839 64.7566 73.5528 65.2386C73.7593 66.0648 73.9659 66.9599 74.1036 67.7861C74.4479 69.5074 74.7921 71.2287 75.0675 72.9499C76.1692 79.9039 76.7199 87.0645 76.1691 94.3627C76.0314 96.1528 75.8249 98.0118 75.5495 99.8019C75.4806 100.284 75.4118 100.697 75.343 101.179C75.2741 101.661 75.2052 102.074 75.1364 102.556L74.9987 103.244L74.861 103.933C74.7921 104.415 74.6544 104.828 74.5855 105.31C74.1724 107.1 73.6905 108.959 73.1397 110.749C72.5889 112.539 71.9003 114.33 71.143 116.051C70.3856 117.772 69.5594 119.493 68.6643 121.215C67.7693 122.867 66.7365 124.52 65.6349 126.103C64.5333 127.687 63.3628 129.201 62.1235 130.647C60.8842 132.093 59.576 133.47 58.199 134.847C56.822 136.155 55.3761 137.464 53.9302 138.634C53.1728 139.185 52.4844 139.804 51.6581 140.355C50.8319 140.906 50.0057 141.457 49.1795 142.008C48.3533 142.559 47.4582 143.04 46.632 143.522C45.7369 144.004 44.8418 144.418 43.9468 144.831C42.1566 145.657 40.2976 146.345 38.4387 146.896C36.5797 147.447 34.7207 147.929 32.8617 148.273C31.8978 148.48 31.0028 148.617 30.0388 148.755C29.5569 148.824 29.0749 148.893 28.6618 148.962C28.1799 149.031 27.6979 149.031 27.2848 149.099C25.4258 149.237 23.5668 149.375 21.7079 149.375C21.2259 149.375 20.8128 149.375 20.3308 149.375C19.8489 149.375 19.4358 149.375 18.9538 149.306C18.0588 149.237 17.0948 149.237 16.1998 149.168C8.90154 148.617 1.80989 147.103 -4.86868 144.831C-6.52111 144.28 -8.24244 143.66 -9.82602 143.04C-10.6522 142.696 -11.4784 142.352 -12.3046 142.008C-13.1309 141.663 -13.8882 141.319 -14.7144 140.906C-15.5406 140.562 -16.298 140.149 -17.1242 139.804C-17.8816 139.391 -18.7078 138.978 -19.4652 138.565C-20.2225 138.152 -20.9799 137.739 -21.7372 137.257L-22.9077 136.568C-23.3209 136.362 -23.6651 136.086 -24.0093 135.811L-24.147 135.742C-24.8355 135.329 -24.9733 134.434 -24.5602 133.746C-24.2848 133.195 -23.5962 132.988 -22.9766 133.195Z" fill="#E52526"/>
<path d="M-11.7535 153.643L-10.6519 153.919L-9.48143 154.263L-7.14047 154.883C-5.55689 155.296 -4.04213 155.64 -2.45856 155.984C-0.874978 156.329 0.639699 156.604 2.22328 156.948C2.98064 157.086 3.80687 157.224 4.56423 157.361C5.3216 157.499 6.14783 157.637 6.90519 157.706C13.1707 158.532 19.4361 158.807 25.5639 158.394C27.0786 158.256 28.6621 158.119 30.1769 157.912C30.59 157.843 30.9343 157.774 31.2785 157.774C31.6916 157.706 32.0359 157.637 32.3801 157.568C32.7244 157.499 33.1375 157.43 33.4817 157.361C33.826 157.293 34.2391 157.224 34.5833 157.155C36.0981 156.879 37.544 156.466 38.9898 156.053C40.4357 155.64 41.8816 155.227 43.3963 154.814C46.2881 153.919 49.2487 152.955 52.0716 151.716C53.5174 151.096 54.8945 150.407 56.2715 149.65C57.6485 148.893 58.9567 147.998 60.196 147.103C60.8157 146.621 61.4353 146.139 62.055 145.657C62.6747 145.175 63.2254 144.624 63.8451 144.073C65.0156 143.04 66.1172 141.87 67.15 140.699C69.2155 138.358 71.1433 135.88 72.7958 133.195C73.622 131.886 74.3794 130.509 75.1367 129.132C75.8941 127.755 76.5138 126.309 77.1334 124.932C77.7531 123.487 78.3039 122.041 78.8547 120.595C79.4055 119.149 79.8875 117.634 80.3006 116.12C81.1956 113.159 81.8841 110.129 82.5038 107.031C82.7792 105.516 83.0546 103.933 83.33 102.418C83.6054 100.903 83.7432 99.3198 83.9497 97.7362C84.3628 94.6379 84.6382 91.4708 84.8447 88.3036C84.9824 86.72 85.0513 85.1365 85.1201 83.5529L85.3267 78.8022V78.6645C85.3956 77.4251 86.4283 76.4612 87.6676 76.5301C88.6315 76.5989 89.3889 77.2186 89.6643 78.0448L89.8021 78.3891L89.8709 78.7333C89.9398 78.9399 90.0086 79.1464 90.0774 79.353C90.2151 79.7661 90.284 80.1792 90.4217 80.5923C90.6282 81.4185 90.8348 82.2447 90.9725 83.0709C91.3168 84.7234 91.5233 86.4447 91.661 88.166C92.0053 91.5397 92.0052 94.9822 91.7987 98.4248C91.5921 101.867 91.1102 105.241 90.3528 108.615C89.6643 111.988 88.7004 115.293 87.4611 118.529C85.0513 125.001 81.6776 131.06 77.6153 136.568C75.6187 139.322 73.3466 141.939 71.0057 144.417L70.1105 145.312L69.6975 145.794L69.2155 146.208L68.3204 147.103L67.3565 147.998C66.7368 148.617 66.1172 149.168 65.4287 149.719L63.5009 151.371C62.8123 151.922 62.1927 152.473 61.5731 153.024C60.9534 153.575 60.2649 154.125 59.5764 154.676C58.1993 155.709 56.8223 156.811 55.4453 157.843C53.9994 158.876 52.5535 159.771 51.0388 160.666C49.5241 161.561 47.9405 162.319 46.2881 163.007C44.6356 163.696 42.9832 164.246 41.3308 164.728C39.6095 165.21 37.9571 165.555 36.2358 165.899C35.8227 165.968 35.3407 166.037 34.9276 166.105C34.5145 166.174 34.0325 166.243 33.6194 166.312C33.2063 166.381 32.7244 166.45 32.3113 166.519C31.8982 166.587 31.4162 166.656 31.0031 166.656C29.2818 166.863 27.5606 166.932 25.7704 167.001C18.8165 167.207 11.9313 166.381 5.32158 164.797C2.01672 164.04 -1.21927 163.007 -4.38642 161.837C-5.97 161.217 -7.55361 160.597 -9.06834 159.909C-9.8257 159.565 -10.583 159.22 -11.3404 158.876L-12.442 158.325C-12.6485 158.256 -12.8551 158.119 -12.9928 158.05L-13.6125 157.706C-14.7141 157.155 -15.1272 155.778 -14.5075 154.676C-14.0256 153.712 -12.924 153.299 -11.9601 153.575L-11.7535 153.643Z" fill="#E52526"/>
<path d="M32.3801 177.742H32.7932C32.9309 177.742 33.1374 177.742 33.2751 177.742L33.826 177.673C34.0325 177.673 34.1702 177.604 34.3768 177.604L34.6521 177.535L34.9276 177.466L35.4784 177.398C35.8915 177.329 36.2357 177.26 36.6488 177.191C38.2324 176.847 39.816 176.434 41.3996 175.952C41.8127 175.814 42.1569 175.745 42.57 175.607L43.7405 175.194C44.4979 174.919 45.3241 174.643 46.0815 174.368C46.4946 174.23 46.8388 174.093 47.2519 173.886C47.665 173.748 48.0093 173.611 48.4224 173.404L49.5929 172.922C50.006 172.784 50.3502 172.578 50.6945 172.44C51.0388 172.303 51.4518 172.096 51.7961 171.958L52.8977 171.407L53.9994 170.857L54.5502 170.581L55.101 170.306L56.2026 169.755L57.3042 169.135C58.0616 168.722 58.7501 168.309 59.4386 167.896C60.1271 167.483 60.8845 167.07 61.573 166.657L62.6058 165.968L63.1566 165.624L63.6386 165.28C64.3271 164.798 65.0155 164.385 65.6352 163.903C65.9794 163.696 66.3237 163.421 66.6679 163.214L67.6319 162.457C68.9401 161.493 70.2482 160.46 71.4875 159.427C72.1072 158.877 72.7269 158.395 73.3466 157.844L75.1367 156.191C75.6875 155.641 76.3072 155.09 76.858 154.47L78.5792 152.749L79.4054 151.854C79.6808 151.578 79.9563 151.303 80.2317 150.959C80.7825 150.339 81.3333 149.788 81.8841 149.169L83.5365 147.378L84.3628 146.483C84.6382 146.208 84.9135 145.864 85.1889 145.588C85.7398 144.969 86.2906 144.349 86.7726 143.729L88.3561 141.801C90.4216 139.185 92.2806 136.431 93.7265 133.402C93.9331 133.057 94.1396 132.644 94.2774 132.3L94.7593 131.13L95.2412 129.959C95.3789 129.546 95.5167 129.202 95.7232 128.789L96.2051 127.618L96.4117 127.067L96.6182 126.448C96.8936 125.621 97.1691 124.864 97.3757 124.038C98.3396 120.871 99.0969 117.566 99.6477 114.261L99.992 111.782C100.061 110.956 100.199 110.13 100.267 109.304C100.336 108.891 100.336 108.477 100.405 108.064L100.474 106.825L100.543 105.586C100.543 105.173 100.612 104.76 100.612 104.346L100.68 101.868C100.68 101.661 100.68 101.455 100.68 101.248V100.628V99.3891C100.749 97.7367 100.68 96.0154 100.612 94.363C100.612 93.9499 100.612 93.5367 100.543 93.1236L100.474 91.8843L100.405 90.645V90.0253L100.336 89.4057L100.199 86.927C100.13 86.1008 100.061 85.2746 99.992 84.4484C99.9231 83.6222 99.8543 82.796 99.7854 81.9698L99.51 79.4911C99.3723 77.8387 99.1657 76.1174 98.9592 74.465C98.8215 72.8125 98.5461 71.0913 98.4084 69.4388L98.3395 68.8192C98.3395 68.6126 98.2707 68.4061 98.2707 68.1995L98.133 66.9602C97.9953 66.134 97.9264 65.3078 97.8576 64.4127C97.651 62.7603 97.4444 61.039 97.3067 59.3177C97.1002 57.5964 96.8937 55.944 96.8248 54.1539V54.085C96.756 52.8457 97.7199 51.8129 98.9592 51.7441C99.9231 51.6752 100.749 52.2261 101.162 53.0523C101.851 54.7047 102.471 56.2883 103.09 57.9407C103.641 59.5931 104.192 61.3144 104.674 62.9668C104.88 63.793 105.156 64.6881 105.362 65.5143L105.707 66.8225C105.775 67.0291 105.844 67.2356 105.844 67.4421L105.982 68.0618C106.189 68.9569 106.326 69.7831 106.533 70.6782L106.808 71.9863C106.877 72.3995 106.946 72.8814 107.015 73.2945C107.29 75.0158 107.566 76.8059 107.772 78.5272L108.048 81.1435C108.116 82.0386 108.185 82.9337 108.254 83.8287C108.392 85.6189 108.392 87.3401 108.461 89.1303V89.8188V90.5073V91.8155C108.461 92.7105 108.461 93.6056 108.392 94.5007C108.323 96.2908 108.254 98.0809 108.048 99.8022L107.91 101.11L107.841 101.799C107.841 102.005 107.772 102.212 107.772 102.487L107.428 105.104C107.359 105.517 107.29 105.999 107.221 106.412L107.015 107.72L106.808 109.028C106.739 109.441 106.671 109.923 106.533 110.336L105.982 112.953L105.362 115.569C104.536 119.012 103.572 122.454 102.471 125.828C101.92 127.48 101.3 129.202 100.68 130.854C100.543 131.267 100.336 131.68 100.199 132.093L99.7165 133.333L99.2346 134.572C99.0969 134.985 98.8903 135.398 98.6838 135.811C97.3067 139.116 95.8609 142.421 94.2084 145.657L92.9003 148.067C92.4872 148.824 92.0053 149.65 91.5233 150.408C91.0413 151.165 90.5593 151.923 90.0774 152.68C89.802 153.093 89.5266 153.437 89.32 153.782L88.4938 154.883C88.2184 155.227 87.943 155.572 87.6676 155.985L86.7726 157.018C86.1529 157.706 85.5332 158.395 84.9135 159.083C84.2939 159.772 83.6054 160.391 82.9857 161.011C82.2972 161.631 81.6775 162.25 80.989 162.87C80.3005 163.49 79.612 164.109 78.9235 164.66C78.235 165.211 77.5465 165.831 76.7891 166.381C75.3433 167.483 73.8974 168.585 72.3826 169.617C69.3532 171.683 66.2549 173.473 63.0189 175.125C62.1927 175.539 61.3665 175.952 60.5403 176.296L59.3009 176.847L58.0615 177.398L57.442 177.673L56.8223 177.948L55.5829 178.43C54.7567 178.706 53.8617 179.05 53.0355 179.325C52.6224 179.463 52.2092 179.601 51.7273 179.738L50.4191 180.152C50.006 180.289 49.524 180.427 49.1109 180.496C48.6978 180.634 48.2159 180.771 47.8028 180.84C46.0815 181.322 44.2913 181.666 42.5012 181.942C40.7111 182.217 38.9209 182.424 37.0619 182.561C36.58 182.561 36.098 182.561 35.6849 182.63H34.9964H34.6521H34.3079C33.344 182.561 32.38 182.493 31.2096 182.217C30.0391 181.873 29.3506 180.702 29.6949 179.532C29.9703 178.568 30.8653 177.879 31.8293 177.879L32.3801 177.742Z" fill="#E52526"/>
<path d="M-5.28157 73.3624C-5.21272 73.4312 -5.21267 73.5001 -5.14382 73.5689L-5.00615 73.8443L-4.66189 74.3262C-4.45534 74.6705 -4.24878 75.0148 -3.97338 75.359C-3.49142 76.0475 -3.07831 76.6672 -2.59635 77.3557C-1.63244 78.6639 -0.668504 79.8344 0.433115 80.936C0.983925 81.4868 1.46592 81.9687 2.01673 82.3818C2.56754 82.795 3.11829 83.1392 3.60025 83.4146C3.87566 83.5523 4.15105 83.69 4.3576 83.7589C4.63301 83.8277 4.83963 83.8966 5.11503 83.9654C5.25273 83.9654 5.32158 84.0343 5.45929 84.0343C5.59699 84.0343 5.66584 84.0343 5.80354 84.0343C6.0101 84.0343 6.2855 84.0343 6.49205 84.0343C6.97401 83.9654 7.38712 83.8277 7.86908 83.6212L8.07558 83.5523L8.28217 83.4835C8.41987 83.4146 8.55757 83.3458 8.62642 83.2769L8.69526 83.2081L8.76409 83.1392C8.83294 83.1392 8.833 83.0704 8.90185 83.0704C8.9707 83.0704 8.97066 83.0015 9.03952 83.0015C9.10837 83.0015 9.10833 82.9326 9.17719 82.9326C9.65914 82.5884 10.0723 82.2441 10.4854 81.8999C10.8985 81.5556 11.3116 81.1425 11.6559 80.5917C12.0002 80.1098 12.3444 79.4901 12.6887 78.8705C12.9641 78.1819 13.1706 77.4934 13.3083 76.736C13.446 75.9787 13.5148 75.1525 13.5148 74.3951C13.5148 73.982 13.5149 73.5689 13.446 73.1558C13.446 72.7427 13.3772 72.3296 13.3772 71.9165C13.1018 68.6116 12.3444 65.3067 11.6559 61.933C11.3116 60.2118 10.9674 58.5594 10.692 56.8381L10.4854 55.5299L10.3477 54.2217C10.2789 53.3266 10.1411 52.5004 10.0723 51.6054C9.93458 49.8152 9.8657 48.0251 9.8657 46.235C9.93455 44.376 10.1411 42.517 10.5542 40.658C10.9673 38.7991 11.587 37.0089 12.4821 35.2876C13.3083 33.5663 14.4099 32.0516 15.6492 30.6746C16.3377 29.9173 17.5082 29.8484 18.2656 30.5369C18.8164 31.0189 19.0229 31.7762 18.7475 32.4647V32.5336C18.1967 34.1171 17.7148 35.6319 17.3705 37.1466C17.0262 38.6613 16.7509 40.1761 16.6131 41.6908C16.5443 42.0351 16.5443 42.4481 16.5443 42.8612V43.4121V43.9629C16.5443 44.7203 16.5443 45.5464 16.5443 46.3038C16.5443 47.8874 16.682 49.471 16.7508 51.1234L16.9574 53.6021L17.0262 54.8414L17.0951 56.0807C17.1639 57.7331 17.2328 59.4544 17.3017 61.1757C17.3705 62.897 17.4394 64.6182 17.5082 66.3395C17.5771 68.0608 17.7147 69.7821 17.7836 71.5722L17.8525 72.8804C17.8525 73.2935 17.8525 73.7755 17.9213 74.2574C17.9213 75.1525 17.9902 76.0475 17.9902 77.0115C17.9902 77.9754 17.9902 78.9393 17.9213 79.9721C17.8525 81.0048 17.7147 82.0376 17.4393 83.1392C17.3016 83.69 17.0951 84.2408 16.8886 84.7228C16.6132 85.2736 16.3377 85.7555 16.0623 86.2375C15.4426 87.2014 14.6165 88.0965 13.7214 88.785C13.6526 88.8539 13.446 88.9916 13.3772 89.0604C13.2395 89.1293 13.1017 89.267 12.964 89.3358C12.8263 89.4047 12.6886 89.4735 12.5509 89.5424L12.3444 89.6801L12.1378 89.7489C11.8624 89.8866 11.6559 90.0243 11.3805 90.0932L10.9674 90.2997L10.5542 90.4374C10.0034 90.644 9.45259 90.8505 8.83293 90.9882C8.21327 91.1259 7.59364 91.1948 6.97398 91.1948C5.73466 91.2636 4.42647 91.0571 3.256 90.7128C2.08553 90.3686 1.05278 89.8178 0.0888596 89.1981C-0.393099 88.9227 -0.806223 88.5785 -1.21933 88.2342C-1.63244 87.8899 -1.97666 87.5457 -2.38977 87.1326C-3.07828 86.3752 -3.76683 85.6178 -4.31764 84.8605C-5.41925 83.2769 -6.31432 81.6245 -7.07168 79.9032C-7.41594 79.077 -7.76021 78.1819 -8.03562 77.3557C-8.17332 76.9426 -8.31101 76.4606 -8.44871 76.0475L-8.58638 75.359C-8.58638 75.2213 -8.65521 75.1525 -8.65521 75.0148L-8.72413 74.6705C-8.93068 73.7066 -8.31102 72.7427 -7.34711 72.5361C-6.65859 72.3984 -5.90118 72.6738 -5.48807 73.2246L-5.28157 73.3624Z" fill="#E52526"/>
<path d="M78.4418 179.808L79.4746 178.982C79.8188 178.707 80.1631 178.431 80.5073 178.156C81.1958 177.605 81.8843 176.986 82.5039 176.366C83.8121 175.195 85.1203 173.956 86.4285 172.648C88.976 170.1 91.3858 167.484 93.6579 164.73C98.2021 159.222 102.264 153.301 105.638 147.035C106.464 145.452 107.29 143.868 108.048 142.285C108.392 141.458 108.805 140.701 109.149 139.875C109.356 139.462 109.494 139.049 109.7 138.635L110.251 137.396C110.94 135.744 111.559 134.091 112.179 132.439C112.799 130.786 113.349 129.134 113.969 127.413C115.139 124.039 116.31 120.665 117.274 117.223C118.307 113.78 119.064 110.2 119.477 106.62C119.615 105.725 119.684 104.829 119.753 103.934C119.821 103.039 119.89 102.144 119.89 101.249C119.89 100.767 119.89 100.354 119.959 99.8722V98.4952C119.959 97.6001 119.959 96.6362 119.959 95.7412C119.959 92.092 119.753 88.4429 119.408 84.7938C118.789 77.4956 117.48 70.335 115.897 63.3122C115.484 61.5221 115.071 59.8008 114.589 58.0795C114.176 56.3583 113.625 54.637 113.143 52.9157C112.11 49.4731 111.008 46.0994 109.769 42.7257C108.53 39.352 107.222 36.116 105.707 32.88C104.949 31.2964 104.192 29.644 103.366 28.0604C102.953 27.303 102.54 26.4768 102.127 25.7195C101.92 25.3064 101.713 24.9621 101.507 24.549L101.163 23.9982L101.025 23.7228L100.956 23.5851L100.887 23.5162V23.4474L100.681 22.9654C100.199 21.8638 100.681 20.5556 101.782 20.0737C102.608 19.7294 103.504 19.8671 104.123 20.4179L104.467 20.6933C104.536 20.7622 104.674 20.8999 104.743 20.9687C104.949 21.1064 105.087 21.313 105.294 21.4507C105.638 21.795 105.982 22.1392 106.327 22.4835C107.015 23.172 107.635 23.9293 108.254 24.6867C109.494 26.2014 110.664 27.785 111.697 29.4374C113.831 32.6734 115.621 36.116 117.136 39.6963C118.651 43.2765 119.89 46.9256 120.923 50.5747C121.956 54.2927 122.782 58.0107 123.402 61.7975C124.021 65.5843 124.434 69.3711 124.779 73.0891C125.054 76.8759 125.261 80.6627 125.329 84.4495C125.398 88.2364 125.398 91.9543 125.398 95.7412L125.329 98.564V99.9411C125.329 100.423 125.329 100.905 125.261 101.387C125.192 102.351 125.192 103.315 125.123 104.21C125.123 104.692 125.054 105.174 125.054 105.656C125.054 106.138 124.985 106.62 124.985 107.102C124.779 110.888 124.641 114.744 124.228 118.531C123.815 122.387 123.264 126.173 122.3 129.96C121.336 133.747 119.959 137.327 118.375 140.908C116.792 144.488 115.002 147.93 113.074 151.235C109.149 157.914 104.33 164.042 98.9594 169.481C96.2742 172.235 93.3824 174.782 90.353 177.123C88.8383 178.294 87.2547 179.395 85.6712 180.497C84.8449 181.048 84.0876 181.53 83.2614 182.012C82.8483 182.287 82.4351 182.494 82.022 182.769C81.8155 182.907 81.6089 182.976 81.4023 183.113L80.7138 183.458C79.6122 184.008 78.3041 183.595 77.7533 182.494C77.2713 181.53 77.5467 180.359 78.304 179.74L78.4418 179.808Z" fill="#E52526"/>
<path d="M242.17 7.26658L242.308 8.43701L242.376 9.60749L242.445 10.778C242.445 11.1911 242.445 11.5353 242.445 11.9485C242.445 13.532 242.376 15.1156 242.239 16.6303C241.894 19.7975 241.206 22.8958 240.242 25.8564C239.278 28.817 238.108 31.7088 236.799 34.4628C236.18 35.8398 235.491 37.2168 234.803 38.525C234.458 39.2135 234.114 39.8332 233.77 40.5217L232.668 42.4495V42.5184L232.531 42.7938C231.704 43.9643 230.947 45.2036 230.19 46.4429C229.432 47.6822 228.675 48.9216 227.986 50.1609C227.298 51.4002 226.541 52.6395 225.852 53.9477C225.164 55.187 224.475 56.4952 223.855 57.8033C223.167 59.1115 222.547 60.4197 221.927 61.659L220.069 65.5835C218.829 68.1999 217.521 70.8162 216.282 73.4326C214.974 76.0489 213.734 78.6653 212.564 81.3505C211.393 84.0357 210.429 86.7897 209.603 89.6126C209.19 90.9896 208.846 92.4355 208.57 93.8814C208.295 95.3273 207.951 96.7731 207.744 98.1502C207.469 99.596 207.262 101.042 207.124 102.488C207.056 103.245 206.987 103.934 206.918 104.691C206.849 105.448 206.78 106.137 206.711 106.894C206.298 112.678 206.436 118.53 207.056 124.245C207.675 129.959 208.708 135.605 210.085 141.182C211.462 146.759 213.252 152.198 215.249 157.569C216.282 160.254 217.314 162.939 218.416 165.624C218.967 167.001 219.518 168.31 220.137 169.687C220.688 171.064 221.308 172.372 221.859 173.749V173.818C222.341 175.057 221.721 176.503 220.482 176.985C219.518 177.398 218.416 177.054 217.796 176.365C215.731 174.093 213.872 171.546 212.219 168.998C210.567 166.382 208.984 163.697 207.675 160.874C206.367 158.051 205.128 155.159 204.164 152.267C203.682 150.821 203.2 149.307 202.787 147.792C202.374 146.277 202.029 144.762 201.616 143.248C200.239 137.189 199.551 130.923 199.482 124.727C199.344 118.53 199.826 112.402 200.653 106.275C200.721 105.517 200.859 104.76 200.997 104.003C201.134 103.245 201.203 102.488 201.341 101.73C201.616 100.216 201.823 98.701 202.098 97.1862C202.374 95.6715 202.649 94.1568 202.993 92.7109L203.957 88.2356C204.577 85.275 205.266 82.2455 205.954 79.2849C206.643 76.2555 207.331 73.2949 208.226 70.3343C209.121 67.3737 210.154 64.4819 211.393 61.659C212.013 60.2132 212.702 58.8361 213.39 57.4591C214.079 56.0821 214.767 54.705 215.524 53.328C218.485 47.8888 221.721 42.6561 225.439 37.6988L225.232 37.9742L226.403 36.1841C226.816 35.5644 227.16 34.9447 227.573 34.3939C228.331 33.1546 229.088 31.9841 229.777 30.7448C231.222 28.335 232.531 25.8564 233.632 23.3777C234.734 20.8991 235.698 18.3516 236.386 15.7353C237.075 13.1189 237.488 10.3649 237.763 7.61083V7.54196C237.901 6.23378 239.003 5.26986 240.38 5.33871C241.137 5.20101 242.032 6.09611 242.17 7.26658Z" fill="#E52526"/>
<path d="M207.744 40.8672L206.78 42.8638L206.298 43.8966C206.161 44.2408 205.954 44.5851 205.816 44.9293C205.128 46.2375 204.508 47.6146 203.889 48.9227C203.269 50.2309 202.649 51.6079 202.03 52.9161L201.134 54.9128C200.859 55.6013 200.515 56.2898 200.239 56.9095C197.967 62.2799 195.833 67.788 193.974 73.2272C192.115 78.7353 190.463 84.3123 189.154 89.8892C187.777 95.4662 186.745 101.181 186.125 106.827C185.781 109.649 185.574 112.541 185.436 115.433C185.436 116.121 185.368 116.879 185.368 117.567V118.669V119.22V119.771C185.368 120.459 185.368 121.216 185.368 121.905C185.368 122.594 185.368 123.351 185.436 124.039C185.643 129.754 186.194 135.469 187.295 141.183C187.846 144.006 188.466 146.829 189.223 149.652L189.774 151.718L189.912 152.268L190.049 152.819L190.394 153.852L190.738 154.885L191.082 155.917C191.289 156.606 191.495 157.294 191.771 157.983L192.528 160.049C192.803 160.737 193.079 161.426 193.285 162.114L193.699 163.147C193.836 163.491 193.974 163.835 194.112 164.18C194.387 164.868 194.662 165.557 194.938 166.245L195.833 168.242C195.971 168.586 196.108 168.93 196.315 169.275C196.453 169.619 196.59 169.963 196.797 170.307C197.416 171.684 198.036 172.993 198.656 174.37C198.931 174.989 198.656 175.678 198.105 175.953C197.623 176.16 197.003 176.022 196.728 175.609C194.8 173.268 193.01 170.789 191.358 168.242C190.945 167.622 190.531 166.934 190.118 166.314C189.912 165.97 189.705 165.694 189.499 165.35L188.948 164.386C188.604 163.698 188.19 163.078 187.846 162.39C187.502 161.701 187.158 161.012 186.745 160.324C185.368 157.57 184.059 154.747 182.889 151.924C181.787 149.032 180.754 146.141 179.928 143.111C179.722 142.354 179.515 141.596 179.309 140.839L178.758 138.567C178.414 137.052 178.069 135.538 177.794 134.023C177.243 130.993 176.83 127.895 176.555 124.797C176.486 124.039 176.417 123.213 176.348 122.456C176.279 121.698 176.279 120.872 176.21 120.115V119.564V119.013V117.843C176.21 117.085 176.21 116.259 176.21 115.502C176.21 112.404 176.417 109.305 176.692 106.207C177.243 100.01 178.345 93.8826 179.859 87.8925C181.443 81.9025 183.44 76.0501 185.918 70.4043C188.397 64.7585 191.289 59.3193 194.594 54.1554C197.898 48.9916 201.548 44.1031 205.816 39.6967C206.298 39.2147 207.125 39.2147 207.607 39.6967C207.951 39.7655 208.02 40.3852 207.744 40.8672Z" fill="#E52526"/>
<path d="M367.066 182.147L366.584 181.871C366.446 181.802 366.308 181.733 366.171 181.665C365.895 181.527 365.62 181.32 365.344 181.183C364.794 180.838 364.312 180.494 363.761 180.15C362.728 179.461 361.764 178.704 360.8 177.947C359.836 177.189 358.872 176.432 357.977 175.606C357.495 175.193 357.082 174.779 356.6 174.366C356.187 173.953 355.705 173.54 355.292 173.058C351.781 169.616 348.683 165.76 345.928 161.698C345.584 161.216 345.24 160.665 344.896 160.183L343.932 158.599L342.968 157.016C342.692 156.465 342.348 155.914 342.073 155.432C341.522 154.331 340.902 153.298 340.42 152.127C340.145 151.577 339.938 151.026 339.663 150.475C339.456 149.924 339.181 149.305 338.974 148.754L338.699 147.859C338.63 147.583 338.493 147.239 338.424 146.964C338.217 146.344 338.079 145.793 337.942 145.173C337.804 144.554 337.666 144.003 337.529 143.383L337.115 141.593C336.634 139.183 336.22 136.774 335.67 134.433C335.394 133.262 335.119 132.092 334.843 130.921L334.637 130.026L334.43 129.131L334.017 127.341C333.535 125 333.053 122.659 332.571 120.249C332.158 117.908 331.676 115.499 331.401 113.089C331.194 111.918 331.125 110.679 330.988 109.509C330.919 108.889 330.85 108.338 330.85 107.718C330.781 107.099 330.781 106.479 330.712 105.928C330.575 103.518 330.506 101.109 330.575 98.6989C330.575 98.0792 330.575 97.4596 330.643 96.9087L330.781 95.1186C330.85 93.9482 330.988 92.7088 331.125 91.5384C331.194 91.263 331.194 90.9187 331.263 90.6433L331.401 89.7482C331.47 89.1286 331.607 88.5778 331.676 87.9581C331.745 87.3384 331.883 86.7876 332.02 86.168C332.158 85.5483 332.296 84.9975 332.434 84.3779C332.709 83.2074 333.053 82.0369 333.466 80.9353C333.879 79.7648 334.293 78.6632 334.775 77.5616C335.325 76.3911 336.634 75.9091 337.804 76.3911C338.561 76.7354 339.043 77.4927 339.112 78.2501V78.3189C339.25 79.4894 339.25 80.6599 339.25 81.8304C339.25 83.0008 339.25 84.1713 339.25 85.3418C339.25 86.5122 339.181 87.6138 339.181 88.7843C339.181 89.9548 339.112 91.0564 339.043 92.2269C338.975 93.3973 338.906 94.499 338.837 95.6694L338.768 97.3907C338.768 97.9415 338.699 98.4923 338.699 99.112C338.561 101.384 338.493 103.656 338.424 105.928C338.286 110.472 338.217 115.017 338.561 119.63L338.699 121.351C338.768 121.902 338.837 122.453 338.906 123.072C338.974 123.623 339.043 124.174 339.181 124.793C339.25 125.344 339.388 125.895 339.456 126.515C339.663 127.616 339.87 128.787 340.145 129.888C340.283 130.439 340.42 130.99 340.558 131.541C340.696 132.092 340.902 132.643 341.04 133.193C341.728 135.328 342.692 137.462 343.794 139.459L344.62 140.974C344.896 141.455 345.171 141.937 345.446 142.488C345.997 143.452 346.548 144.485 347.03 145.449L347.787 146.964C348.063 147.446 348.269 147.996 348.545 148.478C348.82 148.96 349.027 149.511 349.233 149.993C349.509 150.475 349.715 151.026 349.991 151.508L350.748 153.022L351.505 154.468L352.332 155.914C352.607 156.396 352.882 156.878 353.158 157.36C355.43 161.216 357.909 164.934 360.594 168.514C361.971 170.304 363.348 172.025 364.863 173.747C365.62 174.573 366.377 175.468 367.135 176.225C367.548 176.638 367.892 177.052 368.305 177.465C368.512 177.671 368.718 177.878 368.856 178.084L369.131 178.36L369.269 178.497L369.338 178.566L369.407 178.635L369.82 179.461C370.371 180.494 369.957 181.802 368.925 182.353C368.443 182.491 367.685 182.422 367.066 182.147Z" fill="#E52526"/>
<path d="M342.83 178.776C338.63 176.16 334.775 172.993 331.263 169.481C330.368 168.586 329.542 167.691 328.716 166.727L328.096 166.039C327.959 165.901 327.89 165.832 327.752 165.694L327.477 165.35L326.306 163.904C326.1 163.629 325.893 163.422 325.686 163.147L325.411 162.803L325.136 162.389L324.034 160.875L323.483 160.117L323.208 159.704L322.932 159.291L321.9 157.708C321.211 156.675 320.591 155.573 319.972 154.472C319.352 153.37 318.801 152.199 318.25 151.098C317.7 149.996 317.218 148.826 316.736 147.655L316.392 146.76C316.254 146.485 316.185 146.141 316.047 145.865C315.841 145.245 315.634 144.695 315.428 144.075C314.601 141.734 313.913 139.324 313.293 136.846C312.674 134.436 312.123 131.957 311.778 129.479C310.195 119.633 310.057 109.649 310.952 99.8726C311.847 90.0957 313.637 80.4565 316.185 71.0927C316.391 70.2665 317.218 69.8534 318.044 70.06C318.664 70.1977 319.077 70.7485 319.146 71.3682V71.6436C319.214 72.8829 319.283 74.1222 319.352 75.2927C319.421 76.532 319.421 77.7025 319.421 78.9418C319.421 79.5614 319.49 80.1811 319.49 80.7319C319.49 81.3516 319.49 81.9712 319.49 82.5221C319.559 83.7614 319.49 84.9319 319.559 86.1023C319.628 90.8531 319.696 95.6038 319.834 100.286C320.109 109.649 320.729 118.807 322.313 127.62L322.657 129.272C322.726 129.547 322.726 129.823 322.795 130.098C322.863 130.374 322.932 130.649 322.932 130.924L323.277 132.577L323.414 133.403L323.621 134.229C324.103 136.364 324.654 138.567 325.342 140.632C325.686 141.665 325.962 142.767 326.306 143.8L326.857 145.383C326.926 145.659 327.063 145.934 327.132 146.141L327.408 146.898C327.821 147.931 328.165 148.963 328.647 149.996L328.991 150.754L329.335 151.511L329.473 151.924C329.542 152.062 329.611 152.199 329.68 152.268L330.024 153.026C331.883 157.019 334.017 160.944 336.496 164.799C336.84 165.281 337.116 165.763 337.46 166.245C337.598 166.452 337.735 166.727 337.942 167.002L338.424 167.691L339.457 169.137L339.939 169.825C340.076 170.101 340.283 170.307 340.489 170.514L341.522 171.96L342.073 172.648L342.348 172.993L342.624 173.337C343.381 174.301 344.139 175.196 344.827 176.229L345.034 176.504C345.516 177.192 345.378 178.156 344.689 178.638C344.07 179.12 343.381 179.12 342.83 178.776Z" fill="#E52526"/>
<path d="M343.519 194.405C342.28 194.405 341.384 194.267 340.421 194.129L340.076 194.06L339.732 193.991L339.044 193.854C338.562 193.716 338.148 193.647 337.667 193.509C335.876 192.959 334.155 192.339 332.503 191.65C330.85 190.962 329.198 190.136 327.614 189.31C327.201 189.103 326.788 188.896 326.444 188.69C326.031 188.483 325.618 188.277 325.273 188.001L324.103 187.313C323.69 187.106 323.345 186.831 322.932 186.624C322.175 186.142 321.418 185.66 320.66 185.11L319.559 184.352L319.008 183.939L318.457 183.526L317.355 182.7L316.323 181.874C315.634 181.323 314.946 180.703 314.188 180.152C311.434 177.811 308.818 175.264 306.408 172.579C305.169 171.271 303.998 169.825 302.897 168.448C302.346 167.759 301.795 167.002 301.244 166.244C300.693 165.487 300.211 164.73 299.661 164.041C299.179 163.284 298.628 162.526 298.146 161.769C297.664 161.012 297.182 160.254 296.7 159.428C296.287 158.602 295.805 157.845 295.392 157.018L294.772 155.779C294.566 155.366 294.359 154.953 294.221 154.54L293.671 153.3C293.533 152.887 293.326 152.474 293.189 152.061C292.913 151.235 292.569 150.34 292.294 149.445C292.018 148.55 291.743 147.723 291.536 146.828L290.848 144.212C290.021 140.701 289.402 137.12 288.851 133.609C288.782 133.196 288.713 132.714 288.644 132.301L288.438 130.993L288.231 129.684C288.162 129.271 288.094 128.789 288.025 128.376C287.818 126.586 287.612 124.865 287.474 123.075C287.199 119.494 287.061 115.983 287.13 112.403L287.199 109.718L287.336 107.032C287.336 106.619 287.336 106.137 287.405 105.724L287.543 104.416L287.68 103.108C287.68 102.695 287.749 102.213 287.818 101.8L288.094 99.1145C288.094 98.9079 288.162 98.7014 288.162 98.4259L288.231 97.7374L288.438 96.4293C288.644 94.6392 289.058 92.9179 289.333 91.1966C289.471 90.3015 289.677 89.4753 289.884 88.5802L290.159 87.272L290.297 86.6524L290.503 86.0327C290.985 84.3114 291.399 82.5902 291.949 80.9378C292.225 80.1115 292.5 79.2165 292.775 78.3903L293.671 75.9116C294.29 74.2592 294.91 72.6068 295.598 70.9543C295.805 70.5412 295.943 70.1281 296.149 69.715L296.7 68.5445C297.044 67.7183 297.457 66.961 297.802 66.1348L298.077 65.5151C298.146 65.3085 298.284 65.102 298.352 64.8954L298.972 63.725C299.385 62.9676 299.798 62.1414 300.211 61.384C301.107 59.8693 302.002 58.3546 302.966 56.8398C303.929 55.394 304.962 53.9481 305.995 52.5022C306.752 51.5383 308.129 51.3317 309.162 52.0891C309.919 52.6399 310.195 53.6727 309.919 54.4989V54.5677C309.438 56.2201 308.818 57.8726 308.267 59.4562C307.716 61.1086 307.097 62.6922 306.477 64.2758C306.201 65.102 305.926 65.8593 305.582 66.6856L305.1 67.856C305.031 68.0626 304.962 68.2691 304.893 68.4757L304.687 69.0954C304.136 70.6789 303.516 72.2625 302.966 73.8461C302.415 75.4296 301.795 77.0132 301.244 78.5968L300.418 80.9378C300.143 81.764 299.867 82.5213 299.661 83.3476C299.385 84.1738 299.11 84.9311 298.903 85.7574L298.146 88.1671L297.939 88.7868L297.802 89.4065L297.457 90.6458L297.113 91.8851C296.975 92.2982 296.907 92.7113 296.769 93.1244C296.356 94.708 295.874 96.3604 295.53 98.0129L295.254 99.2522L295.116 99.8718C295.048 100.078 295.048 100.285 294.979 100.491L294.497 102.97C294.428 103.383 294.359 103.796 294.29 104.209L294.084 105.449L293.877 106.688C293.808 107.101 293.739 107.514 293.671 107.927C293.533 108.754 293.464 109.58 293.326 110.406L293.12 112.885C292.844 116.19 292.776 119.563 292.982 122.937C293.051 123.763 293.12 124.589 293.189 125.416L293.258 126.035L293.326 126.655L293.464 127.894C293.533 128.307 293.533 128.721 293.602 129.134L293.808 130.373L294.015 131.612C294.084 132.025 294.221 132.438 294.29 132.852C295.048 136.088 296.149 139.255 297.526 142.284L298.559 144.556C298.903 145.314 299.316 146.002 299.661 146.759C299.867 147.104 300.074 147.448 300.211 147.861L300.762 148.963L301.933 151.097C302.346 151.786 302.759 152.543 303.103 153.232C303.31 153.576 303.516 153.92 303.723 154.264L304.343 155.297L305.582 157.431C305.995 158.12 306.477 158.808 306.89 159.497L308.267 161.494C308.749 162.182 309.231 162.802 309.713 163.49C310.677 164.799 311.71 166.107 312.742 167.346L313.5 168.31C313.775 168.654 314.051 168.93 314.326 169.205C314.877 169.825 315.428 170.444 315.978 170.995L316.391 171.477L316.805 171.89L317.631 172.785C318.182 173.336 318.801 173.956 319.352 174.507C319.972 175.057 320.523 175.677 321.142 176.228L322.037 177.054L322.932 177.88L323.414 178.293L323.896 178.706L324.86 179.533L325.824 180.29C326.168 180.565 326.444 180.841 326.788 181.047C327.132 181.323 327.408 181.529 327.752 181.805L328.716 182.562C329.06 182.838 329.404 183.044 329.749 183.319C330.093 183.595 330.437 183.801 330.781 184.008C331.47 184.49 332.158 184.903 332.847 185.385L333.88 186.074C334.224 186.28 334.568 186.487 334.912 186.693C336.29 187.519 337.735 188.346 339.181 189.034C339.525 189.241 339.939 189.378 340.283 189.516L340.834 189.723L341.109 189.86L341.384 189.929C341.591 189.998 341.729 190.067 341.935 190.136L342.486 190.273C342.624 190.342 342.83 190.342 342.968 190.411L343.381 190.48L343.725 190.549C344.896 190.824 345.653 191.995 345.378 193.234C345.309 193.716 344.483 194.405 343.519 194.405Z" fill="#E52526"/>
<path d="M292.156 184.214L291.605 183.733C291.398 183.595 291.261 183.388 291.054 183.251C290.71 182.906 290.365 182.562 290.021 182.218C289.333 181.529 288.644 180.841 288.025 180.152C286.716 178.706 285.477 177.26 284.307 175.746C281.897 172.716 279.762 169.549 277.766 166.244C273.772 159.635 270.605 152.543 268.333 145.176C267.163 141.458 266.268 137.671 265.579 133.884C264.891 130.097 264.409 126.173 264.34 122.317C264.271 118.462 264.615 114.537 265.166 110.75C265.717 106.963 266.405 103.177 267.163 99.4586C267.232 98.9767 267.369 98.4947 267.438 98.0816C267.507 97.5997 267.645 97.1177 267.713 96.7046C267.92 95.7407 268.127 94.8456 268.264 93.8817C268.333 93.3997 268.471 92.9866 268.54 92.5047L268.815 91.1277L269.435 88.3736C270.261 84.7245 271.225 81.0754 272.189 77.4263C273.153 73.7771 274.185 70.128 275.425 66.5478C276.595 62.9675 277.903 59.3872 279.418 55.8758C280.933 52.3644 282.585 48.9218 284.444 45.617C286.303 42.2433 288.369 39.0073 290.71 35.909C293.051 32.8107 295.598 29.9189 298.421 27.2338C299.867 25.9256 301.313 24.6174 302.896 23.4469C303.654 22.8273 304.48 22.2764 305.306 21.7945C305.719 21.5191 306.132 21.2437 306.614 21.0371C306.821 20.8994 307.027 20.7617 307.303 20.6929C307.441 20.624 307.509 20.5552 307.647 20.4863L308.06 20.2798C309.162 19.7289 310.47 20.2109 311.021 21.2437C311.434 22.0011 311.296 22.8961 310.814 23.5846L310.47 23.9977V24.0666L310.401 24.1354L310.264 24.2731L310.057 24.4797L309.644 24.9616C309.368 25.3059 309.024 25.5813 308.749 25.9256C308.129 26.5452 307.578 27.2338 306.959 27.9223C305.788 29.2304 304.687 30.6075 303.585 32.0533C301.382 34.8762 299.316 37.6991 297.319 40.6597C295.323 43.6203 293.395 46.6498 291.605 49.7481C290.71 51.3316 289.815 52.8464 288.988 54.43C288.162 56.0136 287.267 57.5971 286.51 59.2496C283.274 65.7216 280.382 72.4001 277.972 79.2852C276.802 82.7278 275.769 86.2392 274.874 89.8195C274.667 90.7145 274.461 91.6096 274.254 92.5047L273.979 93.8128C273.91 94.2259 273.772 94.7079 273.704 95.121C273.497 96.0161 273.359 96.9112 273.222 97.8062C273.084 98.7013 272.946 99.5963 272.808 100.491C272.395 104.072 272.258 107.721 272.464 111.301C272.602 114.881 272.946 118.462 273.29 121.973C273.497 123.763 273.635 125.484 273.841 127.275C274.048 129.065 274.254 130.786 274.53 132.507L274.736 133.815C274.805 134.229 274.874 134.71 274.943 135.124C275.081 136.019 275.287 136.845 275.425 137.74C275.769 139.461 276.182 141.182 276.664 142.904C278.454 149.789 281.002 156.467 284.1 162.939C285.684 166.175 287.405 169.343 289.264 172.372C290.228 173.887 291.192 175.402 292.225 176.916C292.706 177.674 293.257 178.362 293.808 179.119C294.083 179.464 294.359 179.808 294.634 180.221L295.392 181.254L295.46 181.392C296.218 182.355 296.011 183.733 295.047 184.49C294.152 184.903 292.913 184.903 292.156 184.214Z" fill="#E52526"/>
<path d="M265.097 174.574C264.891 174.368 264.684 174.161 264.477 173.886C264.271 173.679 264.064 173.473 263.858 173.197C263.445 172.715 263.032 172.302 262.687 171.82C261.93 170.925 261.173 169.961 260.484 168.997C259.796 168.033 259.107 167.069 258.487 166.037C257.868 165.004 257.179 164.04 256.628 163.007C254.219 158.876 252.222 154.47 250.57 149.994L249.95 148.273L249.399 146.552C249.193 146.001 249.055 145.381 248.848 144.83L248.366 143.109C247.747 140.768 247.196 138.427 246.783 136.086C245.888 131.336 245.406 126.585 245.199 121.765C245.13 119.356 245.13 116.946 245.268 114.536C245.337 113.365 245.406 112.126 245.475 110.956C245.543 109.785 245.681 108.546 245.819 107.375C246.094 104.966 246.439 102.625 246.852 100.284C247.058 99.1133 247.265 97.9428 247.54 96.7724C247.678 96.1527 247.816 95.6019 247.953 95.0511L248.366 93.3298C250.638 84.0349 253.943 75.0153 258.281 66.6155C258.694 65.7893 259.796 65.445 260.622 65.8582C261.31 66.2024 261.655 66.9598 261.517 67.7171L261.448 68.0614C261.241 69.2319 260.966 70.4023 260.76 71.504L260.415 73.2252C260.278 73.7761 260.14 74.3957 260.071 74.9465C259.589 77.2186 259.107 79.4907 258.694 81.7628C257.799 86.2381 256.973 90.7134 256.284 95.1887L256.078 96.8412C256.009 97.392 255.94 97.9428 255.871 98.4936C255.802 99.0444 255.733 99.5952 255.665 100.146C255.596 100.697 255.527 101.248 255.458 101.798C255.32 102.9 255.251 104.002 255.114 105.103C255.045 105.654 255.045 106.205 254.976 106.756C254.907 107.307 254.907 107.857 254.838 108.408C254.701 110.611 254.563 112.815 254.494 115.018C254.425 117.221 254.425 119.424 254.425 121.628C254.425 123.831 254.563 126.034 254.701 128.237L254.838 129.89L254.976 131.542C255.045 132.093 255.114 132.644 255.183 133.195C255.251 133.47 255.251 133.745 255.251 134.021L255.32 134.847C255.596 137.05 255.94 139.185 256.284 141.388L256.56 143.04C256.697 143.591 256.766 144.142 256.904 144.693L257.248 146.345L257.592 147.998C258.625 152.335 259.864 156.604 261.379 160.873C261.586 161.424 261.792 161.974 261.93 162.456L262.55 164.04C262.963 165.142 263.376 166.174 263.858 167.207C264.34 168.24 264.753 169.341 265.235 170.374C265.441 170.925 265.717 171.407 265.992 171.958L266.75 173.473L266.818 173.679C267.025 174.161 266.887 174.712 266.405 174.987C265.855 174.987 265.373 174.918 265.097 174.574Z" fill="#E52526"/>
<path d="M250.914 52.6384C250.569 53.3958 250.294 54.0843 249.95 54.7728L248.986 56.9072L247.058 61.176C246.438 62.6219 245.819 63.9989 245.199 65.4448L244.304 67.5791C244.166 67.9234 244.029 68.2676 243.822 68.6119L243.409 69.7135C243.133 70.402 242.858 71.1594 242.583 71.8479C242.445 72.1922 242.307 72.5364 242.17 72.9495L241.756 74.0512C241.481 74.7397 241.206 75.497 240.93 76.1855L240.173 78.3199L239.76 79.4216C239.622 79.7658 239.553 80.1789 239.415 80.5232L238.727 82.7264C238.589 83.0707 238.52 83.4837 238.383 83.828L238.038 84.9296L237.694 86.0312C237.556 86.3755 237.488 86.7886 237.35 87.1329C236.524 90.0246 235.766 92.9852 235.147 95.9458C234.94 96.7032 234.802 97.3917 234.665 98.1491L234.458 99.2507C234.389 99.5949 234.32 100.008 234.252 100.352C234.114 101.11 233.976 101.867 233.839 102.556C233.701 103.313 233.563 104.001 233.357 104.759C233.012 106.205 232.737 107.719 232.324 109.234C231.98 110.749 231.635 112.195 231.36 113.709C231.016 115.224 230.809 116.739 230.603 118.254C230.534 119.011 230.465 119.768 230.396 120.526L230.327 121.077V121.627C230.327 122.04 230.327 122.385 230.327 122.798C230.258 128.926 231.153 135.053 232.737 140.975C233.494 143.935 234.458 146.827 235.56 149.65C235.835 150.338 236.111 151.096 236.386 151.784L237.281 153.919L238.176 155.984L239.14 158.05C240.448 160.804 241.825 163.489 243.202 166.174C244.648 168.859 246.163 171.476 247.678 174.092C249.192 176.708 250.776 179.325 252.36 181.872C253.186 183.18 253.943 184.488 254.769 185.797L256.009 187.724L256.628 188.688L256.904 189.17L257.041 189.377C257.11 189.446 257.11 189.515 257.179 189.583L257.317 189.859C258.005 191.098 257.592 192.751 256.353 193.439C255.458 193.921 254.425 193.852 253.599 193.37L253.048 193.026C252.841 192.888 252.704 192.751 252.497 192.682C252.153 192.406 251.809 192.2 251.464 191.924C251.12 191.649 250.776 191.374 250.5 191.167C250.156 190.892 249.881 190.616 249.537 190.341C248.297 189.239 247.127 188.069 245.956 186.898C244.855 185.659 243.753 184.42 242.72 183.18C241.688 181.872 240.724 180.564 239.76 179.187C237.901 176.433 236.248 173.61 234.734 170.649C233.219 167.689 231.911 164.659 230.74 161.561C230.465 160.804 230.189 159.977 229.914 159.22C229.639 158.463 229.432 157.637 229.157 156.879C228.95 156.122 228.675 155.296 228.468 154.538C228.262 153.712 228.055 152.955 227.849 152.128C227.022 148.961 226.403 145.725 225.852 142.489C225.301 139.253 224.888 136.017 224.544 132.781L224.337 130.371L224.131 127.962C224.062 127.549 224.062 127.135 224.062 126.722L223.993 125.483L223.924 124.244L223.855 123.004C223.717 121.352 223.649 119.768 223.442 118.116C223.373 116.464 223.167 114.811 223.098 113.159C223.029 112.332 222.96 111.506 222.96 110.68C222.96 109.854 222.891 109.028 222.891 108.201V106.962L222.96 105.723C222.96 104.897 223.029 104.07 223.098 103.244C223.167 102.831 223.167 102.418 223.235 102.005L223.304 101.385L223.373 100.765C223.511 99.9392 223.649 99.113 223.786 98.2868C223.855 97.8736 223.924 97.4605 224.062 97.0474L224.337 95.8081C224.544 94.9819 224.681 94.2246 224.888 93.3983L225.508 90.9885C225.714 90.1623 225.99 89.405 226.196 88.5788C226.678 86.9952 227.16 85.4116 227.711 83.8969C227.848 83.4838 227.986 83.1395 228.124 82.7264L228.537 81.5559C228.812 80.7986 229.088 80.0412 229.432 79.2838L230.396 77.0118C230.534 76.6675 230.671 76.2544 230.878 75.9101L231.36 74.8085L232.393 72.6053C232.737 71.8479 233.081 71.1594 233.494 70.402L234.045 69.3004C234.252 68.9562 234.389 68.5431 234.596 68.1988C235.009 67.5103 235.353 66.7529 235.766 66.0644C236.524 64.6185 237.35 63.2415 238.176 61.8645C238.589 61.176 239.002 60.4875 239.484 59.799C239.897 59.1104 240.379 58.4219 240.792 57.7334C241.688 56.3564 242.651 55.0482 243.547 53.7401C244.028 53.1204 244.51 52.4319 244.992 51.8122C245.474 51.1925 245.956 50.504 246.507 49.8844C247.402 48.7827 249.055 48.5762 250.225 49.4713C251.189 50.2286 251.464 51.5368 250.983 52.5696L250.914 52.6384Z" fill="#E52526"/>
<path d="M186.882 188.344L186.263 187.862C186.056 187.724 185.85 187.587 185.712 187.38C185.368 187.036 184.954 186.76 184.61 186.416C183.853 185.797 183.164 185.108 182.476 184.488C181.099 183.18 179.722 181.803 178.482 180.357C175.935 177.534 173.525 174.505 171.322 171.338C166.984 165.003 163.335 158.118 160.581 150.889C159.204 147.24 158.034 143.591 157.139 139.804C156.244 136.017 155.486 132.23 155.211 128.375C154.867 124.519 155.004 120.594 155.28 116.808C155.624 112.952 156.037 109.165 156.588 105.378C156.657 104.896 156.725 104.414 156.794 103.932C156.863 103.451 156.932 102.969 157.001 102.487C157.139 101.523 157.276 100.628 157.414 99.6637C157.483 99.1817 157.552 98.6998 157.621 98.2867L157.827 96.9096L158.24 94.1556C158.86 90.4376 159.548 86.7197 160.306 83.0705C161.063 79.3526 161.889 75.7035 162.853 71.9855C163.817 68.3364 164.919 64.6873 166.158 61.107C167.466 57.5267 168.912 53.9465 170.565 50.5039C172.217 47.0614 174.076 43.6876 176.21 40.4516C178.345 37.2156 180.686 34.1173 183.371 31.2944C184.679 29.8486 186.125 28.5404 187.571 27.2322C188.328 26.6126 189.086 25.9929 189.912 25.3732C190.325 25.0978 190.738 24.8224 191.151 24.547C191.358 24.4093 191.564 24.2716 191.771 24.1339C191.908 24.0651 191.977 23.9962 192.115 23.9273L192.528 23.7208C193.561 23.1011 194.938 23.4454 195.558 24.547C195.971 25.3044 195.902 26.1995 195.489 26.888L195.213 27.3011V27.3699L195.145 27.4388L195.076 27.5765L194.869 27.783L194.456 28.265C194.181 28.6093 193.905 28.9535 193.63 29.2978C193.079 29.9863 192.528 30.6748 191.977 31.3633C190.876 32.8092 189.843 34.1862 188.879 35.7009C186.882 38.5927 184.955 41.6221 183.164 44.7204C181.374 47.8187 179.653 50.917 178.069 54.153C177.243 55.7366 176.486 57.389 175.728 59.0415C174.971 60.6939 174.214 62.3463 173.525 63.9988C170.702 70.6085 168.224 77.4936 166.296 84.5164C165.332 88.0278 164.506 91.6081 163.886 95.1883C163.748 96.0834 163.542 96.9785 163.404 97.8736L163.198 99.2506C163.129 99.7325 163.06 100.146 162.991 100.628C162.853 101.523 162.716 102.418 162.647 103.313C162.578 104.208 162.44 105.103 162.44 105.998C162.234 109.578 162.371 113.227 162.784 116.808C163.129 120.388 163.748 123.899 164.299 127.411C164.575 129.132 164.85 130.922 165.194 132.643C165.47 134.365 165.814 136.155 166.227 137.876L166.502 139.184C166.571 139.597 166.709 140.011 166.847 140.492C167.053 141.388 167.26 142.214 167.535 143.04C168.017 144.761 168.499 146.414 169.119 148.135C171.391 154.882 174.283 161.423 177.794 167.62C179.584 170.718 181.443 173.748 183.509 176.708C184.541 178.154 185.643 179.6 186.745 181.046C187.295 181.734 187.846 182.423 188.397 183.111C188.672 183.456 188.948 183.8 189.292 184.144L190.118 185.108L190.256 185.246C191.082 186.141 190.945 187.587 190.05 188.344C188.879 188.964 187.709 189.033 186.882 188.344Z" fill="#E52526"/>
<path d="M157.69 180.634C157.414 180.427 157.208 180.221 157.001 180.014C156.794 179.808 156.588 179.601 156.381 179.395C155.968 178.981 155.555 178.568 155.142 178.086C154.316 177.191 153.558 176.296 152.801 175.401C152.044 174.506 151.286 173.542 150.598 172.578C149.909 171.614 149.221 170.65 148.532 169.618C145.916 165.624 143.575 161.424 141.647 157.018L140.959 155.365L140.27 153.713C140.064 153.162 139.857 152.611 139.65 151.992L139.031 150.27C138.273 147.998 137.585 145.657 136.965 143.385C135.795 138.703 134.969 133.953 134.487 129.202C134.28 126.792 134.142 124.382 134.074 121.973C134.074 120.802 134.005 119.563 134.074 118.392C134.074 117.222 134.142 115.983 134.142 114.812C134.28 112.402 134.418 109.993 134.693 107.652C134.831 106.481 134.969 105.242 135.106 104.071C135.175 103.452 135.313 102.901 135.382 102.281L135.657 100.491C137.31 91.0585 140.132 81.9012 143.85 73.1571C144.264 72.2621 145.227 71.849 146.122 72.2621C146.811 72.5375 147.224 73.2949 147.155 74.0522L147.086 74.3965C146.949 75.567 146.742 76.7374 146.604 77.9079L146.329 79.6292C146.26 80.18 146.122 80.7996 146.054 81.3505C145.709 83.6225 145.365 85.9635 145.09 88.2356C144.47 92.7797 143.919 97.2551 143.575 101.799L143.437 103.452C143.368 104.002 143.368 104.553 143.3 105.104C143.3 105.655 143.231 106.206 143.162 106.757C143.093 107.307 143.093 107.858 143.093 108.409C143.024 109.511 143.024 110.612 142.955 111.714C142.955 112.265 142.955 112.815 142.886 113.366C142.886 113.917 142.886 114.468 142.886 115.019C142.886 117.222 142.886 119.425 142.955 121.628C143.024 123.832 143.162 126.035 143.3 128.238C143.437 130.441 143.713 132.645 143.988 134.779L144.195 136.431L144.47 138.084C144.539 138.635 144.677 139.185 144.745 139.736C144.814 140.012 144.814 140.287 144.883 140.562L145.021 141.389C145.434 143.523 145.916 145.726 146.398 147.861L146.811 149.444C146.949 149.995 147.086 150.477 147.224 151.028L147.637 152.611L148.119 154.195C149.427 158.464 150.942 162.664 152.663 166.864C152.87 167.414 153.076 167.896 153.352 168.447L154.04 170.031C154.522 171.064 155.004 172.096 155.486 173.129C155.968 174.162 156.519 175.195 157.07 176.227C157.345 176.709 157.621 177.26 157.896 177.742L158.722 179.257L158.86 179.463C159.135 179.945 158.998 180.496 158.516 180.772C158.447 180.909 157.965 180.909 157.69 180.634Z" fill="#E52526"/>
<path d="M356.187 187.864L356.532 187.658C356.669 187.589 356.807 187.451 356.945 187.382L357.358 187.038C357.496 186.9 357.633 186.831 357.84 186.694L358.046 186.487L358.253 186.28L358.735 185.936C359.01 185.661 359.354 185.385 359.63 185.11C360.8 184.008 361.971 182.838 363.004 181.599C363.279 181.254 363.554 180.979 363.83 180.704L364.656 179.74C365.207 179.12 365.689 178.431 366.24 177.812C366.515 177.467 366.722 177.192 366.997 176.848C367.272 176.504 367.479 176.228 367.754 175.884L368.512 174.851C368.718 174.507 368.994 174.163 369.2 173.818C369.407 173.474 369.682 173.13 369.889 172.786L370.577 171.753L371.266 170.72L371.61 170.169L371.954 169.618L372.574 168.586L373.194 167.553C373.607 166.864 374.02 166.107 374.433 165.419C374.846 164.661 375.19 163.973 375.603 163.215L376.154 162.114L376.43 161.563L376.705 161.012C377.049 160.255 377.394 159.497 377.738 158.809C377.876 158.465 378.082 158.051 378.22 157.707L378.702 156.606C379.321 155.091 379.872 153.576 380.423 151.993C380.698 151.235 380.905 150.409 381.18 149.652L381.869 147.311C382.075 146.553 382.282 145.727 382.489 144.97L383.039 142.56L383.315 141.389C383.384 140.976 383.521 140.632 383.59 140.219C383.728 139.393 383.934 138.635 384.072 137.809L384.554 135.399L384.761 134.16C384.829 133.747 384.898 133.334 384.967 132.921C385.105 132.095 385.243 131.268 385.38 130.511L385.725 128.032C386.138 124.727 386.275 121.423 386 118.049C386 117.636 385.931 117.223 385.931 116.81L385.793 115.57L385.656 114.331C385.587 113.918 385.518 113.505 385.449 113.092L385.243 111.852L385.105 111.233L384.967 110.613C384.761 109.787 384.623 108.961 384.416 108.203C383.59 104.967 382.557 101.8 381.318 98.7017L380.354 96.3608C380.01 95.6034 379.666 94.8461 379.321 94.0887C379.115 93.7445 378.977 93.3314 378.771 92.9871L378.22 91.8855L377.669 90.7839C377.462 90.4396 377.325 90.0265 377.049 89.6822L375.81 87.479C375.741 87.2725 375.603 87.1347 375.535 86.9282L375.19 86.3774L374.571 85.2758C373.744 83.8299 372.849 82.4529 371.954 81.007C371.748 80.6627 371.472 80.3185 371.266 79.9742L370.577 78.9414L369.889 77.9087L369.544 77.3579L369.2 76.8759L367.754 74.8104C367.272 74.1219 366.79 73.4333 366.309 72.7448C365.827 72.0563 365.345 71.3678 364.863 70.6793L363.348 68.6826C362.384 67.3056 361.282 65.9974 360.318 64.6892C359.286 63.3122 358.253 62.004 357.22 60.6959L356.807 60.2139C356.669 60.0762 356.532 59.8696 356.394 59.7319L355.637 58.6992C355.086 58.0107 354.604 57.3222 354.053 56.7025C353.02 55.3943 351.919 54.0173 350.955 52.6403C349.922 51.2632 348.889 49.9551 347.856 48.5092L347.788 48.4404C347.099 47.4076 347.374 46.0306 348.407 45.3421C349.233 44.7913 350.197 44.8601 350.955 45.3421C352.401 46.3748 353.778 47.4076 355.155 48.5781C356.532 49.7485 357.84 50.8502 359.148 52.0895C359.768 52.7091 360.387 53.3288 361.076 53.9485L362.04 54.9124C362.177 55.0501 362.384 55.2566 362.522 55.3943L363.004 55.8763C363.623 56.4959 364.243 57.1845 364.794 57.8041L365.689 58.768C365.964 59.1123 366.24 59.4566 366.515 59.8008C367.685 61.1778 368.787 62.486 369.889 63.9319L371.472 66.0663C372.023 66.7548 372.505 67.5121 372.987 68.2695C374.02 69.7154 374.984 71.2301 375.948 72.7448L376.292 73.2956L376.636 73.8464L377.325 75.0169C377.738 75.7743 378.22 76.5317 378.633 77.3579C379.459 78.9414 380.354 80.4562 381.112 82.1086L381.662 83.2791L381.938 83.8987C382.007 84.1053 382.144 84.3118 382.213 84.5184L383.315 86.9282C383.521 87.3413 383.659 87.7544 383.866 88.1675L384.348 89.4068L384.83 90.6461C384.967 91.0593 385.174 91.4724 385.311 91.8855L386.207 94.3641L387.033 96.9116C388.134 100.285 389.098 103.728 389.856 107.17C390.2 108.892 390.613 110.682 390.888 112.403C390.957 112.816 391.026 113.298 391.095 113.711L391.301 115.019L391.508 116.328C391.577 116.741 391.646 117.223 391.715 117.636C392.265 121.147 392.678 124.728 393.023 128.308L393.16 130.993C393.16 131.888 393.229 132.783 393.229 133.747C393.229 134.642 393.16 135.537 393.16 136.501C393.16 136.983 393.092 137.396 393.092 137.878L392.954 139.255C392.885 139.737 392.816 140.15 392.816 140.632L392.61 142.009C392.472 142.904 392.265 143.799 392.128 144.694C391.921 145.589 391.715 146.484 391.508 147.38C391.301 148.275 391.026 149.101 390.751 149.996C390.475 150.891 390.2 151.717 389.924 152.612C389.58 153.438 389.305 154.334 389.029 155.16C388.41 156.881 387.721 158.533 386.895 160.186C385.38 163.491 383.659 166.658 381.731 169.756C381.249 170.514 380.767 171.271 380.216 172.028L379.459 173.13L378.633 174.232L378.22 174.782L377.807 175.333L376.98 176.435C376.43 177.123 375.879 177.812 375.259 178.5C374.984 178.845 374.708 179.189 374.364 179.533L373.469 180.566C373.194 180.91 372.849 181.254 372.574 181.53C372.299 181.874 371.954 182.218 371.61 182.494C370.371 183.802 368.994 185.041 367.617 186.212C366.24 187.382 364.794 188.484 363.279 189.516C362.866 189.792 362.522 189.998 362.109 190.274L361.489 190.618L361.214 190.825L360.869 190.962C360.043 191.444 359.148 191.857 357.978 192.202C356.807 192.546 355.568 191.857 355.223 190.687C354.948 189.723 355.361 188.69 356.187 188.208V187.864Z" fill="#E52526"/>
<path d="M389.924 181.461C390.2 181.116 390.475 180.703 390.682 180.359C390.957 180.015 391.164 179.602 391.439 179.189C391.921 178.431 392.403 177.605 392.885 176.848C393.849 175.264 394.744 173.68 395.57 172.028C397.223 168.723 398.737 165.349 400.046 161.976C400.665 160.254 401.285 158.533 401.836 156.812C402.386 155.091 402.868 153.3 403.35 151.51C404.245 147.999 405.003 144.419 405.485 140.77C406.449 133.54 406.724 126.242 405.967 119.013C405.622 115.432 405.072 111.783 404.245 108.272C403.488 104.76 402.455 101.249 401.285 97.8064L400.872 96.4982C400.734 96.0851 400.527 95.672 400.39 95.19L399.908 93.8819L399.426 92.6426C399.288 92.2295 399.082 91.8163 398.944 91.4032L398.393 90.1639C398.049 89.3377 397.636 88.4426 397.291 87.6164C395.846 84.2427 394.262 80.9378 392.61 77.633C390.957 74.3281 389.236 71.0921 387.377 67.925C386.482 66.3414 385.518 64.7578 384.485 63.2431C383.521 61.6595 382.488 60.1448 381.456 58.6301C380.423 57.1153 379.39 55.6006 378.289 54.1547C377.187 52.7089 376.085 51.263 374.915 49.8171C372.643 46.9942 370.233 44.2401 367.617 41.6238C365.069 39.0075 362.384 36.5288 359.561 34.2567C358.115 33.1551 356.669 32.0535 355.223 31.0207C354.466 30.5388 353.709 29.9879 352.951 29.5748C352.538 29.3683 352.194 29.0929 351.781 28.8863C351.574 28.7486 351.368 28.6798 351.23 28.5421L350.955 28.4044L350.679 28.2667C349.784 27.8536 349.44 26.7519 349.922 25.9257C350.335 25.1684 351.23 24.7553 351.987 25.0307H352.056L352.469 25.1684L352.814 25.3061C353.089 25.3749 353.296 25.4438 353.502 25.5815C353.984 25.788 354.397 25.9257 354.879 26.1323C355.774 26.4765 356.669 26.8896 357.564 27.3028C359.354 28.1978 361.007 29.0929 362.659 30.1256C364.312 31.1584 365.964 32.26 367.479 33.3617C369.062 34.5321 370.577 35.7026 372.092 36.9419C378.082 41.9681 383.315 47.7515 388.065 53.8793C389.236 55.394 390.406 56.9776 391.508 58.5612C392.61 60.1448 393.711 61.7972 394.744 63.3808C395.295 64.207 395.777 65.0332 396.259 65.8594C396.741 66.6856 397.223 67.5118 397.705 68.3381C398.187 69.1643 398.668 69.9905 399.15 70.8856L399.839 72.1249L400.527 73.4331C402.318 76.8756 403.97 80.3182 405.554 83.8296C405.967 84.7246 406.311 85.6197 406.655 86.446L407.206 87.7541C407.413 88.1672 407.55 88.6492 407.757 89.1311L408.308 90.5082L408.79 91.8852C408.927 92.3671 409.134 92.7803 409.272 93.2622L409.754 94.7081C410.373 96.5671 410.924 98.4949 411.406 100.423C411.681 101.387 411.888 102.351 412.094 103.315C412.232 103.796 412.301 104.278 412.439 104.76C412.576 105.242 412.645 105.724 412.714 106.206C412.921 107.17 413.058 108.134 413.196 109.167C413.265 109.649 413.334 110.131 413.403 110.613L413.609 112.059L413.678 112.816L413.747 113.573L413.885 115.088C413.953 115.57 413.953 116.052 414.022 116.603C414.091 117.085 414.091 117.567 414.091 118.118C414.16 119.081 414.229 120.114 414.229 121.078C414.298 122.042 414.229 123.075 414.298 124.039C414.298 126.035 414.229 128.032 414.022 129.96C413.885 131.957 413.678 133.884 413.403 135.881C413.127 137.809 412.783 139.806 412.37 141.733C410.717 149.445 408.101 156.881 404.521 163.766C402.731 167.208 400.803 170.513 398.531 173.68C397.429 175.264 396.259 176.779 395.019 178.293C394.4 179.051 393.78 179.739 393.16 180.497C392.816 180.841 392.541 181.185 392.196 181.529C391.852 181.874 391.508 182.218 391.164 182.562L391.095 182.631C390.682 182.975 390.062 182.975 389.718 182.631C389.649 182.356 389.649 181.805 389.924 181.461Z" fill="#E52526"/>
<path d="M418.567 160.325V160.256V160.187L418.635 159.981L418.773 159.568C418.842 159.292 418.98 159.086 419.049 158.81C419.255 158.259 419.462 157.777 419.599 157.227C419.944 156.194 420.288 155.092 420.632 153.991C421.321 151.856 421.871 149.653 422.422 147.45C423.455 143.112 424.212 138.637 424.694 134.23C424.763 133.68 424.832 133.129 424.832 132.578L424.97 130.925L425.107 129.273L425.176 127.621C425.176 127.07 425.245 126.519 425.245 125.968C425.245 125.417 425.245 124.867 425.314 124.316C425.314 123.765 425.383 123.214 425.383 122.663L425.452 121.011C425.521 119.909 425.589 118.739 425.727 117.637C425.796 117.086 425.865 116.536 425.865 115.916L426.002 114.195C426.14 111.923 426.209 109.65 426.002 107.378C425.934 106.828 425.865 106.277 425.796 105.657C425.727 105.106 425.589 104.555 425.521 104.005C425.314 102.903 425.039 101.801 424.832 100.631C424.694 100.08 424.557 99.5293 424.419 98.9785C424.281 98.4277 424.143 97.8769 423.937 97.3261C423.799 96.7753 423.593 96.2245 423.455 95.6737L422.904 94.0213C421.389 89.6836 419.462 85.5525 417.534 81.4214C416.501 79.3559 415.537 77.3593 414.504 75.2937C414.229 74.8118 414.022 74.2609 413.747 73.779L412.99 72.2642C412.508 71.2315 411.957 70.2676 411.475 69.2348C410.993 68.202 410.442 67.1693 409.96 66.1365C409.478 65.1037 408.996 64.071 408.514 63.0382C408.032 62.0054 407.55 60.9726 407.137 59.871C406.655 58.7694 406.242 57.7366 405.829 56.5662V56.4973C405.416 55.3269 406.105 54.0187 407.275 53.6056C408.101 53.3302 408.927 53.5367 409.547 54.0876C410.442 54.9138 411.337 55.7399 412.095 56.635C412.921 57.5301 413.678 58.494 414.436 59.3891C414.78 59.871 415.193 60.353 415.537 60.835C415.881 61.3169 416.226 61.7989 416.57 62.2808C416.914 62.7628 417.258 63.3136 417.534 63.7956L418.016 64.5529C418.153 64.8283 418.36 65.0349 418.498 65.3103C419.117 66.3431 419.737 67.3758 420.288 68.4774L421.114 70.061C421.389 70.6118 421.665 71.1626 421.871 71.7134C422.904 73.9167 423.799 76.1199 424.694 78.392C424.901 78.9428 425.107 79.5625 425.314 80.1133C425.521 80.6641 425.727 81.2838 425.865 81.8346C426.209 83.0051 426.622 84.1067 426.898 85.2771C427.586 87.6181 428.137 89.959 428.688 92.3C429.239 94.6409 429.72 96.9818 430.202 99.3228L430.547 101.113L430.753 102.008L430.891 102.903C431.097 104.073 431.304 105.244 431.579 106.414C432.061 108.755 432.612 111.165 433.163 113.506L433.576 115.296C433.714 115.916 433.783 116.536 433.92 117.086C434.058 117.706 434.127 118.326 434.196 118.945C434.265 119.221 434.265 119.565 434.333 119.84L434.402 120.736C434.471 121.355 434.471 121.975 434.471 122.594C434.471 123.214 434.471 123.834 434.471 124.453C434.402 125.693 434.333 126.932 434.265 128.103C434.196 128.722 434.196 129.342 434.127 129.962L433.92 131.821L433.645 133.68C433.576 134.299 433.438 134.919 433.37 135.47C432.543 140.289 431.235 145.04 429.445 149.653C429.238 150.204 428.963 150.823 428.757 151.374C428.481 151.925 428.275 152.476 427.999 153.027C427.517 154.128 426.966 155.23 426.347 156.332C425.796 157.433 425.176 158.466 424.488 159.499C424.144 160.05 423.799 160.532 423.455 161.013C423.248 161.289 423.111 161.495 422.904 161.771C422.835 161.909 422.698 162.046 422.629 162.184L422.285 162.597C421.527 163.492 420.219 163.699 419.324 162.941C418.773 162.528 418.498 161.84 418.498 161.151L418.567 160.325Z" fill="#E52526"/>
<path d="M113.831 175.607C114.038 175.332 114.313 175.056 114.52 174.712C114.726 174.368 115.002 174.092 115.208 173.748C115.415 173.404 115.622 173.128 115.828 172.784L116.448 171.82C116.654 171.476 116.861 171.132 117.067 170.856C117.136 170.719 117.274 170.512 117.343 170.374L117.618 169.892C117.825 169.548 117.962 169.204 118.169 168.86C118.376 168.515 118.513 168.171 118.72 167.827L119.271 166.794C119.408 166.45 119.615 166.106 119.753 165.761L120.235 164.729C120.372 164.384 120.51 164.04 120.648 163.627C120.923 162.938 121.267 162.25 121.543 161.493L122.369 159.358C122.851 157.912 123.402 156.466 123.815 154.952L124.159 153.85C124.297 153.506 124.366 153.093 124.503 152.748L124.779 151.647L125.123 150.545C125.192 150.201 125.33 149.788 125.398 149.444C125.467 149.031 125.536 148.686 125.674 148.273L126.225 146.001C126.431 145.244 126.569 144.486 126.775 143.729L127.051 142.558C127.12 142.145 127.257 141.801 127.326 141.388C127.533 140.631 128.29 140.218 129.048 140.424C129.461 140.562 129.805 140.837 129.943 141.25L130.08 141.663C130.425 142.49 130.631 143.385 130.838 144.211C131.044 145.037 131.182 145.932 131.32 146.758C131.388 147.172 131.388 147.585 131.388 148.067C131.388 148.48 131.457 148.893 131.457 149.375C131.457 150.27 131.457 151.096 131.388 151.922C131.32 152.748 131.251 153.644 131.113 154.47C131.044 154.883 130.975 155.296 130.907 155.709C130.838 156.122 130.7 156.535 130.631 156.948C130.287 158.601 129.736 160.253 129.116 161.906C127.808 165.142 126.018 168.171 123.677 170.856C123.126 171.545 122.438 172.164 121.818 172.784C121.199 173.404 120.441 173.955 119.753 174.505C119.34 174.781 118.995 174.987 118.582 175.263C118.169 175.469 117.756 175.745 117.412 175.951C116.999 176.158 116.585 176.364 116.172 176.502C115.69 176.64 115.277 176.846 114.726 176.915H114.589C114.176 176.984 113.694 176.709 113.625 176.296C113.625 176.02 113.694 175.745 113.831 175.607Z" fill="#E52526"/>
<path d="M354.26 78.3915C354.329 79.2177 354.466 80.0439 354.604 80.8701C354.742 81.6964 354.811 82.5226 354.948 83.4177L355.293 85.9652C355.43 86.7914 355.568 87.6176 355.706 88.4438C355.981 90.0962 356.256 91.7486 356.532 93.4699L357.014 95.9486L357.22 97.1879L357.496 98.4272C357.633 99.2534 357.84 100.08 357.978 100.906C358.184 101.732 358.322 102.558 358.46 103.384C358.666 104.211 358.804 105.037 359.01 105.863L359.561 108.342C359.768 109.168 359.974 109.994 360.181 110.82C360.387 111.647 360.594 112.473 360.801 113.23L361.145 114.47L361.489 115.709L361.833 116.948L361.971 117.568L362.178 118.188C363.073 121.424 364.105 124.591 365.207 127.758C366.24 130.925 367.548 134.023 368.856 137.053L369.889 139.325C370.233 140.082 370.577 140.84 370.922 141.597L371.473 142.699L372.023 143.8C372.436 144.558 372.781 145.315 373.194 146.003L374.364 148.207L374.64 148.757L374.984 149.308C375.19 149.653 375.397 149.997 375.604 150.41L376.223 151.512C376.43 151.856 376.636 152.2 376.912 152.544L378.22 154.679C378.702 155.505 378.495 156.538 377.669 157.088C377.049 157.502 376.292 157.433 375.741 157.02L375.466 156.813C374.708 156.262 374.02 155.711 373.331 155.161L372.781 154.747L372.505 154.541L372.23 154.334C371.886 154.059 371.61 153.715 371.266 153.37C370.922 153.026 370.646 152.751 370.302 152.407L369.82 151.925L369.338 151.443C368.719 150.754 368.168 150.066 367.548 149.377C367.41 149.239 367.273 149.033 367.135 148.826L366.722 148.275L365.896 147.174C365.62 146.83 365.345 146.485 365.069 146.072L364.312 144.971C364.037 144.626 363.761 144.213 363.555 143.869C363.279 143.525 363.073 143.112 362.797 142.767C362.315 142.01 361.833 141.253 361.42 140.426C357.84 134.161 355.224 127.482 353.365 120.597C352.47 117.155 351.712 113.712 351.161 110.201L350.817 107.584C350.748 107.171 350.679 106.689 350.679 106.276L350.542 104.968C350.335 103.247 350.266 101.457 350.198 99.6665C350.06 96.1551 350.129 92.6437 350.404 89.0635C350.473 88.6504 350.473 88.1684 350.542 87.7553C350.611 87.3422 350.611 86.8602 350.679 86.4471C350.817 85.5521 350.886 84.657 351.093 83.8307C351.368 82.0406 351.712 80.3193 352.263 78.5981L352.332 78.3915C352.47 77.9096 353.02 77.5653 353.502 77.7718C353.984 77.703 354.26 78.0473 354.26 78.3915Z" fill="#E52526"/>
</svg>
