<svg width="512" height="195" viewBox="0 0 512 195" fill="none" xmlns="http://www.w3.org/2000/svg">
<path d="M501.367 90.1631L500.308 90.9205C499.93 91.1959 499.551 91.4024 499.173 91.6778C498.416 92.1598 497.66 92.6417 496.903 93.1237C496.147 93.6057 495.39 94.0876 494.558 94.5007C493.801 94.9827 493.044 95.3958 492.212 95.8777C491.455 96.2908 490.623 96.7728 489.867 97.1859C489.11 97.599 488.278 98.0121 487.521 98.4252C486.689 98.8383 485.932 99.1826 485.1 99.5269C484.268 99.8711 483.511 100.215 482.679 100.56C479.425 101.868 476.096 102.832 472.843 103.451C471.178 103.727 469.589 103.933 468 103.933C466.411 103.933 464.822 103.865 463.309 103.658C461.796 103.451 460.283 103.107 458.845 102.556C458.088 102.281 457.408 102.006 456.727 101.73C456.046 101.455 455.365 101.11 454.684 100.697C454.003 100.353 453.322 99.94 452.716 99.5269C452.414 99.3203 452.111 99.1138 451.809 98.9072C451.657 98.7695 451.506 98.7007 451.355 98.563L450.976 98.2187C449.917 97.3236 449.009 96.3597 448.252 95.2581C446.739 93.0549 445.756 90.3008 445.226 87.3402C444.696 84.3796 444.621 81.1436 444.772 77.9076C444.923 74.6716 445.226 71.2979 445.68 67.9242C446.058 64.5505 446.588 61.1079 447.042 57.6653C447.496 54.2228 447.95 50.7114 448.252 47.2C448.404 45.4098 448.479 43.6885 448.555 41.8984C448.555 41.0034 448.631 40.1083 448.631 39.2132C448.631 38.3181 448.631 37.4231 448.631 36.528C448.479 32.9478 448.177 29.2298 447.345 25.6495C446.966 23.8594 446.437 22.0004 445.756 20.2791C445.075 18.489 444.242 16.7677 443.259 15.1153C442.275 13.4629 441.14 11.8793 439.93 10.3646C438.643 8.9187 437.281 7.54166 435.693 6.30233C432.666 3.82369 429.261 1.89587 425.629 0.381147C424.873 0.036891 423.889 0.381147 423.587 1.06966C423.284 1.68932 423.511 2.44667 424.192 2.85977C425.705 3.75484 427.218 4.71875 428.58 5.82037C429.942 6.92199 431.304 8.02362 432.439 9.19409C433.65 10.4334 434.709 11.6727 435.617 13.0497C436.525 14.4268 437.357 15.8038 438.038 17.3185C438.719 18.7644 439.249 20.2791 439.703 21.8627C439.93 22.6201 440.081 23.4463 440.232 24.2036C440.384 24.961 440.535 25.7872 440.686 26.6134C441.14 29.8494 441.216 33.0855 441.065 36.3903C440.989 37.2165 440.989 38.0427 440.913 38.8689C440.838 39.6952 440.762 40.5214 440.686 41.3476C440.535 43 440.308 44.7213 440.081 46.3737C439.627 49.7475 439.022 53.1212 438.341 56.4949C437.735 59.8686 437.13 63.3111 436.6 66.8226C436.071 70.334 435.541 73.8454 435.314 77.4256C435.163 79.2158 435.163 81.0747 435.163 82.9337C435.239 84.7927 435.314 86.6517 435.617 88.5795C435.92 90.5074 436.374 92.4352 437.054 94.363C437.735 96.2909 438.719 98.1498 439.93 99.94C441.14 101.73 442.653 103.383 444.318 104.828L444.999 105.379L445.68 105.861C446.134 106.205 446.588 106.481 447.042 106.756C447.95 107.307 448.858 107.858 449.766 108.34C450.674 108.822 451.657 109.304 452.716 109.717C453.7 110.13 454.759 110.474 455.819 110.818C457.937 111.438 460.131 111.92 462.326 112.127C464.52 112.333 466.714 112.333 468.908 112.127C469.967 112.058 471.027 111.851 472.086 111.714C473.145 111.507 474.204 111.3 475.188 111.025C479.274 109.923 482.981 108.34 486.462 106.412C489.942 104.484 493.044 102.212 495.919 99.8023C496.676 99.1826 497.357 98.5629 498.038 97.9433C498.719 97.3236 499.4 96.6351 500.081 96.0154C500.762 95.3269 501.367 94.7073 501.972 93.9499C502.275 93.6057 502.578 93.2614 502.88 92.9171C503.183 92.5729 503.486 92.2287 503.788 91.8155C504.242 91.1959 504.091 90.4385 503.41 90.0254C502.88 89.6811 502.199 89.75 501.746 90.0254L501.367 90.1631Z" fill="#E52526"/>
<path d="M506.74 111.095L505.605 111.715C505.226 111.922 504.772 112.128 504.394 112.335C503.562 112.748 502.729 113.161 501.897 113.574C500.233 114.4 498.492 115.158 496.828 115.846C493.423 117.292 489.867 118.531 486.386 119.564C479.274 121.63 472.011 122.8 464.898 122.525C463.158 122.456 461.342 122.318 459.602 122.112C457.862 121.905 456.122 121.561 454.457 121.148C454.003 121.01 453.625 120.941 453.171 120.803L451.885 120.459L450.674 120.046L449.463 119.633C447.799 119.082 446.21 118.394 444.621 117.774C444.243 117.567 443.789 117.43 443.41 117.223C443.032 117.017 442.654 116.879 442.2 116.672C441.821 116.466 441.368 116.328 440.989 116.122C440.611 115.915 440.157 115.777 439.779 115.571L439.173 115.295C438.946 115.226 438.795 115.089 438.568 115.02L437.433 114.4L436.298 113.712C435.92 113.505 435.542 113.23 435.239 113.023C432.364 111.164 429.716 108.823 427.748 106.069C426.765 104.692 425.857 103.246 425.176 101.732L424.873 101.181L424.646 100.63C424.495 100.217 424.344 99.8727 424.192 99.4596C424.041 99.0465 423.89 98.7022 423.738 98.2891C423.587 97.876 423.511 97.4629 423.36 97.1186C422.376 93.8826 421.922 90.5089 421.771 87.1352C421.695 83.7615 421.998 80.3189 422.528 76.9452C422.83 75.2239 423.133 73.5715 423.511 71.9191C423.89 70.2667 424.344 68.6142 424.873 66.9618C425.1 66.1356 425.403 65.3094 425.63 64.4832C425.857 63.6569 426.16 62.8307 426.462 62.0734C426.613 61.6603 426.765 61.2472 426.916 60.834L427.143 60.2144L427.294 59.8701L427.446 59.5259C427.748 58.6308 428.051 57.8046 428.278 56.9095C429.413 53.3981 430.397 49.8179 431.002 46.031C431.607 42.3131 431.834 38.3886 431.38 34.464C430.926 30.6084 429.867 26.7527 428.051 23.3101C427.446 22.0708 425.857 21.5889 424.495 22.1397C423.511 22.5528 422.906 23.5167 422.982 24.4806V24.5495C423.133 26.2707 423.284 27.992 423.284 29.6445C423.36 31.2969 423.284 32.9493 423.209 34.6017C422.982 37.9066 422.452 41.1426 421.695 44.4475C421.317 46.0999 420.863 47.7523 420.409 49.4047C419.955 51.0572 419.426 52.7785 418.972 54.4309L418.215 56.9784L418.139 57.2538L418.064 57.5292L417.837 58.2177C417.685 58.6308 417.534 59.1128 417.383 59.5947C416.853 61.3849 416.323 63.2439 415.945 65.1028C415.113 68.7519 414.659 72.5387 414.432 76.2567C414.205 80.0435 414.281 83.7615 414.735 87.5483C415.189 91.3351 415.945 95.0531 417.156 98.7022C417.307 99.1842 417.458 99.5973 417.61 100.079C417.761 100.561 417.912 100.974 418.139 101.456L418.442 102.145C418.518 102.351 418.669 102.558 418.745 102.833L419.047 103.522L419.35 104.21C420.182 106 421.166 107.722 422.149 109.374L422.528 109.994L422.906 110.613L423.284 111.233L423.738 111.853L424.192 112.472L424.646 113.092L425.1 113.712L425.554 114.331C426.84 115.915 428.127 117.499 429.64 118.944C431.077 120.39 432.666 121.767 434.407 123.007C436.071 124.246 437.811 125.348 439.703 126.38C441.595 127.413 443.562 128.239 445.605 128.997C447.647 129.754 449.766 130.305 451.885 130.787C452.414 130.925 452.944 130.993 453.473 131.131C454.003 131.269 454.533 131.338 455.062 131.407L455.895 131.544L456.727 131.682L457.559 131.82C457.862 131.82 458.089 131.889 458.391 131.889C460.586 132.095 462.704 132.233 464.898 132.233C469.211 132.233 473.524 131.682 477.61 130.856C481.771 129.961 485.705 128.721 489.564 127.275C490.548 126.931 491.456 126.518 492.364 126.105C493.272 125.692 494.18 125.279 495.088 124.797C496.903 123.902 498.719 122.938 500.384 121.974C502.124 120.941 503.789 119.908 505.453 118.738C506.286 118.187 507.042 117.567 507.874 117.017C508.253 116.741 508.631 116.397 509.085 116.122C509.312 115.984 509.463 115.777 509.69 115.64L510.296 115.158C511.355 114.263 511.431 112.748 510.371 111.784C509.539 110.958 508.101 110.82 507.118 111.371L506.74 111.095Z" fill="#E52526"/>
<path d="M503.41 133.195C503.032 133.332 502.578 133.47 502.124 133.608L500.838 134.021C499.93 134.296 499.098 134.572 498.19 134.778C496.449 135.26 494.634 135.742 492.818 136.224C491.002 136.637 489.262 137.119 487.446 137.464C485.63 137.877 483.814 138.221 481.998 138.496C478.366 139.185 474.735 139.667 471.103 140.011C467.471 140.355 463.839 140.631 460.207 140.631C456.576 140.631 453.019 140.424 449.463 140.011C445.907 139.529 442.502 138.841 439.173 137.808C435.844 136.775 432.666 135.467 429.791 133.746C429.035 133.332 428.354 132.851 427.673 132.437C426.992 131.955 426.311 131.473 425.554 130.992C424.192 129.959 422.83 128.926 421.544 127.824C420.258 126.723 419.047 125.552 417.837 124.313C416.702 123.074 415.567 121.834 414.507 120.526C413.448 119.218 412.54 117.841 411.632 116.464C410.724 115.087 409.892 113.641 409.136 112.195C407.622 109.303 406.336 106.205 405.428 103.038C405.277 102.625 405.201 102.281 405.05 101.867L404.898 101.248L404.747 100.628C404.671 100.215 404.52 99.8019 404.444 99.4577C404.369 99.0446 404.218 98.6314 404.142 98.2872C403.764 96.7036 403.461 95.0512 403.158 93.3988C402.175 86.8579 401.872 80.1105 402.175 73.4319C402.477 66.6845 403.234 59.9371 404.217 53.1896C404.293 52.4323 403.763 51.7438 402.931 51.6749C402.25 51.6061 401.569 51.9503 401.342 52.57L401.267 52.7077L400.813 53.947L400.359 55.1863C400.056 56.0126 399.753 56.8388 399.526 57.665C398.997 59.3174 398.467 61.0387 398.013 62.6911L397.635 63.9305C397.484 64.3436 397.408 64.7566 397.332 65.2386C397.105 66.0648 396.878 66.9599 396.727 67.7861C396.349 69.5074 395.97 71.2287 395.668 72.9499C394.457 79.9039 393.852 87.0645 394.457 94.3627C394.608 96.1528 394.835 98.0118 395.138 99.8019C395.214 100.284 395.289 100.697 395.365 101.179C395.441 101.661 395.516 102.074 395.592 102.556L395.743 103.244L395.895 103.933C395.97 104.415 396.122 104.828 396.197 105.31C396.651 107.1 397.181 108.959 397.786 110.749C398.392 112.539 399.148 114.33 399.98 116.051C400.813 117.772 401.721 119.493 402.704 121.215C403.688 122.867 404.823 124.52 406.033 126.103C407.244 127.687 408.53 129.201 409.892 130.647C411.254 132.093 412.692 133.47 414.205 134.847C415.718 136.155 417.307 137.464 418.896 138.634C419.728 139.185 420.485 139.804 421.393 140.355C422.301 140.906 423.209 141.457 424.117 142.008C425.024 142.559 426.008 143.04 426.916 143.522C427.9 144.004 428.883 144.418 429.867 144.831C431.834 145.657 433.877 146.345 435.92 146.896C437.963 147.447 440.006 147.929 442.048 148.273C443.108 148.48 444.091 148.617 445.151 148.755C445.68 148.824 446.21 148.893 446.664 148.962C447.193 149.031 447.723 149.031 448.177 149.099C450.22 149.237 452.263 149.375 454.306 149.375C454.835 149.375 455.289 149.375 455.819 149.375C456.349 149.375 456.803 149.375 457.332 149.306C458.316 149.237 459.375 149.237 460.359 149.168C468.379 148.617 476.172 147.103 483.511 144.831C485.327 144.28 487.219 143.66 488.959 143.04C489.867 142.696 490.775 142.352 491.683 142.008C492.591 141.663 493.423 141.319 494.331 140.906C495.239 140.562 496.071 140.149 496.979 139.804C497.811 139.391 498.719 138.978 499.552 138.565C500.384 138.152 501.216 137.739 502.048 137.257L503.335 136.568C503.789 136.362 504.167 136.086 504.545 135.811L504.697 135.742C505.453 135.329 505.605 134.434 505.151 133.746C504.848 133.195 504.091 132.988 503.41 133.195Z" fill="#E52526"/>
<path d="M491.077 153.643L489.866 153.919L488.58 154.263L486.008 154.883C484.267 155.296 482.603 155.64 480.863 155.984C479.122 156.329 477.458 156.604 475.718 156.948C474.885 157.086 473.977 157.224 473.145 157.361C472.313 157.499 471.405 157.637 470.573 157.706C463.687 158.532 456.802 158.807 450.068 158.394C448.404 158.256 446.663 158.119 444.999 157.912C444.545 157.843 444.166 157.774 443.788 157.774C443.334 157.706 442.956 157.637 442.578 157.568C442.199 157.499 441.745 157.43 441.367 157.361C440.989 157.293 440.535 157.224 440.156 157.155C438.492 156.879 436.903 156.466 435.314 156.053C433.725 155.64 432.136 155.227 430.472 154.814C427.294 153.919 424.04 152.955 420.938 151.716C419.349 151.096 417.836 150.407 416.323 149.65C414.81 148.893 413.372 147.998 412.01 147.103C411.329 146.621 410.648 146.139 409.967 145.657C409.286 145.175 408.681 144.624 408 144.073C406.714 143.04 405.503 141.87 404.368 140.699C402.098 138.358 399.98 135.88 398.164 133.195C397.256 131.886 396.424 130.509 395.591 129.132C394.759 127.755 394.078 126.309 393.397 124.932C392.716 123.487 392.111 122.041 391.506 120.595C390.9 119.149 390.371 117.634 389.917 116.12C388.933 113.159 388.177 110.129 387.496 107.031C387.193 105.516 386.89 103.933 386.588 102.418C386.285 100.903 386.134 99.3198 385.907 97.7362C385.453 94.6379 385.15 91.4708 384.923 88.3036C384.772 86.72 384.696 85.1365 384.62 83.5529L384.393 78.8022V78.6645C384.318 77.4251 383.183 76.4612 381.821 76.5301C380.762 76.5989 379.929 77.2186 379.627 78.0448L379.475 78.3891L379.4 78.7333C379.324 78.9399 379.249 79.1464 379.173 79.353C379.022 79.7661 378.946 80.1792 378.795 80.5923C378.568 81.4185 378.341 82.2447 378.189 83.0709C377.811 84.7234 377.584 86.4447 377.433 88.166C377.054 91.5397 377.054 94.9822 377.281 98.4248C377.508 101.867 378.038 105.241 378.87 108.615C379.627 111.988 380.686 115.293 382.048 118.529C384.696 125.001 388.404 131.06 392.868 136.568C395.062 139.322 397.559 141.939 400.131 144.417L401.115 145.312L401.569 145.794L402.098 146.208L403.082 147.103L404.141 147.998C404.822 148.617 405.503 149.168 406.26 149.719L408.378 151.371C409.135 151.922 409.816 152.473 410.497 153.024C411.178 153.575 411.934 154.125 412.691 154.676C414.204 155.709 415.718 156.811 417.231 157.843C418.82 158.876 420.409 159.771 422.073 160.666C423.738 161.561 425.478 162.319 427.294 163.007C429.11 163.696 430.926 164.246 432.742 164.728C434.633 165.21 436.449 165.555 438.341 165.899C438.794 165.968 439.324 166.037 439.778 166.105C440.232 166.174 440.762 166.243 441.216 166.312C441.67 166.381 442.199 166.45 442.653 166.519C443.107 166.587 443.637 166.656 444.091 166.656C445.982 166.863 447.874 166.932 449.841 167.001C457.483 167.207 465.049 166.381 472.313 164.797C475.945 164.04 479.501 163.007 482.981 161.837C484.721 161.217 486.462 160.597 488.126 159.909C488.958 159.565 489.791 159.22 490.623 158.876L491.834 158.325C492.061 158.256 492.288 158.119 492.439 158.05L493.12 157.706C494.33 157.155 494.784 155.778 494.103 154.676C493.574 153.712 492.363 153.299 491.304 153.575L491.077 153.643Z" fill="#E52526"/>
<path d="M442.578 177.742H442.124C441.973 177.742 441.746 177.742 441.595 177.742L440.989 177.673C440.762 177.673 440.611 177.604 440.384 177.604L440.081 177.535L439.779 177.466L439.173 177.398C438.719 177.329 438.341 177.26 437.887 177.191C436.147 176.847 434.407 176.434 432.666 175.952C432.213 175.814 431.834 175.745 431.38 175.607L430.094 175.194C429.262 174.919 428.354 174.643 427.521 174.368C427.067 174.23 426.689 174.093 426.235 173.886C425.781 173.748 425.403 173.611 424.949 173.404L423.663 172.922C423.209 172.784 422.83 172.578 422.452 172.44C422.074 172.303 421.62 172.096 421.242 171.958L420.031 171.407L418.82 170.857L418.215 170.581L417.61 170.306L416.399 169.755L415.189 169.135C414.356 168.722 413.6 168.309 412.843 167.896C412.086 167.483 411.254 167.07 410.497 166.657L409.363 165.968L408.757 165.624L408.228 165.28C407.471 164.798 406.714 164.385 406.033 163.903C405.655 163.696 405.277 163.421 404.899 163.214L403.839 162.457C402.402 161.493 400.964 160.46 399.602 159.427C398.921 158.877 398.24 158.395 397.559 157.844L395.592 156.191C394.987 155.641 394.306 155.09 393.701 154.47L391.809 152.749L390.901 151.854C390.598 151.578 390.296 151.303 389.993 150.959C389.388 150.339 388.782 149.788 388.177 149.169L386.361 147.378L385.453 146.483C385.151 146.208 384.848 145.864 384.545 145.588C383.94 144.969 383.335 144.349 382.805 143.729L381.065 141.801C378.795 139.185 376.752 136.431 375.163 133.402C374.936 133.057 374.709 132.644 374.558 132.3L374.028 131.13L373.499 129.959C373.347 129.546 373.196 129.202 372.969 128.789L372.44 127.618L372.213 127.067L371.986 126.448C371.683 125.621 371.38 124.864 371.153 124.038C370.094 120.871 369.262 117.566 368.656 114.261L368.278 111.782C368.202 110.956 368.051 110.13 367.975 109.304C367.9 108.891 367.9 108.477 367.824 108.064L367.748 106.825L367.673 105.586C367.673 105.173 367.597 104.76 367.597 104.346L367.521 101.868C367.521 101.661 367.521 101.455 367.521 101.248V100.628V99.3891C367.446 97.7367 367.521 96.0154 367.597 94.363C367.597 93.9499 367.597 93.5367 367.673 93.1236L367.748 91.8843L367.824 90.645V90.0253L367.9 89.4057L368.051 86.927C368.127 86.1008 368.202 85.2746 368.278 84.4484C368.354 83.6222 368.429 82.796 368.505 81.9698L368.808 79.4911C368.959 77.8387 369.186 76.1174 369.413 74.465C369.564 72.8125 369.867 71.0913 370.018 69.4388L370.094 68.8192C370.094 68.6126 370.17 68.4061 370.17 68.1995L370.321 66.9602C370.472 66.134 370.548 65.3078 370.624 64.4127C370.851 62.7603 371.078 61.039 371.229 59.3177C371.456 57.5964 371.683 55.944 371.759 54.1539V54.085C371.834 52.8457 370.775 51.8129 369.413 51.7441C368.354 51.6752 367.446 52.2261 366.992 53.0523C366.235 54.7047 365.554 56.2883 364.873 57.9407C364.268 59.5931 363.663 61.3144 363.133 62.9668C362.906 63.793 362.603 64.6881 362.376 65.5143L361.998 66.8225C361.922 67.0291 361.847 67.2356 361.847 67.4421L361.695 68.0618C361.468 68.9569 361.317 69.7831 361.09 70.6782L360.788 71.9863C360.712 72.3995 360.636 72.8814 360.561 73.2945C360.258 75.0158 359.955 76.8059 359.728 78.5272L359.426 81.1435C359.35 82.0386 359.274 82.9337 359.199 83.8287C359.047 85.6189 359.047 87.3401 358.972 89.1303V89.8188V90.5073V91.8155C358.972 92.7105 358.972 93.6056 359.047 94.5007C359.123 96.2908 359.199 98.0809 359.426 99.8022L359.577 101.11L359.653 101.799C359.653 102.005 359.728 102.212 359.728 102.487L360.107 105.104C360.182 105.517 360.258 105.999 360.334 106.412L360.561 107.72L360.788 109.028C360.863 109.441 360.939 109.923 361.09 110.336L361.695 112.953L362.376 115.569C363.284 119.012 364.344 122.454 365.554 125.828C366.16 127.48 366.841 129.202 367.521 130.854C367.673 131.267 367.9 131.68 368.051 132.093L368.581 133.333L369.11 134.572C369.262 134.985 369.489 135.398 369.716 135.811C371.229 139.116 372.818 142.421 374.634 145.657L376.071 148.067C376.525 148.824 377.055 149.65 377.584 150.408C378.114 151.165 378.644 151.923 379.173 152.68C379.476 153.093 379.779 153.437 380.006 153.782L380.914 154.883C381.216 155.227 381.519 155.572 381.822 155.985L382.805 157.018C383.486 157.706 384.167 158.395 384.848 159.083C385.529 159.772 386.286 160.391 386.967 161.011C387.723 161.631 388.404 162.25 389.161 162.87C389.917 163.49 390.674 164.109 391.431 164.66C392.187 165.211 392.944 165.831 393.776 166.381C395.365 167.483 396.954 168.585 398.619 169.617C401.948 171.683 405.352 173.473 408.909 175.125C409.817 175.539 410.724 175.952 411.632 176.296L412.994 176.847L414.356 177.398L415.037 177.673L415.718 177.948L417.08 178.43C417.988 178.706 418.972 179.05 419.88 179.325C420.334 179.463 420.788 179.601 421.317 179.738L422.755 180.152C423.209 180.289 423.738 180.427 424.192 180.496C424.646 180.634 425.176 180.771 425.63 180.84C427.521 181.322 429.489 181.666 431.456 181.942C433.423 182.217 435.39 182.424 437.433 182.561C437.963 182.561 438.492 182.561 438.946 182.63H439.703H440.081H440.46C441.519 182.561 442.578 182.493 443.865 182.217C445.151 181.873 445.907 180.702 445.529 179.532C445.226 178.568 444.243 177.879 443.184 177.879L442.578 177.742Z" fill="#E52526"/>
<path d="M483.965 73.3624C483.889 73.4312 483.889 73.5001 483.814 73.5689L483.662 73.8443L483.284 74.3262C483.057 74.6705 482.83 75.0148 482.528 75.359C481.998 76.0475 481.544 76.6672 481.014 77.3557C479.955 78.6639 478.896 79.8344 477.685 80.936C477.08 81.4868 476.55 81.9687 475.945 82.3818C475.34 82.795 474.734 83.1392 474.205 83.4146C473.902 83.5523 473.599 83.69 473.372 83.7589C473.07 83.8277 472.843 83.8966 472.54 83.9654C472.389 83.9654 472.313 84.0343 472.162 84.0343C472.01 84.0343 471.935 84.0343 471.783 84.0343C471.556 84.0343 471.254 84.0343 471.027 84.0343C470.497 83.9654 470.043 83.8277 469.514 83.6212L469.287 83.5523L469.06 83.4835C468.908 83.4146 468.757 83.3458 468.681 83.2769L468.606 83.2081L468.53 83.1392C468.454 83.1392 468.454 83.0704 468.379 83.0704C468.303 83.0704 468.303 83.0015 468.227 83.0015C468.152 83.0015 468.152 82.9326 468.076 82.9326C467.546 82.5884 467.092 82.2441 466.639 81.8999C466.185 81.5556 465.731 81.1425 465.352 80.5917C464.974 80.1098 464.596 79.4901 464.217 78.8705C463.915 78.1819 463.688 77.4934 463.536 76.736C463.385 75.9787 463.309 75.1525 463.309 74.3951C463.309 73.982 463.309 73.5689 463.385 73.1558C463.385 72.7427 463.461 72.3296 463.461 71.9165C463.763 68.6116 464.596 65.3067 465.352 61.933C465.731 60.2118 466.109 58.5594 466.411 56.8381L466.639 55.5299L466.79 54.2217C466.865 53.3266 467.017 52.5004 467.092 51.6054C467.244 49.8152 467.319 48.0251 467.319 46.235C467.244 44.376 467.017 42.517 466.563 40.658C466.109 38.7991 465.428 37.0089 464.444 35.2876C463.536 33.5663 462.326 32.0516 460.964 30.6746C460.207 29.9173 458.921 29.8484 458.089 30.5369C457.483 31.0189 457.256 31.7762 457.559 32.4647V32.5336C458.164 34.1171 458.694 35.6319 459.072 37.1466C459.451 38.6613 459.753 40.1761 459.905 41.6908C459.98 42.0351 459.98 42.4481 459.98 42.8612V43.4121V43.9629C459.98 44.7203 459.98 45.5464 459.98 46.3038C459.98 47.8874 459.829 49.471 459.753 51.1234L459.526 53.6021L459.451 54.8414L459.375 56.0807C459.299 57.7331 459.224 59.4544 459.148 61.1757C459.072 62.897 458.997 64.6182 458.921 66.3395C458.845 68.0608 458.694 69.7821 458.618 71.5722L458.543 72.8804C458.543 73.2935 458.543 73.7755 458.467 74.2574C458.467 75.1525 458.391 76.0475 458.391 77.0115C458.391 77.9754 458.391 78.9393 458.467 79.9721C458.543 81.0048 458.694 82.0376 458.997 83.1392C459.148 83.69 459.375 84.2408 459.602 84.7228C459.905 85.2736 460.207 85.7555 460.51 86.2375C461.191 87.2014 462.099 88.0965 463.082 88.785C463.158 88.8539 463.385 88.9916 463.461 89.0604C463.612 89.1293 463.763 89.267 463.915 89.3358C464.066 89.4047 464.217 89.4735 464.369 89.5424L464.596 89.6801L464.823 89.7489C465.125 89.8866 465.352 90.0243 465.655 90.0932L466.109 90.2997L466.563 90.4374C467.168 90.644 467.773 90.8505 468.454 90.9882C469.135 91.1259 469.816 91.1948 470.497 91.1948C471.859 91.2636 473.297 91.0571 474.583 90.7128C475.869 90.3686 477.004 89.8178 478.063 89.1981C478.593 88.9227 479.047 88.5785 479.501 88.2342C479.955 87.8899 480.333 87.5457 480.787 87.1326C481.544 86.3752 482.301 85.6178 482.906 84.8605C484.116 83.2769 485.1 81.6245 485.932 79.9032C486.311 79.077 486.689 78.1819 486.992 77.3557C487.143 76.9426 487.294 76.4606 487.446 76.0475L487.597 75.359C487.597 75.2213 487.673 75.1525 487.673 75.0148L487.748 74.6705C487.975 73.7066 487.294 72.7427 486.235 72.5361C485.478 72.3984 484.646 72.6738 484.192 73.2246L483.965 73.3624Z" fill="#E52526"/>
<path d="M391.96 179.808L390.825 178.982C390.447 178.707 390.069 178.431 389.69 178.156C388.934 177.605 388.177 176.986 387.496 176.366C386.059 175.195 384.621 173.956 383.183 172.648C380.384 170.1 377.736 167.484 375.239 164.73C370.245 159.222 365.781 153.301 362.074 147.035C361.166 145.452 360.258 143.868 359.426 142.285C359.047 141.458 358.593 140.701 358.215 139.875C357.988 139.462 357.837 139.049 357.61 138.635L357.004 137.396C356.248 135.744 355.567 134.091 354.886 132.439C354.205 130.786 353.6 129.134 352.919 127.413C351.632 124.039 350.346 120.665 349.287 117.223C348.152 113.78 347.32 110.2 346.866 106.62C346.714 105.725 346.639 104.829 346.563 103.934C346.487 103.039 346.412 102.144 346.412 101.249C346.412 100.767 346.412 100.354 346.336 99.8722V98.4952C346.336 97.6001 346.336 96.6362 346.336 95.7412C346.336 92.092 346.563 88.4429 346.941 84.7938C347.622 77.4956 349.06 70.335 350.8 63.3122C351.254 61.5221 351.708 59.8008 352.238 58.0795C352.692 56.3583 353.297 54.637 353.827 52.9157C354.962 49.4731 356.172 46.0994 357.534 42.7257C358.896 39.352 360.333 36.116 361.998 32.88C362.83 31.2964 363.663 29.644 364.571 28.0604C365.025 27.303 365.479 26.4768 365.933 25.7195C366.16 25.3064 366.386 24.9621 366.613 24.549L366.992 23.9982L367.143 23.7228L367.219 23.5851L367.294 23.5162V23.4474L367.521 22.9654C368.051 21.8638 367.521 20.5556 366.311 20.0737C365.403 19.7294 364.419 19.8671 363.738 20.4179L363.36 20.6933C363.284 20.7622 363.133 20.8999 363.057 20.9687C362.83 21.1064 362.679 21.313 362.452 21.4507C362.074 21.795 361.695 22.1392 361.317 22.4835C360.56 23.172 359.88 23.9293 359.199 24.6867C357.837 26.2014 356.55 27.785 355.415 29.4374C353.07 32.6734 351.103 36.116 349.438 39.6963C347.774 43.2765 346.412 46.9256 345.277 50.5747C344.142 54.2927 343.234 58.0107 342.553 61.7975C341.872 65.5843 341.418 69.3711 341.04 73.0891C340.737 76.8759 340.51 80.6627 340.434 84.4495C340.359 88.2364 340.359 91.9543 340.359 95.7412L340.434 98.564V99.9411C340.434 100.423 340.434 100.905 340.51 101.387C340.586 102.351 340.586 103.315 340.661 104.21C340.661 104.692 340.737 105.174 340.737 105.656C340.737 106.138 340.813 106.62 340.813 107.102C341.04 110.888 341.191 114.744 341.645 118.531C342.099 122.387 342.704 126.173 343.764 129.96C344.823 133.747 346.336 137.327 348.076 140.908C349.816 144.488 351.784 147.93 353.902 151.235C358.215 157.914 363.511 164.042 369.413 169.481C372.364 172.235 375.542 174.782 378.871 177.123C380.535 178.294 382.275 179.395 384.016 180.497C384.924 181.048 385.756 181.53 386.664 182.012C387.118 182.287 387.572 182.494 388.026 182.769C388.253 182.907 388.48 182.976 388.707 183.113L389.463 183.458C390.674 184.008 392.112 183.595 392.717 182.494C393.246 181.53 392.944 180.359 392.112 179.74L391.96 179.808Z" fill="#E52526"/>
<path d="M212.036 7.26658L211.884 8.43701L211.809 9.60749L211.733 10.778C211.733 11.1911 211.733 11.5353 211.733 11.9485C211.733 13.532 211.809 15.1156 211.96 16.6303C212.338 19.7975 213.095 22.8958 214.154 25.8564C215.214 28.817 216.5 31.7088 217.937 34.4628C218.618 35.8398 219.375 37.2168 220.132 38.525C220.51 39.2135 220.888 39.8332 221.267 40.5217L222.477 42.4495V42.5184L222.629 42.7938C223.536 43.9643 224.369 45.2036 225.201 46.4429C226.033 47.6822 226.866 48.9216 227.622 50.1609C228.379 51.4002 229.211 52.6395 229.968 53.9477C230.724 55.187 231.481 56.4952 232.162 57.8033C232.919 59.1115 233.6 60.4197 234.28 61.659L236.323 65.5835C237.685 68.1999 239.123 70.8162 240.485 73.4326C241.922 76.0489 243.284 78.6653 244.571 81.3505C245.857 84.0357 246.916 86.7897 247.824 89.6126C248.278 90.9896 248.656 92.4355 248.959 93.8814C249.261 95.3273 249.64 96.7731 249.867 98.1502C250.169 99.596 250.396 101.042 250.548 102.488C250.623 103.245 250.699 103.934 250.775 104.691C250.85 105.448 250.926 106.137 251.002 106.894C251.456 112.678 251.304 118.53 250.623 124.245C249.943 129.959 248.808 135.605 247.294 141.182C245.781 146.759 243.814 152.198 241.62 157.569C240.485 160.254 239.35 162.939 238.139 165.624C237.534 167.001 236.929 168.31 236.248 169.687C235.642 171.064 234.961 172.372 234.356 173.749V173.818C233.826 175.057 234.507 176.503 235.869 176.985C236.929 177.398 238.139 177.054 238.82 176.365C241.09 174.093 243.133 171.546 244.949 168.998C246.765 166.382 248.505 163.697 249.942 160.874C251.38 158.051 252.742 155.159 253.801 152.267C254.331 150.821 254.861 149.307 255.314 147.792C255.768 146.277 256.147 144.762 256.601 143.248C258.114 137.189 258.871 130.923 258.946 124.727C259.098 118.53 258.568 112.402 257.66 106.275C257.584 105.517 257.433 104.76 257.282 104.003C257.13 103.245 257.055 102.488 256.903 101.73C256.601 100.216 256.374 98.701 256.071 97.1862C255.768 95.6715 255.466 94.1568 255.088 92.7109L254.028 88.2356C253.347 85.275 252.591 82.2455 251.834 79.2849C251.077 76.2555 250.321 73.2949 249.337 70.3343C248.354 67.3737 247.219 64.4819 245.857 61.659C245.176 60.2132 244.419 58.8361 243.663 57.4591C242.906 56.0821 242.149 54.705 241.317 53.328C238.064 47.8888 234.507 42.6561 230.422 37.6988L230.649 37.9742L229.362 36.1841C228.908 35.5644 228.53 34.9447 228.076 34.3939C227.244 33.1546 226.412 31.9841 225.655 30.7448C224.066 28.335 222.629 25.8564 221.418 23.3777C220.207 20.8991 219.148 18.3516 218.391 15.7353C217.635 13.1189 217.181 10.3649 216.878 7.61083V7.54196C216.727 6.23378 215.516 5.26986 214.003 5.33871C213.171 5.20101 212.187 6.09611 212.036 7.26658Z" fill="#E52526"/>
<path d="M249.867 40.8672L250.926 42.8638L251.456 43.8966C251.607 44.2408 251.834 44.5851 251.985 44.9293C252.742 46.2375 253.423 47.6146 254.104 48.9227C254.785 50.2309 255.466 51.6079 256.147 52.9161L257.131 54.9128C257.433 55.6013 257.812 56.2898 258.114 56.9095C260.611 62.2799 262.957 67.788 264.999 73.2272C267.042 78.7353 268.858 84.3123 270.296 89.8892C271.809 95.4662 272.944 101.181 273.625 106.827C274.003 109.649 274.23 112.541 274.382 115.433C274.382 116.121 274.457 116.879 274.457 117.567V118.669V119.22V119.771C274.457 120.459 274.457 121.216 274.457 121.905C274.457 122.594 274.457 123.351 274.382 124.039C274.155 129.754 273.549 135.469 272.339 141.183C271.733 144.006 271.052 146.829 270.22 149.652L269.615 151.718L269.463 152.268L269.312 152.819L268.934 153.852L268.555 154.885L268.177 155.917C267.95 156.606 267.723 157.294 267.421 157.983L266.588 160.049C266.286 160.737 265.983 161.426 265.756 162.114L265.302 163.147C265.151 163.491 264.999 163.835 264.848 164.18C264.545 164.868 264.243 165.557 263.94 166.245L262.956 168.242C262.805 168.586 262.654 168.93 262.427 169.275C262.276 169.619 262.124 169.963 261.897 170.307C261.216 171.684 260.535 172.993 259.854 174.37C259.552 174.989 259.854 175.678 260.46 175.953C260.989 176.16 261.67 176.022 261.973 175.609C264.091 173.268 266.059 170.789 267.874 168.242C268.328 167.622 268.782 166.934 269.236 166.314C269.463 165.97 269.69 165.694 269.917 165.35L270.523 164.386C270.901 163.698 271.355 163.078 271.733 162.39C272.112 161.701 272.49 161.012 272.944 160.324C274.457 157.57 275.895 154.747 277.181 151.924C278.392 149.032 279.527 146.141 280.434 143.111C280.661 142.354 280.888 141.596 281.115 140.839L281.721 138.567C282.099 137.052 282.477 135.538 282.78 134.023C283.385 130.993 283.839 127.895 284.142 124.797C284.217 124.039 284.293 123.213 284.369 122.456C284.445 121.698 284.444 120.872 284.52 120.115V119.564V119.013V117.843C284.52 117.085 284.52 116.259 284.52 115.502C284.52 112.404 284.293 109.305 283.991 106.207C283.385 100.01 282.175 93.8826 280.51 87.8925C278.77 81.9025 276.576 76.0501 273.852 70.4043C271.128 64.7585 267.95 59.3193 264.318 54.1554C260.687 48.9916 256.677 44.1031 251.985 39.6967C251.456 39.2147 250.548 39.2147 250.018 39.6967C249.64 39.7655 249.564 40.3852 249.867 40.8672Z" fill="#E52526"/>
<path d="M74.7851 182.147L75.3147 181.871C75.466 181.802 75.6174 181.733 75.7688 181.665C76.0714 181.527 76.374 181.32 76.6767 181.183C77.282 180.838 77.8116 180.494 78.4169 180.15C79.5519 179.461 80.6111 178.704 81.6703 177.947C82.7296 177.189 83.7889 176.432 84.7725 175.606C85.3021 175.193 85.7561 174.779 86.2857 174.366C86.7397 173.953 87.2693 173.54 87.7233 173.058C91.5821 169.616 94.9868 165.76 98.0133 161.698C98.3916 161.216 98.7699 160.665 99.1483 160.183L100.208 158.599L101.267 157.016C101.569 156.465 101.948 155.914 102.25 155.432C102.856 154.331 103.537 153.298 104.066 152.127C104.369 151.577 104.596 151.026 104.899 150.475C105.126 149.924 105.428 149.305 105.655 148.754L105.958 147.859C106.033 147.583 106.185 147.239 106.261 146.964C106.487 146.344 106.639 145.793 106.79 145.173C106.942 144.554 107.093 144.003 107.244 143.383L107.698 141.593C108.228 139.183 108.682 136.774 109.287 134.433C109.59 133.262 109.892 132.092 110.195 130.921L110.422 130.026L110.649 129.131L111.103 127.341C111.633 125 112.162 122.659 112.692 120.249C113.146 117.908 113.675 115.499 113.978 113.089C114.205 111.918 114.281 110.679 114.432 109.509C114.508 108.889 114.583 108.338 114.583 107.718C114.659 107.099 114.659 106.479 114.735 105.928C114.886 103.518 114.962 101.109 114.886 98.6989C114.886 98.0792 114.886 97.4596 114.81 96.9087L114.659 95.1186C114.583 93.9482 114.432 92.7088 114.281 91.5384C114.205 91.263 114.205 90.9187 114.129 90.6433L113.978 89.7482C113.902 89.1286 113.751 88.5778 113.675 87.9581C113.6 87.3384 113.448 86.7876 113.297 86.168C113.146 85.5483 112.994 84.9975 112.843 84.3779C112.541 83.2074 112.162 82.0369 111.708 80.9353C111.254 79.7648 110.8 78.6632 110.271 77.5616C109.665 76.3911 108.228 75.9091 106.941 76.3911C106.109 76.7354 105.58 77.4927 105.504 78.2501V78.3189C105.353 79.4894 105.353 80.6599 105.353 81.8304C105.353 83.0008 105.353 84.1713 105.353 85.3418C105.353 86.5122 105.428 87.6138 105.428 88.7843C105.428 89.9548 105.504 91.0564 105.58 92.2269C105.655 93.3973 105.731 94.499 105.807 95.6694L105.882 97.3907C105.882 97.9415 105.958 98.4923 105.958 99.112C106.109 101.384 106.185 103.656 106.261 105.928C106.412 110.472 106.488 115.017 106.109 119.63L105.958 121.351C105.882 121.902 105.807 122.453 105.731 123.072C105.655 123.623 105.58 124.174 105.428 124.793C105.353 125.344 105.201 125.895 105.126 126.515C104.899 127.616 104.672 128.787 104.369 129.888C104.218 130.439 104.066 130.99 103.915 131.541C103.764 132.092 103.537 132.643 103.385 133.193C102.629 135.328 101.57 137.462 100.359 139.459L99.4509 140.974C99.1483 141.455 98.8457 141.937 98.543 142.488C97.9377 143.452 97.3324 144.485 96.8027 145.449L95.9705 146.964C95.6678 147.446 95.4409 147.996 95.1382 148.478C94.8356 148.96 94.6086 149.511 94.3816 149.993C94.079 150.475 93.852 151.026 93.5493 151.508L92.717 153.022L91.8847 154.468L90.9768 155.914C90.6742 156.396 90.3715 156.878 90.0688 157.36C87.572 161.216 84.8482 164.934 81.8974 168.514C80.3841 170.304 78.8708 172.025 77.2063 173.747C76.374 174.573 75.5418 175.468 74.7095 176.225C74.2555 176.638 73.8771 177.052 73.4232 177.465C73.1962 177.671 72.9692 177.878 72.8179 178.084L72.5153 178.36L72.364 178.497L72.2882 178.566L72.2126 178.635L71.7586 179.461C71.1533 180.494 71.6074 181.802 72.7423 182.353C73.2719 182.491 74.1042 182.422 74.7851 182.147Z" fill="#E52526"/>
<path d="M101.418 178.776C106.033 176.16 110.271 172.993 114.129 169.481C115.113 168.586 116.021 167.691 116.929 166.727L117.61 166.039C117.761 165.901 117.837 165.832 117.988 165.694L118.291 165.35L119.577 163.904C119.804 163.629 120.031 163.422 120.258 163.147L120.561 162.803L120.863 162.389L122.074 160.875L122.679 160.117L122.982 159.704L123.284 159.291L124.419 157.708C125.176 156.675 125.857 155.573 126.538 154.472C127.219 153.37 127.824 152.199 128.43 151.098C129.035 149.996 129.564 148.826 130.094 147.655L130.472 146.76C130.624 146.485 130.699 146.141 130.851 145.865C131.078 145.245 131.305 144.695 131.532 144.075C132.44 141.734 133.196 139.324 133.877 136.846C134.558 134.436 135.163 131.957 135.542 129.479C137.282 119.633 137.433 109.649 136.45 99.8726C135.466 90.0957 133.499 80.4565 130.699 71.0927C130.472 70.2665 129.564 69.8534 128.656 70.06C127.975 70.1977 127.522 70.7485 127.446 71.3682V71.6436C127.37 72.8829 127.295 74.1222 127.219 75.2927C127.143 76.532 127.143 77.7025 127.143 78.9418C127.143 79.5614 127.068 80.1811 127.068 80.7319C127.068 81.3516 127.068 81.9712 127.068 82.5221C126.992 83.7614 127.068 84.9319 126.992 86.1023C126.916 90.8531 126.841 95.6038 126.689 100.286C126.387 109.649 125.706 118.807 123.965 127.62L123.587 129.272C123.511 129.547 123.511 129.823 123.436 130.098C123.36 130.374 123.284 130.649 123.284 130.924L122.906 132.577L122.755 133.403L122.528 134.229C121.998 136.364 121.393 138.567 120.636 140.632C120.258 141.665 119.955 142.767 119.577 143.8L118.972 145.383C118.896 145.659 118.745 145.934 118.669 146.141L118.366 146.898C117.912 147.931 117.534 148.963 117.005 149.996L116.626 150.754L116.248 151.511L116.097 151.924C116.021 152.062 115.945 152.199 115.87 152.268L115.491 153.026C113.448 157.019 111.103 160.944 108.379 164.799C108.001 165.281 107.698 165.763 107.32 166.245C107.168 166.452 107.017 166.727 106.79 167.002L106.26 167.691L105.126 169.137L104.596 169.825C104.445 170.101 104.218 170.307 103.991 170.514L102.856 171.96L102.25 172.648L101.948 172.993L101.645 173.337C100.813 174.301 99.9806 175.196 99.224 176.229L98.997 176.504C98.4673 177.192 98.6186 178.156 99.3753 178.638C100.056 179.12 100.813 179.12 101.418 178.776Z" fill="#E52526"/>
<path d="M100.662 194.405C102.024 194.405 103.007 194.267 104.066 194.129L104.445 194.06L104.823 193.991L105.58 193.854C106.109 193.716 106.563 193.647 107.093 193.509C109.06 192.959 110.952 192.339 112.768 191.65C114.583 190.962 116.399 190.136 118.14 189.31C118.594 189.103 119.048 188.896 119.426 188.69C119.88 188.483 120.334 188.277 120.712 188.001L121.998 187.313C122.452 187.106 122.831 186.831 123.285 186.624C124.117 186.142 124.949 185.66 125.781 185.11L126.992 184.352L127.597 183.939L128.203 183.526L129.413 182.7L130.548 181.874C131.305 181.323 132.061 180.703 132.894 180.152C135.92 177.811 138.795 175.264 141.443 172.579C142.805 171.271 144.092 169.825 145.302 168.448C145.908 167.759 146.513 167.002 147.118 166.244C147.723 165.487 148.253 164.73 148.858 164.041C149.388 163.284 149.993 162.526 150.523 161.769C151.053 161.012 151.582 160.254 152.112 159.428C152.566 158.602 153.095 157.845 153.549 157.018L154.23 155.779C154.457 155.366 154.684 154.953 154.836 154.54L155.441 153.3C155.592 152.887 155.819 152.474 155.971 152.061C156.273 151.235 156.652 150.34 156.954 149.445C157.257 148.55 157.559 147.723 157.786 146.828L158.543 144.212C159.451 140.701 160.132 137.12 160.737 133.609C160.813 133.196 160.889 132.714 160.964 132.301L161.191 130.993L161.418 129.684C161.494 129.271 161.57 128.789 161.645 128.376C161.872 126.586 162.099 124.865 162.251 123.075C162.553 119.494 162.705 115.983 162.629 112.403L162.553 109.718L162.402 107.032C162.402 106.619 162.402 106.137 162.326 105.724L162.175 104.416L162.024 103.108C162.024 102.695 161.948 102.213 161.872 101.8L161.57 99.1145C161.57 98.9079 161.494 98.7014 161.494 98.4259L161.418 97.7374L161.191 96.4293C160.964 94.6392 160.51 92.9179 160.208 91.1966C160.056 90.3015 159.829 89.4753 159.602 88.5802L159.3 87.272L159.148 86.6524L158.921 86.0327C158.392 84.3114 157.938 82.5902 157.333 80.9378C157.03 80.1115 156.727 79.2165 156.425 78.3903L155.441 75.9116C154.76 74.2592 154.079 72.6068 153.322 70.9543C153.095 70.5412 152.944 70.1281 152.717 69.715L152.112 68.5445C151.734 67.7183 151.28 66.961 150.901 66.1348L150.599 65.5151C150.523 65.3085 150.372 65.102 150.296 64.8954L149.615 63.725C149.161 62.9676 148.707 62.1414 148.253 61.384C147.269 59.8693 146.286 58.3546 145.227 56.8398C144.167 55.394 143.032 53.9481 141.897 52.5022C141.065 51.5383 139.552 51.3317 138.417 52.0891C137.585 52.6399 137.282 53.6727 137.585 54.4989V54.5677C138.114 56.2201 138.795 57.8726 139.401 59.4562C140.006 61.1086 140.687 62.6922 141.368 64.2758C141.67 65.102 141.973 65.8593 142.351 66.6856L142.881 67.856C142.957 68.0626 143.032 68.2691 143.108 68.4757L143.335 69.0954C143.94 70.6789 144.621 72.2625 145.227 73.8461C145.832 75.4296 146.513 77.0132 147.118 78.5968L148.026 80.9378C148.329 81.764 148.631 82.5213 148.858 83.3476C149.161 84.1738 149.464 84.9311 149.691 85.7574L150.523 88.1671L150.75 88.7868L150.901 89.4065L151.28 90.6458L151.658 91.8851C151.809 92.2982 151.885 92.7113 152.036 93.1244C152.49 94.708 153.02 96.3604 153.398 98.0129L153.701 99.2522L153.852 99.8718C153.928 100.078 153.928 100.285 154.003 100.491L154.533 102.97C154.609 103.383 154.684 103.796 154.76 104.209L154.987 105.449L155.214 106.688C155.29 107.101 155.365 107.514 155.441 107.927C155.592 108.754 155.668 109.58 155.819 110.406L156.046 112.885C156.349 116.19 156.425 119.563 156.198 122.937C156.122 123.763 156.046 124.589 155.971 125.416L155.895 126.035L155.819 126.655L155.668 127.894C155.592 128.307 155.592 128.721 155.517 129.134L155.29 130.373L155.063 131.612C154.987 132.025 154.836 132.438 154.76 132.852C153.928 136.088 152.717 139.255 151.204 142.284L150.069 144.556C149.691 145.314 149.237 146.002 148.858 146.759C148.631 147.104 148.404 147.448 148.253 147.861L147.648 148.963L146.362 151.097C145.908 151.786 145.454 152.543 145.075 153.232C144.848 153.576 144.621 153.92 144.394 154.264L143.713 155.297L142.351 157.431C141.898 158.12 141.368 158.808 140.914 159.497L139.401 161.494C138.871 162.182 138.341 162.802 137.812 163.49C136.752 164.799 135.618 166.107 134.483 167.346L133.65 168.31C133.348 168.654 133.045 168.93 132.742 169.205C132.137 169.825 131.532 170.444 130.926 170.995L130.472 171.477L130.019 171.89L129.111 172.785C128.505 173.336 127.824 173.956 127.219 174.507C126.538 175.057 125.933 175.677 125.252 176.228L124.268 177.054L123.285 177.88L122.755 178.293L122.225 178.706L121.166 179.533L120.107 180.29C119.729 180.565 119.426 180.841 119.048 181.047C118.669 181.323 118.367 181.529 117.988 181.805L116.929 182.562C116.551 182.838 116.172 183.044 115.794 183.319C115.416 183.595 115.037 183.801 114.659 184.008C113.902 184.49 113.146 184.903 112.389 185.385L111.254 186.074C110.876 186.28 110.498 186.487 110.119 186.693C108.606 187.519 107.017 188.346 105.428 189.034C105.05 189.241 104.596 189.378 104.218 189.516L103.612 189.723L103.31 189.86L103.007 189.929C102.78 189.998 102.629 190.067 102.402 190.136L101.797 190.273C101.645 190.342 101.418 190.342 101.267 190.411L100.813 190.48L100.435 190.549C99.1485 190.824 98.3162 191.995 98.6188 193.234C98.6945 193.716 99.6024 194.405 100.662 194.405Z" fill="#E52526"/>
<path d="M157.105 184.214L157.711 183.733C157.938 183.595 158.089 183.388 158.316 183.251C158.694 182.906 159.072 182.562 159.451 182.218C160.207 181.529 160.964 180.841 161.645 180.152C163.083 178.706 164.444 177.26 165.731 175.746C168.379 172.716 170.724 169.549 172.919 166.244C177.307 159.635 180.787 152.543 183.284 145.176C184.571 141.458 185.554 137.671 186.311 133.884C187.067 130.097 187.597 126.173 187.673 122.317C187.748 118.462 187.37 114.537 186.765 110.75C186.159 106.963 185.403 103.177 184.571 99.4586C184.495 98.9767 184.344 98.4947 184.268 98.0816C184.192 97.5997 184.041 97.1177 183.965 96.7046C183.738 95.7407 183.511 94.8456 183.36 93.8817C183.284 93.3997 183.133 92.9866 183.057 92.5047L182.755 91.1277L182.074 88.3736C181.166 84.7245 180.107 81.0754 179.047 77.4263C177.988 73.7771 176.853 70.128 175.491 66.5478C174.205 62.9675 172.767 59.3872 171.103 55.8758C169.438 52.3644 167.622 48.9218 165.579 45.617C163.537 42.2433 161.267 39.0073 158.694 35.909C156.122 32.8107 153.322 29.9189 150.22 27.2338C148.631 25.9256 147.042 24.6174 145.302 23.4469C144.47 22.8273 143.562 22.2764 142.654 21.7945C142.2 21.5191 141.746 21.2437 141.216 21.0371C140.989 20.8994 140.762 20.7617 140.46 20.6929C140.308 20.624 140.233 20.5552 140.081 20.4863L139.627 20.2798C138.417 19.7289 136.979 20.2109 136.374 21.2437C135.92 22.0011 136.071 22.8961 136.601 23.5846L136.979 23.9977V24.0666L137.055 24.1354L137.206 24.2731L137.433 24.4797L137.887 24.9616C138.19 25.3059 138.568 25.5813 138.871 25.9256C139.552 26.5452 140.157 27.2338 140.838 27.9223C142.124 29.2304 143.335 30.6075 144.545 32.0533C146.967 34.8762 149.236 37.6991 151.431 40.6597C153.625 43.6203 155.743 46.6498 157.711 49.7481C158.694 51.3316 159.678 52.8464 160.586 54.43C161.494 56.0136 162.477 57.5971 163.31 59.2496C166.866 65.7216 170.043 72.4001 172.692 79.2852C173.978 82.7278 175.113 86.2392 176.096 89.8195C176.323 90.7145 176.55 91.6096 176.777 92.5047L177.08 93.8128C177.156 94.2259 177.307 94.7079 177.383 95.121C177.61 96.0161 177.761 96.9112 177.912 97.8062C178.064 98.7013 178.215 99.5963 178.366 100.491C178.82 104.072 178.972 107.721 178.745 111.301C178.593 114.881 178.215 118.462 177.837 121.973C177.61 123.763 177.458 125.484 177.231 127.275C177.004 129.065 176.777 130.786 176.475 132.507L176.248 133.815C176.172 134.229 176.096 134.71 176.021 135.124C175.869 136.019 175.642 136.845 175.491 137.74C175.113 139.461 174.659 141.182 174.129 142.904C172.162 149.789 169.363 156.467 165.958 162.939C164.217 166.175 162.326 169.343 160.283 172.372C159.224 173.887 158.164 175.402 157.03 176.916C156.5 177.674 155.895 178.362 155.289 179.119C154.987 179.464 154.684 179.808 154.381 180.221L153.549 181.254L153.473 181.392C152.641 182.355 152.868 183.733 153.927 184.49C154.911 184.903 156.273 184.903 157.105 184.214Z" fill="#E52526"/>
<path d="M186.841 174.574C187.067 174.368 187.295 174.161 187.521 173.886C187.748 173.679 187.975 173.473 188.202 173.197C188.656 172.715 189.11 172.302 189.489 171.82C190.321 170.925 191.153 169.961 191.91 168.997C192.667 168.033 193.423 167.069 194.104 166.037C194.785 165.004 195.542 164.04 196.147 163.007C198.795 158.876 200.989 154.47 202.805 149.994L203.486 148.273L204.091 146.552C204.318 146.001 204.47 145.381 204.697 144.83L205.226 143.109C205.907 140.768 206.513 138.427 206.967 136.086C207.95 131.336 208.48 126.585 208.707 121.765C208.783 119.356 208.783 116.946 208.631 114.536C208.556 113.365 208.48 112.126 208.404 110.956C208.329 109.785 208.177 108.546 208.026 107.375C207.723 104.966 207.345 102.625 206.891 100.284C206.664 99.1133 206.437 97.9428 206.134 96.7724C205.983 96.1527 205.832 95.6019 205.68 95.0511L205.226 93.3298C202.73 84.0349 199.098 75.0153 194.331 66.6155C193.877 65.7893 192.666 65.445 191.759 65.8582C191.002 66.2024 190.624 66.9598 190.775 67.7171L190.851 68.0614C191.078 69.2319 191.38 70.4023 191.607 71.504L191.986 73.2252C192.137 73.7761 192.288 74.3957 192.364 74.9465C192.894 77.2186 193.423 79.4907 193.877 81.7628C194.861 86.2381 195.769 90.7134 196.525 95.1887L196.752 96.8412C196.828 97.392 196.904 97.9428 196.979 98.4936C197.055 99.0444 197.131 99.5952 197.206 100.146C197.282 100.697 197.358 101.248 197.433 101.798C197.585 102.9 197.66 104.002 197.812 105.103C197.887 105.654 197.887 106.205 197.963 106.756C198.039 107.307 198.039 107.857 198.114 108.408C198.265 110.611 198.417 112.815 198.492 115.018C198.568 117.221 198.568 119.424 198.568 121.628C198.568 123.831 198.417 126.034 198.265 128.237L198.114 129.89L197.963 131.542C197.887 132.093 197.812 132.644 197.736 133.195C197.66 133.47 197.66 133.745 197.66 134.021L197.585 134.847C197.282 137.05 196.904 139.185 196.525 141.388L196.223 143.04C196.071 143.591 195.996 144.142 195.844 144.693L195.466 146.345L195.088 147.998C193.953 152.335 192.591 156.604 190.926 160.873C190.699 161.424 190.472 161.974 190.321 162.456L189.64 164.04C189.186 165.142 188.732 166.174 188.202 167.207C187.673 168.24 187.219 169.341 186.689 170.374C186.462 170.925 186.16 171.407 185.857 171.958L185.025 173.473L184.949 173.679C184.722 174.161 184.873 174.712 185.403 174.987C186.008 174.987 186.538 174.918 186.841 174.574Z" fill="#E52526"/>
<path d="M202.427 52.6384C202.805 53.3958 203.108 54.0843 203.486 54.7728L204.546 56.9072L206.664 61.176C207.345 62.6219 208.026 63.9989 208.707 65.4448L209.691 67.5791C209.842 67.9234 209.993 68.2676 210.22 68.6119L210.674 69.7135C210.977 70.402 211.28 71.1594 211.582 71.8479C211.734 72.1922 211.885 72.5364 212.036 72.9495L212.49 74.0512C212.793 74.7397 213.095 75.497 213.398 76.1855L214.23 78.3199L214.684 79.4216C214.836 79.7658 214.911 80.1789 215.063 80.5232L215.819 82.7264C215.971 83.0707 216.046 83.4837 216.198 83.828L216.576 84.9296L216.954 86.0312C217.106 86.3755 217.181 86.7886 217.333 87.1329C218.24 90.0246 219.073 92.9852 219.754 95.9458C219.981 96.7032 220.132 97.3917 220.283 98.1491L220.51 99.2507C220.586 99.5949 220.662 100.008 220.737 100.352C220.889 101.11 221.04 101.867 221.191 102.556C221.343 103.313 221.494 104.001 221.721 104.759C222.099 106.205 222.402 107.719 222.856 109.234C223.234 110.749 223.612 112.195 223.915 113.709C224.293 115.224 224.52 116.739 224.747 118.254C224.823 119.011 224.899 119.768 224.974 120.526L225.05 121.077V121.627C225.05 122.04 225.05 122.385 225.05 122.798C225.126 128.926 224.142 135.053 222.402 140.975C221.57 143.935 220.51 146.827 219.3 149.65C218.997 150.338 218.694 151.096 218.392 151.784L217.408 153.919L216.425 155.984L215.365 158.05C213.928 160.804 212.414 163.489 210.901 166.174C209.312 168.859 207.648 171.476 205.983 174.092C204.319 176.708 202.578 179.325 200.838 181.872C199.93 183.18 199.098 184.488 198.19 185.797L196.828 187.724L196.147 188.688L195.844 189.17L195.693 189.377C195.618 189.446 195.617 189.515 195.542 189.583L195.391 189.859C194.634 191.098 195.088 192.751 196.45 193.439C197.433 193.921 198.568 193.852 199.476 193.37L200.082 193.026C200.309 192.888 200.46 192.751 200.687 192.682C201.065 192.406 201.443 192.2 201.822 191.924C202.2 191.649 202.578 191.374 202.881 191.167C203.259 190.892 203.562 190.616 203.94 190.341C205.302 189.239 206.588 188.069 207.875 186.898C209.085 185.659 210.296 184.42 211.431 183.18C212.566 181.872 213.625 180.564 214.684 179.187C216.727 176.433 218.543 173.61 220.208 170.649C221.872 167.689 223.31 164.659 224.596 161.561C224.899 160.804 225.201 159.977 225.504 159.22C225.807 158.463 226.034 157.637 226.336 156.879C226.563 156.122 226.866 155.296 227.093 154.538C227.32 153.712 227.547 152.955 227.774 152.128C228.682 148.961 229.363 145.725 229.968 142.489C230.573 139.253 231.027 136.017 231.406 132.781L231.633 130.371L231.86 127.962C231.935 127.549 231.935 127.135 231.935 126.722L232.011 125.483L232.087 124.244L232.162 123.004C232.314 121.352 232.389 119.768 232.616 118.116C232.692 116.464 232.919 114.811 232.995 113.159C233.07 112.332 233.146 111.506 233.146 110.68C233.146 109.854 233.222 109.028 233.222 108.201V106.962L233.146 105.723C233.146 104.897 233.07 104.07 232.995 103.244C232.919 102.831 232.919 102.418 232.843 102.005L232.768 101.385L232.692 100.765C232.541 99.9392 232.389 99.113 232.238 98.2868C232.162 97.8736 232.087 97.4605 231.935 97.0474L231.633 95.8081C231.406 94.9819 231.254 94.2246 231.027 93.3983L230.346 90.9885C230.119 90.1623 229.817 89.405 229.59 88.5788C229.06 86.9952 228.53 85.4116 227.925 83.8969C227.774 83.4838 227.623 83.1395 227.471 82.7264L227.017 81.5559C226.715 80.7986 226.412 80.0412 226.034 79.2838L224.974 77.0118C224.823 76.6675 224.672 76.2544 224.445 75.9101L223.915 74.8085L222.78 72.6053C222.402 71.8479 222.024 71.1594 221.57 70.402L220.964 69.3004C220.737 68.9562 220.586 68.5431 220.359 68.1988C219.905 67.5103 219.527 66.7529 219.073 66.0644C218.24 64.6185 217.332 63.2415 216.425 61.8645C215.971 61.176 215.517 60.4875 214.987 59.799C214.533 59.1104 214.003 58.4219 213.549 57.7334C212.566 56.3564 211.507 55.0482 210.523 53.7401C209.993 53.1204 209.464 52.4319 208.934 51.8122C208.404 51.1925 207.875 50.504 207.269 49.8844C206.286 48.7827 204.47 48.5762 203.184 49.4713C202.124 50.2286 201.822 51.5368 202.351 52.5696L202.427 52.6384Z" fill="#E52526"/>
<path d="M272.792 188.344L273.473 187.862C273.7 187.724 273.927 187.587 274.079 187.38C274.457 187.036 274.911 186.76 275.289 186.416C276.122 185.797 276.878 185.108 277.635 184.488C279.148 183.18 280.661 181.803 282.023 180.357C284.823 177.534 287.471 174.505 289.892 171.338C294.659 165.003 298.669 158.118 301.695 150.889C303.209 147.24 304.495 143.591 305.479 139.804C306.462 136.017 307.294 132.23 307.597 128.375C307.975 124.519 307.824 120.594 307.521 116.808C307.143 112.952 306.689 109.165 306.084 105.378C306.008 104.896 305.932 104.414 305.857 103.932C305.781 103.451 305.705 102.969 305.63 102.487C305.478 101.523 305.327 100.628 305.176 99.6637C305.1 99.1817 305.024 98.6998 304.949 98.2867L304.722 96.9096L304.268 94.1556C303.587 90.4376 302.83 86.7197 301.998 83.0705C301.166 79.3526 300.258 75.7035 299.199 71.9855C298.139 68.3364 296.929 64.6873 295.567 61.107C294.129 57.5267 292.54 53.9465 290.724 50.5039C288.909 47.0614 286.866 43.6876 284.52 40.4516C282.175 37.2156 279.602 34.1173 276.651 31.2944C275.214 29.8486 273.625 28.5404 272.036 27.2322C271.204 26.6126 270.371 25.9929 269.463 25.3732C269.009 25.0978 268.555 24.8224 268.101 24.547C267.874 24.4093 267.647 24.2716 267.42 24.1339C267.269 24.0651 267.193 23.9962 267.042 23.9273L266.588 23.7208C265.453 23.1011 263.94 23.4454 263.259 24.547C262.805 25.3044 262.881 26.1995 263.335 26.888L263.637 27.3011V27.3699L263.713 27.4388L263.789 27.5765L264.016 27.783L264.47 28.265C264.772 28.6093 265.075 28.9535 265.378 29.2978C265.983 29.9863 266.588 30.6748 267.194 31.3633C268.404 32.8092 269.539 34.1862 270.598 35.7009C272.793 38.5927 274.911 41.6221 276.878 44.7204C278.845 47.8187 280.737 50.917 282.477 54.153C283.385 55.7366 284.217 57.389 285.05 59.0415C285.882 60.6939 286.714 62.3463 287.471 63.9988C290.573 70.6085 293.297 77.4936 295.415 84.5164C296.475 88.0278 297.383 91.6081 298.064 95.1883C298.215 96.0834 298.442 96.9785 298.593 97.8736L298.82 99.2506C298.896 99.7325 298.972 100.146 299.047 100.628C299.199 101.523 299.35 102.418 299.426 103.313C299.501 104.208 299.652 105.103 299.652 105.998C299.879 109.578 299.728 113.227 299.274 116.808C298.896 120.388 298.215 123.899 297.61 127.411C297.307 129.132 297.004 130.922 296.626 132.643C296.323 134.365 295.945 136.155 295.491 137.876L295.188 139.184C295.113 139.597 294.962 140.011 294.81 140.492C294.583 141.388 294.356 142.214 294.054 143.04C293.524 144.761 292.994 146.414 292.313 148.135C289.816 154.882 286.639 161.423 282.78 167.62C280.813 170.718 278.77 173.748 276.5 176.708C275.365 178.154 274.154 179.6 272.944 181.046C272.339 181.734 271.733 182.423 271.128 183.111C270.825 183.456 270.523 183.8 270.144 184.144L269.236 185.108L269.085 185.246C268.177 186.141 268.328 187.587 269.312 188.344C270.598 188.964 271.885 189.033 272.792 188.344Z" fill="#E52526"/>
<path d="M304.873 180.634C305.176 180.427 305.403 180.221 305.63 180.014C305.857 179.808 306.084 179.601 306.311 179.395C306.765 178.981 307.219 178.568 307.673 178.086C308.581 177.191 309.413 176.296 310.245 175.401C311.078 174.506 311.91 173.542 312.666 172.578C313.423 171.614 314.18 170.65 314.936 169.618C317.812 165.624 320.384 161.424 322.503 157.018L323.259 155.365L324.016 153.713C324.243 153.162 324.47 152.611 324.697 151.992L325.378 150.27C326.21 147.998 326.967 145.657 327.648 143.385C328.934 138.703 329.842 133.953 330.371 129.202C330.598 126.792 330.75 124.382 330.825 121.973C330.825 120.802 330.901 119.563 330.825 118.392C330.825 117.222 330.75 115.983 330.75 114.812C330.598 112.402 330.447 109.993 330.144 107.652C329.993 106.481 329.842 105.242 329.69 104.071C329.615 103.452 329.463 102.901 329.388 102.281L329.085 100.491C327.269 91.0585 324.167 81.9012 320.081 73.1571C319.627 72.2621 318.568 71.849 317.585 72.2621C316.828 72.5375 316.374 73.2949 316.45 74.0522L316.525 74.3965C316.677 75.567 316.904 76.7374 317.055 77.9079L317.358 79.6292C317.433 80.18 317.585 80.7996 317.66 81.3505C318.038 83.6225 318.417 85.9635 318.719 88.2356C319.4 92.7797 320.006 97.2551 320.384 101.799L320.535 103.452C320.611 104.002 320.611 104.553 320.687 105.104C320.687 105.655 320.762 106.206 320.838 106.757C320.914 107.307 320.914 107.858 320.914 108.409C320.989 109.511 320.989 110.612 321.065 111.714C321.065 112.265 321.065 112.815 321.141 113.366C321.141 113.917 321.141 114.468 321.141 115.019C321.141 117.222 321.141 119.425 321.065 121.628C320.989 123.832 320.838 126.035 320.687 128.238C320.535 130.441 320.233 132.645 319.93 134.779L319.703 136.431L319.4 138.084C319.325 138.635 319.173 139.185 319.098 139.736C319.022 140.012 319.022 140.287 318.946 140.562L318.795 141.389C318.341 143.523 317.811 145.726 317.282 147.861L316.828 149.444C316.677 149.995 316.525 150.477 316.374 151.028L315.92 152.611L315.39 154.195C313.953 158.464 312.288 162.664 310.397 166.864C310.17 167.414 309.943 167.896 309.64 168.447L308.883 170.031C308.354 171.064 307.824 172.096 307.295 173.129C306.765 174.162 306.16 175.195 305.554 176.227C305.252 176.709 304.949 177.26 304.646 177.742L303.738 179.257L303.587 179.463C303.284 179.945 303.436 180.496 303.965 180.772C304.041 180.909 304.571 180.909 304.873 180.634Z" fill="#E52526"/>
<path d="M86.74 187.864L86.3617 187.658C86.2104 187.589 86.059 187.451 85.9077 187.382L85.4537 187.038C85.3024 186.9 85.1511 186.831 84.9241 186.694L84.6971 186.487L84.4702 186.28L83.9405 185.936C83.6378 185.661 83.2596 185.385 82.9569 185.11C81.6707 184.008 80.3844 182.838 79.2495 181.599C78.9468 181.254 78.6441 180.979 78.3415 180.704L77.4335 179.74C76.8283 179.12 76.2986 178.431 75.6933 177.812C75.3906 177.467 75.1637 177.192 74.861 176.848C74.5584 176.504 74.3314 176.228 74.0288 175.884L73.1965 174.851C72.9695 174.507 72.6669 174.163 72.4399 173.818C72.2129 173.474 71.9102 173.13 71.6832 172.786L70.9266 171.753L70.17 170.72L69.7917 170.169L69.4134 169.618L68.7324 168.586L68.0514 167.553C67.5975 166.864 67.1435 166.107 66.6896 165.419C66.2356 164.661 65.8572 163.973 65.4033 163.215L64.798 162.114L64.4954 161.563L64.1927 161.012C63.8144 160.255 63.4361 159.497 63.0578 158.809C62.9064 158.465 62.6795 158.051 62.5282 157.707L61.9985 156.606C61.3175 155.091 60.7122 153.576 60.1069 151.993C59.8043 151.235 59.5773 150.409 59.2747 149.652L58.518 147.311C58.291 146.553 58.064 145.727 57.8371 144.97L57.2318 142.56L56.9292 141.389C56.8535 140.976 56.7021 140.632 56.6265 140.219C56.4752 139.393 56.2482 138.635 56.0969 137.809L55.5672 135.399L55.3403 134.16C55.2646 133.747 55.1889 133.334 55.1132 132.921C54.9619 132.095 54.8106 131.268 54.6593 130.511L54.281 128.032C53.827 124.727 53.6757 121.423 53.9783 118.049C53.9783 117.636 54.054 117.223 54.054 116.81L54.2053 115.57L54.3566 114.331C54.4323 113.918 54.508 113.505 54.5836 113.092L54.8106 111.852L54.962 111.233L55.1132 110.613C55.3402 109.787 55.4916 108.961 55.7186 108.203C56.6265 104.967 57.7615 101.8 59.1234 98.7017L60.1826 96.3608C60.5609 95.6034 60.9392 94.8461 61.3175 94.0887C61.5445 93.7445 61.6958 93.3314 61.9228 92.9871L62.5282 91.8855L63.1334 90.7839C63.3604 90.4396 63.5117 90.0265 63.8144 89.6822L65.1763 87.479C65.252 87.2725 65.4032 87.1347 65.4789 86.9282L65.8572 86.3774L66.5382 85.2758C67.4461 83.8299 68.4298 82.4529 69.4134 81.007C69.6404 80.6627 69.943 80.3185 70.17 79.9742L70.9266 78.9414L71.6832 77.9087L72.0616 77.3579L72.4399 76.8759L74.0288 74.8104C74.5584 74.1219 75.088 73.4333 75.6176 72.7448C76.1473 72.0563 76.6769 71.3678 77.2065 70.6793L78.8711 68.6826C79.9304 67.3056 81.141 65.9974 82.2003 64.6892C83.3352 63.3122 84.4702 62.004 85.6051 60.6959L86.059 60.2139C86.2104 60.0762 86.3617 59.8696 86.513 59.7319L87.3453 58.6992C87.9506 58.0107 88.4802 57.3222 89.0855 56.7025C90.2204 55.3943 91.431 54.0173 92.4903 52.6403C93.6252 51.2632 94.7602 49.9551 95.8951 48.5092L95.9707 48.4404C96.7274 47.4076 96.4247 46.0306 95.2898 45.3421C94.3818 44.7913 93.3226 44.8601 92.4903 45.3421C90.9014 46.3748 89.3882 47.4076 87.8749 48.5781C86.3617 49.7485 84.9241 50.8502 83.4865 52.0895C82.8056 52.7091 82.1246 53.3288 81.3679 53.9485L80.3087 54.9124C80.1574 55.0501 79.9304 55.2566 79.7791 55.3943L79.2495 55.8763C78.5685 56.4959 77.8876 57.1845 77.2823 57.8041L76.2986 58.768C75.996 59.1123 75.6934 59.4566 75.3907 59.8008C74.1045 61.1778 72.8938 62.486 71.6832 63.9319L69.943 66.0663C69.3377 66.7548 68.8081 67.5121 68.2785 68.2695C67.1435 69.7154 66.0842 71.2301 65.025 72.7448L64.6466 73.2956L64.2683 73.8464L63.5117 75.0169C63.0577 75.7743 62.5281 76.5317 62.0741 77.3579C61.1662 78.9414 60.1826 80.4562 59.3503 82.1086L58.7451 83.2791L58.4424 83.8987C58.3667 84.1053 58.2154 84.3118 58.1397 84.5184L56.9292 86.9282C56.7022 87.3413 56.5508 87.7544 56.3238 88.1675L55.7942 89.4068L55.2645 90.6461C55.1132 91.0593 54.8863 91.4724 54.7349 91.8855L53.7513 94.3641L52.8434 96.9116C51.6328 100.285 50.5735 103.728 49.7413 107.17C49.3629 108.892 48.909 110.682 48.6063 112.403C48.5307 112.816 48.455 113.298 48.3793 113.711L48.1524 115.019L47.9254 116.328C47.8497 116.741 47.774 117.223 47.6983 117.636C47.093 121.147 46.6391 124.728 46.2608 128.308L46.1094 130.993C46.1094 131.888 46.0338 132.783 46.0338 133.747C46.0338 134.642 46.1094 135.537 46.1094 136.501C46.1094 136.983 46.1851 137.396 46.1851 137.878L46.3365 139.255C46.4121 139.737 46.4878 140.15 46.4878 140.632L46.7148 142.009C46.8661 142.904 47.0931 143.799 47.2444 144.694C47.4714 145.589 47.6984 146.484 47.9254 147.38C48.1523 148.275 48.455 149.101 48.7576 149.996C49.0603 150.891 49.363 151.717 49.6656 152.612C50.0439 153.438 50.3465 154.334 50.6492 155.16C51.3301 156.881 52.0867 158.533 52.9947 160.186C54.6592 163.491 56.5508 166.658 58.6693 169.756C59.199 170.514 59.7286 171.271 60.3339 172.028L61.1662 173.13L62.0741 174.232L62.5282 174.782L62.9821 175.333L63.89 176.435C64.4953 177.123 65.1006 177.812 65.7816 178.5C66.0842 178.845 66.3869 179.189 66.7652 179.533L67.7488 180.566C68.0514 180.91 68.4298 181.254 68.7324 181.53C69.0351 181.874 69.4134 182.218 69.7917 182.494C71.1536 183.802 72.6668 185.041 74.18 186.212C75.6933 187.382 77.2822 188.484 78.9468 189.516C79.4008 189.792 79.779 189.998 80.233 190.274L80.914 190.618L81.2166 190.825L81.595 190.962C82.5029 191.444 83.4865 191.857 84.7727 192.202C86.059 192.546 87.4209 191.857 87.7992 190.687C88.1019 189.723 87.648 188.69 86.74 188.208V187.864Z" fill="#E52526"/>
<path d="M49.6648 181.461C49.3622 181.116 49.0594 180.703 48.8324 180.359C48.5298 180.015 48.3028 179.602 48.0002 179.189C47.4705 178.431 46.9409 177.605 46.4113 176.848C45.352 175.264 44.3684 173.68 43.4605 172.028C41.6446 168.723 39.98 165.349 38.5424 161.976C37.8615 160.254 37.1805 158.533 36.5752 156.812C35.9699 155.091 35.4403 153.3 34.9107 151.51C33.9271 147.999 33.0947 144.419 32.5651 140.77C31.5058 133.54 31.2032 126.242 32.0355 119.013C32.4138 115.432 33.0191 111.783 33.9271 108.272C34.7593 104.76 35.8943 101.249 37.1806 97.8064L37.6345 96.4982C37.7858 96.0851 38.0128 95.672 38.1641 95.19L38.6938 93.8819L39.2234 92.6426C39.3747 92.2295 39.6017 91.8163 39.753 91.4032L40.3583 90.1639C40.7366 89.3377 41.1906 88.4426 41.5689 87.6164C43.1578 84.2427 44.8981 80.9378 46.714 77.633C48.5299 74.3281 50.4214 71.0921 52.4643 67.925C53.4479 66.3414 54.5071 64.7578 55.642 63.2431C56.7013 61.6595 57.8362 60.1448 58.9712 58.6301C60.1061 57.1153 61.241 55.6006 62.4516 54.1547C63.6622 52.7089 64.8728 51.263 66.1591 49.8171C68.6559 46.9942 71.3041 44.2401 74.1792 41.6238C76.9787 39.0075 79.9296 36.5288 83.0317 34.2567C84.6206 33.1551 86.2095 32.0535 87.7984 31.0207C88.6307 30.5388 89.463 29.9879 90.2953 29.5748C90.7492 29.3683 91.1275 29.0929 91.5815 28.8863C91.8085 28.7486 92.0355 28.6798 92.1868 28.5421L92.4895 28.4044L92.7922 28.2667C93.7758 27.8536 94.1541 26.7519 93.6244 25.9257C93.1704 25.1684 92.1868 24.7553 91.3546 25.0307H91.2789L90.8249 25.1684L90.4466 25.3061C90.1439 25.3749 89.9169 25.4438 89.6899 25.5815C89.1603 25.788 88.7063 25.9257 88.1767 26.1323C87.1931 26.4765 86.2096 26.8896 85.226 27.3028C83.2587 28.1978 81.4428 29.0929 79.6269 30.1256C77.8111 31.1584 75.9952 32.26 74.3306 33.3617C72.5904 34.5321 70.9258 35.7026 69.2612 36.9419C62.6786 41.9681 56.9283 47.7515 51.7076 53.8793C50.4214 55.394 49.1351 56.9776 47.9245 58.5612C46.7139 60.1448 45.5034 61.7972 44.3685 63.3808C43.7632 64.207 43.2335 65.0332 42.7038 65.8594C42.1742 66.6856 41.6446 67.5118 41.115 68.3381C40.5853 69.1643 40.0557 69.9905 39.5261 70.8856L38.7694 72.1249L38.0128 73.4331C36.0456 76.8756 34.2297 80.3182 32.4895 83.8296C32.0355 84.7246 31.6572 85.6197 31.2789 86.446L30.6736 87.7541C30.4466 88.1672 30.2953 88.6492 30.0683 89.1311L29.463 90.5082L28.9334 91.8852C28.7821 92.3671 28.555 92.7803 28.4037 93.2622L27.8741 94.7081C27.1931 96.5671 26.5878 98.4949 26.0582 100.423C25.7555 101.387 25.5286 102.351 25.3016 103.315C25.1502 103.796 25.0746 104.278 24.9233 104.76C24.7719 105.242 24.6963 105.724 24.6206 106.206C24.3936 107.17 24.2423 108.134 24.091 109.167C24.0153 109.649 23.9396 110.131 23.864 110.613L23.637 112.059L23.5614 112.816L23.4857 113.573L23.3344 115.088C23.2587 115.57 23.2588 116.052 23.1831 116.603C23.1074 117.085 23.1074 117.567 23.1074 118.118C23.0317 119.081 22.9561 120.114 22.9561 121.078C22.8804 122.042 22.9561 123.075 22.8804 124.039C22.8804 126.035 22.9561 128.032 23.1831 129.96C23.3344 131.957 23.5613 133.884 23.864 135.881C24.1666 137.809 24.5449 139.806 24.9989 141.733C26.8148 149.445 29.69 156.881 33.6244 163.766C35.5916 167.208 37.7102 170.513 40.207 173.68C41.4176 175.264 42.7039 176.779 44.0658 178.293C44.7467 179.051 45.4277 179.739 46.1086 180.497C46.4869 180.841 46.7896 181.185 47.1679 181.529C47.5462 181.874 47.9245 182.218 48.3028 182.562L48.3785 182.631C48.8325 182.975 49.5134 182.975 49.8917 182.631C49.9674 182.356 49.9674 181.805 49.6648 181.461Z" fill="#E52526"/>
<path d="M18.1896 160.325V160.256V160.187L18.114 159.981L17.9627 159.568C17.887 159.292 17.7357 159.086 17.66 158.81C17.433 158.259 17.206 157.777 17.0547 157.227C16.6764 156.194 16.2981 155.092 15.9198 153.991C15.1631 151.856 14.5579 149.653 13.9526 147.45C12.8176 143.112 11.9854 138.637 11.4558 134.23C11.3801 133.68 11.3044 133.129 11.3044 132.578L11.1531 130.925L11.0017 129.273L10.9261 127.621C10.9261 127.07 10.8504 126.519 10.8504 125.968C10.8504 125.417 10.8505 124.867 10.7748 124.316C10.7748 123.765 10.6992 123.214 10.6992 122.663L10.6234 121.011C10.5478 119.909 10.4722 118.739 10.3209 117.637C10.2452 117.086 10.1695 116.536 10.1695 115.916L10.0182 114.195C9.86686 111.923 9.7912 109.65 10.0182 107.378C10.0938 106.828 10.1695 106.277 10.2451 105.657C10.3208 105.106 10.4721 104.555 10.5478 104.005C10.7748 102.903 11.0774 101.801 11.3044 100.631C11.4557 100.08 11.607 99.5293 11.7584 98.9785C11.9097 98.4277 12.0611 97.8769 12.288 97.3261C12.4394 96.7753 12.6663 96.2245 12.8176 95.6737L13.423 94.0213C15.0875 89.6836 17.206 85.5525 19.3246 81.4214C20.4595 79.3559 21.5188 77.3593 22.6537 75.2937C22.9564 74.8118 23.1833 74.2609 23.486 73.779L24.3183 72.2642C24.848 71.2315 25.4532 70.2676 25.9829 69.2348C26.5125 68.202 27.1177 67.1693 27.6474 66.1365C28.177 65.1037 28.7067 64.071 29.2364 63.0382C29.766 62.0054 30.2956 60.9726 30.7496 59.871C31.2792 58.7694 31.7331 57.7366 32.1871 56.5662V56.4973C32.6411 55.3269 31.8845 54.0187 30.5982 53.6056C29.6903 53.3302 28.7824 53.5367 28.1014 54.0876C27.1178 54.9138 26.1342 55.7399 25.3019 56.635C24.3939 57.5301 23.5616 58.494 22.7294 59.3891C22.351 59.871 21.8971 60.353 21.5188 60.835C21.1405 61.3169 20.7622 61.7989 20.3838 62.2808C20.0055 62.7628 19.6272 63.3136 19.3246 63.7956L18.795 64.5529C18.6436 64.8283 18.4167 65.0349 18.2654 65.3103C17.5844 66.3431 16.9034 67.3758 16.2981 68.4774L15.3902 70.061C15.0875 70.6118 14.7849 71.1626 14.5579 71.7134C13.423 73.9167 12.4394 76.1199 11.4558 78.392C11.2288 78.9428 11.0018 79.5625 10.7748 80.1133C10.5478 80.6641 10.3208 81.2838 10.1695 81.8346C9.79116 83.0051 9.33719 84.1067 9.03454 85.2771C8.27792 87.6181 7.67264 89.959 7.06734 92.3C6.46205 94.6409 5.93245 96.9818 5.40282 99.3228L5.02451 101.113L4.79749 102.008L4.6462 102.903C4.41921 104.073 4.19222 105.244 3.88958 106.414C3.35994 108.755 2.75461 111.165 2.14931 113.506L1.69536 115.296C1.54403 115.916 1.46837 116.536 1.31705 117.086C1.16573 117.706 1.09005 118.326 1.01438 118.945C0.938721 119.221 0.938759 119.565 0.863096 119.84L0.787359 120.736C0.711699 121.355 0.711716 121.975 0.711716 122.594C0.711716 123.214 0.711716 123.834 0.711716 124.453C0.787378 125.693 0.863077 126.932 0.93874 128.103C1.0144 128.722 1.01436 129.342 1.09003 129.962L1.31705 131.821L1.61972 133.68C1.69538 134.299 1.84663 134.919 1.92229 135.47C2.83023 140.289 4.26787 145.04 6.23508 149.653C6.46207 150.204 6.76472 150.823 6.9917 151.374C7.29435 151.925 7.52132 152.476 7.82397 153.027C8.3536 154.128 8.95892 155.23 9.63987 156.332C10.2452 157.433 10.9261 158.466 11.6827 159.499C12.061 160.05 12.4393 160.532 12.8176 161.013C13.0446 161.289 13.196 161.495 13.423 161.771C13.4986 161.909 13.65 162.046 13.7256 162.184L14.104 162.597C14.9362 163.492 16.3738 163.699 17.3574 162.941C17.9627 162.528 18.2654 161.84 18.2654 161.151L18.1896 160.325Z" fill="#E52526"/>
<path d="M353.07 175.607C352.843 175.332 352.54 175.056 352.313 174.712C352.086 174.368 351.784 174.092 351.557 173.748C351.33 173.404 351.103 173.128 350.876 172.784L350.195 171.82C349.968 171.476 349.741 171.132 349.514 170.856C349.438 170.719 349.287 170.512 349.211 170.374L348.909 169.892C348.682 169.548 348.53 169.204 348.303 168.86C348.076 168.515 347.925 168.171 347.698 167.827L347.093 166.794C346.941 166.45 346.714 166.106 346.563 165.761L346.033 164.729C345.882 164.384 345.731 164.04 345.579 163.627C345.277 162.938 344.898 162.25 344.596 161.493L343.688 159.358C343.158 157.912 342.553 156.466 342.099 154.952L341.721 153.85C341.569 153.506 341.494 153.093 341.342 152.748L341.04 151.647L340.661 150.545C340.586 150.201 340.434 149.788 340.359 149.444C340.283 149.031 340.207 148.686 340.056 148.273L339.451 146.001C339.224 145.244 339.073 144.486 338.846 143.729L338.543 142.558C338.467 142.145 338.316 141.801 338.24 141.388C338.013 140.631 337.181 140.218 336.349 140.424C335.895 140.562 335.516 140.837 335.365 141.25L335.214 141.663C334.835 142.49 334.608 143.385 334.381 144.211C334.154 145.037 334.003 145.932 333.852 146.758C333.776 147.172 333.776 147.585 333.776 148.067C333.776 148.48 333.7 148.893 333.7 149.375C333.7 150.27 333.701 151.096 333.776 151.922C333.852 152.748 333.927 153.644 334.079 154.47C334.154 154.883 334.23 155.296 334.306 155.709C334.381 156.122 334.533 156.535 334.608 156.948C334.987 158.601 335.592 160.253 336.273 161.906C337.711 165.142 339.678 168.171 342.25 170.856C342.856 171.545 343.612 172.164 344.293 172.784C344.974 173.404 345.806 173.955 346.563 174.505C347.017 174.781 347.395 174.987 347.849 175.263C348.303 175.469 348.757 175.745 349.136 175.951C349.59 176.158 350.044 176.364 350.498 176.502C351.027 176.64 351.481 176.846 352.086 176.915H352.238C352.692 176.984 353.221 176.709 353.297 176.296C353.297 176.02 353.221 175.745 353.07 175.607Z" fill="#E52526"/>
<path d="M88.8579 78.3915C88.7822 79.2177 88.6309 80.0439 88.4796 80.8701C88.3282 81.6964 88.2526 82.5226 88.1013 83.4177L87.723 85.9652C87.5716 86.7914 87.4203 87.6176 87.269 88.4438C86.9664 90.0962 86.6637 91.7486 86.3611 93.4699L85.8314 95.9486L85.6045 97.1879L85.3018 98.4272C85.1505 99.2534 84.9234 100.08 84.7721 100.906C84.5451 101.732 84.3938 102.558 84.2425 103.384C84.0155 104.211 83.8642 105.037 83.6372 105.863L83.0319 108.342C82.805 109.168 82.578 109.994 82.351 110.82C82.124 111.647 81.897 112.473 81.67 113.23L81.2917 114.47L80.9134 115.709L80.5351 116.948L80.3838 117.568L80.1567 118.188C79.1731 121.424 78.0382 124.591 76.8276 127.758C75.6927 130.925 74.2551 134.023 72.8176 137.053L71.6826 139.325C71.3043 140.082 70.926 140.84 70.5477 141.597L69.9424 142.699L69.3371 143.8C68.8832 144.558 68.5048 145.315 68.0508 146.003L66.7646 148.207L66.4619 148.757L66.0836 149.308C65.8566 149.653 65.6296 149.997 65.4027 150.41L64.7217 151.512C64.4947 151.856 64.2677 152.2 63.9651 152.544L62.5275 154.679C61.9979 155.505 62.2248 156.538 63.1328 157.088C63.8137 157.502 64.6461 157.433 65.2514 157.02L65.554 156.813C66.3863 156.262 67.1429 155.711 67.8995 155.161L68.5048 154.747L68.8074 154.541L69.1101 154.334C69.4884 154.059 69.7911 153.715 70.1694 153.37C70.5477 153.026 70.8504 152.751 71.2287 152.407L71.7583 151.925L72.2879 151.443C72.9688 150.754 73.5742 150.066 74.2552 149.377C74.4065 149.239 74.5578 149.033 74.7091 148.826L75.1631 148.275L76.071 147.174C76.3736 146.83 76.6763 146.485 76.979 146.072L77.8112 144.971C78.1139 144.626 78.4165 144.213 78.6435 143.869C78.9462 143.525 79.1731 143.112 79.4758 142.767C80.0054 142.01 80.535 141.253 80.989 140.426C84.9234 134.161 87.7987 127.482 89.8415 120.597C90.8251 117.155 91.6574 113.712 92.2627 110.201L92.641 107.584C92.7166 107.171 92.7924 106.689 92.7924 106.276L92.9437 104.968C93.1706 103.247 93.2463 101.457 93.322 99.6665C93.4733 96.1551 93.3976 92.6437 93.0949 89.0635C93.0193 88.6504 93.0193 88.1684 92.9437 87.7553C92.868 87.3422 92.868 86.8602 92.7924 86.4471C92.641 85.5521 92.5653 84.657 92.3383 83.8307C92.0357 82.0406 91.6574 80.3193 91.0521 78.5981L90.9765 78.3915C90.8251 77.9096 90.2198 77.5653 89.6901 77.7718C89.1605 77.703 88.8579 78.0473 88.8579 78.3915Z" fill="#E52526"/>
</svg>
