<svg width="468" height="195" viewBox="0 0 468 195" fill="none" xmlns="http://www.w3.org/2000/svg">
<path d="M501.239 90.2061L500.179 90.9635C499.801 91.2389 499.423 91.4454 499.044 91.7208C498.288 92.2028 497.531 92.6847 496.774 93.1667C496.018 93.6486 495.261 94.1306 494.429 94.5437C493.672 95.0256 492.916 95.4388 492.083 95.9207C491.327 96.3338 490.494 96.8158 489.738 97.2289C488.981 97.642 488.149 98.0551 487.392 98.4682C486.56 98.8813 485.803 99.2256 484.971 99.5699C484.139 99.9141 483.382 100.258 482.55 100.603C479.297 101.911 475.967 102.875 472.714 103.494C471.049 103.77 469.46 103.976 467.872 103.976C466.283 103.976 464.694 103.907 463.181 103.701C461.667 103.494 460.154 103.15 458.716 102.599C457.96 102.324 457.279 102.048 456.598 101.773C455.917 101.498 455.236 101.153 454.555 100.74C453.874 100.396 453.193 99.983 452.588 99.5699C452.285 99.3633 451.983 99.1567 451.68 98.9502C451.529 98.8125 451.377 98.7436 451.226 98.6059L450.848 98.2617C449.788 97.3666 448.88 96.4027 448.124 95.3011C446.611 93.0978 445.627 90.3438 445.097 87.3832C444.568 84.4226 444.492 81.1866 444.643 77.9506C444.795 74.7146 445.097 71.3408 445.551 67.9671C445.93 64.5934 446.459 61.1508 446.913 57.7083C447.367 54.2657 447.821 50.7543 448.124 47.2429C448.275 45.4528 448.351 43.7315 448.426 41.9414C448.426 41.0463 448.502 40.1512 448.502 39.2562C448.502 38.3611 448.502 37.4661 448.502 36.571C448.351 32.9907 448.048 29.2727 447.216 25.6925C446.838 23.9023 446.308 22.0434 445.627 20.3221C444.946 18.532 444.114 16.8107 443.13 15.1582C442.146 13.5058 441.012 11.9223 439.801 10.4075C438.515 8.96167 437.153 7.58462 435.564 6.3453C432.537 3.86666 429.133 1.93884 425.501 0.424116C424.744 0.0798598 423.761 0.424116 423.458 1.11263C423.155 1.73229 423.382 2.48964 424.063 2.90274C425.577 3.79781 427.09 4.76172 428.452 5.86334C429.814 6.96496 431.175 8.06659 432.31 9.23706C433.521 10.4764 434.58 11.7157 435.488 13.0927C436.396 14.4697 437.228 15.8468 437.909 17.3615C438.59 18.8074 439.12 20.3221 439.574 21.9057C439.801 22.663 439.952 23.4893 440.104 24.2466C440.255 25.004 440.406 25.8302 440.558 26.6564C441.012 29.8924 441.087 33.1284 440.936 36.4333C440.86 37.2595 440.86 38.0857 440.785 38.9119C440.709 39.7381 440.633 40.5644 440.558 41.3906C440.406 43.043 440.179 44.7643 439.952 46.4167C439.498 49.7904 438.893 53.1641 438.212 56.5378C437.607 59.9116 437.001 63.3541 436.472 66.8655C435.942 70.3769 435.413 73.8883 435.186 77.4686C435.034 79.2587 435.034 81.1177 435.034 82.9767C435.11 84.8357 435.186 86.6947 435.488 88.6225C435.791 90.5503 436.245 92.4782 436.926 94.406C437.607 96.3338 438.59 98.1928 439.801 99.9829C441.012 101.773 442.525 103.425 444.189 104.871L444.87 105.422L445.551 105.904C446.005 106.248 446.459 106.524 446.913 106.799C447.821 107.35 448.729 107.901 449.637 108.383C450.545 108.865 451.529 109.347 452.588 109.76C453.571 110.173 454.631 110.517 455.69 110.861C457.808 111.481 460.003 111.963 462.197 112.17C464.391 112.376 466.585 112.376 468.78 112.17C469.839 112.101 470.898 111.894 471.957 111.756C473.017 111.55 474.076 111.343 475.059 111.068C479.145 109.966 482.853 108.383 486.333 106.455C489.814 104.527 492.916 102.255 495.791 99.8452C496.547 99.2256 497.228 98.6059 497.909 97.9862C498.59 97.3666 499.271 96.6781 499.952 96.0584C500.633 95.3699 501.238 94.7502 501.844 93.9929C502.146 93.6486 502.449 93.3044 502.752 92.9601C503.054 92.6159 503.357 92.2716 503.66 91.8585C504.114 91.2389 503.962 90.4815 503.281 90.0684C502.752 89.7241 502.071 89.793 501.617 90.0684L501.239 90.2061Z" fill="#E52526"/>
<path d="M506.611 111.138L505.476 111.758C505.097 111.965 504.643 112.171 504.265 112.378C503.433 112.791 502.601 113.204 501.768 113.617C500.104 114.443 498.363 115.201 496.699 115.889C493.294 117.335 489.738 118.574 486.258 119.607C479.145 121.673 471.882 122.843 464.77 122.568C463.029 122.499 461.213 122.361 459.473 122.155C457.733 121.948 455.993 121.604 454.328 121.191C453.874 121.053 453.496 120.984 453.042 120.846L451.756 120.502L450.545 120.089L449.334 119.676C447.67 119.125 446.081 118.437 444.492 117.817C444.114 117.61 443.66 117.473 443.281 117.266C442.903 117.06 442.525 116.922 442.071 116.715C441.693 116.509 441.239 116.371 440.86 116.165C440.482 115.958 440.028 115.82 439.65 115.614L439.044 115.338C438.817 115.269 438.666 115.132 438.439 115.063L437.304 114.443L436.169 113.755C435.791 113.548 435.413 113.273 435.11 113.066C432.235 111.207 429.587 108.866 427.619 106.112C426.636 104.735 425.728 103.289 425.047 101.775L424.744 101.224L424.517 100.673C424.366 100.26 424.215 99.9156 424.063 99.5025C423.912 99.0894 423.761 98.7452 423.609 98.3321C423.458 97.9189 423.382 97.5059 423.231 97.1616C422.247 93.9256 421.793 90.5519 421.642 87.1782C421.566 83.8045 421.869 80.3619 422.399 76.9882C422.701 75.2669 423.004 73.6145 423.382 71.962C423.761 70.3096 424.215 68.6572 424.744 67.0048C424.971 66.1785 425.274 65.3523 425.501 64.5261C425.728 63.6999 426.031 62.8737 426.333 62.1163C426.485 61.7032 426.636 61.2901 426.787 60.877L427.014 60.2573L427.166 59.9131L427.317 59.5688C427.619 58.6738 427.922 57.8476 428.149 56.9525C429.284 53.4411 430.268 49.8608 430.873 46.074C431.478 42.356 431.705 38.4315 431.251 34.507C430.797 30.6513 429.738 26.7957 427.922 23.3531C427.317 22.1138 425.728 21.6318 424.366 22.1826C423.382 22.5957 422.777 23.5597 422.853 24.5236V24.5924C423.004 26.3137 423.155 28.035 423.155 29.6874C423.231 31.3399 423.155 32.9923 423.08 34.6447C422.853 37.9495 422.323 41.1856 421.567 44.4904C421.188 46.1429 420.734 47.7953 420.28 49.4477C419.826 51.1001 419.297 52.8214 418.843 54.4739L418.086 57.0213L418.01 57.2967L417.935 57.5722L417.708 58.2607C417.556 58.6738 417.405 59.1557 417.254 59.6377C416.724 61.4278 416.195 63.2868 415.816 65.1458C414.984 68.7949 414.53 72.5817 414.303 76.2997C414.076 80.0865 414.152 83.8045 414.606 87.5913C415.06 91.3781 415.816 95.0961 417.027 98.7452C417.178 99.2271 417.329 99.6403 417.481 100.122C417.632 100.604 417.783 101.017 418.01 101.499L418.313 102.188C418.389 102.394 418.54 102.601 418.616 102.876L418.918 103.565L419.221 104.253C420.053 106.043 421.037 107.765 422.02 109.417L422.399 110.037L422.777 110.656L423.155 111.276L423.609 111.896L424.063 112.515L424.517 113.135L424.971 113.755L425.425 114.374C426.712 115.958 427.998 117.542 429.511 118.987C430.949 120.433 432.538 121.81 434.278 123.05C435.942 124.289 437.683 125.391 439.574 126.423C441.466 127.456 443.433 128.282 445.476 129.04C447.519 129.797 449.637 130.348 451.756 130.83C452.285 130.968 452.815 131.036 453.345 131.174C453.874 131.312 454.404 131.381 454.933 131.45L455.766 131.587L456.598 131.725L457.43 131.863C457.733 131.863 457.96 131.931 458.263 131.931C460.457 132.138 462.575 132.276 464.77 132.276C469.082 132.276 473.395 131.725 477.481 130.899C481.642 130.004 485.577 128.764 489.435 127.318C490.419 126.974 491.327 126.561 492.235 126.148C493.143 125.735 494.051 125.322 494.959 124.84C496.775 123.945 498.59 122.981 500.255 122.017C501.995 120.984 503.66 119.951 505.324 118.781C506.157 118.23 506.913 117.61 507.746 117.06C508.124 116.784 508.502 116.44 508.956 116.165C509.183 116.027 509.334 115.82 509.561 115.683L510.167 115.201C511.226 114.306 511.302 112.791 510.242 111.827C509.41 111.001 507.973 110.863 506.989 111.414L506.611 111.138Z" fill="#E52526"/>
<path d="M503.281 133.238C502.903 133.375 502.449 133.513 501.995 133.651L500.709 134.064C499.801 134.339 498.968 134.615 498.06 134.821C496.32 135.303 494.504 135.785 492.689 136.267C490.873 136.68 489.132 137.162 487.317 137.507C485.501 137.92 483.685 138.264 481.869 138.539C478.237 139.228 474.605 139.71 470.974 140.054C467.342 140.398 463.71 140.674 460.078 140.674C456.446 140.674 452.89 140.467 449.334 140.054C445.778 139.572 442.373 138.884 439.044 137.851C435.715 136.818 432.537 135.51 429.662 133.789C428.905 133.375 428.224 132.893 427.544 132.48C426.863 131.998 426.182 131.516 425.425 131.034C424.063 130.002 422.701 128.969 421.415 127.867C420.129 126.766 418.918 125.595 417.707 124.356C416.573 123.117 415.438 121.877 414.378 120.569C413.319 119.261 412.411 117.884 411.503 116.507C410.595 115.13 409.763 113.684 409.006 112.238C407.493 109.346 406.207 106.248 405.299 103.081C405.148 102.668 405.072 102.324 404.921 101.91L404.769 101.291L404.618 100.671C404.542 100.258 404.391 99.8449 404.315 99.5006C404.24 99.0875 404.088 98.6744 404.013 98.3302C403.634 96.7466 403.332 95.0942 403.029 93.4417C402.045 86.9009 401.743 80.1535 402.045 73.4749C402.348 66.7275 403.105 59.98 404.088 53.2326C404.164 52.4752 403.634 51.7868 402.802 51.7179C402.121 51.6491 401.44 51.9933 401.213 52.613L401.137 52.7507L400.684 53.99L400.23 55.2293C399.927 56.0555 399.624 56.8817 399.397 57.7079C398.868 59.3604 398.338 61.0817 397.884 62.7341L397.506 63.9734C397.354 64.3865 397.279 64.7996 397.203 65.2816C396.976 66.1078 396.749 67.0029 396.598 67.8291C396.219 69.5504 395.841 71.2716 395.538 72.9929C394.328 79.9469 393.723 87.1074 394.328 94.4057C394.479 96.1958 394.706 98.0548 395.009 99.8449C395.085 100.327 395.16 100.74 395.236 101.222C395.311 101.704 395.387 102.117 395.463 102.599L395.614 103.287L395.765 103.976C395.841 104.458 395.992 104.871 396.068 105.353C396.522 107.143 397.052 109.002 397.657 110.792C398.262 112.582 399.019 114.373 399.851 116.094C400.684 117.815 401.591 119.536 402.575 121.258C403.559 122.91 404.694 124.562 405.904 126.146C407.115 127.73 408.401 129.244 409.763 130.69C411.125 132.136 412.562 133.513 414.076 134.89C415.589 136.198 417.178 137.507 418.767 138.677C419.599 139.228 420.356 139.847 421.264 140.398C422.171 140.949 423.079 141.5 423.987 142.051C424.895 142.601 425.879 143.083 426.787 143.565C427.771 144.047 428.754 144.46 429.738 144.874C431.705 145.7 433.748 146.388 435.791 146.939C437.834 147.49 439.876 147.972 441.919 148.316C442.979 148.523 443.962 148.66 445.021 148.798C445.551 148.867 446.081 148.936 446.535 149.005C447.064 149.074 447.594 149.074 448.048 149.142C450.091 149.28 452.134 149.418 454.177 149.418C454.706 149.418 455.16 149.418 455.69 149.418C456.219 149.418 456.673 149.418 457.203 149.349C458.187 149.28 459.246 149.28 460.229 149.211C468.25 148.66 476.043 147.146 483.382 144.874C485.198 144.323 487.09 143.703 488.83 143.083C489.738 142.739 490.646 142.395 491.554 142.051C492.462 141.706 493.294 141.362 494.202 140.949C495.11 140.605 495.942 140.192 496.85 139.847C497.682 139.434 498.59 139.021 499.422 138.608C500.255 138.195 501.087 137.782 501.919 137.3L503.206 136.611C503.66 136.405 504.038 136.129 504.416 135.854L504.567 135.785C505.324 135.372 505.475 134.477 505.021 133.789C504.719 133.238 503.962 133.031 503.281 133.238Z" fill="#E52526"/>
<path d="M490.948 153.686L489.738 153.962L488.451 154.306L485.879 154.926C484.139 155.339 482.474 155.683 480.734 156.027C478.994 156.372 477.329 156.647 475.589 156.991C474.757 157.129 473.849 157.267 473.016 157.404C472.184 157.542 471.276 157.68 470.444 157.749C463.559 158.575 456.673 158.85 449.939 158.437C448.275 158.299 446.535 158.162 444.87 157.955C444.416 157.886 444.038 157.817 443.659 157.817C443.206 157.749 442.827 157.68 442.449 157.611C442.071 157.542 441.617 157.473 441.238 157.404C440.86 157.336 440.406 157.267 440.028 157.198C438.363 156.922 436.774 156.509 435.185 156.096C433.596 155.683 432.008 155.27 430.343 154.857C427.165 153.962 423.912 152.998 420.81 151.759C419.221 151.139 417.707 150.45 416.194 149.693C414.681 148.936 413.243 148.041 411.881 147.146C411.2 146.664 410.52 146.182 409.839 145.7C409.158 145.218 408.552 144.667 407.871 144.116C406.585 143.083 405.375 141.913 404.24 140.742C401.97 138.401 399.851 135.923 398.035 133.238C397.127 131.929 396.295 130.552 395.463 129.175C394.631 127.798 393.95 126.352 393.269 124.975C392.588 123.53 391.982 122.084 391.377 120.638C390.772 119.192 390.242 117.677 389.788 116.162C388.805 113.202 388.048 110.172 387.367 107.074C387.064 105.559 386.762 103.976 386.459 102.461C386.156 100.946 386.005 99.3628 385.778 97.7792C385.324 94.6809 385.021 91.5137 384.794 88.3466C384.643 86.763 384.567 85.1795 384.492 83.5959L384.265 78.8451V78.7074C384.189 77.4681 383.054 76.5042 381.692 76.5731C380.633 76.6419 379.801 77.2616 379.498 78.0878L379.347 78.432L379.271 78.7763C379.195 78.9829 379.12 79.1894 379.044 79.3959C378.893 79.809 378.817 80.2222 378.666 80.6353C378.439 81.4615 378.212 82.2877 378.061 83.1139C377.682 84.7663 377.455 86.4876 377.304 88.2089C376.926 91.5826 376.926 95.0252 377.153 98.4677C377.38 101.91 377.909 105.284 378.742 108.658C379.498 112.031 380.557 115.336 381.919 118.572C384.567 125.044 388.275 131.103 392.739 136.611C394.933 139.365 397.43 141.982 400.003 144.46L400.986 145.355L401.44 145.837L401.97 146.25L402.953 147.146L404.013 148.041C404.694 148.66 405.375 149.211 406.131 149.762L408.25 151.414C409.006 151.965 409.687 152.516 410.368 153.067C411.049 153.618 411.806 154.168 412.562 154.719C414.076 155.752 415.589 156.854 417.102 157.886C418.691 158.919 420.28 159.814 421.945 160.709C423.609 161.604 425.349 162.362 427.165 163.05C428.981 163.739 430.797 164.289 432.613 164.771C434.504 165.253 436.32 165.598 438.212 165.942C438.666 166.011 439.195 166.08 439.649 166.148C440.103 166.217 440.633 166.286 441.087 166.355C441.541 166.424 442.071 166.493 442.525 166.562C442.979 166.63 443.508 166.699 443.962 166.699C445.854 166.906 447.745 166.975 449.712 167.044C457.354 167.25 464.921 166.424 472.184 164.84C475.816 164.083 479.372 163.05 482.852 161.88C484.593 161.26 486.333 160.64 487.997 159.952C488.83 159.608 489.662 159.263 490.494 158.919L491.705 158.368C491.932 158.299 492.159 158.162 492.31 158.093L492.991 157.749C494.202 157.198 494.656 155.821 493.975 154.719C493.445 153.755 492.235 153.342 491.175 153.618L490.948 153.686Z" fill="#E52526"/>
<path d="M442.449 177.785H441.995C441.844 177.785 441.617 177.785 441.465 177.785L440.86 177.716C440.633 177.716 440.482 177.647 440.255 177.647L439.952 177.578L439.65 177.509L439.044 177.44C438.59 177.372 438.212 177.303 437.758 177.234C436.018 176.89 434.278 176.477 432.537 175.995C432.083 175.857 431.705 175.788 431.251 175.65L429.965 175.237C429.132 174.962 428.225 174.686 427.392 174.411C426.938 174.273 426.56 174.136 426.106 173.929C425.652 173.791 425.274 173.654 424.82 173.447L423.534 172.965C423.08 172.827 422.701 172.621 422.323 172.483C421.945 172.345 421.491 172.139 421.112 172.001L419.902 171.45L418.691 170.9L418.086 170.624L417.481 170.349L416.27 169.798L415.059 169.178C414.227 168.765 413.471 168.352 412.714 167.939C411.957 167.526 411.125 167.113 410.368 166.7L409.233 166.011L408.628 165.667L408.098 165.323C407.342 164.841 406.585 164.428 405.904 163.946C405.526 163.739 405.148 163.464 404.769 163.257L403.71 162.5C402.273 161.536 400.835 160.503 399.473 159.47C398.792 158.92 398.111 158.438 397.43 157.887L395.463 156.234C394.858 155.684 394.177 155.133 393.571 154.513L391.68 152.792L390.772 151.897C390.469 151.621 390.167 151.346 389.864 151.002C389.259 150.382 388.653 149.831 388.048 149.211L386.232 147.421L385.324 146.526C385.022 146.251 384.719 145.907 384.416 145.631C383.811 145.012 383.206 144.392 382.676 143.772L380.936 141.844C378.666 139.228 376.623 136.474 375.034 133.445C374.807 133.1 374.58 132.687 374.429 132.343L373.899 131.172L373.37 130.002C373.218 129.589 373.067 129.245 372.84 128.832L372.31 127.661L372.083 127.11L371.856 126.491C371.554 125.664 371.251 124.907 371.024 124.081C369.965 120.914 369.133 117.609 368.527 114.304L368.149 111.825C368.073 110.999 367.922 110.173 367.846 109.347C367.771 108.934 367.771 108.52 367.695 108.107L367.619 106.868L367.544 105.629C367.544 105.216 367.468 104.802 367.468 104.389L367.392 101.911C367.392 101.704 367.392 101.498 367.392 101.291V100.671V99.4321C367.317 97.7797 367.392 96.0584 367.468 94.406C367.468 93.9928 367.468 93.5797 367.544 93.1666L367.619 91.9273L367.695 90.688V90.0683L367.771 89.4487L367.922 86.97C367.998 86.1438 368.073 85.3176 368.149 84.4914C368.225 83.6652 368.3 82.839 368.376 82.0127L368.679 79.5341C368.83 77.8816 369.057 76.1604 369.284 74.5079C369.435 72.8555 369.738 71.1342 369.889 69.4818L369.965 68.8621C369.965 68.6556 370.04 68.4491 370.04 68.2425L370.192 67.0031C370.343 66.1769 370.419 65.3508 370.494 64.4557C370.721 62.8033 370.948 61.082 371.1 59.3607C371.327 57.6394 371.554 55.987 371.629 54.1968V54.128C371.705 52.8887 370.646 51.8559 369.284 51.787C368.225 51.7182 367.317 52.269 366.863 53.0952C366.106 54.7477 365.425 56.3312 364.744 57.9837C364.139 59.6361 363.534 61.3574 363.004 63.0098C362.777 63.836 362.474 64.7311 362.247 65.5573L361.869 66.8655C361.793 67.072 361.718 67.2786 361.718 67.4851L361.566 68.1048C361.339 68.9999 361.188 69.8261 360.961 70.7211L360.658 72.0293C360.583 72.4424 360.507 72.9244 360.431 73.3375C360.129 75.0587 359.826 76.8489 359.599 78.5702L359.296 81.1865C359.221 82.0816 359.145 82.9766 359.069 83.8717C358.918 85.6618 358.918 87.3831 358.842 89.1732V89.8618V90.5503V91.8585C358.842 92.7535 358.842 93.6486 358.918 94.5436C358.994 96.3338 359.069 98.1239 359.296 99.8452L359.448 101.153L359.523 101.842C359.523 102.048 359.599 102.255 359.599 102.53L359.977 105.147C360.053 105.56 360.129 106.042 360.204 106.455L360.431 107.763L360.658 109.071C360.734 109.484 360.81 109.966 360.961 110.379L361.566 112.996L362.247 115.612C363.155 119.055 364.215 122.497 365.425 125.871C366.03 127.523 366.711 129.245 367.392 130.897C367.544 131.31 367.771 131.723 367.922 132.136L368.452 133.376L368.981 134.615C369.133 135.028 369.36 135.441 369.587 135.854C371.1 139.159 372.689 142.464 374.505 145.7L375.942 148.11C376.396 148.867 376.926 149.693 377.455 150.451C377.985 151.208 378.515 151.966 379.044 152.723C379.347 153.136 379.65 153.48 379.877 153.825L380.784 154.926C381.087 155.27 381.39 155.615 381.692 156.028L382.676 157.061C383.357 157.749 384.038 158.438 384.719 159.126C385.4 159.815 386.156 160.434 386.837 161.054C387.594 161.674 388.275 162.293 389.032 162.913C389.788 163.533 390.545 164.152 391.301 164.703C392.058 165.254 392.815 165.873 393.647 166.424C395.236 167.526 396.825 168.628 398.489 169.66C401.819 171.726 405.223 173.516 408.779 175.168C409.687 175.582 410.595 175.995 411.503 176.339L412.865 176.89L414.227 177.44L414.908 177.716L415.589 177.991L416.951 178.473C417.859 178.749 418.842 179.093 419.75 179.368C420.204 179.506 420.658 179.644 421.188 179.781L422.626 180.195C423.08 180.332 423.609 180.47 424.063 180.539C424.517 180.676 425.047 180.814 425.501 180.883C427.392 181.365 429.36 181.709 431.327 181.985C433.294 182.26 435.261 182.467 437.304 182.604C437.834 182.604 438.363 182.604 438.817 182.673H439.574H439.952H440.331C441.39 182.604 442.449 182.535 443.735 182.26C445.022 181.916 445.778 180.745 445.4 179.575C445.097 178.611 444.114 177.922 443.054 177.922L442.449 177.785Z" fill="#E52526"/>
<path d="M483.836 73.4053C483.761 73.4742 483.761 73.543 483.685 73.6119L483.534 73.8873L483.155 74.3692C482.928 74.7135 482.701 75.0577 482.399 75.402C481.869 76.0905 481.415 76.7102 480.885 77.3987C479.826 78.7069 478.767 79.8773 477.556 80.979C476.951 81.5298 476.421 82.0117 475.816 82.4248C475.211 82.8379 474.605 83.1822 474.076 83.4576C473.773 83.5953 473.471 83.733 473.244 83.8018C472.941 83.8707 472.714 83.9395 472.411 84.0084C472.26 84.0084 472.184 84.0773 472.033 84.0773C471.882 84.0773 471.806 84.0773 471.655 84.0773C471.428 84.0773 471.125 84.0773 470.898 84.0773C470.368 84.0084 469.914 83.8707 469.385 83.6641L469.158 83.5953L468.931 83.5264C468.779 83.4576 468.628 83.3887 468.552 83.3199L468.477 83.251L468.401 83.1822C468.326 83.1822 468.325 83.1133 468.25 83.1133C468.174 83.1133 468.174 83.0445 468.099 83.0445C468.023 83.0445 468.023 82.9756 467.947 82.9756C467.418 82.6314 466.964 82.2871 466.51 81.9428C466.056 81.5986 465.602 81.1855 465.223 80.6347C464.845 80.1527 464.467 79.5331 464.088 78.9134C463.786 78.2249 463.559 77.5364 463.408 76.779C463.256 76.0216 463.181 75.1955 463.181 74.4381C463.181 74.025 463.18 73.6118 463.256 73.1987C463.256 72.7856 463.332 72.3725 463.332 71.9594C463.634 68.6546 464.467 65.3497 465.223 61.976C465.602 60.2547 465.98 58.6023 466.283 56.881L466.51 55.5729L466.661 54.2647C466.737 53.3696 466.888 52.5434 466.964 51.6483C467.115 49.8582 467.191 48.0681 467.191 46.2779C467.115 44.419 466.888 42.56 466.434 40.701C465.98 38.842 465.299 37.0519 464.315 35.3306C463.407 33.6093 462.197 32.0946 460.835 30.7176C460.078 29.9602 458.792 29.8914 457.96 30.5799C457.355 31.0618 457.128 31.8192 457.43 32.5077V32.5765C458.036 34.1601 458.565 35.6748 458.943 37.1896C459.322 38.7043 459.624 40.219 459.776 41.7338C459.851 42.078 459.851 42.4911 459.851 42.9042V43.4551V44.0059C459.851 44.7632 459.851 45.5894 459.851 46.3468C459.851 47.9303 459.7 49.5139 459.624 51.1664L459.397 53.645L459.322 54.8843L459.246 56.1237C459.17 57.7761 459.095 59.4974 459.019 61.2187C458.943 62.9399 458.868 64.6612 458.792 66.3825C458.716 68.1038 458.565 69.825 458.489 71.6152L458.414 72.9234C458.414 73.3365 458.414 73.8184 458.338 74.3004C458.338 75.1954 458.262 76.0905 458.262 77.0544C458.262 78.0183 458.262 78.9823 458.338 80.015C458.414 81.0478 458.565 82.0805 458.868 83.1822C459.019 83.733 459.246 84.2838 459.473 84.7658C459.776 85.3166 460.078 85.7985 460.381 86.2805C461.062 87.2444 461.97 88.1395 462.953 88.828C463.029 88.8968 463.256 89.0345 463.332 89.1034C463.483 89.1722 463.635 89.3099 463.786 89.3788C463.937 89.4476 464.088 89.5165 464.24 89.5854L464.467 89.723L464.694 89.7919C464.996 89.9296 465.223 90.0673 465.526 90.1362L465.98 90.3427L466.434 90.4804C467.039 90.687 467.645 90.8935 468.326 91.0312C469.007 91.1689 469.687 91.2378 470.368 91.2378C471.73 91.3066 473.168 91.1001 474.454 90.7558C475.74 90.4115 476.875 89.8608 477.935 89.2411C478.464 88.9657 478.918 88.6214 479.372 88.2772C479.826 87.9329 480.204 87.5887 480.658 87.1756C481.415 86.4182 482.172 85.6608 482.777 84.9034C483.988 83.3199 484.971 81.6675 485.803 79.9462C486.182 79.12 486.56 78.2249 486.863 77.3987C487.014 76.9856 487.165 76.5036 487.317 76.0905L487.468 75.402C487.468 75.2643 487.544 75.1954 487.544 75.0577L487.619 74.7135C487.846 73.7496 487.165 72.7857 486.106 72.5791C485.35 72.4414 484.517 72.7168 484.063 73.2676L483.836 73.4053Z" fill="#E52526"/>
<path d="M391.831 179.851L390.696 179.025C390.318 178.75 389.94 178.474 389.561 178.199C388.805 177.648 388.048 177.029 387.367 176.409C385.93 175.238 384.492 173.999 383.055 172.691C380.255 170.143 377.607 167.527 375.11 164.773C370.116 159.265 365.652 153.344 361.945 147.078C361.037 145.495 360.129 143.911 359.297 142.328C358.918 141.501 358.464 140.744 358.086 139.918C357.859 139.505 357.708 139.092 357.481 138.678L356.875 137.439C356.119 135.787 355.438 134.134 354.757 132.482C354.076 130.829 353.471 129.177 352.79 127.456C351.503 124.082 350.217 120.708 349.158 117.266C348.023 113.823 347.191 110.243 346.737 106.663C346.585 105.768 346.51 104.872 346.434 103.977C346.358 103.082 346.283 102.187 346.283 101.292C346.283 100.81 346.283 100.397 346.207 99.9152V98.5382C346.207 97.6431 346.207 96.6792 346.207 95.7841C346.207 92.135 346.434 88.4859 346.812 84.8368C347.493 77.5385 348.931 70.378 350.671 63.3552C351.125 61.5651 351.579 59.8438 352.109 58.1225C352.563 56.4012 353.168 54.68 353.698 52.9587C354.833 49.5161 356.043 46.1424 357.405 42.7687C358.767 39.395 360.205 36.159 361.869 32.9229C362.701 31.3394 363.534 29.6869 364.442 28.1034C364.896 27.346 365.35 26.5198 365.804 25.7624C366.031 25.3493 366.258 25.0051 366.485 24.592L366.863 24.0412L367.014 23.7657L367.09 23.628L367.166 23.5592V23.4904L367.393 23.0084C367.922 21.9068 367.393 20.5986 366.182 20.1166C365.274 19.7724 364.29 19.9101 363.609 20.4609L363.231 20.7363C363.155 20.8052 363.004 20.9428 362.928 21.0117C362.701 21.1494 362.55 21.356 362.323 21.4937C361.945 21.8379 361.567 22.1822 361.188 22.5264C360.432 23.2149 359.751 23.9723 359.07 24.7297C357.708 26.2444 356.422 27.828 355.287 29.4804C352.941 32.7164 350.974 36.159 349.309 39.7392C347.645 43.3195 346.283 46.9686 345.148 50.6177C344.013 54.3357 343.105 58.0536 342.424 61.8405C341.743 65.6273 341.289 69.4141 340.911 73.1321C340.608 76.9189 340.381 80.7057 340.305 84.4925C340.23 88.2793 340.23 91.9973 340.23 95.7841L340.305 98.607V99.984C340.305 100.466 340.305 100.948 340.381 101.43C340.457 102.394 340.457 103.358 340.533 104.253C340.533 104.735 340.608 105.217 340.608 105.699C340.608 106.181 340.684 106.663 340.684 107.145C340.911 110.931 341.062 114.787 341.516 118.574C341.97 122.43 342.575 126.216 343.635 130.003C344.694 133.79 346.207 137.37 347.947 140.951C349.688 144.531 351.655 147.973 353.773 151.278C358.086 157.957 363.382 164.085 369.284 169.524C372.235 172.278 375.413 174.825 378.742 177.166C380.406 178.337 382.147 179.438 383.887 180.54C384.795 181.091 385.627 181.573 386.535 182.055C386.989 182.33 387.443 182.537 387.897 182.812C388.124 182.95 388.351 183.019 388.578 183.156L389.335 183.501C390.545 184.051 391.983 183.638 392.588 182.537C393.118 181.573 392.815 180.402 391.983 179.783L391.831 179.851Z" fill="#E52526"/>
<path d="M211.907 7.30955L211.756 8.47998L211.68 9.65046L211.604 10.8209C211.604 11.234 211.604 11.5783 211.604 11.9914C211.604 13.575 211.68 15.1586 211.832 16.6733C212.21 19.8404 212.966 22.9388 214.026 25.8994C215.085 28.86 216.371 31.7517 217.809 34.5058C218.49 35.8828 219.246 37.2598 220.003 38.568C220.381 39.2565 220.76 39.8762 221.138 40.5647L222.348 42.4925V42.5613L222.5 42.8368C223.408 44.0072 224.24 45.2465 225.072 46.4859C225.905 47.7252 226.737 48.9645 227.494 50.2038C228.25 51.4432 229.082 52.6825 229.839 53.9907C230.596 55.23 231.352 56.5381 232.033 57.8463C232.79 59.1545 233.471 60.4627 234.152 61.702L236.195 65.6265C237.557 68.2428 238.994 70.8592 240.356 73.4755C241.794 76.0919 243.156 78.7082 244.442 81.3934C245.728 84.0786 246.787 86.8327 247.695 89.6556C248.149 91.0326 248.528 92.4785 248.83 93.9244C249.133 95.3702 249.511 96.8161 249.738 98.1931C250.041 99.639 250.268 101.085 250.419 102.531C250.495 103.288 250.57 103.977 250.646 104.734C250.722 105.491 250.797 106.18 250.873 106.937C251.327 112.721 251.176 118.573 250.495 124.288C249.814 130.002 248.679 135.648 247.166 141.225C245.652 146.802 243.685 152.241 241.491 157.612C240.356 160.297 239.221 162.982 238.011 165.667C237.405 167.044 236.8 168.352 236.119 169.73C235.514 171.107 234.833 172.415 234.227 173.792V173.861C233.698 175.1 234.379 176.546 235.741 177.028C236.8 177.441 238.011 177.097 238.692 176.408C240.961 174.136 243.004 171.589 244.82 169.041C246.636 166.425 248.376 163.739 249.814 160.917C251.251 158.094 252.613 155.202 253.673 152.31C254.202 150.864 254.732 149.35 255.186 147.835C255.64 146.32 256.018 144.805 256.472 143.291C257.985 137.232 258.742 130.966 258.818 124.77C258.969 118.573 258.439 112.445 257.531 106.318C257.456 105.56 257.304 104.803 257.153 104.045C257.002 103.288 256.926 102.531 256.775 101.773C256.472 100.259 256.245 98.7439 255.942 97.2292C255.64 95.7145 255.337 94.1998 254.959 92.7539L253.9 88.2785C253.219 85.3179 252.462 82.2885 251.705 79.3279C250.949 76.2984 250.192 73.3378 249.208 70.3772C248.225 67.4166 247.09 64.5249 245.728 61.702C245.047 60.2561 244.29 58.8791 243.534 57.5021C242.777 56.125 242.021 54.748 241.188 53.371C237.935 47.9317 234.379 42.699 230.293 37.7417L230.52 38.0172L229.234 36.2271C228.78 35.6074 228.401 34.9877 227.947 34.4369C227.115 33.1976 226.283 32.0271 225.526 30.7878C223.937 28.378 222.5 25.8993 221.289 23.4207C220.079 20.9421 219.019 18.3946 218.263 15.7782C217.506 13.1619 217.052 10.4079 216.75 7.6538V7.58493C216.598 6.27675 215.388 5.31283 213.874 5.38168C213.042 5.24398 212.058 6.13908 211.907 7.30955Z" fill="#E52526"/>
<path d="M249.738 40.9101L250.797 42.9068L251.327 43.9395C251.478 44.2838 251.705 44.6281 251.856 44.9723C252.613 46.2805 253.294 47.6575 253.975 48.9657C254.656 50.2739 255.337 51.6509 256.018 52.9591L257.001 54.9557C257.304 55.6443 257.682 56.3328 257.985 56.9524C260.482 62.3228 262.827 67.8309 264.87 73.2702C266.913 78.7783 268.729 84.3552 270.167 89.9322C271.68 95.5091 272.815 101.224 273.496 106.87C273.874 109.692 274.101 112.584 274.252 115.476C274.252 116.164 274.328 116.922 274.328 117.61V118.712V119.263V119.814C274.328 120.502 274.328 121.259 274.328 121.948C274.328 122.636 274.328 123.394 274.252 124.082C274.025 129.797 273.42 135.512 272.209 141.226C271.604 144.049 270.923 146.872 270.091 149.695L269.486 151.761L269.334 152.311L269.183 152.862L268.805 153.895L268.426 154.928L268.048 155.96C267.821 156.649 267.594 157.337 267.291 158.026L266.459 160.092C266.156 160.78 265.854 161.469 265.627 162.157L265.173 163.19C265.022 163.534 264.87 163.878 264.719 164.223C264.416 164.911 264.114 165.6 263.811 166.288L262.827 168.285C262.676 168.629 262.525 168.973 262.298 169.318C262.146 169.662 261.995 170.006 261.768 170.35C261.087 171.727 260.406 173.036 259.725 174.413C259.423 175.032 259.725 175.721 260.331 175.996C260.86 176.203 261.541 176.065 261.844 175.652C263.962 173.311 265.929 170.832 267.745 168.285C268.199 167.665 268.653 166.977 269.107 166.357C269.334 166.013 269.561 165.737 269.788 165.393L270.394 164.429C270.772 163.741 271.226 163.121 271.604 162.432C271.982 161.744 272.361 161.055 272.815 160.367C274.328 157.613 275.766 154.79 277.052 151.967C278.262 149.075 279.397 146.184 280.305 143.154C280.532 142.397 280.759 141.639 280.986 140.882L281.592 138.61C281.97 137.095 282.348 135.58 282.651 134.066C283.256 131.036 283.71 127.938 284.013 124.84C284.088 124.082 284.164 123.256 284.24 122.499C284.315 121.741 284.315 120.915 284.391 120.158V119.607V119.056V117.886C284.391 117.128 284.391 116.302 284.391 115.545C284.391 112.446 284.164 109.348 283.861 106.25C283.256 100.053 282.046 93.9255 280.381 87.9355C278.641 81.9454 276.446 76.0931 273.723 70.4473C270.999 64.8015 267.821 59.3622 264.189 54.1984C260.557 49.0346 256.547 44.1461 251.856 39.7396C251.327 39.2577 250.419 39.2577 249.889 39.7396C249.511 39.8085 249.435 40.4282 249.738 40.9101Z" fill="#E52526"/>
<path d="M74.6562 182.19L75.1858 181.914C75.3371 181.845 75.4885 181.776 75.6398 181.708C75.9425 181.57 76.2451 181.363 76.5477 181.226C77.153 180.881 77.6827 180.537 78.288 180.193C79.4229 179.504 80.4821 178.747 81.5414 177.99C82.6007 177.232 83.6599 176.475 84.6435 175.649C85.1732 175.236 85.6271 174.822 86.1568 174.409C86.6107 173.996 87.1404 173.583 87.5944 173.101C91.4531 169.659 94.8579 165.803 97.8844 161.741C98.2627 161.259 98.641 160.708 99.0193 160.226L100.079 158.642L101.138 157.059C101.441 156.508 101.819 155.957 102.122 155.475C102.727 154.374 103.408 153.341 103.937 152.17C104.24 151.62 104.467 151.069 104.77 150.518C104.997 149.967 105.299 149.348 105.526 148.797L105.829 147.902C105.905 147.626 106.056 147.282 106.132 147.007C106.359 146.387 106.51 145.836 106.661 145.216C106.813 144.597 106.964 144.046 107.115 143.426L107.569 141.636C108.099 139.226 108.553 136.817 109.158 134.476C109.461 133.305 109.763 132.135 110.066 130.964L110.293 130.069L110.52 129.174L110.974 127.384C111.504 125.043 112.033 122.702 112.563 120.292C113.017 117.951 113.546 115.542 113.849 113.132C114.076 111.961 114.152 110.722 114.303 109.552C114.379 108.932 114.454 108.381 114.454 107.761C114.53 107.142 114.53 106.522 114.606 105.971C114.757 103.561 114.833 101.152 114.757 98.7419C114.757 98.1222 114.757 97.5025 114.681 96.9517L114.53 95.1616C114.454 93.9911 114.303 92.7518 114.152 91.5813C114.076 91.3059 114.076 90.9617 114 90.6863L113.849 89.7912C113.773 89.1716 113.622 88.6207 113.546 88.0011C113.471 87.3814 113.319 86.8306 113.168 86.2109C113.017 85.5913 112.866 85.0405 112.714 84.4208C112.412 83.2504 112.033 82.0799 111.579 80.9783C111.125 79.8078 110.671 78.7062 110.142 77.6045C109.536 76.4341 108.099 75.9521 106.813 76.4341C105.98 76.7783 105.451 77.5357 105.375 78.2931V78.3619C105.224 79.5324 105.224 80.7029 105.224 81.8733C105.224 83.0438 105.224 84.2143 105.224 85.3847C105.224 86.5552 105.299 87.6568 105.299 88.8273C105.299 89.9978 105.375 91.0994 105.451 92.2698C105.526 93.4403 105.602 94.5419 105.678 95.7124L105.753 97.4337C105.753 97.9845 105.829 98.5353 105.829 99.155C105.98 101.427 106.056 103.699 106.132 105.971C106.283 110.515 106.359 115.06 105.98 119.673L105.829 121.394C105.753 121.945 105.678 122.496 105.602 123.115C105.526 123.666 105.451 124.217 105.299 124.836C105.224 125.387 105.072 125.938 104.997 126.558C104.77 127.659 104.543 128.83 104.24 129.931C104.089 130.482 103.937 131.033 103.786 131.584C103.635 132.135 103.408 132.686 103.256 133.236C102.5 135.371 101.441 137.505 100.23 139.502L99.322 141.016C99.0193 141.498 98.7167 141.98 98.4141 142.531C97.8088 143.495 97.2034 144.528 96.6738 145.492L95.8415 147.007C95.5389 147.489 95.3119 148.039 95.0093 148.521C94.7066 149.003 94.4797 149.554 94.2527 150.036C93.95 150.518 93.723 151.069 93.4204 151.551L92.588 153.065L91.7558 154.511L90.8479 155.957C90.5452 156.439 90.2425 156.921 89.9399 157.403C87.443 161.259 84.7192 164.977 81.7684 168.557C80.2552 170.347 78.7419 172.068 77.0773 173.79C76.245 174.616 75.4128 175.511 74.5805 176.268C74.1266 176.681 73.7482 177.095 73.2942 177.508C73.0672 177.714 72.8403 177.921 72.689 178.127L72.3863 178.403L72.235 178.54L72.1593 178.609L72.0837 178.678L71.6297 179.504C71.0244 180.537 71.4784 181.845 72.6133 182.396C73.143 182.534 73.9752 182.465 74.6562 182.19Z" fill="#E52526"/>
<path d="M101.289 178.819C105.905 176.203 110.142 173.035 114 169.524C114.984 168.629 115.892 167.734 116.8 166.77L117.481 166.082C117.632 165.944 117.708 165.875 117.859 165.737L118.162 165.393L119.448 163.947C119.675 163.672 119.902 163.465 120.129 163.19L120.432 162.846L120.734 162.432L121.945 160.918L122.55 160.16L122.853 159.747L123.156 159.334L124.29 157.751C125.047 156.718 125.728 155.616 126.409 154.515C127.09 153.413 127.695 152.242 128.301 151.141C128.906 150.039 129.435 148.869 129.965 147.698L130.343 146.803C130.495 146.528 130.57 146.184 130.722 145.908C130.949 145.288 131.176 144.738 131.403 144.118C132.311 141.777 133.067 139.367 133.748 136.889C134.429 134.479 135.035 132 135.413 129.522C137.153 119.676 137.304 109.692 136.321 99.9155C135.337 90.1387 133.37 80.4995 130.57 71.1357C130.343 70.3095 129.435 69.8964 128.527 70.1029C127.847 70.2406 127.393 70.7915 127.317 71.4111V71.6865C127.241 72.9259 127.166 74.1652 127.09 75.3356C127.014 76.575 127.014 77.7454 127.014 78.9848C127.014 79.6044 126.939 80.2241 126.939 80.7749C126.939 81.3945 126.939 82.0142 126.939 82.565C126.863 83.8043 126.939 84.9748 126.863 86.1453C126.787 90.896 126.712 95.6467 126.56 100.329C126.258 109.692 125.577 118.85 123.836 127.663L123.458 129.315C123.383 129.59 123.383 129.866 123.307 130.141C123.231 130.417 123.156 130.692 123.156 130.967L122.777 132.62L122.626 133.446L122.399 134.272C121.869 136.407 121.264 138.61 120.507 140.675C120.129 141.708 119.826 142.81 119.448 143.843L118.843 145.426C118.767 145.702 118.616 145.977 118.54 146.184L118.237 146.941C117.784 147.974 117.405 149.006 116.876 150.039L116.497 150.797L116.119 151.554L115.968 151.967C115.892 152.105 115.816 152.242 115.741 152.311L115.362 153.069C113.32 157.062 110.974 160.987 108.25 164.842C107.872 165.324 107.569 165.806 107.191 166.288C107.04 166.495 106.888 166.77 106.661 167.045L106.132 167.734L104.997 169.18L104.467 169.868C104.316 170.144 104.089 170.35 103.862 170.557L102.727 172.003L102.122 172.691L101.819 173.035L101.516 173.38C100.684 174.344 99.8517 175.239 99.095 176.271L98.868 176.547C98.3384 177.235 98.4897 178.199 99.2463 178.681C99.9273 179.163 100.684 179.163 101.289 178.819Z" fill="#E52526"/>
<path d="M100.533 194.448C101.895 194.448 102.878 194.31 103.938 194.172L104.316 194.103L104.694 194.034L105.451 193.897C105.98 193.759 106.434 193.69 106.964 193.552C108.931 193.002 110.823 192.382 112.639 191.693C114.455 191.005 116.271 190.179 118.011 189.353C118.465 189.146 118.919 188.939 119.297 188.733C119.751 188.526 120.205 188.32 120.583 188.044L121.869 187.356C122.323 187.149 122.702 186.874 123.156 186.667C123.988 186.185 124.82 185.703 125.653 185.153L126.863 184.395L127.468 183.982L128.074 183.569L129.284 182.743L130.419 181.917C131.176 181.366 131.933 180.746 132.765 180.195C135.791 177.854 138.666 175.307 141.315 172.622C142.676 171.313 143.963 169.868 145.173 168.491C145.779 167.802 146.384 167.045 146.989 166.287C147.595 165.53 148.124 164.773 148.729 164.084C149.259 163.327 149.864 162.569 150.394 161.812C150.924 161.055 151.453 160.297 151.983 159.471C152.437 158.645 152.967 157.888 153.421 157.061L154.101 155.822C154.328 155.409 154.555 154.996 154.707 154.583L155.312 153.343C155.463 152.93 155.69 152.517 155.842 152.104C156.144 151.278 156.523 150.383 156.825 149.488C157.128 148.593 157.431 147.766 157.658 146.871L158.414 144.255C159.322 140.744 160.003 137.163 160.608 133.652C160.684 133.239 160.76 132.757 160.835 132.344L161.062 131.036L161.289 129.727C161.365 129.314 161.441 128.832 161.516 128.419C161.743 126.629 161.97 124.908 162.122 123.118C162.424 119.537 162.576 116.026 162.5 112.446L162.424 109.761L162.273 107.075C162.273 106.662 162.273 106.18 162.197 105.767L162.046 104.459L161.895 103.151C161.895 102.738 161.819 102.256 161.743 101.843L161.441 99.1574C161.441 98.9509 161.365 98.7443 161.365 98.4689L161.289 97.7804L161.062 96.4723C160.835 94.6821 160.381 92.9608 160.079 91.2395C159.927 90.3445 159.7 89.5183 159.473 88.6232L159.171 87.315L159.02 86.6954L158.792 86.0757C158.263 84.3544 157.809 82.6332 157.204 80.9807C156.901 80.1545 156.598 79.2594 156.296 78.4332L155.312 75.9546C154.631 74.3021 153.95 72.6497 153.194 70.9973C152.967 70.5842 152.815 70.1711 152.588 69.758L151.983 68.5875C151.605 67.7613 151.151 67.0039 150.772 66.1777L150.47 65.558C150.394 65.3515 150.243 65.1449 150.167 64.9384L149.486 63.7679C149.032 63.0106 148.578 62.1843 148.124 61.427C147.141 59.9122 146.157 58.3975 145.098 56.8828C144.038 55.4369 142.903 53.991 141.769 52.5452C140.936 51.5812 139.423 51.3747 138.288 52.1321C137.456 52.6829 137.153 53.7156 137.456 54.5419V54.6107C137.985 56.2631 138.666 57.9156 139.272 59.4991C139.877 61.1516 140.558 62.7352 141.239 64.3187C141.542 65.1449 141.844 65.9023 142.223 66.7285L142.752 67.899C142.828 68.1056 142.904 68.3121 142.979 68.5186L143.206 69.1383C143.811 70.7219 144.492 72.3054 145.098 73.889C145.703 75.4726 146.384 77.0562 146.989 78.6398L147.897 80.9807C148.2 81.8069 148.503 82.5643 148.729 83.3905C149.032 84.2167 149.335 84.9741 149.562 85.8003L150.394 88.2101L150.621 88.8297L150.772 89.4494L151.151 90.6887L151.529 91.9281C151.68 92.3412 151.756 92.7543 151.907 93.1674C152.361 94.7509 152.891 96.4034 153.269 98.0558L153.572 99.2951L153.723 99.9148C153.799 100.121 153.799 100.328 153.874 100.534L154.404 103.013C154.48 103.426 154.555 103.839 154.631 104.252L154.858 105.492L155.085 106.731C155.161 107.144 155.236 107.557 155.312 107.97C155.463 108.797 155.539 109.623 155.69 110.449L155.917 112.928C156.22 116.233 156.296 119.606 156.069 122.98C155.993 123.806 155.917 124.632 155.842 125.459L155.766 126.078L155.69 126.698L155.539 127.937C155.463 128.35 155.463 128.763 155.388 129.177L155.161 130.416L154.934 131.655C154.858 132.068 154.707 132.481 154.631 132.895C153.799 136.131 152.588 139.298 151.075 142.327L149.94 144.599C149.562 145.357 149.108 146.045 148.729 146.802C148.503 147.147 148.275 147.491 148.124 147.904L147.519 149.006L146.233 151.14C145.779 151.829 145.325 152.586 144.946 153.274C144.719 153.619 144.492 153.963 144.265 154.307L143.584 155.34L142.223 157.474C141.769 158.163 141.239 158.851 140.785 159.54L139.272 161.537C138.742 162.225 138.212 162.845 137.683 163.533C136.624 164.841 135.489 166.15 134.354 167.389L133.521 168.353C133.219 168.697 132.916 168.973 132.613 169.248C132.008 169.868 131.403 170.487 130.798 171.038L130.344 171.52L129.89 171.933L128.982 172.828C128.376 173.379 127.695 173.999 127.09 174.549C126.409 175.1 125.804 175.72 125.123 176.271L124.139 177.097L123.156 177.923L122.626 178.336L122.096 178.749L121.037 179.576L119.978 180.333C119.6 180.608 119.297 180.884 118.919 181.09C118.54 181.366 118.238 181.572 117.859 181.848L116.8 182.605C116.422 182.881 116.043 183.087 115.665 183.362C115.287 183.638 114.909 183.844 114.53 184.051C113.774 184.533 113.017 184.946 112.26 185.428L111.125 186.116C110.747 186.323 110.369 186.53 109.99 186.736C108.477 187.562 106.888 188.389 105.299 189.077C104.921 189.284 104.467 189.421 104.089 189.559L103.484 189.766L103.181 189.903L102.878 189.972C102.651 190.041 102.5 190.11 102.273 190.179L101.668 190.316C101.516 190.385 101.289 190.385 101.138 190.454L100.684 190.523L100.306 190.592C99.0195 190.867 98.1872 192.038 98.4899 193.277C98.5656 193.759 99.4735 194.448 100.533 194.448Z" fill="#E52526"/>
<path d="M156.977 184.257L157.582 183.775C157.809 183.638 157.96 183.431 158.187 183.294C158.566 182.949 158.944 182.605 159.322 182.261C160.079 181.572 160.835 180.884 161.516 180.195C162.954 178.749 164.316 177.303 165.602 175.789C168.25 172.759 170.596 169.592 172.79 166.287C177.178 159.678 180.659 152.586 183.156 145.219C184.442 141.501 185.426 137.714 186.182 133.927C186.939 130.14 187.468 126.216 187.544 122.36C187.62 118.505 187.241 114.58 186.636 110.793C186.031 107.006 185.274 103.22 184.442 99.5016C184.366 99.0196 184.215 98.5377 184.139 98.1246C184.064 97.6426 183.912 97.1607 183.837 96.7476C183.61 95.7836 183.383 94.8886 183.231 93.9247C183.156 93.4427 183.004 93.0296 182.929 92.5476L182.626 91.1706L181.945 88.4166C181.037 84.7675 179.978 81.1183 178.919 77.4692C177.859 73.8201 176.724 70.171 175.362 66.5907C174.076 63.0105 172.639 59.4302 170.974 55.9188C169.31 52.4074 167.494 48.9648 165.451 45.66C163.408 42.2862 161.138 39.0503 158.566 35.952C155.993 32.8536 153.193 29.9619 150.091 27.2767C148.502 25.9685 146.914 24.6604 145.173 23.4899C144.341 22.8702 143.433 22.3194 142.525 21.8375C142.071 21.5621 141.617 21.2867 141.088 21.0801C140.861 20.9424 140.634 20.8047 140.331 20.7359C140.18 20.667 140.104 20.5981 139.953 20.5293L139.499 20.3227C138.288 19.7719 136.851 20.2539 136.245 21.2867C135.791 22.044 135.943 22.9391 136.472 23.6276L136.85 24.0407V24.1095L136.926 24.1784L137.078 24.3161L137.305 24.5227L137.758 25.0046C138.061 25.3489 138.439 25.6243 138.742 25.9685C139.423 26.5882 140.028 27.2767 140.709 27.9652C141.996 29.2734 143.206 30.6504 144.417 32.0963C146.838 34.9192 149.108 37.7421 151.302 40.7027C153.496 43.6633 155.615 46.6927 157.582 49.791C158.566 51.3746 159.549 52.8894 160.457 54.4729C161.365 56.0565 162.349 57.6401 163.181 59.2925C166.737 65.7645 169.915 72.4431 172.563 79.3282C173.849 82.7708 174.984 86.2822 175.968 89.8624C176.195 90.7575 176.422 91.6526 176.649 92.5476L176.951 93.8558C177.027 94.2689 177.178 94.7509 177.254 95.164C177.481 96.0591 177.632 96.9541 177.784 97.8492C177.935 98.7443 178.086 99.6393 178.238 100.534C178.692 104.115 178.843 107.764 178.616 111.344C178.465 114.924 178.086 118.505 177.708 122.016C177.481 123.806 177.33 125.527 177.103 127.318C176.876 129.108 176.649 130.829 176.346 132.55L176.119 133.858C176.043 134.271 175.968 134.753 175.892 135.167C175.741 136.062 175.514 136.888 175.362 137.783C174.984 139.504 174.53 141.225 174.001 142.947C172.033 149.832 169.234 156.51 165.829 162.982C164.089 166.218 162.197 169.386 160.154 172.415C159.095 173.93 158.036 175.444 156.901 176.959C156.371 177.717 155.766 178.405 155.161 179.162C154.858 179.507 154.555 179.851 154.253 180.264L153.42 181.297L153.345 181.435C152.513 182.398 152.74 183.775 153.799 184.533C154.782 184.946 156.144 184.946 156.977 184.257Z" fill="#E52526"/>
<path d="M186.712 174.617C186.939 174.411 187.166 174.204 187.393 173.929C187.62 173.722 187.847 173.516 188.074 173.24C188.528 172.758 188.981 172.345 189.36 171.863C190.192 170.968 191.024 170.004 191.781 169.04C192.538 168.076 193.294 167.112 193.975 166.08C194.656 165.047 195.413 164.083 196.018 163.05C198.666 158.919 200.86 154.513 202.676 150.037L203.357 148.316L203.963 146.595C204.19 146.044 204.341 145.424 204.568 144.873L205.098 143.152C205.779 140.811 206.384 138.47 206.838 136.129C207.821 131.379 208.351 126.628 208.578 121.808C208.654 119.399 208.654 116.989 208.502 114.579C208.427 113.408 208.351 112.169 208.275 110.999C208.2 109.828 208.048 108.589 207.897 107.418C207.594 105.009 207.216 102.668 206.762 100.327C206.535 99.1563 206.308 97.9858 206.005 96.8153C205.854 96.1957 205.703 95.6449 205.551 95.094L205.098 93.3728C202.601 84.0779 198.969 75.0583 194.202 66.6585C193.748 65.8323 192.538 65.488 191.63 65.9011C190.873 66.2454 190.495 67.0028 190.646 67.7601L190.722 68.1044C190.949 69.2748 191.251 70.4453 191.478 71.5469L191.857 73.2682C192.008 73.819 192.159 74.4387 192.235 74.9895C192.765 77.2616 193.294 79.5336 193.748 81.8057C194.732 86.2811 195.64 90.7564 196.396 95.2317L196.623 96.8842C196.699 97.435 196.775 97.9858 196.85 98.5366C196.926 99.0874 197.002 99.6382 197.077 100.189C197.153 100.74 197.229 101.291 197.304 101.841C197.456 102.943 197.531 104.045 197.683 105.146C197.758 105.697 197.758 106.248 197.834 106.799C197.91 107.35 197.91 107.9 197.985 108.451C198.137 110.654 198.288 112.858 198.364 115.061C198.439 117.264 198.439 119.467 198.439 121.671C198.439 123.874 198.288 126.077 198.137 128.28L197.985 129.933L197.834 131.585C197.758 132.136 197.683 132.687 197.607 133.238C197.531 133.513 197.531 133.788 197.531 134.064L197.456 134.89C197.153 137.093 196.775 139.228 196.396 141.431L196.094 143.083C195.942 143.634 195.867 144.185 195.715 144.736L195.337 146.388L194.959 148.041C193.824 152.378 192.462 156.647 190.797 160.916C190.57 161.467 190.343 162.017 190.192 162.499L189.511 164.083C189.057 165.185 188.603 166.217 188.074 167.25C187.544 168.283 187.09 169.384 186.56 170.417C186.333 170.968 186.031 171.45 185.728 172.001L184.896 173.516L184.82 173.722C184.593 174.204 184.744 174.755 185.274 175.03C185.879 175.03 186.409 174.961 186.712 174.617Z" fill="#E52526"/>
<path d="M202.298 52.6814C202.677 53.4387 202.979 54.1273 203.358 54.8158L204.417 56.9502L206.536 61.219C207.216 62.6648 207.897 64.0419 208.578 65.4877L209.562 67.6221C209.713 67.9664 209.865 68.3106 210.092 68.6549L210.546 69.7565C210.848 70.445 211.151 71.2024 211.454 71.8909C211.605 72.2351 211.756 72.5794 211.908 72.9925L212.361 74.0941C212.664 74.7826 212.967 75.54 213.269 76.2285L214.102 78.3629L214.556 79.4645C214.707 79.8088 214.783 80.2219 214.934 80.5661L215.691 82.7694C215.842 83.1136 215.918 83.5267 216.069 83.871L216.447 84.9726L216.826 86.0742C216.977 86.4185 217.053 86.8316 217.204 87.1759C218.112 90.0676 218.944 93.0282 219.625 95.9888C219.852 96.7462 220.003 97.4347 220.155 98.1921L220.382 99.2937C220.457 99.6379 220.533 100.051 220.609 100.395C220.76 101.153 220.911 101.91 221.063 102.599C221.214 103.356 221.365 104.044 221.592 104.802C221.971 106.248 222.273 107.762 222.727 109.277C223.105 110.792 223.484 112.238 223.786 113.752C224.165 115.267 224.392 116.782 224.619 118.297C224.694 119.054 224.77 119.811 224.846 120.569L224.921 121.119V121.67C224.921 122.083 224.921 122.428 224.921 122.841C224.997 128.969 224.013 135.096 222.273 141.017C221.441 143.978 220.382 146.87 219.171 149.693C218.868 150.381 218.566 151.139 218.263 151.827L217.28 153.962L216.296 156.027L215.237 158.093C213.799 160.847 212.286 163.532 210.773 166.217C209.184 168.902 207.519 171.519 205.855 174.135C204.19 176.751 202.45 179.368 200.71 181.915C199.802 183.223 198.969 184.531 198.061 185.84L196.699 187.767L196.019 188.731L195.716 189.213L195.565 189.42C195.489 189.489 195.489 189.558 195.413 189.626L195.262 189.902C194.505 191.141 194.959 192.794 196.321 193.482C197.305 193.964 198.44 193.895 199.348 193.413L199.953 193.069C200.18 192.931 200.331 192.794 200.558 192.725C200.937 192.449 201.315 192.243 201.693 191.967C202.071 191.692 202.45 191.417 202.752 191.21C203.131 190.935 203.433 190.659 203.812 190.384C205.174 189.282 206.46 188.112 207.746 186.941C208.957 185.702 210.167 184.463 211.302 183.223C212.437 181.915 213.496 180.607 214.556 179.23C216.599 176.476 218.414 173.653 220.079 170.692C221.744 167.732 223.181 164.702 224.467 161.604C224.77 160.847 225.073 160.02 225.375 159.263C225.678 158.506 225.905 157.679 226.208 156.922C226.435 156.165 226.737 155.339 226.964 154.581C227.191 153.755 227.418 152.998 227.645 152.171C228.553 149.004 229.234 145.768 229.839 142.532C230.445 139.296 230.899 136.06 231.277 132.824L231.504 130.414L231.731 128.005C231.807 127.592 231.807 127.178 231.807 126.765L231.882 125.526L231.958 124.287L232.034 123.047C232.185 121.395 232.261 119.811 232.488 118.159C232.563 116.506 232.79 114.854 232.866 113.202C232.942 112.375 233.017 111.549 233.017 110.723C233.017 109.897 233.093 109.071 233.093 108.244V107.005L233.017 105.766C233.017 104.939 232.942 104.113 232.866 103.287C232.79 102.874 232.79 102.461 232.715 102.048L232.639 101.428L232.563 100.808C232.412 99.9822 232.261 99.1559 232.109 98.3297C232.034 97.9166 231.958 97.5035 231.807 97.0904L231.504 95.8511C231.277 95.0249 231.126 94.2675 230.899 93.4413L230.218 91.0315C229.991 90.2053 229.688 89.4479 229.461 88.6217C228.931 87.0381 228.402 85.4546 227.797 83.9398C227.645 83.5267 227.494 83.1825 227.343 82.7694L226.889 81.5989C226.586 80.8415 226.283 80.0842 225.905 79.3268L224.846 77.0547C224.694 76.7105 224.543 76.2973 224.316 75.9531L223.786 74.8515L222.651 72.6482C222.273 71.8909 221.895 71.2024 221.441 70.445L220.836 69.3434C220.609 68.9991 220.457 68.586 220.23 68.2418C219.776 67.5533 219.398 66.7959 218.944 66.1074C218.112 64.6615 217.204 63.2845 216.296 61.9075C215.842 61.219 215.388 60.5304 214.858 59.8419C214.404 59.1534 213.875 58.4649 213.421 57.7764C212.437 56.3994 211.378 55.0912 210.394 53.783C209.865 53.1634 209.335 52.4748 208.805 51.8552C208.276 51.2355 207.746 50.547 207.141 49.9273C206.157 48.8257 204.341 48.6192 203.055 49.5142C201.996 50.2716 201.693 51.5798 202.223 52.6125L202.298 52.6814Z" fill="#E52526"/>
<path d="M272.664 188.387L273.345 187.905C273.572 187.767 273.799 187.63 273.95 187.423C274.328 187.079 274.782 186.803 275.16 186.459C275.993 185.84 276.749 185.151 277.506 184.531C279.019 183.223 280.532 181.846 281.894 180.4C284.694 177.577 287.342 174.548 289.763 171.381C294.53 165.046 298.54 158.161 301.566 150.932C303.08 147.283 304.366 143.634 305.35 139.847C306.333 136.06 307.165 132.273 307.468 128.418C307.846 124.562 307.695 120.637 307.392 116.851C307.014 112.995 306.56 109.208 305.955 105.421C305.879 104.939 305.804 104.457 305.728 103.975C305.652 103.493 305.577 103.012 305.501 102.53C305.35 101.566 305.198 100.671 305.047 99.7066C304.971 99.2247 304.896 98.7427 304.82 98.3296L304.593 96.9526L304.139 94.1985C303.458 90.4806 302.701 86.7626 301.869 83.1135C301.037 79.3956 300.129 75.7465 299.07 72.0285C298.01 68.3794 296.8 64.7302 295.438 61.15C294 57.5697 292.411 53.9895 290.596 50.5469C288.78 47.1043 286.737 43.7306 284.391 40.4946C282.046 37.2586 279.473 34.1603 276.522 31.3374C275.085 29.8915 273.496 28.5834 271.907 27.2752C271.075 26.6555 270.242 26.0359 269.334 25.4162C268.881 25.1408 268.427 24.8654 267.973 24.59C267.746 24.4523 267.519 24.3146 267.292 24.1769C267.14 24.108 267.065 24.0392 266.913 23.9703L266.459 23.7638C265.324 23.1441 263.811 23.4884 263.13 24.59C262.676 25.3474 262.752 26.2424 263.206 26.9309L263.508 27.344V27.4129L263.584 27.4817L263.66 27.6195L263.887 27.826L264.341 28.308C264.643 28.6522 264.946 28.9965 265.249 29.3407C265.854 30.0293 266.459 30.7178 267.065 31.4063C268.275 32.8522 269.41 34.2292 270.469 35.7439C272.664 38.6356 274.782 41.6651 276.749 44.7634C278.717 47.8617 280.608 50.96 282.348 54.196C283.256 55.7796 284.089 57.432 284.921 59.0844C285.753 60.7369 286.585 62.3893 287.342 64.0417C290.444 70.6514 293.168 77.5366 295.287 84.5594C296.346 88.0708 297.254 91.6511 297.935 95.2313C298.086 96.1264 298.313 97.0215 298.464 97.9165L298.691 99.2935C298.767 99.7755 298.843 100.189 298.918 100.671C299.07 101.566 299.221 102.461 299.297 103.356C299.372 104.251 299.524 105.146 299.524 106.041C299.751 109.621 299.599 113.27 299.145 116.851C298.767 120.431 298.086 123.942 297.481 127.454C297.178 129.175 296.875 130.965 296.497 132.686C296.194 134.408 295.816 136.198 295.362 137.919L295.06 139.227C294.984 139.64 294.833 140.053 294.681 140.535C294.454 141.431 294.227 142.257 293.925 143.083C293.395 144.804 292.865 146.457 292.184 148.178C289.688 154.925 286.51 161.466 282.651 167.663C280.684 170.761 278.641 173.791 276.371 176.751C275.236 178.197 274.026 179.643 272.815 181.089C272.21 181.777 271.604 182.466 270.999 183.154C270.696 183.499 270.394 183.843 270.015 184.187L269.107 185.151L268.956 185.289C268.048 186.184 268.2 187.63 269.183 188.387C270.469 189.007 271.756 189.076 272.664 188.387Z" fill="#E52526"/>
<path d="M304.744 180.677C305.047 180.47 305.274 180.264 305.501 180.057C305.728 179.851 305.955 179.644 306.182 179.438C306.636 179.024 307.09 178.611 307.544 178.129C308.452 177.234 309.284 176.339 310.116 175.444C310.949 174.549 311.781 173.585 312.538 172.621C313.294 171.657 314.051 170.693 314.807 169.661C317.683 165.667 320.255 161.467 322.374 157.061L323.13 155.408L323.887 153.756C324.114 153.205 324.341 152.654 324.568 152.035L325.249 150.313C326.081 148.041 326.838 145.7 327.519 143.428C328.805 138.746 329.713 133.996 330.243 129.245C330.47 126.835 330.621 124.425 330.696 122.016C330.696 120.845 330.772 119.606 330.696 118.435C330.696 117.265 330.621 116.026 330.621 114.855C330.47 112.445 330.318 110.036 330.015 107.695C329.864 106.524 329.713 105.285 329.562 104.114C329.486 103.495 329.335 102.944 329.259 102.324L328.956 100.534C327.14 91.1014 324.038 81.9442 319.952 73.2001C319.498 72.305 318.439 71.8919 317.456 72.3051C316.699 72.5805 316.245 73.3378 316.321 74.0952L316.396 74.4395C316.548 75.6099 316.775 76.7804 316.926 77.9509L317.229 79.6721C317.304 80.2229 317.456 80.8426 317.531 81.3934C317.91 83.6655 318.288 86.0064 318.591 88.2785C319.272 92.8227 319.877 97.2981 320.255 101.842L320.406 103.495C320.482 104.045 320.482 104.596 320.558 105.147C320.558 105.698 320.633 106.249 320.709 106.8C320.785 107.35 320.785 107.901 320.785 108.452C320.86 109.554 320.86 110.655 320.936 111.757C320.936 112.308 320.936 112.858 321.012 113.409C321.012 113.96 321.012 114.511 321.012 115.062C321.012 117.265 321.012 119.468 320.936 121.671C320.86 123.875 320.709 126.078 320.558 128.281C320.406 130.484 320.104 132.688 319.801 134.822L319.574 136.474L319.272 138.127C319.196 138.678 319.045 139.228 318.969 139.779C318.893 140.055 318.893 140.33 318.817 140.605L318.666 141.432C318.212 143.566 317.683 145.769 317.153 147.904L316.699 149.487C316.548 150.038 316.396 150.52 316.245 151.071L315.791 152.654L315.261 154.238C313.824 158.507 312.159 162.707 310.268 166.907C310.041 167.457 309.814 167.939 309.511 168.49L308.754 170.074C308.225 171.107 307.695 172.139 307.166 173.172C306.636 174.205 306.031 175.238 305.425 176.27C305.123 176.752 304.82 177.303 304.517 177.785L303.609 179.3L303.458 179.506C303.155 179.988 303.307 180.539 303.836 180.815C303.912 180.952 304.442 180.952 304.744 180.677Z" fill="#E52526"/>
<path d="M86.6111 187.907L86.2328 187.7C86.0815 187.632 85.9301 187.494 85.7788 187.425L85.3248 187.081C85.1735 186.943 85.0222 186.874 84.7952 186.737L84.5682 186.53L84.3413 186.323L83.8116 185.979C83.5089 185.704 83.1307 185.428 82.828 185.153C81.5418 184.051 80.2555 182.881 79.1206 181.642C78.8179 181.297 78.5152 181.022 78.2126 180.746L77.3047 179.783C76.6994 179.163 76.1697 178.474 75.5644 177.855C75.2618 177.51 75.0348 177.235 74.7321 176.891C74.4295 176.547 74.2025 176.271 73.8999 175.927L73.0676 174.894C72.8406 174.55 72.538 174.206 72.311 173.861C72.084 173.517 71.7814 173.173 71.5544 172.829L70.7978 171.796L70.0411 170.763L69.6628 170.212L69.2845 169.661L68.6035 168.629L67.9226 167.596C67.4686 166.907 67.0147 166.15 66.5607 165.462C66.1067 164.704 65.7284 164.016 65.2744 163.258L64.6691 162.157L64.3665 161.606L64.0638 161.055C63.6855 160.298 63.3072 159.54 62.9289 158.852C62.7776 158.508 62.5506 158.094 62.3993 157.75L61.8696 156.649C61.1886 155.134 60.5833 153.619 59.978 152.036C59.6754 151.278 59.4484 150.452 59.1458 149.695L58.3892 147.354C58.1622 146.596 57.9352 145.77 57.7082 145.013L57.1029 142.603L56.8003 141.432C56.7246 141.019 56.5733 140.675 56.4976 140.262C56.3463 139.436 56.1193 138.678 55.968 137.852L55.4383 135.442L55.2114 134.203C55.1357 133.79 55.06 133.377 54.9844 132.964C54.833 132.138 54.6817 131.311 54.5304 130.554L54.1521 128.075C53.6981 124.77 53.5468 121.466 53.8494 118.092C53.8494 117.679 53.9251 117.266 53.9251 116.853L54.0765 115.613L54.2277 114.374C54.3034 113.961 54.3791 113.548 54.4548 113.135L54.6817 111.895L54.8331 111.276L54.9844 110.656C55.2114 109.83 55.3627 109.004 55.5897 108.246C56.4976 105.01 57.6326 101.843 58.9945 98.7447L60.0537 96.4038C60.432 95.6464 60.8103 94.889 61.1886 94.1317C61.4156 93.7874 61.567 93.3743 61.794 93.0301L62.3993 91.9284L63.0045 90.8268C63.2315 90.4826 63.3829 90.0694 63.6855 89.7252L65.0475 87.522C65.1231 87.3154 65.2744 87.1777 65.35 86.9711L65.7283 86.4203L66.4093 85.3187C67.3173 83.8729 68.3009 82.4958 69.2845 81.0499C69.5115 80.7057 69.8141 80.3614 70.0411 80.0172L70.7978 78.9844L71.5544 77.9516L71.9327 77.4008L72.311 76.9189L73.8999 74.8533C74.4295 74.1648 74.9591 73.4763 75.4888 72.7878C76.0184 72.0993 76.548 71.4108 77.0776 70.7223L78.7423 68.7256C79.8015 67.3485 81.0121 66.0404 82.0714 64.7322C83.2063 63.3552 84.3413 62.047 85.4762 60.7388L85.9302 60.2569C86.0815 60.1192 86.2328 59.9126 86.3841 59.7749L87.2164 58.7421C87.8217 58.0536 88.3513 57.3651 88.9566 56.7455C90.0916 55.4373 91.3022 54.0603 92.3614 52.6832C93.4964 51.3062 94.6313 49.998 95.7662 48.5522L95.8419 48.4833C96.5985 47.4506 96.2958 46.0735 95.1609 45.385C94.2529 44.8342 93.1937 44.9031 92.3614 45.385C90.7725 46.4178 89.2593 47.4506 87.7461 48.621C86.2328 49.7915 84.7952 50.8931 83.3576 52.1324C82.6767 52.7521 81.9957 53.3718 81.2391 53.9914L80.1799 54.9553C80.0285 55.093 79.8015 55.2996 79.6502 55.4373L79.1206 55.9193C78.4396 56.5389 77.7587 57.2274 77.1534 57.8471L76.1697 58.811C75.8671 59.1553 75.5645 59.4995 75.2618 59.8438C73.9756 61.2208 72.765 62.529 71.5544 63.9749L69.8141 66.1092C69.2088 66.7977 68.6792 67.5551 68.1496 68.3125C67.0147 69.7583 65.9553 71.2731 64.8961 72.7878L64.5178 73.3386L64.1395 73.8894L63.3828 75.0599C62.9289 75.8172 62.3992 76.5746 61.9452 77.4008C61.0373 78.9844 60.0537 80.4991 59.2214 82.1515L58.6162 83.322L58.3135 83.9417C58.2379 84.1483 58.0865 84.3548 58.0108 84.5613L56.8003 86.9711C56.5733 87.3842 56.4219 87.7974 56.1949 88.2105L55.6653 89.4498L55.1357 90.6891C54.9843 91.1022 54.7574 91.5153 54.6061 91.9284L53.6224 94.4071L52.7145 96.9546C51.5039 100.328 50.4447 103.771 49.6124 107.213C49.2341 108.935 48.7801 110.725 48.4775 112.446C48.4018 112.859 48.3261 113.341 48.2504 113.754L48.0235 115.062L47.7965 116.371C47.7208 116.784 47.6451 117.266 47.5695 117.679C46.9642 121.19 46.5103 124.77 46.1319 128.351L45.9806 131.036C45.9806 131.931 45.9049 132.826 45.9049 133.79C45.9049 134.685 45.9806 135.58 45.9806 136.544C45.9806 137.026 46.0562 137.439 46.0562 137.921L46.2076 139.298C46.2833 139.78 46.3589 140.193 46.3589 140.675L46.5859 142.052C46.7372 142.947 46.9642 143.842 47.1155 144.737C47.3425 145.632 47.5695 146.527 47.7965 147.423C48.0235 148.318 48.3261 149.144 48.6287 150.039C48.9314 150.934 49.2341 151.76 49.5367 152.655C49.9151 153.481 50.2176 154.376 50.5203 155.203C51.2012 156.924 51.9579 158.576 52.8658 160.229C54.5304 163.534 56.4219 166.701 58.5404 169.799C59.0701 170.557 59.5998 171.314 60.2051 172.071L61.0373 173.173L61.9452 174.274L62.3993 174.825L62.8532 175.376L63.7611 176.478C64.3664 177.166 64.9717 177.855 65.6527 178.543C65.9553 178.887 66.258 179.232 66.6363 179.576L67.6199 180.609C67.9225 180.953 68.3009 181.297 68.6035 181.573C68.9062 181.917 69.2845 182.261 69.6628 182.537C71.0247 183.845 72.5379 185.084 74.0512 186.255C75.5644 187.425 77.1533 188.527 78.8179 189.559C79.2719 189.835 79.6502 190.041 80.1041 190.317L80.7851 190.661L81.0878 190.868L81.4661 191.005C82.374 191.487 83.3576 191.9 84.6439 192.245C85.9301 192.589 87.292 191.9 87.6703 190.73C87.973 189.766 87.5191 188.733 86.6111 188.251V187.907Z" fill="#E52526"/>
<path d="M49.5359 181.504C49.2332 181.159 48.9305 180.746 48.7035 180.402C48.4009 180.058 48.1739 179.645 47.8713 179.231C47.3416 178.474 46.812 177.648 46.2824 176.891C45.2231 175.307 44.2395 173.723 43.3316 172.071C41.5157 168.766 39.8511 165.392 38.4135 162.019C37.7326 160.297 37.0516 158.576 36.4463 156.855C35.841 155.134 35.3114 153.343 34.7818 151.553C33.7982 148.042 32.9658 144.462 32.4362 140.813C31.3769 133.583 31.0743 126.285 31.9066 119.056C32.2849 115.475 32.8902 111.826 33.7982 108.315C34.6304 104.803 35.7654 101.292 37.0517 97.8494L37.5056 96.5412C37.6569 96.1281 37.8839 95.715 38.0352 95.233L38.5649 93.9249L39.0945 92.6855C39.2458 92.2724 39.4728 91.8593 39.6241 91.4462L40.2294 90.2069C40.6077 89.3807 41.0617 88.4856 41.44 87.6594C43.0289 84.2857 44.7692 80.9808 46.5851 77.6759C48.4009 74.3711 50.2925 71.1351 52.3354 67.9679C53.319 66.3844 54.3782 64.8008 55.5131 63.2861C56.5724 61.7025 57.7073 60.1878 58.8423 58.673C59.9772 57.1583 61.1121 55.6436 62.3227 54.1977C63.5333 52.7518 64.7439 51.306 66.0302 49.8601C68.527 47.0372 71.1752 44.2831 74.0503 41.6668C76.8498 39.0504 79.8007 36.5718 82.9028 34.2997C84.4917 33.1981 86.0806 32.0965 87.6695 31.0637C88.5018 30.5817 89.3341 30.0309 90.1664 29.6178C90.6203 29.4113 90.9986 29.1358 91.4526 28.9293C91.6796 28.7916 91.9066 28.7227 92.0579 28.585L92.3606 28.4473L92.6633 28.3097C93.6469 27.8966 94.0251 26.7949 93.4955 25.9687C93.0415 25.2113 92.0579 24.7982 91.2257 25.0736H91.15L90.696 25.2114L90.3177 25.349C90.015 25.4179 89.788 25.4867 89.561 25.6244C89.0314 25.831 88.5774 25.9687 88.0478 26.1752C87.0642 26.5195 86.0807 26.9326 85.097 27.3457C83.1298 28.2408 81.3139 29.1358 79.498 30.1686C77.6821 31.2014 75.8663 32.303 74.2017 33.4046C72.4615 34.5751 70.7969 35.7456 69.1323 36.9849C62.5497 42.011 56.7994 47.7945 51.5787 53.9223C50.2925 55.437 49.0062 57.0206 47.7956 58.6042C46.585 60.1878 45.3745 61.8402 44.2396 63.4238C43.6343 64.25 43.1046 65.0762 42.5749 65.9024C42.0453 66.7286 41.5157 67.5548 40.986 68.381C40.4564 69.2072 39.9268 70.0335 39.3972 70.9285L38.6405 72.1678L37.8839 73.476C35.9167 76.9186 34.1008 80.3611 32.3606 83.8726C31.9066 84.7676 31.5283 85.6627 31.15 86.4889L30.5447 87.7971C30.3177 88.2102 30.1664 88.6921 29.9394 89.1741L29.3341 90.5511L28.8045 91.9282C28.6532 92.4101 28.4261 92.8232 28.2748 93.3052L27.7452 94.7511C27.0642 96.6101 26.4589 98.5379 25.9293 100.466C25.6266 101.43 25.3997 102.394 25.1727 103.357C25.0213 103.839 24.9457 104.321 24.7944 104.803C24.643 105.285 24.5674 105.767 24.4917 106.249C24.2647 107.213 24.1134 108.177 23.9621 109.21C23.8864 109.692 23.8107 110.174 23.7351 110.656L23.5081 112.102L23.4325 112.859L23.3568 113.616L23.2055 115.131C23.1298 115.613 23.1298 116.095 23.0542 116.646C22.9785 117.128 22.9784 117.61 22.9784 118.16C22.9028 119.124 22.8272 120.157 22.8272 121.121C22.7515 122.085 22.8272 123.118 22.7515 124.082C22.7515 126.078 22.8272 128.075 23.0542 130.003C23.2055 132 23.4324 133.927 23.7351 135.924C24.0377 137.852 24.416 139.849 24.87 141.776C26.6859 149.488 29.5611 156.924 33.4955 163.809C35.4627 167.251 37.5813 170.556 40.0781 173.723C41.2887 175.307 42.575 176.822 43.9369 178.336C44.6178 179.094 45.2988 179.782 45.9797 180.54C46.358 180.884 46.6607 181.228 47.039 181.572C47.4173 181.917 47.7956 182.261 48.1739 182.605L48.2496 182.674C48.7036 183.018 49.3845 183.018 49.7628 182.674C49.8385 182.399 49.8385 181.848 49.5359 181.504Z" fill="#E52526"/>
<path d="M18.0608 160.368V160.299V160.23L17.9851 160.024L17.8338 159.611C17.7582 159.335 17.6068 159.129 17.5312 158.853C17.3042 158.302 17.0771 157.82 16.9258 157.27C16.5475 156.237 16.1692 155.135 15.7909 154.034C15.0343 151.899 14.429 149.696 13.8237 147.493C12.6888 143.155 11.8565 138.68 11.3269 134.273C11.2512 133.722 11.1755 133.172 11.1755 132.621L11.0242 130.968L10.8729 129.316L10.7972 127.664C10.7972 127.113 10.7216 126.562 10.7216 126.011C10.7216 125.46 10.7216 124.91 10.6459 124.359C10.6459 123.808 10.5703 123.257 10.5703 122.706L10.4945 121.054C10.4189 119.952 10.3433 118.782 10.192 117.68C10.1163 117.129 10.0406 116.579 10.0406 115.959L9.88931 114.238C9.73799 111.966 9.66232 109.693 9.88931 107.421C9.96497 106.871 10.0406 106.32 10.1162 105.7C10.1919 105.149 10.3432 104.598 10.4189 104.048C10.6459 102.946 10.9485 101.844 11.1755 100.674C11.3269 100.123 11.4782 99.5723 11.6295 99.0215C11.7808 98.4707 11.9322 97.9199 12.1592 97.3691C12.3105 96.8183 12.5374 96.2674 12.6888 95.7166L13.2941 94.0642C14.9587 89.7266 17.0771 85.5955 19.1957 81.4644C20.3306 79.3989 21.3899 77.4022 22.5248 75.3367C22.8275 74.8547 23.0544 74.3039 23.3571 73.8219L24.1895 72.3072C24.7191 71.2744 25.3243 70.3106 25.854 69.2778C26.3836 68.245 26.9889 67.2122 27.5185 66.1795C28.0481 65.1467 28.5778 64.1139 29.1075 63.0812C29.6371 62.0484 30.1668 61.0156 30.6207 59.914C31.1504 58.8124 31.6043 57.7796 32.0582 56.6091V56.5403C32.5122 55.3698 31.7556 54.0617 30.4693 53.6486C29.5614 53.3731 28.6535 53.5797 27.9726 54.1305C26.9889 54.9567 26.0053 55.7829 25.173 56.678C24.2651 57.573 23.4328 58.537 22.6005 59.432C22.2222 59.914 21.7682 60.396 21.3899 60.8779C21.0116 61.3599 20.6333 61.8418 20.255 62.3238C19.8767 62.8057 19.4983 63.3566 19.1957 63.8385L18.6661 64.5959C18.5148 64.8713 18.2878 65.0779 18.1365 65.3533C17.4555 66.386 16.7745 67.4188 16.1692 68.5204L15.2613 70.104C14.9586 70.6548 14.656 71.2056 14.429 71.7564C13.2941 73.9597 12.3105 76.1629 11.3269 78.435C11.0999 78.9858 10.8729 79.6055 10.6459 80.1563C10.4189 80.7071 10.1919 81.3267 10.0406 81.8775C9.66228 83.048 9.20831 84.1496 8.90567 85.3201C8.14905 87.661 7.54377 90.002 6.93847 92.3429C6.33317 94.6839 5.80358 97.0248 5.27394 99.3657L4.89563 101.156L4.66861 102.051L4.51732 102.946C4.29033 104.116 4.06335 105.287 3.7607 106.457C3.23107 108.798 2.62573 111.208 2.02044 113.549L1.56648 115.339C1.41516 115.959 1.3395 116.579 1.18817 117.129C1.03685 117.749 0.96117 118.369 0.885508 118.988C0.809845 119.264 0.809883 119.608 0.734221 119.883L0.658484 120.778C0.582823 121.398 0.58284 122.018 0.58284 122.637C0.58284 123.257 0.58284 123.877 0.58284 124.496C0.658503 125.736 0.734201 126.975 0.809864 128.146C0.885527 128.765 0.885489 129.385 0.961151 130.005L1.18817 131.864L1.49084 133.722C1.5665 134.342 1.71775 134.962 1.79342 135.513C2.70136 140.332 4.13899 145.083 6.1062 149.696C6.33319 150.247 6.63584 150.866 6.86283 151.417C7.16547 151.968 7.39244 152.519 7.69509 153.07C8.22472 154.171 8.83004 155.273 9.511 156.375C10.1163 157.476 10.7972 158.509 11.5538 159.542C11.9321 160.093 12.3105 160.574 12.6888 161.056C12.9158 161.332 13.0671 161.538 13.2941 161.814C13.3698 161.951 13.5211 162.089 13.5968 162.227L13.9751 162.64C14.8074 163.535 16.2449 163.742 17.2285 162.984C17.8338 162.571 18.1365 161.883 18.1365 161.194L18.0608 160.368Z" fill="#E52526"/>
<path d="M352.941 175.65C352.714 175.375 352.412 175.099 352.185 174.755C351.958 174.411 351.655 174.135 351.428 173.791C351.201 173.447 350.974 173.171 350.747 172.827L350.066 171.863C349.839 171.519 349.612 171.175 349.385 170.899C349.31 170.762 349.158 170.555 349.083 170.417L348.78 169.935C348.553 169.591 348.402 169.247 348.175 168.903C347.948 168.558 347.796 168.214 347.569 167.87L346.964 166.837C346.813 166.493 346.586 166.149 346.434 165.804L345.905 164.772C345.753 164.427 345.602 164.083 345.451 163.67C345.148 162.981 344.77 162.293 344.467 161.536L343.559 159.401C343.03 157.955 342.424 156.509 341.97 154.995L341.592 153.893C341.441 153.549 341.365 153.136 341.214 152.791L340.911 151.69L340.533 150.588C340.457 150.244 340.306 149.831 340.23 149.487C340.154 149.073 340.079 148.729 339.927 148.316L339.322 146.044C339.095 145.287 338.944 144.529 338.717 143.772L338.414 142.601C338.339 142.188 338.187 141.844 338.112 141.431C337.885 140.674 337.052 140.26 336.22 140.467C335.766 140.605 335.388 140.88 335.236 141.293L335.085 141.706C334.707 142.533 334.48 143.428 334.253 144.254C334.026 145.08 333.875 145.975 333.723 146.801C333.648 147.214 333.648 147.628 333.648 148.11C333.648 148.523 333.572 148.936 333.572 149.418C333.572 150.313 333.572 151.139 333.648 151.965C333.723 152.791 333.799 153.686 333.95 154.513C334.026 154.926 334.102 155.339 334.177 155.752C334.253 156.165 334.404 156.578 334.48 156.991C334.858 158.644 335.463 160.296 336.144 161.949C337.582 165.185 339.549 168.214 342.122 170.899C342.727 171.588 343.484 172.207 344.165 172.827C344.845 173.447 345.678 173.998 346.434 174.548C346.888 174.824 347.267 175.03 347.721 175.306C348.175 175.512 348.629 175.788 349.007 175.994C349.461 176.201 349.915 176.407 350.369 176.545C350.899 176.683 351.352 176.889 351.958 176.958H352.109C352.563 177.027 353.093 176.752 353.168 176.339C353.168 176.063 353.093 175.788 352.941 175.65Z" fill="#E52526"/>
<path d="M88.7289 78.4345C88.6533 79.2607 88.502 80.0869 88.3506 80.9131C88.1993 81.7393 88.1236 82.5656 87.9723 83.4606L87.594 86.0081C87.4427 86.8343 87.2914 87.6605 87.1401 88.4867C86.8374 90.1392 86.5348 91.7916 86.2322 93.5129L85.7025 95.9915L85.4755 97.2309L85.1729 98.4702C85.0215 99.2964 84.7945 100.123 84.6432 100.949C84.4162 101.775 84.2649 102.601 84.1136 103.427C83.8866 104.254 83.7352 105.08 83.5082 105.906L82.903 108.385C82.676 109.211 82.449 110.037 82.222 110.863C81.995 111.69 81.768 112.516 81.5411 113.273L81.1627 114.512L80.7844 115.752L80.4061 116.991L80.2548 117.611L80.0278 118.23C79.0442 121.466 77.9093 124.634 76.6987 127.801C75.5637 130.968 74.1262 134.066 72.6886 137.096L71.5537 139.368C71.1754 140.125 70.7971 140.883 70.4188 141.64L69.8134 142.741L69.2082 143.843C68.7542 144.6 68.3759 145.358 67.9219 146.046L66.6357 148.25L66.333 148.8L65.9547 149.351C65.7277 149.695 65.5007 150.04 65.2737 150.453L64.5927 151.554C64.3658 151.899 64.1388 152.243 63.8361 152.587L62.3986 154.722C61.869 155.548 62.0959 156.581 63.0039 157.131C63.6848 157.545 64.5171 157.476 65.1224 157.063L65.4251 156.856C66.2574 156.305 67.014 155.754 67.7706 155.204L68.3758 154.79L68.6785 154.584L68.9812 154.377C69.3595 154.102 69.6621 153.758 70.0405 153.413C70.4188 153.069 70.7214 152.794 71.0997 152.45L71.6293 151.968L72.1589 151.486C72.8399 150.797 73.4453 150.109 74.1262 149.42C74.2776 149.282 74.4289 149.076 74.5802 148.869L75.0341 148.318L75.942 147.217C76.2447 146.873 76.5474 146.528 76.85 146.115L77.6823 145.014C77.985 144.669 78.2876 144.256 78.5146 143.912C78.8172 143.568 79.0442 143.155 79.3468 142.81C79.8765 142.053 80.4061 141.296 80.8601 140.469C84.7945 134.204 87.6697 127.525 89.7126 120.64C90.6962 117.198 91.5284 113.755 92.1337 110.244L92.512 107.627C92.5877 107.214 92.6634 106.732 92.6634 106.319L92.8147 105.011C93.0417 103.29 93.1174 101.5 93.193 99.7095C93.3443 96.1981 93.2686 92.6867 92.966 89.1064C92.8903 88.6933 92.8904 88.2113 92.8147 87.7982C92.7391 87.3851 92.7391 86.9032 92.6634 86.4901C92.5121 85.595 92.4364 84.6999 92.2094 83.8737C91.9067 82.0836 91.5285 80.3623 90.9232 78.641L90.8475 78.4345C90.6962 77.9525 90.0908 77.6083 89.5612 77.8148C89.0316 77.746 88.7289 78.0902 88.7289 78.4345Z" fill="#E52526"/>
</svg>
