<svg width="511" height="195" viewBox="0 0 511 195" fill="none" xmlns="http://www.w3.org/2000/svg">
<path d="M500.797 90.1631L499.738 90.9205C499.36 91.1959 498.981 91.4024 498.603 91.6778C497.847 92.1598 497.09 92.6417 496.333 93.1237C495.577 93.6057 494.82 94.0876 493.988 94.5007C493.231 94.9827 492.474 95.3958 491.642 95.8777C490.886 96.2908 490.053 96.7728 489.297 97.1859C488.54 97.599 487.708 98.0121 486.951 98.4252C486.119 98.8383 485.362 99.1826 484.53 99.5269C483.698 99.8711 482.941 100.215 482.109 100.56C478.855 101.868 475.526 102.832 472.273 103.451C470.608 103.727 469.019 103.933 467.43 103.933C465.841 103.933 464.253 103.865 462.739 103.658C461.226 103.451 459.713 103.107 458.275 102.556C457.519 102.281 456.838 102.006 456.157 101.73C455.476 101.455 454.795 101.11 454.114 100.697C453.433 100.353 452.752 99.94 452.147 99.5269C451.844 99.3203 451.541 99.1138 451.239 98.9072C451.087 98.7695 450.936 98.7007 450.785 98.563L450.406 98.2187C449.347 97.3236 448.439 96.3597 447.683 95.2581C446.169 93.0549 445.186 90.3008 444.656 87.3402C444.126 84.3796 444.051 81.1436 444.202 77.9076C444.353 74.6716 444.656 71.2979 445.11 67.9242C445.488 64.5505 446.018 61.1079 446.472 57.6653C446.926 54.2228 447.38 50.7114 447.683 47.2C447.834 45.4098 447.91 43.6885 447.985 41.8984C447.985 41.0034 448.061 40.1083 448.061 39.2132C448.061 38.3181 448.061 37.4231 448.061 36.528C447.91 32.9478 447.607 29.2298 446.775 25.6495C446.396 23.8594 445.867 22.0004 445.186 20.2791C444.505 18.489 443.673 16.7677 442.689 15.1153C441.705 13.4629 440.57 11.8793 439.36 10.3646C438.074 8.9187 436.712 7.54166 435.123 6.30233C432.096 3.82369 428.691 1.89587 425.06 0.381147C424.303 0.036891 423.319 0.381147 423.017 1.06966C422.714 1.68932 422.941 2.44667 423.622 2.85977C425.135 3.75484 426.649 4.71875 428.01 5.82037C429.372 6.92199 430.734 8.02362 431.869 9.19409C433.08 10.4334 434.139 11.6727 435.047 13.0497C435.955 14.4268 436.787 15.8038 437.468 17.3185C438.149 18.7644 438.679 20.2791 439.133 21.8627C439.36 22.6201 439.511 23.4463 439.662 24.2036C439.814 24.961 439.965 25.7872 440.116 26.6134C440.57 29.8494 440.646 33.0855 440.495 36.3903C440.419 37.2165 440.419 38.0427 440.343 38.8689C440.268 39.6952 440.192 40.5214 440.116 41.3476C439.965 43 439.738 44.7213 439.511 46.3737C439.057 49.7475 438.452 53.1212 437.771 56.4949C437.166 59.8686 436.56 63.3111 436.031 66.8226C435.501 70.334 434.971 73.8454 434.744 77.4256C434.593 79.2158 434.593 81.0747 434.593 82.9337C434.669 84.7927 434.744 86.6517 435.047 88.5795C435.35 90.5074 435.804 92.4352 436.485 94.363C437.166 96.2909 438.149 98.1498 439.36 99.94C440.57 101.73 442.084 103.383 443.748 104.828L444.429 105.379L445.11 105.861C445.564 106.205 446.018 106.481 446.472 106.756C447.38 107.307 448.288 107.858 449.196 108.34C450.104 108.822 451.087 109.304 452.147 109.717C453.13 110.13 454.19 110.474 455.249 110.818C457.367 111.438 459.562 111.92 461.756 112.127C463.95 112.333 466.144 112.333 468.338 112.127C469.398 112.058 470.457 111.851 471.516 111.714C472.575 111.507 473.635 111.3 474.618 111.025C478.704 109.923 482.411 108.34 485.892 106.412C489.372 104.484 492.474 102.212 495.35 99.8023C496.106 99.1826 496.787 98.5629 497.468 97.9433C498.149 97.3236 498.83 96.6351 499.511 96.0154C500.192 95.3269 500.797 94.7073 501.403 93.9499C501.705 93.6057 502.008 93.2614 502.311 92.9171C502.613 92.5729 502.916 92.2287 503.219 91.8155C503.672 91.1959 503.521 90.4385 502.84 90.0254C502.311 89.6811 501.63 89.75 501.176 90.0254L500.797 90.1631Z" fill="#E52526"/>
<path d="M506.17 111.095L505.035 111.715C504.656 111.922 504.203 112.128 503.824 112.335C502.992 112.748 502.16 113.161 501.327 113.574C499.663 114.4 497.923 115.158 496.258 115.846C492.853 117.292 489.297 118.531 485.817 119.564C478.704 121.63 471.441 122.8 464.329 122.525C462.588 122.456 460.772 122.318 459.032 122.112C457.292 121.905 455.552 121.561 453.887 121.148C453.433 121.01 453.055 120.941 452.601 120.803L451.315 120.459L450.104 120.046L448.894 119.633C447.229 119.082 445.64 118.394 444.051 117.774C443.673 117.567 443.219 117.43 442.841 117.223C442.462 117.017 442.084 116.879 441.63 116.672C441.252 116.466 440.798 116.328 440.419 116.122C440.041 115.915 439.587 115.777 439.209 115.571L438.603 115.295C438.377 115.226 438.225 115.089 437.998 115.02L436.863 114.4L435.728 113.712C435.35 113.505 434.972 113.23 434.669 113.023C431.794 111.164 429.146 108.823 427.179 106.069C426.195 104.692 425.287 103.246 424.606 101.732L424.303 101.181L424.076 100.63C423.925 100.217 423.774 99.8727 423.622 99.4596C423.471 99.0465 423.32 98.7022 423.168 98.2891C423.017 97.876 422.941 97.4629 422.79 97.1186C421.807 93.8826 421.353 90.5089 421.201 87.1352C421.126 83.7615 421.428 80.3189 421.958 76.9452C422.26 75.2239 422.563 73.5715 422.941 71.9191C423.32 70.2667 423.774 68.6142 424.303 66.9618C424.53 66.1356 424.833 65.3094 425.06 64.4832C425.287 63.6569 425.59 62.8307 425.892 62.0734C426.044 61.6603 426.195 61.2472 426.346 60.834L426.573 60.2144L426.725 59.8701L426.876 59.5259C427.179 58.6308 427.481 57.8046 427.708 56.9095C428.843 53.3981 429.827 49.8179 430.432 46.031C431.037 42.3131 431.264 38.3886 430.81 34.464C430.356 30.6084 429.297 26.7527 427.481 23.3101C426.876 22.0708 425.287 21.5889 423.925 22.1397C422.941 22.5528 422.336 23.5167 422.412 24.4806V24.5495C422.563 26.2707 422.714 27.992 422.714 29.6445C422.79 31.2969 422.714 32.9493 422.639 34.6017C422.412 37.9066 421.882 41.1426 421.126 44.4475C420.747 46.0999 420.293 47.7523 419.839 49.4047C419.385 51.0572 418.856 52.7785 418.402 54.4309L417.645 56.9784L417.57 57.2538L417.494 57.5292L417.267 58.2177C417.116 58.6308 416.964 59.1128 416.813 59.5947C416.283 61.3849 415.754 63.2439 415.375 65.1028C414.543 68.7519 414.089 72.5387 413.862 76.2567C413.635 80.0435 413.711 83.7615 414.165 87.5483C414.619 91.3351 415.375 95.0531 416.586 98.7022C416.737 99.1842 416.888 99.5973 417.04 100.079C417.191 100.561 417.343 100.974 417.57 101.456L417.872 102.145C417.948 102.351 418.099 102.558 418.175 102.833L418.477 103.522L418.78 104.21C419.612 106 420.596 107.722 421.58 109.374L421.958 109.994L422.336 110.613L422.714 111.233L423.168 111.853L423.622 112.472L424.076 113.092L424.53 113.712L424.984 114.331C426.271 115.915 427.557 117.499 429.07 118.944C430.508 120.39 432.097 121.767 433.837 123.007C435.501 124.246 437.242 125.348 439.133 126.38C441.025 127.413 442.992 128.239 445.035 128.997C447.078 129.754 449.196 130.305 451.315 130.787C451.844 130.925 452.374 130.993 452.904 131.131C453.433 131.269 453.963 131.338 454.493 131.407L455.325 131.544L456.157 131.682L456.989 131.82C457.292 131.82 457.519 131.889 457.822 131.889C460.016 132.095 462.134 132.233 464.329 132.233C468.641 132.233 472.954 131.682 477.04 130.856C481.201 129.961 485.136 128.721 488.994 127.275C489.978 126.931 490.886 126.518 491.794 126.105C492.702 125.692 493.61 125.279 494.518 124.797C496.334 123.902 498.15 122.938 499.814 121.974C501.554 120.941 503.219 119.908 504.883 118.738C505.716 118.187 506.472 117.567 507.305 117.017C507.683 116.741 508.061 116.397 508.515 116.122C508.742 115.984 508.894 115.777 509.121 115.64L509.726 115.158C510.785 114.263 510.861 112.748 509.801 111.784C508.969 110.958 507.532 110.82 506.548 111.371L506.17 111.095Z" fill="#E52526"/>
<path d="M502.841 133.195C502.462 133.332 502.009 133.47 501.555 133.608L500.268 134.021C499.36 134.296 498.528 134.572 497.62 134.778C495.88 135.26 494.064 135.742 492.248 136.224C490.432 136.637 488.692 137.119 486.876 137.464C485.06 137.877 483.244 138.221 481.428 138.496C477.797 139.185 474.165 139.667 470.533 140.011C466.901 140.355 463.27 140.631 459.638 140.631C456.006 140.631 452.45 140.424 448.894 140.011C445.338 139.529 441.933 138.841 438.604 137.808C435.275 136.775 432.097 135.467 429.222 133.746C428.465 133.332 427.784 132.851 427.103 132.437C426.422 131.955 425.741 131.473 424.985 130.992C423.623 129.959 422.261 128.926 420.975 127.824C419.688 126.723 418.478 125.552 417.267 124.313C416.132 123.074 414.997 121.834 413.938 120.526C412.879 119.218 411.971 117.841 411.063 116.464C410.155 115.087 409.323 113.641 408.566 112.195C407.053 109.303 405.766 106.205 404.858 103.038C404.707 102.625 404.631 102.281 404.48 101.867L404.329 101.248L404.177 100.628C404.102 100.215 403.95 99.8019 403.875 99.4577C403.799 99.0446 403.648 98.6314 403.572 98.2872C403.194 96.7036 402.891 95.0512 402.589 93.3988C401.605 86.8579 401.302 80.1105 401.605 73.4319C401.908 66.6845 402.664 59.9371 403.648 53.1896C403.724 52.4323 403.194 51.7438 402.362 51.6749C401.681 51.6061 401 51.9503 400.773 52.57L400.697 52.7077L400.243 53.947L399.789 55.1863C399.487 56.0126 399.184 56.8388 398.957 57.665C398.427 59.3174 397.898 61.0387 397.444 62.6911L397.065 63.9305C396.914 64.3436 396.838 64.7566 396.763 65.2386C396.536 66.0648 396.309 66.9599 396.157 67.7861C395.779 69.5074 395.401 71.2287 395.098 72.9499C393.887 79.9039 393.282 87.0645 393.887 94.3627C394.039 96.1528 394.266 98.0118 394.568 99.8019C394.644 100.284 394.72 100.697 394.795 101.179C394.871 101.661 394.947 102.074 395.022 102.556L395.174 103.244L395.325 103.933C395.401 104.415 395.552 104.828 395.628 105.31C396.082 107.1 396.611 108.959 397.217 110.749C397.822 112.539 398.579 114.33 399.411 116.051C400.243 117.772 401.151 119.493 402.135 121.215C403.118 122.867 404.253 124.52 405.464 126.103C406.674 127.687 407.961 129.201 409.323 130.647C410.684 132.093 412.122 133.47 413.635 134.847C415.148 136.155 416.737 137.464 418.326 138.634C419.159 139.185 419.915 139.804 420.823 140.355C421.731 140.906 422.639 141.457 423.547 142.008C424.455 142.559 425.439 143.04 426.346 143.522C427.33 144.004 428.314 144.418 429.297 144.831C431.265 145.657 433.307 146.345 435.35 146.896C437.393 147.447 439.436 147.929 441.479 148.273C442.538 148.48 443.522 148.617 444.581 148.755C445.111 148.824 445.64 148.893 446.094 148.962C446.624 149.031 447.154 149.031 447.608 149.099C449.65 149.237 451.693 149.375 453.736 149.375C454.266 149.375 454.72 149.375 455.249 149.375C455.779 149.375 456.233 149.375 456.763 149.306C457.746 149.237 458.805 149.237 459.789 149.168C467.809 148.617 475.602 147.103 482.942 144.831C484.758 144.28 486.649 143.66 488.389 143.04C489.297 142.696 490.205 142.352 491.113 142.008C492.021 141.663 492.853 141.319 493.761 140.906C494.669 140.562 495.502 140.149 496.41 139.804C497.242 139.391 498.15 138.978 498.982 138.565C499.814 138.152 500.647 137.739 501.479 137.257L502.765 136.568C503.219 136.362 503.597 136.086 503.976 135.811L504.127 135.742C504.884 135.329 505.035 134.434 504.581 133.746C504.278 133.195 503.522 132.988 502.841 133.195Z" fill="#E52526"/>
<path d="M490.508 153.643L489.297 153.919L488.011 154.263L485.439 154.883C483.698 155.296 482.034 155.64 480.293 155.984C478.553 156.329 476.889 156.604 475.148 156.948C474.316 157.086 473.408 157.224 472.576 157.361C471.744 157.499 470.836 157.637 470.003 157.706C463.118 158.532 456.233 158.807 449.499 158.394C447.834 158.256 446.094 158.119 444.43 157.912C443.976 157.843 443.597 157.774 443.219 157.774C442.765 157.706 442.387 157.637 442.008 157.568C441.63 157.499 441.176 157.43 440.798 157.361C440.42 157.293 439.966 157.224 439.587 157.155C437.923 156.879 436.334 156.466 434.745 156.053C433.156 155.64 431.567 155.227 429.903 154.814C426.725 153.919 423.471 152.955 420.369 151.716C418.78 151.096 417.267 150.407 415.754 149.65C414.241 148.893 412.803 147.998 411.441 147.103C410.76 146.621 410.079 146.139 409.398 145.657C408.717 145.175 408.112 144.624 407.431 144.073C406.145 143.04 404.934 141.87 403.799 140.699C401.529 138.358 399.411 135.88 397.595 133.195C396.687 131.886 395.855 130.509 395.022 129.132C394.19 127.755 393.509 126.309 392.828 124.932C392.147 123.487 391.542 122.041 390.937 120.595C390.331 119.149 389.802 117.634 389.348 116.12C388.364 113.159 387.608 110.129 386.927 107.031C386.624 105.516 386.321 103.933 386.019 102.418C385.716 100.903 385.565 99.3198 385.338 97.7362C384.884 94.6379 384.581 91.4708 384.354 88.3036C384.203 86.72 384.127 85.1365 384.051 83.5529L383.824 78.8022V78.6645C383.749 77.4251 382.614 76.4612 381.252 76.5301C380.193 76.5989 379.36 77.2186 379.058 78.0448L378.906 78.3891L378.831 78.7333C378.755 78.9399 378.679 79.1464 378.604 79.353C378.452 79.7661 378.377 80.1792 378.225 80.5923C377.998 81.4185 377.771 82.2447 377.62 83.0709C377.242 84.7234 377.015 86.4447 376.863 88.166C376.485 91.5397 376.485 94.9822 376.712 98.4248C376.939 101.867 377.469 105.241 378.301 108.615C379.058 111.988 380.117 115.293 381.479 118.529C384.127 125.001 387.835 131.06 392.299 136.568C394.493 139.322 396.99 141.939 399.562 144.417L400.546 145.312L401 145.794L401.529 146.208L402.513 147.103L403.572 147.998C404.253 148.617 404.934 149.168 405.691 149.719L407.809 151.371C408.566 151.922 409.247 152.473 409.928 153.024C410.609 153.575 411.365 154.125 412.122 154.676C413.635 155.709 415.148 156.811 416.662 157.843C418.251 158.876 419.84 159.771 421.504 160.666C423.169 161.561 424.909 162.319 426.725 163.007C428.541 163.696 430.357 164.246 432.172 164.728C434.064 165.21 435.88 165.555 437.771 165.899C438.225 165.968 438.755 166.037 439.209 166.105C439.663 166.174 440.193 166.243 440.647 166.312C441.101 166.381 441.63 166.45 442.084 166.519C442.538 166.587 443.068 166.656 443.522 166.656C445.413 166.863 447.305 166.932 449.272 167.001C456.914 167.207 464.48 166.381 471.744 164.797C475.375 164.04 478.932 163.007 482.412 161.837C484.152 161.217 485.893 160.597 487.557 159.909C488.389 159.565 489.222 159.22 490.054 158.876L491.264 158.325C491.491 158.256 491.718 158.119 491.87 158.05L492.551 157.706C493.761 157.155 494.215 155.778 493.534 154.676C493.005 153.712 491.794 153.299 490.735 153.575L490.508 153.643Z" fill="#E52526"/>
<path d="M442.009 177.742H441.555C441.403 177.742 441.176 177.742 441.025 177.742L440.42 177.673C440.193 177.673 440.041 177.604 439.814 177.604L439.512 177.535L439.209 177.466L438.604 177.398C438.15 177.329 437.772 177.26 437.318 177.191C435.577 176.847 433.837 176.434 432.097 175.952C431.643 175.814 431.265 175.745 430.811 175.607L429.524 175.194C428.692 174.919 427.784 174.643 426.952 174.368C426.498 174.23 426.12 174.093 425.666 173.886C425.212 173.748 424.833 173.611 424.379 173.404L423.093 172.922C422.639 172.784 422.261 172.578 421.883 172.44C421.504 172.303 421.05 172.096 420.672 171.958L419.461 171.407L418.251 170.857L417.645 170.581L417.04 170.306L415.83 169.755L414.619 169.135C413.787 168.722 413.03 168.309 412.273 167.896C411.517 167.483 410.684 167.07 409.928 166.657L408.793 165.968L408.188 165.624L407.658 165.28C406.901 164.798 406.145 164.385 405.464 163.903C405.086 163.696 404.707 163.421 404.329 163.214L403.27 162.457C401.832 161.493 400.395 160.46 399.033 159.427C398.352 158.877 397.671 158.395 396.99 157.844L395.022 156.191C394.417 155.641 393.736 155.09 393.131 154.47L391.239 152.749L390.331 151.854C390.029 151.578 389.726 151.303 389.423 150.959C388.818 150.339 388.213 149.788 387.608 149.169L385.792 147.378L384.884 146.483C384.581 146.208 384.279 145.864 383.976 145.588C383.371 144.969 382.765 144.349 382.236 143.729L380.495 141.801C378.226 139.185 376.183 136.431 374.594 133.402C374.367 133.057 374.14 132.644 373.988 132.3L373.459 131.13L372.929 129.959C372.778 129.546 372.627 129.202 372.4 128.789L371.87 127.618L371.643 127.067L371.416 126.448C371.113 125.621 370.811 124.864 370.584 124.038C369.524 120.871 368.692 117.566 368.087 114.261L367.709 111.782C367.633 110.956 367.482 110.13 367.406 109.304C367.33 108.891 367.33 108.477 367.255 108.064L367.179 106.825L367.103 105.586C367.103 105.173 367.028 104.76 367.028 104.346L366.952 101.868C366.952 101.661 366.952 101.455 366.952 101.248V100.628V99.3891C366.876 97.7367 366.952 96.0154 367.028 94.363C367.028 93.9499 367.028 93.5367 367.103 93.1236L367.179 91.8843L367.255 90.645V90.0253L367.33 89.4057L367.481 86.927C367.557 86.1008 367.633 85.2746 367.709 84.4484C367.784 83.6222 367.86 82.796 367.935 81.9698L368.238 79.4911C368.389 77.8387 368.616 76.1174 368.843 74.465C368.995 72.8125 369.297 71.0913 369.449 69.4388L369.524 68.8192C369.524 68.6126 369.6 68.4061 369.6 68.1995L369.751 66.9602C369.903 66.134 369.978 65.3078 370.054 64.4127C370.281 62.7603 370.508 61.039 370.659 59.3177C370.886 57.5964 371.113 55.944 371.189 54.1539V54.085C371.265 52.8457 370.205 51.8129 368.843 51.7441C367.784 51.6752 366.876 52.2261 366.422 53.0523C365.666 54.7047 364.985 56.2883 364.304 57.9407C363.698 59.5931 363.093 61.3144 362.563 62.9668C362.336 63.793 362.034 64.6881 361.807 65.5143L361.429 66.8225C361.353 67.0291 361.277 67.2356 361.277 67.4421L361.126 68.0618C360.899 68.9569 360.748 69.7831 360.521 70.6782L360.218 71.9863C360.142 72.3995 360.067 72.8814 359.991 73.2945C359.688 75.0158 359.386 76.8059 359.159 78.5272L358.856 81.1435C358.78 82.0386 358.705 82.9337 358.629 83.8287C358.478 85.6189 358.478 87.3401 358.402 89.1303V89.8188V90.5073V91.8155C358.402 92.7105 358.402 93.6056 358.478 94.5007C358.553 96.2908 358.629 98.0809 358.856 99.8022L359.007 101.11L359.083 101.799C359.083 102.005 359.159 102.212 359.159 102.487L359.537 105.104C359.613 105.517 359.688 105.999 359.764 106.412L359.991 107.72L360.218 109.028C360.294 109.441 360.369 109.923 360.521 110.336L361.126 112.953L361.807 115.569C362.715 119.012 363.774 122.454 364.985 125.828C365.59 127.48 366.271 129.202 366.952 130.854C367.103 131.267 367.33 131.68 367.481 132.093L368.011 133.333L368.541 134.572C368.692 134.985 368.919 135.398 369.146 135.811C370.659 139.116 372.248 142.421 374.064 145.657L375.502 148.067C375.956 148.824 376.485 149.65 377.015 150.408C377.545 151.165 378.074 151.923 378.604 152.68C378.907 153.093 379.209 153.437 379.436 153.782L380.344 154.883C380.647 155.227 380.949 155.572 381.252 155.985L382.236 157.018C382.917 157.706 383.598 158.395 384.279 159.083C384.959 159.772 385.716 160.391 386.397 161.011C387.154 161.631 387.835 162.25 388.591 162.87C389.348 163.49 390.104 164.109 390.861 164.66C391.618 165.211 392.374 165.831 393.207 166.381C394.795 167.483 396.384 168.585 398.049 169.617C401.378 171.683 404.783 173.473 408.339 175.125C409.247 175.539 410.155 175.952 411.063 176.296L412.425 176.847L413.787 177.398L414.468 177.673L415.149 177.948L416.511 178.43C417.418 178.706 418.402 179.05 419.31 179.325C419.764 179.463 420.218 179.601 420.748 179.738L422.185 180.152C422.639 180.289 423.169 180.427 423.623 180.496C424.077 180.634 424.606 180.771 425.06 180.84C426.952 181.322 428.919 181.666 430.886 181.942C432.854 182.217 434.821 182.424 436.864 182.561C437.393 182.561 437.923 182.561 438.377 182.63H439.133H439.512H439.89C440.949 182.561 442.009 182.493 443.295 182.217C444.581 181.873 445.338 180.702 444.959 179.532C444.657 178.568 443.673 177.879 442.614 177.879L442.009 177.742Z" fill="#E52526"/>
<path d="M483.396 73.3624C483.32 73.4312 483.32 73.5001 483.244 73.5689L483.093 73.8443L482.715 74.3262C482.488 74.6705 482.261 75.0148 481.958 75.359C481.428 76.0475 480.974 76.6672 480.445 77.3557C479.385 78.6639 478.326 79.8344 477.116 80.936C476.51 81.4868 475.981 81.9687 475.375 82.3818C474.77 82.795 474.165 83.1392 473.635 83.4146C473.333 83.5523 473.03 83.69 472.803 83.7589C472.5 83.8277 472.273 83.8966 471.971 83.9654C471.819 83.9654 471.744 84.0343 471.592 84.0343C471.441 84.0343 471.365 84.0343 471.214 84.0343C470.987 84.0343 470.684 84.0343 470.457 84.0343C469.928 83.9654 469.474 83.8277 468.944 83.6212L468.717 83.5523L468.49 83.4835C468.339 83.4146 468.187 83.3458 468.112 83.2769L468.036 83.2081L467.961 83.1392C467.885 83.1392 467.885 83.0704 467.809 83.0704C467.733 83.0704 467.733 83.0015 467.658 83.0015C467.582 83.0015 467.582 82.9326 467.507 82.9326C466.977 82.5884 466.523 82.2441 466.069 81.8999C465.615 81.5556 465.161 81.1425 464.783 80.5917C464.404 80.1098 464.026 79.4901 463.648 78.8705C463.345 78.1819 463.118 77.4934 462.967 76.736C462.816 75.9787 462.74 75.1525 462.74 74.3951C462.74 73.982 462.74 73.5689 462.815 73.1558C462.815 72.7427 462.891 72.3296 462.891 71.9165C463.194 68.6116 464.026 65.3067 464.783 61.933C465.161 60.2118 465.539 58.5594 465.842 56.8381L466.069 55.5299L466.22 54.2217C466.296 53.3266 466.447 52.5004 466.523 51.6054C466.674 49.8152 466.75 48.0251 466.75 46.235C466.674 44.376 466.447 42.517 465.993 40.658C465.539 38.7991 464.858 37.0089 463.875 35.2876C462.967 33.5663 461.756 32.0516 460.394 30.6746C459.638 29.9173 458.351 29.8484 457.519 30.5369C456.914 31.0189 456.687 31.7762 456.99 32.4647V32.5336C457.595 34.1171 458.124 35.6319 458.503 37.1466C458.881 38.6613 459.184 40.1761 459.335 41.6908C459.411 42.0351 459.411 42.4481 459.411 42.8612V43.4121V43.9629C459.411 44.7203 459.411 45.5464 459.411 46.3038C459.411 47.8874 459.259 49.471 459.184 51.1234L458.957 53.6021L458.881 54.8414L458.805 56.0807C458.73 57.7331 458.654 59.4544 458.578 61.1757C458.503 62.897 458.427 64.6182 458.351 66.3395C458.276 68.0608 458.124 69.7821 458.049 71.5722L457.973 72.8804C457.973 73.2935 457.973 73.7755 457.897 74.2574C457.897 75.1525 457.822 76.0475 457.822 77.0115C457.822 77.9754 457.822 78.9393 457.897 79.9721C457.973 81.0048 458.124 82.0376 458.427 83.1392C458.578 83.69 458.805 84.2408 459.032 84.7228C459.335 85.2736 459.638 85.7555 459.94 86.2375C460.621 87.2014 461.529 88.0965 462.513 88.785C462.588 88.8539 462.815 88.9916 462.891 89.0604C463.042 89.1293 463.194 89.267 463.345 89.3358C463.496 89.4047 463.648 89.4735 463.799 89.5424L464.026 89.6801L464.253 89.7489C464.556 89.8866 464.783 90.0243 465.085 90.0932L465.539 90.2997L465.993 90.4374C466.599 90.644 467.204 90.8505 467.885 90.9882C468.566 91.1259 469.247 91.1948 469.928 91.1948C471.29 91.2636 472.727 91.0571 474.013 90.7128C475.3 90.3686 476.435 89.8178 477.494 89.1981C478.024 88.9227 478.478 88.5785 478.931 88.2342C479.385 87.8899 479.764 87.5457 480.218 87.1326C480.974 86.3752 481.731 85.6178 482.336 84.8605C483.547 83.2769 484.53 81.6245 485.363 79.9032C485.741 79.077 486.119 78.1819 486.422 77.3557C486.573 76.9426 486.725 76.4606 486.876 76.0475L487.027 75.359C487.027 75.2213 487.103 75.1525 487.103 75.0148L487.179 74.6705C487.406 73.7066 486.725 72.7427 485.665 72.5361C484.909 72.3984 484.076 72.6738 483.623 73.2246L483.396 73.3624Z" fill="#E52526"/>
<path d="M391.39 179.808L390.255 178.982C389.877 178.707 389.499 178.431 389.121 178.156C388.364 177.605 387.607 176.986 386.926 176.366C385.489 175.195 384.051 173.956 382.614 172.648C379.814 170.1 377.166 167.484 374.669 164.73C369.675 159.222 365.211 153.301 361.504 147.035C360.596 145.452 359.688 143.868 358.856 142.285C358.477 141.458 358.023 140.701 357.645 139.875C357.418 139.462 357.267 139.049 357.04 138.635L356.435 137.396C355.678 135.744 354.997 134.091 354.316 132.439C353.635 130.786 353.03 129.134 352.349 127.413C351.063 124.039 349.776 120.665 348.717 117.223C347.582 113.78 346.75 110.2 346.296 106.62C346.144 105.725 346.069 104.829 345.993 103.934C345.917 103.039 345.842 102.144 345.842 101.249C345.842 100.767 345.842 100.354 345.766 99.8722V98.4952C345.766 97.6001 345.766 96.6362 345.766 95.7412C345.766 92.092 345.993 88.4429 346.371 84.7938C347.052 77.4956 348.49 70.335 350.23 63.3122C350.684 61.5221 351.138 59.8008 351.668 58.0795C352.122 56.3583 352.727 54.637 353.257 52.9157C354.392 49.4731 355.602 46.0994 356.964 42.7257C358.326 39.352 359.764 36.116 361.428 32.88C362.261 31.2964 363.093 29.644 364.001 28.0604C364.455 27.303 364.909 26.4768 365.363 25.7195C365.59 25.3064 365.817 24.9621 366.044 24.549L366.422 23.9982L366.573 23.7228L366.649 23.5851L366.725 23.5162V23.4474L366.952 22.9654C367.481 21.8638 366.952 20.5556 365.741 20.0737C364.833 19.7294 363.849 19.8671 363.168 20.4179L362.79 20.6933C362.715 20.7622 362.563 20.8999 362.488 20.9687C362.261 21.1064 362.109 21.313 361.882 21.4507C361.504 21.795 361.126 22.1392 360.747 22.4835C359.991 23.172 359.31 23.9293 358.629 24.6867C357.267 26.2014 355.981 27.785 354.846 29.4374C352.5 32.6734 350.533 36.116 348.868 39.6963C347.204 43.2765 345.842 46.9256 344.707 50.5747C343.572 54.2927 342.664 58.0107 341.983 61.7975C341.302 65.5843 340.848 69.3711 340.47 73.0891C340.167 76.8759 339.94 80.6627 339.865 84.4495C339.789 88.2364 339.789 91.9543 339.789 95.7412L339.865 98.564V99.9411C339.865 100.423 339.865 100.905 339.94 101.387C340.016 102.351 340.016 103.315 340.092 104.21C340.092 104.692 340.167 105.174 340.167 105.656C340.167 106.138 340.243 106.62 340.243 107.102C340.47 110.888 340.621 114.744 341.075 118.531C341.529 122.387 342.134 126.173 343.194 129.96C344.253 133.747 345.766 137.327 347.506 140.908C349.247 144.488 351.214 147.93 353.332 151.235C357.645 157.914 362.942 164.042 368.843 169.481C371.794 172.235 374.972 174.782 378.301 177.123C379.965 178.294 381.706 179.395 383.446 180.497C384.354 181.048 385.186 181.53 386.094 182.012C386.548 182.287 387.002 182.494 387.456 182.769C387.683 182.907 387.91 182.976 388.137 183.113L388.894 183.458C390.104 184.008 391.542 183.595 392.147 182.494C392.677 181.53 392.374 180.359 391.542 179.74L391.39 179.808Z" fill="#E52526"/>
<path d="M211.466 7.26658L211.315 8.43701L211.239 9.60749L211.163 10.778C211.163 11.1911 211.163 11.5353 211.163 11.9485C211.163 13.532 211.239 15.1156 211.39 16.6303C211.769 19.7975 212.525 22.8958 213.585 25.8564C214.644 28.817 215.93 31.7088 217.368 34.4628C218.049 35.8398 218.805 37.2168 219.562 38.525C219.94 39.2135 220.318 39.8332 220.697 40.5217L221.907 42.4495V42.5184L222.059 42.7938C222.967 43.9643 223.799 45.2036 224.631 46.4429C225.464 47.6822 226.296 48.9216 227.052 50.1609C227.809 51.4002 228.641 52.6395 229.398 53.9477C230.155 55.187 230.911 56.4952 231.592 57.8033C232.349 59.1115 233.03 60.4197 233.711 61.659L235.754 65.5835C237.115 68.1999 238.553 70.8162 239.915 73.4326C241.353 76.0489 242.714 78.6653 244.001 81.3505C245.287 84.0357 246.346 86.7897 247.254 89.6126C247.708 90.9896 248.086 92.4355 248.389 93.8814C248.692 95.3273 249.07 96.7731 249.297 98.1502C249.6 99.596 249.827 101.042 249.978 102.488C250.054 103.245 250.129 103.934 250.205 104.691C250.281 105.448 250.356 106.137 250.432 106.894C250.886 112.678 250.735 118.53 250.054 124.245C249.373 129.959 248.238 135.605 246.725 141.182C245.211 146.759 243.244 152.198 241.05 157.569C239.915 160.254 238.78 162.939 237.569 165.624C236.964 167.001 236.359 168.31 235.678 169.687C235.073 171.064 234.392 172.372 233.786 173.749V173.818C233.257 175.057 233.938 176.503 235.3 176.985C236.359 177.398 237.569 177.054 238.25 176.365C240.52 174.093 242.563 171.546 244.379 168.998C246.195 166.382 247.935 163.697 249.373 160.874C250.81 158.051 252.172 155.159 253.231 152.267C253.761 150.821 254.291 149.307 254.745 147.792C255.199 146.277 255.577 144.762 256.031 143.248C257.544 137.189 258.301 130.923 258.376 124.727C258.528 118.53 257.998 112.402 257.09 106.275C257.015 105.517 256.863 104.76 256.712 104.003C256.561 103.245 256.485 102.488 256.334 101.73C256.031 100.216 255.804 98.701 255.501 97.1862C255.199 95.6715 254.896 94.1568 254.518 92.7109L253.458 88.2356C252.777 85.275 252.021 82.2455 251.264 79.2849C250.508 76.2555 249.751 73.2949 248.767 70.3343C247.784 67.3737 246.649 64.4819 245.287 61.659C244.606 60.2132 243.849 58.8361 243.093 57.4591C242.336 56.0821 241.579 54.705 240.747 53.328C237.494 47.8888 233.938 42.6561 229.852 37.6988L230.079 37.9742L228.793 36.1841C228.339 35.5644 227.96 34.9447 227.506 34.3939C226.674 33.1546 225.842 31.9841 225.085 30.7448C223.496 28.335 222.059 25.8564 220.848 23.3777C219.638 20.8991 218.578 18.3516 217.822 15.7353C217.065 13.1189 216.611 10.3649 216.308 7.61083V7.54196C216.157 6.23378 214.946 5.26986 213.433 5.33871C212.601 5.20101 211.617 6.09611 211.466 7.26658Z" fill="#E52526"/>
<path d="M249.297 40.8672L250.357 42.8638L250.886 43.8966C251.038 44.2408 251.265 44.5851 251.416 44.9293C252.173 46.2375 252.854 47.6146 253.534 48.9227C254.215 50.2309 254.896 51.6079 255.577 52.9161L256.561 54.9128C256.864 55.6013 257.242 56.2898 257.545 56.9095C260.041 62.2799 262.387 67.788 264.43 73.2272C266.473 78.7353 268.289 84.3123 269.726 89.8892C271.239 95.4662 272.374 101.181 273.055 106.827C273.434 109.649 273.661 112.541 273.812 115.433C273.812 116.121 273.888 116.879 273.888 117.567V118.669V119.22V119.771C273.888 120.459 273.888 121.216 273.888 121.905C273.888 122.594 273.888 123.351 273.812 124.039C273.585 129.754 272.98 135.469 271.769 141.183C271.164 144.006 270.483 146.829 269.651 149.652L269.045 151.718L268.894 152.268L268.743 152.819L268.364 153.852L267.986 154.885L267.608 155.917C267.381 156.606 267.154 157.294 266.851 157.983L266.019 160.049C265.716 160.737 265.413 161.426 265.186 162.114L264.732 163.147C264.581 163.491 264.43 163.835 264.278 164.18C263.976 164.868 263.673 165.557 263.371 166.245L262.387 168.242C262.236 168.586 262.084 168.93 261.857 169.275C261.706 169.619 261.555 169.963 261.328 170.307C260.647 171.684 259.966 172.993 259.285 174.37C258.982 174.989 259.285 175.678 259.89 175.953C260.42 176.16 261.101 176.022 261.403 175.609C263.522 173.268 265.489 170.789 267.305 168.242C267.759 167.622 268.213 166.934 268.667 166.314C268.894 165.97 269.121 165.694 269.348 165.35L269.953 164.386C270.331 163.698 270.785 163.078 271.164 162.39C271.542 161.701 271.92 161.012 272.374 160.324C273.888 157.57 275.325 154.747 276.611 151.924C277.822 149.032 278.957 146.141 279.865 143.111C280.092 142.354 280.319 141.596 280.546 140.839L281.151 138.567C281.529 137.052 281.908 135.538 282.21 134.023C282.816 130.993 283.27 127.895 283.572 124.797C283.648 124.039 283.724 123.213 283.799 122.456C283.875 121.698 283.875 120.872 283.951 120.115V119.564V119.013V117.843C283.951 117.085 283.951 116.259 283.951 115.502C283.951 112.404 283.724 109.305 283.421 106.207C282.816 100.01 281.605 93.8826 279.941 87.8925C278.2 81.9025 276.006 76.0501 273.282 70.4043C270.558 64.7585 267.381 59.3193 263.749 54.1554C260.117 48.9916 256.107 44.1031 251.416 39.6967C250.886 39.2147 249.978 39.2147 249.449 39.6967C249.07 39.7655 248.995 40.3852 249.297 40.8672Z" fill="#E52526"/>
<path d="M74.2153 182.147L74.7449 181.871C74.8962 181.802 75.0476 181.733 75.1989 181.665C75.5016 181.527 75.8042 181.32 76.1068 181.183C76.7121 180.838 77.2418 180.494 77.8471 180.15C78.982 179.461 80.0413 178.704 81.1005 177.947C82.1598 177.189 83.219 176.432 84.2026 175.606C84.7323 175.193 85.1863 174.779 85.7159 174.366C86.1699 173.953 86.6995 173.54 87.1535 173.058C91.0122 169.616 94.417 165.76 97.4435 161.698C97.8218 161.216 98.2001 160.665 98.5784 160.183L99.6377 158.599L100.697 157.016C101 156.465 101.378 155.914 101.681 155.432C102.286 154.331 102.967 153.298 103.496 152.127C103.799 151.577 104.026 151.026 104.329 150.475C104.556 149.924 104.858 149.305 105.085 148.754L105.388 147.859C105.464 147.583 105.615 147.239 105.691 146.964C105.918 146.344 106.069 145.793 106.22 145.173C106.372 144.554 106.523 144.003 106.674 143.383L107.128 141.593C107.658 139.183 108.112 136.774 108.717 134.433C109.02 133.262 109.323 132.092 109.625 130.921L109.852 130.026L110.079 129.131L110.533 127.341C111.063 125 111.592 122.659 112.122 120.249C112.576 117.908 113.106 115.499 113.408 113.089C113.635 111.918 113.711 110.679 113.862 109.509C113.938 108.889 114.014 108.338 114.014 107.718C114.089 107.099 114.089 106.479 114.165 105.928C114.316 103.518 114.392 101.109 114.316 98.6989C114.316 98.0792 114.316 97.4596 114.241 96.9087L114.089 95.1186C114.013 93.9482 113.862 92.7088 113.711 91.5384C113.635 91.263 113.635 90.9187 113.56 90.6433L113.408 89.7482C113.333 89.1286 113.181 88.5778 113.106 87.9581C113.03 87.3384 112.879 86.7876 112.727 86.168C112.576 85.5483 112.425 84.9975 112.273 84.3779C111.971 83.2074 111.592 82.0369 111.138 80.9353C110.684 79.7648 110.23 78.6632 109.701 77.5616C109.096 76.3911 107.658 75.9091 106.372 76.3911C105.539 76.7354 105.01 77.4927 104.934 78.2501V78.3189C104.783 79.4894 104.783 80.6599 104.783 81.8304C104.783 83.0008 104.783 84.1713 104.783 85.3418C104.783 86.5122 104.858 87.6138 104.858 88.7843C104.858 89.9548 104.934 91.0564 105.01 92.2269C105.085 93.3973 105.161 94.499 105.237 95.6694L105.312 97.3907C105.312 97.9415 105.388 98.4923 105.388 99.112C105.539 101.384 105.615 103.656 105.691 105.928C105.842 110.472 105.918 115.017 105.539 119.63L105.388 121.351C105.312 121.902 105.237 122.453 105.161 123.072C105.085 123.623 105.01 124.174 104.858 124.793C104.783 125.344 104.631 125.895 104.556 126.515C104.329 127.616 104.102 128.787 103.799 129.888C103.648 130.439 103.496 130.99 103.345 131.541C103.194 132.092 102.967 132.643 102.816 133.193C102.059 135.328 101 137.462 99.7891 139.459L98.8811 140.974C98.5784 141.455 98.2758 141.937 97.9732 142.488C97.3679 143.452 96.7626 144.485 96.2329 145.449L95.4007 146.964C95.098 147.446 94.871 147.996 94.5684 148.478C94.2657 148.96 94.0388 149.511 93.8118 149.993C93.5091 150.475 93.2822 151.026 92.9795 151.508L92.1472 153.022L91.3149 154.468L90.407 155.914C90.1043 156.396 89.8016 156.878 89.499 157.36C87.0021 161.216 84.2784 164.934 81.3275 168.514C79.8143 170.304 78.301 172.025 76.6364 173.747C75.8042 174.573 74.9719 175.468 74.1397 176.225C73.6857 176.638 73.3073 177.052 72.8533 177.465C72.6264 177.671 72.3994 177.878 72.2481 178.084L71.9454 178.36L71.7941 178.497L71.7184 178.566L71.6428 178.635L71.1888 179.461C70.5835 180.494 71.0375 181.802 72.1725 182.353C72.7021 182.491 73.5343 182.422 74.2153 182.147Z" fill="#E52526"/>
<path d="M100.848 178.776C105.464 176.16 109.701 172.993 113.56 169.481C114.543 168.586 115.451 167.691 116.359 166.727L117.04 166.039C117.191 165.901 117.267 165.832 117.418 165.694L117.721 165.35L119.007 163.904C119.234 163.629 119.461 163.422 119.688 163.147L119.991 162.803L120.293 162.389L121.504 160.875L122.109 160.117L122.412 159.704L122.715 159.291L123.85 157.708C124.606 156.675 125.287 155.573 125.968 154.472C126.649 153.37 127.254 152.199 127.86 151.098C128.465 149.996 128.995 148.826 129.524 147.655L129.903 146.76C130.054 146.485 130.13 146.141 130.281 145.865C130.508 145.245 130.735 144.695 130.962 144.075C131.87 141.734 132.626 139.324 133.307 136.846C133.988 134.436 134.594 131.957 134.972 129.479C136.712 119.633 136.863 109.649 135.88 99.8726C134.896 90.0957 132.929 80.4565 130.13 71.0927C129.903 70.2665 128.995 69.8534 128.087 70.06C127.406 70.1977 126.952 70.7485 126.876 71.3682V71.6436C126.8 72.8829 126.725 74.1222 126.649 75.2927C126.573 76.532 126.573 77.7025 126.573 78.9418C126.573 79.5614 126.498 80.1811 126.498 80.7319C126.498 81.3516 126.498 81.9712 126.498 82.5221C126.422 83.7614 126.498 84.9319 126.422 86.1023C126.346 90.8531 126.271 95.6038 126.119 100.286C125.817 109.649 125.136 118.807 123.396 127.62L123.017 129.272C122.942 129.547 122.942 129.823 122.866 130.098C122.79 130.374 122.715 130.649 122.715 130.924L122.336 132.577L122.185 133.403L121.958 134.229C121.428 136.364 120.823 138.567 120.066 140.632C119.688 141.665 119.385 142.767 119.007 143.8L118.402 145.383C118.326 145.659 118.175 145.934 118.099 146.141L117.797 146.898C117.343 147.931 116.964 148.963 116.435 149.996L116.056 150.754L115.678 151.511L115.527 151.924C115.451 152.062 115.375 152.199 115.3 152.268L114.921 153.026C112.879 157.019 110.533 160.944 107.809 164.799C107.431 165.281 107.128 165.763 106.75 166.245C106.599 166.452 106.447 166.727 106.22 167.002L105.691 167.691L104.556 169.137L104.026 169.825C103.875 170.101 103.648 170.307 103.421 170.514L102.286 171.96L101.681 172.648L101.378 172.993L101.075 173.337C100.243 174.301 99.4108 175.196 98.6542 176.229L98.4271 176.504C97.8975 177.192 98.0488 178.156 98.8054 178.638C99.4864 179.12 100.243 179.12 100.848 178.776Z" fill="#E52526"/>
<path d="M100.092 194.405C101.454 194.405 102.437 194.267 103.497 194.129L103.875 194.06L104.253 193.991L105.01 193.854C105.539 193.716 105.993 193.647 106.523 193.509C108.49 192.959 110.382 192.339 112.198 191.65C114.014 190.962 115.83 190.136 117.57 189.31C118.024 189.103 118.478 188.896 118.856 188.69C119.31 188.483 119.764 188.277 120.142 188.001L121.429 187.313C121.883 187.106 122.261 186.831 122.715 186.624C123.547 186.142 124.379 185.66 125.212 185.11L126.422 184.352L127.028 183.939L127.633 183.526L128.843 182.7L129.978 181.874C130.735 181.323 131.492 180.703 132.324 180.152C135.35 177.811 138.225 175.264 140.874 172.579C142.236 171.271 143.522 169.825 144.732 168.448C145.338 167.759 145.943 167.002 146.548 166.244C147.154 165.487 147.683 164.73 148.289 164.041C148.818 163.284 149.423 162.526 149.953 161.769C150.483 161.012 151.012 160.254 151.542 159.428C151.996 158.602 152.526 157.845 152.98 157.018L153.661 155.779C153.888 155.366 154.115 154.953 154.266 154.54L154.871 153.3C155.022 152.887 155.25 152.474 155.401 152.061C155.703 151.235 156.082 150.34 156.384 149.445C156.687 148.55 156.99 147.723 157.217 146.828L157.973 144.212C158.881 140.701 159.562 137.12 160.167 133.609C160.243 133.196 160.319 132.714 160.394 132.301L160.621 130.993L160.848 129.684C160.924 129.271 161 128.789 161.075 128.376C161.302 126.586 161.529 124.865 161.681 123.075C161.983 119.494 162.135 115.983 162.059 112.403L161.983 109.718L161.832 107.032C161.832 106.619 161.832 106.137 161.756 105.724L161.605 104.416L161.454 103.108C161.454 102.695 161.378 102.213 161.302 101.8L161 99.1145C161 98.9079 160.924 98.7014 160.924 98.4259L160.848 97.7374L160.621 96.4293C160.394 94.6392 159.941 92.9179 159.638 91.1966C159.487 90.3015 159.26 89.4753 159.033 88.5802L158.73 87.272L158.579 86.6524L158.352 86.0327C157.822 84.3114 157.368 82.5902 156.763 80.9378C156.46 80.1115 156.157 79.2165 155.855 78.3903L154.871 75.9116C154.19 74.2592 153.509 72.6068 152.753 70.9543C152.526 70.5412 152.374 70.1281 152.147 69.715L151.542 68.5445C151.164 67.7183 150.71 66.961 150.331 66.1348L150.029 65.5151C149.953 65.3085 149.802 65.102 149.726 64.8954L149.045 63.725C148.591 62.9676 148.137 62.1414 147.683 61.384C146.7 59.8693 145.716 58.3546 144.657 56.8398C143.597 55.394 142.463 53.9481 141.328 52.5022C140.495 51.5383 138.982 51.3317 137.847 52.0891C137.015 52.6399 136.712 53.6727 137.015 54.4989V54.5677C137.545 56.2201 138.226 57.8726 138.831 59.4562C139.436 61.1086 140.117 62.6922 140.798 64.2758C141.101 65.102 141.403 65.8593 141.782 66.6856L142.311 67.856C142.387 68.0626 142.463 68.2691 142.538 68.4757L142.765 69.0954C143.371 70.6789 144.051 72.2625 144.657 73.8461C145.262 75.4296 145.943 77.0132 146.548 78.5968L147.456 80.9378C147.759 81.764 148.062 82.5213 148.289 83.3476C148.591 84.1738 148.894 84.9311 149.121 85.7574L149.953 88.1671L150.18 88.7868L150.331 89.4065L150.71 90.6458L151.088 91.8851C151.239 92.2982 151.315 92.7113 151.466 93.1244C151.92 94.708 152.45 96.3604 152.828 98.0129L153.131 99.2522L153.282 99.8718C153.358 100.078 153.358 100.285 153.434 100.491L153.963 102.97C154.039 103.383 154.114 103.796 154.19 104.209L154.417 105.449L154.644 106.688C154.72 107.101 154.795 107.514 154.871 107.927C155.022 108.754 155.098 109.58 155.249 110.406L155.476 112.885C155.779 116.19 155.855 119.563 155.628 122.937C155.552 123.763 155.476 124.589 155.401 125.416L155.325 126.035L155.249 126.655L155.098 127.894C155.022 128.307 155.022 128.721 154.947 129.134L154.72 130.373L154.493 131.612C154.417 132.025 154.266 132.438 154.19 132.852C153.358 136.088 152.147 139.255 150.634 142.284L149.499 144.556C149.121 145.314 148.667 146.002 148.289 146.759C148.062 147.104 147.835 147.448 147.683 147.861L147.078 148.963L145.792 151.097C145.338 151.786 144.884 152.543 144.505 153.232C144.278 153.576 144.051 153.92 143.824 154.264L143.144 155.297L141.782 157.431C141.328 158.12 140.798 158.808 140.344 159.497L138.831 161.494C138.301 162.182 137.772 162.802 137.242 163.49C136.183 164.799 135.048 166.107 133.913 167.346L133.081 168.31C132.778 168.654 132.475 168.93 132.173 169.205C131.567 169.825 130.962 170.444 130.357 170.995L129.903 171.477L129.449 171.89L128.541 172.785C127.936 173.336 127.255 173.956 126.649 174.507C125.968 175.057 125.363 175.677 124.682 176.228L123.698 177.054L122.715 177.88L122.185 178.293L121.655 178.706L120.596 179.533L119.537 180.29C119.159 180.565 118.856 180.841 118.478 181.047C118.099 181.323 117.797 181.529 117.418 181.805L116.359 182.562C115.981 182.838 115.603 183.044 115.224 183.319C114.846 183.595 114.468 183.801 114.089 184.008C113.333 184.49 112.576 184.903 111.819 185.385L110.684 186.074C110.306 186.28 109.928 186.487 109.55 186.693C108.036 187.519 106.447 188.346 104.859 189.034C104.48 189.241 104.026 189.378 103.648 189.516L103.043 189.723L102.74 189.86L102.437 189.929C102.21 189.998 102.059 190.067 101.832 190.136L101.227 190.273C101.075 190.342 100.848 190.342 100.697 190.411L100.243 190.48L99.8649 190.549C98.5786 190.824 97.7463 191.995 98.049 193.234C98.1246 193.716 99.0325 194.405 100.092 194.405Z" fill="#E52526"/>
<path d="M156.535 184.214L157.141 183.733C157.368 183.595 157.519 183.388 157.746 183.251C158.124 182.906 158.503 182.562 158.881 182.218C159.638 181.529 160.394 180.841 161.075 180.152C162.513 178.706 163.875 177.26 165.161 175.746C167.809 172.716 170.155 169.549 172.349 166.244C176.737 159.635 180.218 152.543 182.715 145.176C184.001 141.458 184.984 137.671 185.741 133.884C186.498 130.097 187.027 126.173 187.103 122.317C187.179 118.462 186.8 114.537 186.195 110.75C185.59 106.963 184.833 103.177 184.001 99.4586C183.925 98.9767 183.774 98.4947 183.698 98.0816C183.622 97.5997 183.471 97.1177 183.395 96.7046C183.169 95.7407 182.941 94.8456 182.79 93.8817C182.715 93.3997 182.563 92.9866 182.487 92.5047L182.185 91.1277L181.504 88.3736C180.596 84.7245 179.537 81.0754 178.477 77.4263C177.418 73.7771 176.283 70.128 174.921 66.5478C173.635 62.9675 172.198 59.3872 170.533 55.8758C168.868 52.3644 167.052 48.9218 165.01 45.617C162.967 42.2433 160.697 39.0073 158.124 35.909C155.552 32.8107 152.752 29.9189 149.65 27.2338C148.061 25.9256 146.472 24.6174 144.732 23.4469C143.9 22.8273 142.992 22.2764 142.084 21.7945C141.63 21.5191 141.176 21.2437 140.646 21.0371C140.419 20.8994 140.192 20.7617 139.89 20.6929C139.739 20.624 139.663 20.5552 139.512 20.4863L139.057 20.2798C137.847 19.7289 136.409 20.2109 135.804 21.2437C135.35 22.0011 135.501 22.8961 136.031 23.5846L136.409 23.9977V24.0666L136.485 24.1354L136.636 24.2731L136.863 24.4797L137.317 24.9616C137.62 25.3059 137.998 25.5813 138.301 25.9256C138.982 26.5452 139.587 27.2338 140.268 27.9223C141.554 29.2304 142.765 30.6075 143.976 32.0533C146.397 34.8762 148.667 37.6991 150.861 40.6597C153.055 43.6203 155.174 46.6498 157.141 49.7481C158.124 51.3316 159.108 52.8464 160.016 54.43C160.924 56.0136 161.907 57.5971 162.74 59.2496C166.296 65.7216 169.474 72.4001 172.122 79.2852C173.408 82.7278 174.543 86.2392 175.527 89.8195C175.754 90.7145 175.981 91.6096 176.208 92.5047L176.51 93.8128C176.586 94.2259 176.737 94.7079 176.813 95.121C177.04 96.0161 177.191 96.9112 177.343 97.8062C177.494 98.7013 177.645 99.5963 177.796 100.491C178.25 104.072 178.402 107.721 178.175 111.301C178.023 114.881 177.645 118.462 177.267 121.973C177.04 123.763 176.889 125.484 176.662 127.275C176.435 129.065 176.208 130.786 175.905 132.507L175.678 133.815C175.602 134.229 175.527 134.71 175.451 135.124C175.3 136.019 175.073 136.845 174.921 137.74C174.543 139.461 174.089 141.182 173.559 142.904C171.592 149.789 168.793 156.467 165.388 162.939C163.648 166.175 161.756 169.343 159.713 172.372C158.654 173.887 157.595 175.402 156.46 176.916C155.93 177.674 155.325 178.362 154.72 179.119C154.417 179.464 154.114 179.808 153.812 180.221L152.979 181.254L152.904 181.392C152.071 182.355 152.298 183.733 153.358 184.49C154.341 184.903 155.703 184.903 156.535 184.214Z" fill="#E52526"/>
<path d="M186.271 174.574C186.498 174.368 186.725 174.161 186.952 173.886C187.179 173.679 187.406 173.473 187.633 173.197C188.087 172.715 188.541 172.302 188.919 171.82C189.751 170.925 190.583 169.961 191.34 168.997C192.097 168.033 192.853 167.069 193.534 166.037C194.215 165.004 194.972 164.04 195.577 163.007C198.225 158.876 200.419 154.47 202.235 149.994L202.916 148.273L203.522 146.552C203.749 146.001 203.9 145.381 204.127 144.83L204.657 143.109C205.338 140.768 205.943 138.427 206.397 136.086C207.38 131.336 207.91 126.585 208.137 121.765C208.213 119.356 208.213 116.946 208.061 114.536C207.986 113.365 207.91 112.126 207.834 110.956C207.759 109.785 207.607 108.546 207.456 107.375C207.153 104.966 206.775 102.625 206.321 100.284C206.094 99.1133 205.867 97.9428 205.565 96.7724C205.413 96.1527 205.262 95.6019 205.111 95.0511L204.657 93.3298C202.16 84.0349 198.528 75.0153 193.761 66.6155C193.307 65.7893 192.097 65.445 191.189 65.8582C190.432 66.2024 190.054 66.9598 190.205 67.7171L190.281 68.0614C190.508 69.2319 190.81 70.4023 191.037 71.504L191.416 73.2252C191.567 73.7761 191.718 74.3957 191.794 74.9465C192.324 77.2186 192.853 79.4907 193.307 81.7628C194.291 86.2381 195.199 90.7134 195.955 95.1887L196.182 96.8412C196.258 97.392 196.334 97.9428 196.409 98.4936C196.485 99.0444 196.561 99.5952 196.636 100.146C196.712 100.697 196.788 101.248 196.863 101.798C197.015 102.9 197.09 104.002 197.242 105.103C197.317 105.654 197.317 106.205 197.393 106.756C197.469 107.307 197.469 107.857 197.544 108.408C197.696 110.611 197.847 112.815 197.923 115.018C197.998 117.221 197.998 119.424 197.998 121.628C197.998 123.831 197.847 126.034 197.696 128.237L197.544 129.89L197.393 131.542C197.317 132.093 197.242 132.644 197.166 133.195C197.09 133.47 197.09 133.745 197.09 134.021L197.015 134.847C196.712 137.05 196.334 139.185 195.955 141.388L195.653 143.04C195.501 143.591 195.426 144.142 195.274 144.693L194.896 146.345L194.518 147.998C193.383 152.335 192.021 156.604 190.356 160.873C190.129 161.424 189.902 161.974 189.751 162.456L189.07 164.04C188.616 165.142 188.162 166.174 187.633 167.207C187.103 168.24 186.649 169.341 186.119 170.374C185.892 170.925 185.59 171.407 185.287 171.958L184.455 173.473L184.379 173.679C184.152 174.161 184.303 174.712 184.833 174.987C185.438 174.987 185.968 174.918 186.271 174.574Z" fill="#E52526"/>
<path d="M201.857 52.6384C202.236 53.3958 202.538 54.0843 202.916 54.7728L203.976 56.9072L206.094 61.176C206.775 62.6219 207.456 63.9989 208.137 65.4448L209.121 67.5791C209.272 67.9234 209.423 68.2676 209.65 68.6119L210.104 69.7135C210.407 70.402 210.71 71.1594 211.012 71.8479C211.164 72.1922 211.315 72.5364 211.466 72.9495L211.92 74.0512C212.223 74.7397 212.526 75.497 212.828 76.1855L213.661 78.3199L214.115 79.4216C214.266 79.7658 214.341 80.1789 214.493 80.5232L215.249 82.7264C215.401 83.0707 215.476 83.4837 215.628 83.828L216.006 84.9296L216.384 86.0312C216.536 86.3755 216.611 86.7886 216.763 87.1329C217.671 90.0246 218.503 92.9852 219.184 95.9458C219.411 96.7032 219.562 97.3917 219.714 98.1491L219.94 99.2507C220.016 99.5949 220.092 100.008 220.167 100.352C220.319 101.11 220.47 101.867 220.621 102.556C220.773 103.313 220.924 104.001 221.151 104.759C221.529 106.205 221.832 107.719 222.286 109.234C222.664 110.749 223.043 112.195 223.345 113.709C223.724 115.224 223.951 116.739 224.177 118.254C224.253 119.011 224.329 119.768 224.405 120.526L224.48 121.077V121.627C224.48 122.04 224.48 122.385 224.48 122.798C224.556 128.926 223.572 135.053 221.832 140.975C221 143.935 219.94 146.827 218.73 149.65C218.427 150.338 218.125 151.096 217.822 151.784L216.838 153.919L215.855 155.984L214.795 158.05C213.358 160.804 211.845 163.489 210.331 166.174C208.743 168.859 207.078 171.476 205.413 174.092C203.749 176.708 202.009 179.325 200.268 181.872C199.36 183.18 198.528 184.488 197.62 185.797L196.258 187.724L195.577 188.688L195.275 189.17L195.123 189.377C195.048 189.446 195.048 189.515 194.972 189.583L194.821 189.859C194.064 191.098 194.518 192.751 195.88 193.439C196.864 193.921 197.999 193.852 198.906 193.37L199.512 193.026C199.739 192.888 199.89 192.751 200.117 192.682C200.495 192.406 200.874 192.2 201.252 191.924C201.63 191.649 202.009 191.374 202.311 191.167C202.69 190.892 202.992 190.616 203.37 190.341C204.732 189.239 206.019 188.069 207.305 186.898C208.516 185.659 209.726 184.42 210.861 183.18C211.996 181.872 213.055 180.564 214.115 179.187C216.157 176.433 217.973 173.61 219.638 170.649C221.302 167.689 222.74 164.659 224.026 161.561C224.329 160.804 224.631 159.977 224.934 159.22C225.237 158.463 225.464 157.637 225.766 156.879C225.993 156.122 226.296 155.296 226.523 154.538C226.75 153.712 226.977 152.955 227.204 152.128C228.112 148.961 228.793 145.725 229.398 142.489C230.003 139.253 230.457 136.017 230.836 132.781L231.063 130.371L231.29 127.962C231.365 127.549 231.365 127.135 231.365 126.722L231.441 125.483L231.517 124.244L231.592 123.004C231.744 121.352 231.819 119.768 232.046 118.116C232.122 116.464 232.349 114.811 232.425 113.159C232.5 112.332 232.576 111.506 232.576 110.68C232.576 109.854 232.652 109.028 232.652 108.201V106.962L232.576 105.723C232.576 104.897 232.5 104.07 232.425 103.244C232.349 102.831 232.349 102.418 232.273 102.005L232.198 101.385L232.122 100.765C231.971 99.9392 231.819 99.113 231.668 98.2868C231.592 97.8736 231.517 97.4605 231.365 97.0474L231.063 95.8081C230.836 94.9819 230.684 94.2246 230.457 93.3983L229.777 90.9885C229.55 90.1623 229.247 89.405 229.02 88.5788C228.49 86.9952 227.961 85.4116 227.355 83.8969C227.204 83.4838 227.053 83.1395 226.901 82.7264L226.447 81.5559C226.145 80.7986 225.842 80.0412 225.464 79.2838L224.405 77.0118C224.253 76.6675 224.102 76.2544 223.875 75.9101L223.345 74.8085L222.21 72.6053C221.832 71.8479 221.454 71.1594 221 70.402L220.394 69.3004C220.167 68.9562 220.016 68.5431 219.789 68.1988C219.335 67.5103 218.957 66.7529 218.503 66.0644C217.671 64.6185 216.763 63.2415 215.855 61.8645C215.401 61.176 214.947 60.4875 214.417 59.799C213.963 59.1104 213.434 58.4219 212.98 57.7334C211.996 56.3564 210.937 55.0482 209.953 53.7401C209.423 53.1204 208.894 52.4319 208.364 51.8122C207.835 51.1925 207.305 50.504 206.7 49.8844C205.716 48.7827 203.9 48.5762 202.614 49.4713C201.555 50.2286 201.252 51.5368 201.782 52.5696L201.857 52.6384Z" fill="#E52526"/>
<path d="M272.223 188.344L272.904 187.862C273.131 187.724 273.358 187.587 273.509 187.38C273.887 187.036 274.341 186.76 274.72 186.416C275.552 185.797 276.308 185.108 277.065 184.488C278.578 183.18 280.092 181.803 281.453 180.357C284.253 177.534 286.901 174.505 289.322 171.338C294.089 165.003 298.099 158.118 301.126 150.889C302.639 147.24 303.925 143.591 304.909 139.804C305.892 136.017 306.725 132.23 307.027 128.375C307.405 124.519 307.254 120.594 306.952 116.808C306.573 112.952 306.119 109.165 305.514 105.378C305.438 104.896 305.363 104.414 305.287 103.932C305.211 103.451 305.136 102.969 305.06 102.487C304.909 101.523 304.757 100.628 304.606 99.6637C304.53 99.1817 304.455 98.6998 304.379 98.2867L304.152 96.9096L303.698 94.1556C303.017 90.4376 302.261 86.7197 301.428 83.0705C300.596 79.3526 299.688 75.7035 298.629 71.9855C297.569 68.3364 296.359 64.6873 294.997 61.107C293.559 57.5267 291.97 53.9465 290.155 50.5039C288.339 47.0614 286.296 43.6876 283.95 40.4516C281.605 37.2156 279.032 34.1173 276.081 31.2944C274.644 29.8486 273.055 28.5404 271.466 27.2322C270.634 26.6126 269.802 25.9929 268.894 25.3732C268.44 25.0978 267.986 24.8224 267.532 24.547C267.305 24.4093 267.078 24.2716 266.851 24.1339C266.699 24.0651 266.624 23.9962 266.472 23.9273L266.018 23.7208C264.883 23.1011 263.37 23.4454 262.689 24.547C262.235 25.3044 262.311 26.1995 262.765 26.888L263.068 27.3011V27.3699L263.143 27.4388L263.219 27.5765L263.446 27.783L263.9 28.265C264.202 28.6093 264.505 28.9535 264.808 29.2978C265.413 29.9863 266.018 30.6748 266.624 31.3633C267.834 32.8092 268.969 34.1862 270.029 35.7009C272.223 38.5927 274.341 41.6221 276.308 44.7204C278.276 47.8187 280.167 50.917 281.907 54.153C282.815 55.7366 283.648 57.389 284.48 59.0415C285.312 60.6939 286.144 62.3463 286.901 63.9988C290.003 70.6085 292.727 77.4936 294.846 84.5164C295.905 88.0278 296.813 91.6081 297.494 95.1883C297.645 96.0834 297.872 96.9785 298.023 97.8736L298.25 99.2506C298.326 99.7325 298.402 100.146 298.477 100.628C298.629 101.523 298.78 102.418 298.856 103.313C298.931 104.208 299.083 105.103 299.083 105.998C299.31 109.578 299.158 113.227 298.704 116.808C298.326 120.388 297.645 123.899 297.04 127.411C296.737 129.132 296.434 130.922 296.056 132.643C295.754 134.365 295.375 136.155 294.921 137.876L294.619 139.184C294.543 139.597 294.392 140.011 294.24 140.492C294.013 141.388 293.786 142.214 293.484 143.04C292.954 144.761 292.424 146.414 291.743 148.135C289.247 154.882 286.069 161.423 282.21 167.62C280.243 170.718 278.2 173.748 275.93 176.708C274.795 178.154 273.585 179.6 272.374 181.046C271.769 181.734 271.163 182.423 270.558 183.111C270.255 183.456 269.953 183.8 269.574 184.144L268.667 185.108L268.515 185.246C267.607 186.141 267.759 187.587 268.742 188.344C270.028 188.964 271.315 189.033 272.223 188.344Z" fill="#E52526"/>
<path d="M304.303 180.634C304.606 180.427 304.833 180.221 305.06 180.014C305.287 179.808 305.514 179.601 305.741 179.395C306.195 178.981 306.649 178.568 307.103 178.086C308.011 177.191 308.843 176.296 309.675 175.401C310.508 174.506 311.34 173.542 312.097 172.578C312.853 171.614 313.61 170.65 314.367 169.618C317.242 165.624 319.814 161.424 321.933 157.018L322.689 155.365L323.446 153.713C323.673 153.162 323.9 152.611 324.127 151.992L324.808 150.27C325.64 147.998 326.397 145.657 327.078 143.385C328.364 138.703 329.272 133.953 329.802 129.202C330.029 126.792 330.18 124.382 330.256 121.973C330.256 120.802 330.331 119.563 330.256 118.392C330.256 117.222 330.18 115.983 330.18 114.812C330.029 112.402 329.877 109.993 329.575 107.652C329.423 106.481 329.272 105.242 329.121 104.071C329.045 103.452 328.894 102.901 328.818 102.281L328.515 100.491C326.699 91.0585 323.597 81.9012 319.511 73.1571C319.058 72.2621 317.998 71.849 317.015 72.2621C316.258 72.5375 315.804 73.2949 315.88 74.0522L315.955 74.3965C316.107 75.567 316.334 76.7374 316.485 77.9079L316.788 79.6292C316.863 80.18 317.015 80.7996 317.09 81.3505C317.469 83.6225 317.847 85.9635 318.15 88.2356C318.831 92.7797 319.436 97.2551 319.814 101.799L319.966 103.452C320.041 104.002 320.041 104.553 320.117 105.104C320.117 105.655 320.192 106.206 320.268 106.757C320.344 107.307 320.344 107.858 320.344 108.409C320.419 109.511 320.419 110.612 320.495 111.714C320.495 112.265 320.495 112.815 320.571 113.366C320.571 113.917 320.571 114.468 320.571 115.019C320.571 117.222 320.571 119.425 320.495 121.628C320.419 123.832 320.268 126.035 320.117 128.238C319.965 130.441 319.663 132.645 319.36 134.779L319.133 136.431L318.831 138.084C318.755 138.635 318.604 139.185 318.528 139.736C318.452 140.012 318.452 140.287 318.377 140.562L318.225 141.389C317.771 143.523 317.242 145.726 316.712 147.861L316.258 149.444C316.107 149.995 315.955 150.477 315.804 151.028L315.35 152.611L314.82 154.195C313.383 158.464 311.718 162.664 309.827 166.864C309.6 167.414 309.373 167.896 309.07 168.447L308.314 170.031C307.784 171.064 307.254 172.096 306.725 173.129C306.195 174.162 305.59 175.195 304.984 176.227C304.682 176.709 304.379 177.26 304.076 177.742L303.168 179.257L303.017 179.463C302.715 179.945 302.866 180.496 303.396 180.772C303.471 180.909 304.001 180.909 304.303 180.634Z" fill="#E52526"/>
<path d="M86.1702 187.864L85.7919 187.658C85.6406 187.589 85.4892 187.451 85.3378 187.382L84.8839 187.038C84.7326 186.9 84.5813 186.831 84.3543 186.694L84.1273 186.487L83.9003 186.28L83.3706 185.936C83.068 185.661 82.6897 185.385 82.3871 185.11C81.1008 184.008 79.8146 182.838 78.6796 181.599C78.377 181.254 78.0743 180.979 77.7716 180.704L76.8637 179.74C76.2584 179.12 75.7288 178.431 75.1235 177.812C74.8208 177.467 74.5938 177.192 74.2912 176.848C73.9885 176.504 73.7616 176.228 73.4589 175.884L72.6267 174.851C72.3997 174.507 72.097 174.163 71.87 173.818C71.6431 173.474 71.3404 173.13 71.1134 172.786L70.3568 171.753L69.6002 170.72L69.2219 170.169L68.8436 169.618L68.1626 168.586L67.4816 167.553C67.0276 166.864 66.5737 166.107 66.1197 165.419C65.6658 164.661 65.2874 163.973 64.8334 163.215L64.2282 162.114L63.9255 161.563L63.6229 161.012C63.2446 160.255 62.8662 159.497 62.4879 158.809C62.3366 158.465 62.1097 158.051 61.9583 157.707L61.4286 156.606C60.7477 155.091 60.1424 153.576 59.5371 151.993C59.2344 151.235 59.0075 150.409 58.7048 149.652L57.9482 147.311C57.7212 146.553 57.4942 145.727 57.2672 144.97L56.662 142.56L56.3593 141.389C56.2837 140.976 56.1323 140.632 56.0567 140.219C55.9053 139.393 55.6784 138.635 55.5271 137.809L54.9974 135.399L54.7704 134.16C54.6948 133.747 54.6191 133.334 54.5434 132.921C54.3921 132.095 54.2408 131.268 54.0895 130.511L53.7112 128.032C53.2572 124.727 53.1058 121.423 53.4085 118.049C53.4085 117.636 53.4841 117.223 53.4841 116.81L53.6355 115.57L53.7868 114.331C53.8625 113.918 53.9382 113.505 54.0138 113.092L54.2408 111.852L54.3921 111.233L54.5434 110.613C54.7704 109.787 54.9218 108.961 55.1488 108.203C56.0567 104.967 57.1916 101.8 58.5535 98.7017L59.6127 96.3608C59.9911 95.6034 60.3694 94.8461 60.7477 94.0887C60.9747 93.7445 61.126 93.3314 61.353 92.9871L61.9583 91.8855L62.5636 90.7839C62.7906 90.4396 62.9419 90.0265 63.2446 89.6822L64.6065 87.479C64.6822 87.2725 64.8334 87.1347 64.9091 86.9282L65.2874 86.3774L65.9684 85.2758C66.8763 83.8299 67.86 82.4529 68.8436 81.007C69.0705 80.6627 69.3732 80.3185 69.6002 79.9742L70.3568 78.9414L71.1134 77.9087L71.4917 77.3579L71.87 76.8759L73.4589 74.8104C73.9886 74.1219 74.5182 73.4333 75.0478 72.7448C75.5774 72.0563 76.1071 71.3678 76.6367 70.6793L78.3013 68.6826C79.3606 67.3056 80.5712 65.9974 81.6305 64.6892C82.7654 63.3122 83.9003 62.004 85.0353 60.6959L85.4892 60.2139C85.6405 60.0762 85.7918 59.8696 85.9432 59.7319L86.7754 58.6992C87.3807 58.0107 87.9104 57.3222 88.5157 56.7025C89.6506 55.3943 90.8612 54.0173 91.9205 52.6403C93.0554 51.2632 94.1903 49.9551 95.3253 48.5092L95.4009 48.4404C96.1575 47.4076 95.8549 46.0306 94.7199 45.3421C93.812 44.7913 92.7528 44.8601 91.9205 45.3421C90.3316 46.3748 88.8184 47.4076 87.3051 48.5781C85.7919 49.7485 84.3543 50.8502 82.9167 52.0895C82.2357 52.7091 81.5547 53.3288 80.7981 53.9485L79.7389 54.9124C79.5876 55.0501 79.3606 55.2566 79.2092 55.3943L78.6796 55.8763C77.9987 56.4959 77.3177 57.1845 76.7124 57.8041L75.7288 58.768C75.4261 59.1123 75.1235 59.4566 74.8209 59.8008C73.5346 61.1778 72.324 62.486 71.1134 63.9319L69.3732 66.0663C68.7679 66.7548 68.2383 67.5121 67.7086 68.2695C66.5737 69.7154 65.5144 71.2301 64.4551 72.7448L64.0768 73.2956L63.6985 73.8464L62.9419 75.0169C62.4879 75.7743 61.9583 76.5317 61.5043 77.3579C60.5963 78.9414 59.6128 80.4562 58.7805 82.1086L58.1752 83.2791L57.8726 83.8987C57.7969 84.1053 57.6456 84.3118 57.5699 84.5184L56.3593 86.9282C56.1323 87.3413 55.981 87.7544 55.754 88.1675L55.2244 89.4068L54.6947 90.6461C54.5434 91.0593 54.3164 91.4724 54.1651 91.8855L53.1815 94.3641L52.2736 96.9116C51.063 100.285 50.0037 103.728 49.1714 107.17C48.7931 108.892 48.3392 110.682 48.0365 112.403C47.9608 112.816 47.8851 113.298 47.8095 113.711L47.5826 115.019L47.3555 116.328C47.2799 116.741 47.2042 117.223 47.1285 117.636C46.5232 121.147 46.0693 124.728 45.691 128.308L45.5396 130.993C45.5396 131.888 45.464 132.783 45.464 133.747C45.464 134.642 45.5396 135.537 45.5396 136.501C45.5396 136.983 45.6153 137.396 45.6153 137.878L45.7666 139.255C45.8423 139.737 45.9179 140.15 45.9179 140.632L46.145 142.009C46.2963 142.904 46.5232 143.799 46.6745 144.694C46.9015 145.589 47.1285 146.484 47.3555 147.38C47.5825 148.275 47.8851 149.101 48.1878 149.996C48.4904 150.891 48.7931 151.717 49.0958 152.612C49.4741 153.438 49.7767 154.334 50.0793 155.16C50.7603 156.881 51.5169 158.533 52.4248 160.186C54.0894 163.491 55.981 166.658 58.0995 169.756C58.6291 170.514 59.1588 171.271 59.7641 172.028L60.5964 173.13L61.5043 174.232L61.9583 174.782L62.4123 175.333L63.3202 176.435C63.9255 177.123 64.5308 177.812 65.2117 178.5C65.5144 178.845 65.8171 179.189 66.1954 179.533L67.1789 180.566C67.4816 180.91 67.8599 181.254 68.1626 181.53C68.4652 181.874 68.8436 182.218 69.2219 182.494C70.5838 183.802 72.097 185.041 73.6102 186.212C75.1235 187.382 76.7124 188.484 78.377 189.516C78.8309 189.792 79.2092 189.998 79.6632 190.274L80.3442 190.618L80.6468 190.825L81.0251 190.962C81.9331 191.444 82.9166 191.857 84.2029 192.202C85.4892 192.546 86.8511 191.857 87.2294 190.687C87.532 189.723 87.0781 188.69 86.1702 188.208V187.864Z" fill="#E52526"/>
<path d="M49.095 181.461C48.7923 181.116 48.4896 180.703 48.2626 180.359C47.96 180.015 47.733 179.602 47.4304 179.189C46.9007 178.431 46.3711 177.605 45.8415 176.848C44.7822 175.264 43.7986 173.68 42.8906 172.028C41.0747 168.723 39.4102 165.349 37.9726 161.976C37.2916 160.254 36.6107 158.533 36.0054 156.812C35.4001 155.091 34.8705 153.3 34.3409 151.51C33.3573 147.999 32.5249 144.419 31.9953 140.77C30.936 133.54 30.6334 126.242 31.4657 119.013C31.844 115.432 32.4493 111.783 33.3572 108.272C34.1895 104.76 35.3245 101.249 36.6107 97.8064L37.0647 96.4982C37.216 96.0851 37.443 95.672 37.5943 95.19L38.124 93.8819L38.6536 92.6426C38.8049 92.2295 39.0319 91.8163 39.1832 91.4032L39.7885 90.1639C40.1668 89.3377 40.6208 88.4426 40.9991 87.6164C42.588 84.2427 44.3283 80.9378 46.1441 77.633C47.96 74.3281 49.8516 71.0921 51.8944 67.925C52.878 66.3414 53.9373 64.7578 55.0722 63.2431C56.1315 61.6595 57.2664 60.1448 58.4014 58.6301C59.5363 57.1153 60.6712 55.6006 61.8818 54.1547C63.0924 52.7089 64.303 51.263 65.5892 49.8171C68.0861 46.9942 70.7342 44.2401 73.6094 41.6238C76.4089 39.0075 79.3598 36.5288 82.4619 34.2567C84.0508 33.1551 85.6397 32.0535 87.2286 31.0207C88.0608 30.5388 88.8932 29.9879 89.7254 29.5748C90.1794 29.3683 90.5577 29.0929 91.0117 28.8863C91.2387 28.7486 91.4657 28.6798 91.617 28.5421L91.9197 28.4044L92.2223 28.2667C93.2059 27.8536 93.5842 26.7519 93.0546 25.9257C92.6006 25.1684 91.617 24.7553 90.7847 25.0307H90.7091L90.255 25.1684L89.8767 25.3061C89.5741 25.3749 89.3471 25.4438 89.1201 25.5815C88.5905 25.788 88.1365 25.9257 87.6069 26.1323C86.6233 26.4765 85.6397 26.8896 84.6561 27.3028C82.6889 28.1978 80.873 29.0929 79.0571 30.1256C77.2412 31.1584 75.4253 32.26 73.7608 33.3617C72.0206 34.5321 70.3559 35.7026 68.6914 36.9419C62.1088 41.9681 56.3585 47.7515 51.1378 53.8793C49.8516 55.394 48.5653 56.9776 47.3547 58.5612C46.1441 60.1448 44.9336 61.7972 43.7986 63.3808C43.1933 64.207 42.6636 65.0332 42.134 65.8594C41.6044 66.6856 41.0748 67.5118 40.5451 68.3381C40.0155 69.1643 39.4859 69.9905 38.9562 70.8856L38.1996 72.1249L37.443 73.4331C35.4758 76.8756 33.6599 80.3182 31.9196 83.8296C31.4657 84.7246 31.0874 85.6197 30.7091 86.446L30.1037 87.7541C29.8767 88.1672 29.7255 88.6492 29.4985 89.1311L28.8932 90.5082L28.3636 91.8852C28.2122 92.3671 27.9852 92.7803 27.8339 93.2622L27.3043 94.7081C26.6233 96.5671 26.018 98.4949 25.4884 100.423C25.1857 101.387 24.9587 102.351 24.7317 103.315C24.5804 103.796 24.5048 104.278 24.3534 104.76C24.2021 105.242 24.1264 105.724 24.0508 106.206C23.8238 107.17 23.6725 108.134 23.5212 109.167C23.4455 109.649 23.3698 110.131 23.2942 110.613L23.0672 112.059L22.9916 112.816L22.9158 113.573L22.7645 115.088C22.6889 115.57 22.6889 116.052 22.6133 116.603C22.5376 117.085 22.5375 117.567 22.5375 118.118C22.4619 119.081 22.3862 120.114 22.3862 121.078C22.3106 122.042 22.3863 123.075 22.3106 124.039C22.3106 126.035 22.3863 128.032 22.6133 129.96C22.7646 131.957 22.9915 133.884 23.2942 135.881C23.5968 137.809 23.9751 139.806 24.4291 141.733C26.245 149.445 29.1201 156.881 33.0546 163.766C35.0218 167.208 37.1404 170.513 39.6372 173.68C40.8478 175.264 42.134 176.779 43.496 178.293C44.1769 179.051 44.8578 179.739 45.5388 180.497C45.9171 180.841 46.2198 181.185 46.5981 181.529C46.9764 181.874 47.3547 182.218 47.733 182.562L47.8087 182.631C48.2626 182.975 48.9436 182.975 49.3219 182.631C49.3976 182.356 49.3976 181.805 49.095 181.461Z" fill="#E52526"/>
<path d="M17.6198 160.325V160.256V160.187L17.5442 159.981L17.3929 159.568C17.3172 159.292 17.1659 159.086 17.0902 158.81C16.8632 158.259 16.6362 157.777 16.4849 157.227C16.1066 156.194 15.7283 155.092 15.3499 153.991C14.5933 151.856 13.988 149.653 13.3827 147.45C12.2478 143.112 11.4156 138.637 10.886 134.23C10.8103 133.68 10.7346 133.129 10.7346 132.578L10.5833 130.925L10.4319 129.273L10.3563 127.621C10.3563 127.07 10.2806 126.519 10.2806 125.968C10.2806 125.417 10.2806 124.867 10.205 124.316C10.205 123.765 10.1293 123.214 10.1293 122.663L10.0536 121.011C9.97794 119.909 9.90235 118.739 9.75103 117.637C9.67537 117.086 9.59965 116.536 9.59965 115.916L9.44836 114.195C9.29704 111.923 9.22137 109.65 9.44836 107.378C9.52402 106.828 9.59963 106.277 9.67529 105.657C9.75095 105.106 9.9023 104.555 9.97796 104.005C10.2049 102.903 10.5076 101.801 10.7346 100.631C10.8859 100.08 11.0372 99.5293 11.1885 98.9785C11.3399 98.4277 11.4912 97.8769 11.7182 97.3261C11.8695 96.7753 12.0965 96.2245 12.2478 95.6737L12.8532 94.0213C14.5177 89.6836 16.6362 85.5525 18.7547 81.4214C19.8897 79.3559 20.949 77.3593 22.0839 75.2937C22.3865 74.8118 22.6135 74.2609 22.9161 73.779L23.7485 72.2642C24.2781 71.2315 24.8834 70.2676 25.413 69.2348C25.9427 68.202 26.5479 67.1693 27.0776 66.1365C27.6072 65.1037 28.1369 64.071 28.6665 63.0382C29.1962 62.0054 29.7258 60.9726 30.1798 59.871C30.7094 58.7694 31.1633 57.7366 31.6173 56.5662V56.4973C32.0713 55.3269 31.3146 54.0187 30.0284 53.6056C29.1205 53.3302 28.2126 53.5367 27.5316 54.0876C26.548 54.9138 25.5643 55.7399 24.7321 56.635C23.8241 57.5301 22.9918 58.494 22.1595 59.3891C21.7812 59.871 21.3273 60.353 20.949 60.835C20.5706 61.3169 20.1923 61.7989 19.814 62.2808C19.4357 62.7628 19.0574 63.3136 18.7547 63.7956L18.2251 64.5529C18.0738 64.8283 17.8469 65.0349 17.6955 65.3103C17.0146 66.3431 16.3335 67.3758 15.7283 68.4774L14.8203 70.061C14.5177 70.6118 14.2151 71.1626 13.9881 71.7134C12.8532 73.9167 11.8696 76.1199 10.886 78.392C10.659 78.9428 10.432 79.5625 10.205 80.1133C9.97799 80.6641 9.75097 81.2838 9.59965 81.8346C9.22134 83.0051 8.76736 84.1067 8.46472 85.2771C7.7081 87.6181 7.10282 89.959 6.49752 92.3C5.89223 94.6409 5.36263 96.9818 4.83299 99.3228L4.45468 101.113L4.22766 102.008L4.07637 102.903C3.84939 104.073 3.6224 105.244 3.31975 106.414C2.79012 108.755 2.18479 111.165 1.57949 113.506L1.12554 115.296C0.974211 115.916 0.89855 116.536 0.747225 117.086C0.595901 117.706 0.520222 118.326 0.444559 118.945C0.368896 119.221 0.368935 119.565 0.293272 119.84L0.217535 120.736C0.141874 121.355 0.141891 121.975 0.141891 122.594C0.141891 123.214 0.141891 123.834 0.141891 124.453C0.217554 125.693 0.293253 126.932 0.368916 128.103C0.444578 128.722 0.44454 129.342 0.520203 129.962L0.747225 131.821L1.04989 133.68C1.12556 134.299 1.2768 134.919 1.35247 135.47C2.26041 140.289 3.69804 145.04 5.66526 149.653C5.89224 150.204 6.19489 150.823 6.42188 151.374C6.72453 151.925 6.95149 152.476 7.25414 153.027C7.78378 154.128 8.38909 155.23 9.07005 156.332C9.67535 157.433 10.3563 158.466 11.1129 159.499C11.4912 160.05 11.8695 160.532 12.2478 161.013C12.4748 161.289 12.6262 161.495 12.8532 161.771C12.9288 161.909 13.0802 162.046 13.1558 162.184L13.5341 162.597C14.3664 163.492 15.8039 163.699 16.7875 162.941C17.3928 162.528 17.6955 161.84 17.6955 161.151L17.6198 160.325Z" fill="#E52526"/>
<path d="M352.5 175.607C352.273 175.332 351.97 175.056 351.743 174.712C351.516 174.368 351.214 174.092 350.987 173.748C350.76 173.404 350.533 173.128 350.306 172.784L349.625 171.82C349.398 171.476 349.171 171.132 348.944 170.856C348.868 170.719 348.717 170.512 348.641 170.374L348.339 169.892C348.112 169.548 347.96 169.204 347.733 168.86C347.506 168.515 347.355 168.171 347.128 167.827L346.523 166.794C346.371 166.45 346.144 166.106 345.993 165.761L345.463 164.729C345.312 164.384 345.161 164.04 345.009 163.627C344.707 162.938 344.328 162.25 344.026 161.493L343.118 159.358C342.588 157.912 341.983 156.466 341.529 154.952L341.151 153.85C340.999 153.506 340.924 153.093 340.772 152.748L340.47 151.647L340.091 150.545C340.016 150.201 339.864 149.788 339.789 149.444C339.713 149.031 339.637 148.686 339.486 148.273L338.881 146.001C338.654 145.244 338.502 144.486 338.275 143.729L337.973 142.558C337.897 142.145 337.746 141.801 337.67 141.388C337.443 140.631 336.611 140.218 335.779 140.424C335.325 140.562 334.946 140.837 334.795 141.25L334.644 141.663C334.265 142.49 334.038 143.385 333.811 144.211C333.584 145.037 333.433 145.932 333.282 146.758C333.206 147.172 333.206 147.585 333.206 148.067C333.206 148.48 333.13 148.893 333.13 149.375C333.13 150.27 333.131 151.096 333.206 151.922C333.282 152.748 333.357 153.644 333.509 154.47C333.584 154.883 333.66 155.296 333.736 155.709C333.811 156.122 333.963 156.535 334.038 156.948C334.417 158.601 335.022 160.253 335.703 161.906C337.141 165.142 339.108 168.171 341.68 170.856C342.286 171.545 343.042 172.164 343.723 172.784C344.404 173.404 345.236 173.955 345.993 174.505C346.447 174.781 346.825 174.987 347.279 175.263C347.733 175.469 348.187 175.745 348.566 175.951C349.019 176.158 349.473 176.364 349.927 176.502C350.457 176.64 350.911 176.846 351.516 176.915H351.668C352.122 176.984 352.651 176.709 352.727 176.296C352.727 176.02 352.651 175.745 352.5 175.607Z" fill="#E52526"/>
<path d="M88.2883 78.3915C88.2126 79.2177 88.0613 80.0439 87.91 80.8701C87.7587 81.6964 87.683 82.5226 87.5317 83.4177L87.1534 85.9652C87.002 86.7914 86.8507 87.6176 86.6994 88.4438C86.3968 90.0962 86.0942 91.7486 85.7915 93.4699L85.2618 95.9486L85.0349 97.1879L84.7322 98.4272C84.5809 99.2534 84.3539 100.08 84.2025 100.906C83.9755 101.732 83.8243 102.558 83.6729 103.384C83.446 104.211 83.2946 105.037 83.0676 105.863L82.4624 108.342C82.2354 109.168 82.0084 109.994 81.7814 110.82C81.5544 111.647 81.3274 112.473 81.1004 113.23L80.7221 114.47L80.3438 115.709L79.9655 116.948L79.8142 117.568L79.5872 118.188C78.6036 121.424 77.4686 124.591 76.258 127.758C75.1231 130.925 73.6856 134.023 72.248 137.053L71.1131 139.325C70.7347 140.082 70.3564 140.84 69.9781 141.597L69.3728 142.699L68.7676 143.8C68.3136 144.558 67.9352 145.315 67.4812 146.003L66.195 148.207L65.8924 148.757L65.514 149.308C65.2871 149.653 65.0601 149.997 64.8331 150.41L64.1521 151.512C63.9251 151.856 63.6981 152.2 63.3955 152.544L61.958 154.679C61.4283 155.505 61.6553 156.538 62.5632 157.088C63.2442 157.502 64.0765 157.433 64.6818 157.02L64.9845 156.813C65.8167 156.262 66.5733 155.711 67.33 155.161L67.9352 154.747L68.2379 154.541L68.5405 154.334C68.9188 154.059 69.2215 153.715 69.5998 153.37C69.9781 153.026 70.2808 152.751 70.6591 152.407L71.1887 151.925L71.7183 151.443C72.3993 150.754 73.0046 150.066 73.6856 149.377C73.8369 149.239 73.9882 149.033 74.1395 148.826L74.5935 148.275L75.5014 147.174C75.804 146.83 76.1068 146.485 76.4094 146.072L77.2417 144.971C77.5443 144.626 77.8469 144.213 78.0739 143.869C78.3766 143.525 78.6035 143.112 78.9062 142.767C79.4358 142.01 79.9655 141.253 80.4194 140.426C84.3539 134.161 87.2291 127.482 89.2719 120.597C90.2556 117.155 91.0878 113.712 91.6931 110.201L92.0714 107.584C92.1471 107.171 92.2228 106.689 92.2228 106.276L92.3741 104.968C92.6011 103.247 92.6767 101.457 92.7524 99.6665C92.9037 96.1551 92.828 92.6437 92.5254 89.0635C92.4497 88.6504 92.4497 88.1684 92.3741 87.7553C92.2984 87.3422 92.2984 86.8602 92.2228 86.4471C92.0715 85.5521 91.9957 84.657 91.7687 83.8307C91.4661 82.0406 91.0878 80.3193 90.4825 78.5981L90.4069 78.3915C90.2556 77.9096 89.6502 77.5653 89.1206 77.7718C88.5909 77.703 88.2883 78.0473 88.2883 78.3915Z" fill="#E52526"/>
</svg>
