<svg width="464" height="533" viewBox="0 0 464 533" fill="none" xmlns="http://www.w3.org/2000/svg">
<path d="M201.823 179.53C208.147 176.182 214.472 172.462 220.238 168.556C226.19 164.649 231.585 160.185 236.607 155.535C241.629 150.884 246.094 145.676 249.814 140.096C253.72 134.515 257.254 128.935 261.533 122.797C262.277 121.681 263.765 121.494 264.881 122.239C265.439 122.611 265.811 123.355 265.811 124.099C266.369 132.097 263.765 140.096 259.673 146.792C257.626 150.14 255.022 153.303 252.418 156.279C249.814 159.255 247.024 161.859 243.862 164.463C237.909 169.486 231.213 173.392 224.33 176.74C220.796 178.414 217.262 179.716 213.728 181.018C210.193 182.134 206.473 183.251 202.567 183.809C201.451 183.995 200.521 183.251 200.335 182.134C200.521 180.832 200.893 179.902 201.823 179.53Z" fill="#FF0613"/>
<path d="M102.49 177.671C102.676 174.694 103.234 171.904 103.979 169.114C104.723 166.324 105.466 163.534 106.583 160.929C108.629 155.535 111.233 150.327 114.581 145.49C117.743 140.654 121.836 136.004 126.486 132.284C127.788 131.353 128.904 130.609 130.206 129.679C131.508 128.935 132.81 128.377 134.298 127.633C135.042 127.261 135.6 127.075 136.344 126.703C137.089 126.517 137.833 126.331 138.577 126.145C140.065 125.773 141.553 125.587 143.041 125.401C144.157 125.401 145.087 126.145 145.273 127.261C145.273 127.819 145.087 128.377 144.715 128.749L144.529 128.935C140.623 133.214 136.717 136.19 132.996 139.724C129.276 143.072 125.556 146.792 122.394 150.885C119.231 154.977 116.255 159.441 113.465 164.092C110.675 168.742 108.257 173.578 105.839 178.415C105.467 179.159 104.536 179.531 103.606 179.159C102.676 178.973 102.304 178.229 102.49 177.671Z" fill="#FF0613"/>
<path d="M161.646 76.6653L170.947 58.0641C173.923 51.9257 176.899 45.7873 179.503 39.4628C180.805 36.3006 182.107 33.3244 183.037 30.1622C184.153 27 185.083 23.8378 186.013 20.8616C187.874 14.5372 189.548 8.77081 190.85 2.07437V1.88841C191.036 0.586322 192.338 -0.157727 193.64 0.0282855C194.384 0.214298 194.942 0.586277 195.314 1.14431C197.36 4.67855 198.104 8.5848 198.476 12.305C198.662 16.2113 198.29 19.9316 197.546 23.6518C195.872 30.9063 193.082 37.7887 189.734 44.2992C186.385 50.8096 182.665 56.948 178.573 62.7144C174.481 68.4808 169.83 74.0612 164.808 79.0835C164.064 79.8275 162.762 79.8275 162.018 79.0835C161.274 78.3394 161.088 77.4093 161.646 76.6653Z" fill="#FF0613"/>
<path d="M271.764 303.414C271.02 297.276 270.09 291.323 268.973 285.371C267.671 279.418 266.183 273.838 264.137 268.258C262.091 262.863 259.487 257.655 256.511 253.005C255.023 250.587 253.535 248.354 251.86 245.936C250.372 243.518 248.512 241.1 247.024 238.31V238.124C246.28 237.008 246.838 235.52 247.954 234.775C248.512 234.403 249.07 234.403 249.814 234.589C256.697 236.264 262.277 240.914 266.369 246.494C270.461 252.075 273.066 258.399 275.112 264.909C276.972 271.42 277.902 277.93 278.088 284.441C278.274 290.951 277.716 297.462 276.042 303.786C275.856 304.902 274.74 305.46 273.624 305.274C272.322 304.902 271.764 304.158 271.764 303.414Z" fill="#FF0613"/>
<path d="M69.9394 285.371C69.9394 285.371 70.8694 297.09 84.8203 300.066C90.7727 301.368 96.7251 297.648 97.8412 296.346C98.9573 295.044 104.91 290.208 99.1432 275.699C93.1908 261.19 93.5628 244.821 93.5628 244.635C93.5628 244.449 93.5629 226.777 100.817 214.501C101.747 213.199 103.049 213.385 103.608 213.757C104.166 213.943 105.096 214.501 104.724 216.547C103.98 226.405 100.259 242.03 111.792 269.56C122.767 295.602 111.048 304.717 105.654 309.181C98.7712 314.761 82.4023 317.737 71.4276 306.391C60.4528 295.044 66.7772 284.069 66.7772 284.069C67.3353 283.325 69.7534 282.953 69.9394 285.371Z" fill="#FF0613"/>
<path d="M66.219 332.804C66.219 332.804 95.795 353.824 122.767 337.827C149.739 321.829 144.344 292.998 141.182 278.489C137.834 263.98 122.767 217.105 130.765 191.063C138.764 165.021 167.224 158.325 171.688 157.209C176.152 156.093 176.896 158.697 176.896 158.697C176.896 158.697 178.012 160.929 173.92 162.789C164.992 167.439 135.415 177.67 142.67 216.175C149.924 254.679 181.175 311.227 143.6 345.081C106.026 378.935 70.3113 350.289 61.3827 343.965C52.6402 337.641 40.7354 320.527 40.7354 320.527C40.7354 320.527 38.8753 317.737 40.7354 316.249C42.7815 314.575 45.7577 317.551 45.7577 317.551C45.7577 317.551 59.1505 329.084 66.219 332.804Z" fill="#FF0613"/>
<path d="M30.1323 362.566C28.0861 361.264 25.11 363.124 27.1561 366.473C27.1561 366.473 41.293 388.05 86.1219 404.977C130.951 421.904 173.92 405.535 196.613 364.24C219.307 322.76 194.195 264.724 186.197 238.682C181.546 221.383 180.616 215.431 183.034 208.362C184.337 205.014 184.895 203.898 183.406 202.782C181.918 201.666 180.616 202.596 178.942 204.828C166.665 221.569 179.5 255.795 182.848 278.303C188.057 307.507 195.311 349.173 161.829 376.331C146.576 388.608 127.045 394.188 107.513 392.328C86.866 390.096 60.8243 381.726 30.1323 362.566Z" fill="#FF0613"/>
<path d="M61.5693 426.925C61.5693 426.925 146.763 466.36 200.893 409.998C240.699 367.774 226.934 297.647 226.004 290.764C224.888 284.068 221.54 269.931 225.074 268.443C228.05 267.327 229.538 271.419 231.585 277C233.631 282.208 274.553 381.538 202.38 435.296C139.508 482.171 66.5917 441.806 54.687 434.924C41.6661 428.042 33.1095 422.461 35.1557 418.369C37.5738 414.463 41.666 418.183 61.5693 426.925Z" fill="#FF0613"/>
<path d="M106.211 481.242C106.211 481.242 156.434 495.565 208.332 463.757C233.629 447.202 249.626 424.136 249.626 424.136C251.858 420.974 253.532 418.184 256.137 419.3C258.741 420.416 257.811 423.95 256.695 426.926C253.533 434.925 239.023 477.708 185.266 494.449C148.994 504.866 122.952 498.169 101.189 485.892C97.4683 483.846 98.9562 481.8 98.9562 481.8C98.9562 481.8 99.8863 479.382 106.211 481.242Z" fill="#FF0613"/>
<path d="M283.297 368.704L453.87 320.527C458.148 319.411 462.613 321.829 463.729 326.108C464.845 330.386 462.427 334.85 458.148 335.966L287.575 383.957C283.297 385.073 278.833 382.655 277.717 378.377C276.6 374.285 279.019 369.82 283.297 368.704Z" fill="#FF0613"/>
<path d="M300.596 363.683C302.456 408.326 283.669 502.82 184.524 527.001C80.3572 552.485 21.7634 487.381 0 448.318L300.596 363.683Z" fill="#001633"/>
</svg>
