<svg width="21" height="23" viewBox="0 0 21 23" fill="none" xmlns="http://www.w3.org/2000/svg">
<g clip-path="url(#clip0_302_512)">
<path d="M0.947104 0H13.0154C13.5402 0 13.9625 0.414902 13.9625 0.930523V22.0687C13.9625 22.5843 13.5402 22.9992 13.0154 22.9992H0.947104C0.422295 23 0 22.5851 0 22.0695V0.930523C0 0.414902 0.422295 0 0.947104 0Z" fill="#001633"/>
<path d="M13.9633 3.85596H20.0269C20.2855 3.85596 20.5326 3.95668 20.7154 4.13632C20.8983 4.31596 21.0008 4.55873 21.0008 4.81279V15.7994C21.0008 16.3278 20.5647 16.7555 20.0277 16.7555H13.964V3.85596H13.9633Z" fill="#27AE60"/>
<path d="M12.1915 1.91675H1.77103V6.52351H12.1915V1.91675Z" fill="#001633"/>
<path d="M12.1915 8.67383H8.49258V10.5679H12.1915V8.67383Z" fill="#E43C53"/>
<path d="M12.1915 12.1201H8.49258V14.0135H12.1915V12.1201Z" fill="#69B921"/>
<path d="M12.1915 15.5664H8.49258V20.9692H12.1915V15.5664Z" fill="#FBBE2C"/>
<path d="M3.62085 8.67383H1.69299V10.5679H3.62085V8.67383Z" fill="#F5F5F5"/>
<path d="M6.98159 8.67383H5.05372V10.5679H6.98159V8.67383Z" fill="#F5F5F5"/>
<path d="M3.62085 12.1201H1.69299V14.0135H3.62085V12.1201Z" fill="#F5F5F5"/>
<path d="M6.98159 12.1201H5.05372V14.0135H6.98159V12.1201Z" fill="#F5F5F5"/>
<path d="M3.62085 15.5664H1.69299V17.4605H3.62085V15.5664Z" fill="#F5F5F5"/>
<path d="M6.98159 15.5664H5.05372V17.4605H6.98159V15.5664Z" fill="#F5F5F5"/>
<path d="M3.62085 19.075H1.69299V20.9691H3.62085V19.075Z" fill="#F5F5F5"/>
<path d="M6.98159 19.075H5.05372V20.9691H6.98159V19.075Z" fill="#F5F5F5"/>
<path d="M18.809 3.85596H17.2146V16.7555H18.809V3.85596Z" fill="#547982"/>
</g>
<defs>
<clipPath id="clip0_302_512">
<rect width="21" height="23" fill="white"/>
</clipPath>
</defs>
</svg>
