<svg width="29" height="9" viewBox="0 0 29 9" fill="none" xmlns="http://www.w3.org/2000/svg">
<g clip-path="url(#clip0_302_507)">
<path d="M11.8542 0L10.3981 8.98275H12.7252L14.1788 0H11.8542ZM18.8716 3.65841C18.059 3.26041 17.5608 2.99179 17.5608 2.58393C17.5707 2.21427 17.982 1.83475 18.9014 1.83475C19.6568 1.81627 20.2122 1.99247 20.6334 2.16744L20.8446 2.26109L21.1602 0.381982C20.7005 0.205778 19.9724 0.0110898 19.0716 0.0110898C16.7743 0.0110898 15.1567 1.19524 15.1467 2.88951C15.1281 4.1402 16.3047 4.83393 17.1856 5.25041C18.0863 5.67675 18.392 5.954 18.392 6.33352C18.3821 6.91635 17.6639 7.18497 16.9942 7.18497C16.0661 7.18497 15.5679 7.04696 14.8113 6.72289L14.5056 6.58365L14.1801 8.53669C14.7268 8.77697 15.7319 8.99014 16.7743 9C19.2157 9 20.8048 7.83311 20.8247 6.02793C20.8334 5.03724 20.2122 4.27944 18.8716 3.65841ZM27.1239 0.0283406H25.3249C24.7695 0.0283406 24.3483 0.186062 24.1085 0.750411L20.6532 8.98275H23.0947L23.7668 7.20099H26.4977L26.8469 8.99014H29L27.1239 0.0283406ZM24.444 5.40197C24.4912 5.4069 25.3808 2.49274 25.3808 2.49274L26.0902 5.40197H24.444ZM8.45489 0L6.17499 6.10309L5.9265 4.90047C5.50531 3.51177 4.18334 2.00233 2.7098 1.25315L4.79711 8.97412H7.25841L10.9162 0.0012322L8.45489 0Z" fill="#2394BC"/>
<path d="M5.15989 1.15826C4.98222 0.473154 4.41566 0.0110783 3.64659 0.0012207H0.0372735L0 0.167568C2.81539 0.856369 5.17977 2.97452 5.94636 4.96699L5.15989 1.15826Z" fill="#EFC75E"/>
</g>
<defs>
<clipPath id="clip0_302_507">
<rect width="29" height="9" fill="white"/>
</clipPath>
</defs>
</svg>
