<svg width="22" height="14" viewBox="0 0 22 14" fill="none" xmlns="http://www.w3.org/2000/svg">
<g clip-path="url(#clip0_302_502)">
<path d="M8.49756 7C8.49756 4.80318 9.47371 2.84329 11 1.56059C9.83906 0.58504 8.36214 0 6.75122 0C3.02295 0 0 3.13435 0 7C0 10.8656 3.02295 14 6.75122 14C8.36214 14 9.83906 13.415 11 12.4394C9.47371 11.1567 8.49756 9.19682 8.49756 7Z" fill="#EA001B"/>
<path d="M15.2488 0C13.6379 0 12.1595 0.58504 11 1.56059C12.5263 2.84329 13.5025 4.80318 13.5025 7C13.5025 9.19682 12.5263 11.1567 11 12.4394C12.161 13.415 13.6379 14 15.2488 14C18.9771 14 22 10.8656 22 7C22 3.13435 18.9771 0 15.2488 0Z" fill="#F79F1A"/>
<path d="M13.5025 6.99995C13.5025 4.80313 12.5263 2.84325 11 1.56055C9.47373 2.84325 8.49758 4.80313 8.49758 6.99995C8.49758 9.19678 9.47373 11.1567 11 12.4394C12.5263 11.1567 13.5025 9.19678 13.5025 6.99995Z" fill="#FF5F01"/>
</g>
<defs>
<clipPath id="clip0_302_502">
<rect width="22" height="14" fill="white"/>
</clipPath>
</defs>
</svg>
